<?xml version="1.0" encoding="UTF-8" standalone="no"?>
<svg
   xmlns:dc="http://purl.org/dc/elements/1.1/"
   xmlns:cc="http://creativecommons.org/ns#"
   xmlns:rdf="http://www.w3.org/1999/02/22-rdf-syntax-ns#"
   xmlns:svg="http://www.w3.org/2000/svg"
   xmlns="http://www.w3.org/2000/svg"
   xmlns:sodipodi="http://sodipodi.sourceforge.net/DTD/sodipodi-0.dtd"
   xmlns:inkscape="http://www.inkscape.org/namespaces/inkscape"
   width="274.16037mm"
   height="259.44833mm"
   viewBox="0 0 274.16036 259.44833"
   version="1.1"
   id="svg8"
   sodipodi:docname="speech bubble tex.svg"
   inkscape:version="1.0 (4035a4fb49, 2020-05-01)"
   style="enable-background:new"
   inkscape:export-filename="C:\Users\Kate\Documents\#COMMISSIONS\css dinos (tex)\9-speech bubble tex, voting tex\speech bubble tex.png"
   inkscape:export-xdpi="191.99998"
   inkscape:export-ydpi="191.99998">
  <defs
     id="defs2">
    <inkscape:path-effect
       effect="spiro"
       id="path-effect954"
       is_visible="true"
       lpeversion="1" />
    <filter
       inkscape:collect="always"
       style="color-interpolation-filters:sRGB"
       id="filter1794">
      <feBlend
         inkscape:collect="always"
         mode="overlay"
         in2="BackgroundImage"
         id="feBlend1796" />
    </filter>
  </defs>
  <sodipodi:namedview
     id="base"
     pagecolor="#ffffff"
     bordercolor="#666666"
     borderopacity="1.0"
     inkscape:pageopacity="0.0"
     inkscape:pageshadow="2"
     inkscape:zoom="0.70710682"
     inkscape:cx="569.19418"
     inkscape:cy="460.08624"
     inkscape:document-units="mm"
     inkscape:current-layer="layer3"
     showgrid="false"
     inkscape:window-width="3440"
     inkscape:window-height="1373"
     inkscape:window-x="-9"
     inkscape:window-y="-9"
     inkscape:window-maximized="1"
     fit-margin-top="0"
     fit-margin-left="0"
     fit-margin-right="0"
     fit-margin-bottom="0"
     inkscape:document-rotation="0" />
  <metadata
     id="metadata5">
    <rdf:RDF>
      <cc:Work
         rdf:about="">
        <dc:format>image/svg+xml</dc:format>
        <dc:type
           rdf:resource="http://purl.org/dc/dcmitype/StillImage" />
        <dc:title></dc:title>
      </cc:Work>
    </rdf:RDF>
  </metadata>
  <g
     inkscape:groupmode="layer"
     id="layer23"
     inkscape:label="Flat"
     transform="translate(99.633912,87.026389)"
     style="display:inline;opacity:0.997">
    <g
       id="g943"
       inkscape:export-xdpi="96"
       inkscape:export-ydpi="96">
      <path
         sodipodi:nodetypes="cssssasaasasssssssssczzzaccssczzsscsssccc"
         inkscape:connector-curvature="0"
         id="path926"
         d="m 6.6486753,75.323918 c 0,0 -4.0337458,-0.427416 -5.95969754,-1.021662 C -3.4854357,73.014259 -7.504816,71.134749 -11.23041,68.853388 -17.77705,64.844562 -23.379001,59.460331 -29.279769,54.550127 -33.85606,50.74206 -38.051531,46.480743 -42.731644,42.80102 c -2.78539,-2.190002 -6.168323,-4.296802 -9.620646,-5.70428 -3.218777,-1.312259 -6.293635,-2.298683 -10.131483,-2.469011 -3.3761,-0.149845 -6.054163,0.129313 -8.939537,0.936517 -4.352281,1.217564 -8.68737,3.021458 -12.259941,5.789417 -2.596627,2.011815 -6.994829,6.222616 -6.300235,7.577327 0.925645,1.805351 5.778171,-0.762614 8.684126,-0.766251 2.990772,-0.0036 6.072642,0.04442 8.939541,0.766247 3.521344,0.886612 6.956603,2.43815 9.876064,4.597476 3.069667,2.270422 5.402459,5.436509 7.662462,8.513854 3.630025,4.942838 6.204325,10.580524 9.365231,15.835751 3.532248,5.872605 6.804614,11.919312 10.72745,17.538529 3.191644,4.571832 6.697407,8.930904 10.386894,13.111314 2.894894,3.2801 5.843283,6.55353 9.194955,9.36524 2.689702,2.25639 5.653465,4.18744 8.6841233,5.9597 3.2211216,1.88363 6.59410186,3.5218 10.0463445,4.93802 1.8266335,0.74935 5.6191415,1.87305 5.6191415,1.87305 0,0 -6.3831716,26.24835 -5.448869,29.11736 0.934303,2.86902 60.7501457,14.32567 62.6533617,12.43022 1.903217,-1.89545 -1.719546,-7.08706 -3.396982,-10.21661 -1.677436,-3.12956 -4.024779,-5.37318 -6.30025,-7.83275 -1.79969,-1.94529 -5.789411,-5.44887 -5.789411,-5.44887 l 3.916367,-6.6408 c 0,0 5.999755,1.14502 9.024683,1.02167 3.525724,-0.14377 7.018122,-0.99318 10.386886,-2.04333 2.718014,-0.84729 7.832741,-3.40553 7.832741,-3.40553 0,0 15.169151,22.835 17.027701,23.15766 1.858556,0.32266 43.016506,-21.67733 43.420626,-22.81711 0.40412,-1.13979 -0.89058,-2.52937 -2.2136,-3.23526 -3.23593,-1.7265 -7.21899,-2.27848 -10.81258,-2.59673 -2.49023,-0.22054 -7.23678,-0.12767 -7.23678,-0.12767 0,0 0.12378,-8.24691 -0.6811,-12.25994 -0.56837,-2.83383 -1.57813,-5.60034 -2.89472,-8.17331 -1.22642,-2.39676 -2.80455,-4.63233 -4.59747,-6.6408 -1.2054,-1.35032 -4.08665,-3.57582 -4.08665,-3.57582 l 0.29798,-4.342053 z"
         style="display:inline;fill:#36244b;fill-opacity:1;stroke:none;stroke-width:0.963232px;stroke-linecap:butt;stroke-linejoin:miter;stroke-opacity:1;enable-background:new" />
      <path
         sodipodi:nodetypes="cccaaaaaacssscc"
         inkscape:connector-curvature="0"
         id="path918"
         d="m 53.389696,113.12539 1.021662,-4.08664 50.390982,-6.47476 c 0,0 -0.84275,4.3424 -1.64611,6.38997 -0.98892,2.5205 -2.37344,4.88433 -3.863256,7.14515 -1.55502,2.35975 -3.37996,4.53944 -5.26252,6.64715 -1.839325,2.05931 -3.698516,4.14036 -5.874855,5.8396 -3.344755,2.61151 -7.021613,4.85288 -10.896565,6.58267 -3.404329,1.51971 -6.992091,2.85064 -10.697069,3.26552 -3.495336,0.39141 -6.833454,0.74345 -10.523247,-0.77227 0,0 1.101998,-3.45055 1.324444,-5.23757 0.292482,-2.34982 0.268855,-4.75121 0,-7.10384 -0.222184,-1.94419 -0.731346,-3.85439 -1.324444,-5.71919 -0.70687,-2.22251 -2.649022,-6.47577 -2.649022,-6.47577 z"
         style="display:inline;fill:#c3abdf;fill-opacity:1;stroke:none;stroke-width:0.963232px;stroke-linecap:butt;stroke-linejoin:miter;stroke-opacity:1;enable-background:new" />
      <path
         sodipodi:nodetypes="ccsssscc"
         inkscape:connector-curvature="0"
         id="path920"
         d="m 11.438839,118.2694 -1.334241,8.49579 c 0,0 -4.7547547,-1.31627 -6.9834302,-2.34787 -4.1257101,-1.90971 -8.0195929,-4.34626 -11.6791873,-7.04364 -3.9587105,-2.91785 -7.6303515,-6.24697 -11.0169655,-9.81293 -3.224329,-3.39507 -5.987789,-7.20531 -8.789492,-10.956755 -1.512045,-2.024611 -4.323254,-6.227152 -4.323254,-6.227152 z"
         style="display:inline;opacity:0.98;fill:#c3abdf;fill-opacity:1;stroke:none;stroke-width:0.963232px;stroke-linecap:butt;stroke-linejoin:miter;stroke-opacity:1;enable-background:new" />
      <path
         sodipodi:nodetypes="ccsssssssscsssccssssccsssscccsssccaaassssssscsssssssssacc"
         inkscape:connector-curvature="0"
         id="path913"
         d="m 54.411358,109.03875 -1.021662,4.08664 c 0,0 -1.089078,-1.16082 -1.787913,-1.10679 -0.7826,0.0605 -1.459912,0.81937 -1.787901,1.53249 -0.237183,0.51566 -0.114132,1.14677 0,1.70277 0.304205,1.48202 1.302535,2.73883 1.787901,4.17178 0.666875,1.96881 1.2751,3.98214 1.532495,6.04483 0.249488,1.99944 0.174965,4.03751 0,6.04484 -0.185159,2.12419 -0.536954,4.24556 -1.106793,6.30025 -0.633829,2.28542 -1.357117,4.59337 -2.554156,6.6408 -0.966507,1.65312 -3.660952,4.4272 -3.660952,4.4272 0,0 1.36521,1.52984 2.04332,2.29874 1.197249,1.35755 2.367715,2.73875 3.575817,4.08665 1.568485,1.74998 3.303839,3.35509 4.767745,5.19345 1.716278,2.15528 4.682618,6.81107 4.682618,6.81107 l -4.682618,-0.76625 c 0,0 -3.938516,-7.48253 -7.151628,-10.04634 -0.576763,-0.46021 -1.312674,-0.95433 -2.043323,-0.85138 -0.539819,0.0761 -1.086832,0.51078 -1.277073,1.02166 -0.27195,0.73028 0.130551,1.57752 0.425691,2.29874 1.037422,2.53512 4.597476,6.81107 4.597476,6.81107 l -4.256916,-0.93652 c 0,0 -1.620258,-3.8955 -2.809574,-5.61913 -0.83267,-1.20676 -1.232473,-2.60063 -2.554153,-3.23527 -0.743668,-0.3571 -1.849121,-0.7146 -2.469014,-0.17027 -0.734935,0.64535 0.106486,2.49225 0.681101,3.57582 0.832961,1.57078 2.554153,4.68261 2.554153,4.68261 l -33.0337307,-7.23677 8.5989947,-45.3788 c 0,0 0.06087,-1.58417 -0.340574,-2.21361 -0.275118,-0.43135 -0.768006,-0.80038 -1.277073,-0.85138 -0.671214,-0.0672 -1.399181,0.28615 -1.873054,0.76624 -0.707096,0.71638 -1.106793,2.80958 -1.106793,2.80958 l -1.424927,6.33593 c -6.3634677,-0.79845 -12.08603044,-3.73859 -17.7664933,-6.46874 -5.0046217,-2.40534 -9.8662027,-5.22695 -14.2284577,-8.66243 -3.85577,-3.03661 -7.341921,-6.585669 -10.391172,-10.431449 -3.68084,-4.642353 -6.36677,-9.940175 -9.400501,-15.084125 -2.576775,-4.36914 -4.822608,-8.937269 -7.577323,-13.19646 -1.865147,-2.883791 -3.816131,-5.730546 -6.044832,-8.343574 -1.692916,-1.984849 -3.476005,-3.930798 -5.534,-5.533996 -1.746985,-1.360918 -3.704009,-2.455289 -5.704279,-3.405538 -2.100266,-0.99775 -4.281348,-1.900031 -6.555661,-2.383883 -2.365324,-0.503217 -4.824604,-0.682332 -7.236774,-0.510829 -1.476907,0.104994 -4.342062,0.93652 -4.342062,0.93652 0,0 4.751152,-2.939889 7.321909,-4.001505 3.005007,-1.240948 6.126461,-2.44095 9.365235,-2.724433 2.872298,-0.251417 5.798607,0.250107 8.598985,0.936531 3.106986,0.761573 6.186676,1.86123 8.939541,3.490672 3.311407,1.960046 5.940319,4.894015 8.854399,7.407043 3.623116,3.124483 7.101385,6.414455 10.72745,9.535516 3.191844,2.747313 6.328741,5.571967 9.705784,8.088152 3.086428,2.299651 6.278852,4.220299 9.620647,6.129974 2.9313401,1.675117 5.8869228,3.421367 9.109821,4.427196 2.4942688,0.778432 5.1365993,1.291966 7.7476033,1.191941 0.873614,-0.03349 2.554156,-0.595967 2.554156,-0.595967 z"
         style="display:inline;fill:#9d68dc;fill-opacity:1;stroke:none;stroke-width:0.963232px;stroke-linecap:butt;stroke-linejoin:miter;stroke-opacity:1;enable-background:new" />
      <path
         sodipodi:nodetypes="caaaacccsssaccasssaccacaac"
         inkscape:connector-curvature="0"
         id="path909"
         d="m 108.72971,104.78183 c 0,0 -1.24137,5.10344 -2.29874,7.49218 -1.15887,2.61805 -2.73257,5.04742 -4.38463,7.38577 -1.62493,2.29995 -3.485646,4.43237 -5.406296,6.4918 -1.7694,1.89725 -3.598778,3.7576 -5.619137,5.38501 -1.891046,1.52325 -6.044832,4.06537 -6.044832,4.06537 l 14.899229,19.58185 18.134506,-8.25844 c 0,0 -2.37023,-1.76756 -3.53022,-2.70938 -0.37713,-0.30621 -0.66462,-1.01676 -0.47128,-1.4624 0.26656,-0.61445 0.79199,-0.83756 1.45208,-0.95113 0.9644,-0.16594 1.7964,0.20518 2.65906,0.46007 1.64851,0.48706 4.74326,2.02355 4.74326,2.02355 l 3.08627,-1.46864 c 0,0 -4.43003,-1.53325 -6.65293,-2.27657 -1.01047,-0.33788 -2.80951,-0.71755 -3.03843,-0.99245 -0.22459,-0.26969 -0.17038,-0.75547 0.0494,-1.05176 0.3724,-0.50192 1.21503,-1.02623 1.65806,-1.11667 0.54681,-0.11162 4.24656,0.47097 6.34495,0.86126 2.23666,0.41601 6.64081,1.57506 6.64081,1.57506 l 4.36335,-2.19232 c 0,0 -5.76742,-1.39865 -8.70542,-1.76662 -2.87571,-0.36016 -8.68412,-0.42569 -8.68412,-0.42569 0,0 0.1777,-7.18757 -0.34057,-10.72745 -0.49759,-3.39874 -1.27507,-6.80876 -2.6393,-9.9612 -1.55435,-3.5918 -6.21509,-9.9612 -6.21509,-9.9612 z"
         style="display:inline;fill:#9d68dc;fill-opacity:1;stroke:none;stroke-width:0.963232px;stroke-linecap:butt;stroke-linejoin:miter;stroke-opacity:1;enable-background:new" />
      <path
         sodipodi:nodetypes="casssasssscaaaaaaszczczczczccaaazssacccc"
         inkscape:connector-curvature="0"
         id="path946"
         d="m 33.157122,34.601496 c 3.845114,-11.086639 6.825915,-19.641573 8.841697,-29.8073175 0.57672,-2.9084374 1.306565,-6.2657632 0.91586,-8.8479189 -0.477532,-3.1570042 -1.956951,-6.1102236 -2.408079,-9.2711086 -0.385772,-2.702945 -0.363692,-5.259581 0.120394,-7.946661 0.737326,-4.09285 1.618477,-7.765751 3.491717,-11.19757 2.156753,-3.951226 5.595496,-7.590047 8.669087,-10.354744 2.072699,-1.864397 5.913594,-3.665197 8.548683,-4.575356 3.331638,-1.150745 4.42349,-1.097793 7.946665,-1.204039 2.092213,-0.06309 4.946843,-0.122177 6.983428,0.361216 1.64612,0.39072 4.695756,1.926465 4.695756,1.926465 0,0 8.336271,-4.295145 12.642418,-6.140604 7.482432,-3.206694 15.153682,-5.975061 22.876762,-8.548687 6.3496,-2.115923 12.60957,-4.948633 19.26464,-5.658983 4.9218,-0.525344 10.13342,-0.538887 14.80969,1.083657 6.08909,2.112752 11.52664,6.209618 16.01373,10.836357 2.61233,2.693633 4.47755,6.091369 6.0202,9.511917 0.94513,2.09565 1.84205,4.324856 1.92647,6.622222 0.14161,3.854503 -1.21835,10.330847 -2.28768,10.956761 -1.06932,0.625915 -9.87313,-4.214139 -9.87313,-4.214139 0,0 -3.5092,11.765239 -5.24934,12.261302 -1.74015,0.496063 -8.25661,-2.121817 -11.4868,-4.555333 0,0 -2.05797,10.14902 -3.73252,10.956766 -1.67456,0.807746 -11.79959,-5.418179 -11.79959,-5.418179 0,0 -0.70109,9.5308624 -2.2111,10.5177164 -1.51001,0.986858 -11.57819,-4.3211894 -11.57819,-4.3211894 0,0 -2.7966,10.1971434 -4.27132,10.9008384 -1.47471,0.7036951 -12.341406,-6.321209 -12.341406,-6.321209 l -4.75596,1.505052 c 0,0 2.28233,2.597526 3.73252,3.4917134 2.075226,1.2795701 4.440766,2.2520514 6.863036,2.5284829 6.63918,0.7576701 13.30539,-1.367384 19.88857,-2.5138769 13.8464,-2.4114174 38.45191,-9.9934138 41.15625,-9.1653098 2.70434,0.828104 3.10839,12.5213906 1.92647,18.6626175 -0.52249,2.7148141 -2.47817,7.3214355 -5.53859,9.1507055 -9.84911,5.887006 -21.00746,9.916125 -32.02746,13.485248 -10.30843,3.338668 -31.666256,7.344643 -31.666256,7.344643 l 3.107156,10.287201 -69.329344,1.271582 z"
         style="display:inline;fill:#36244b;fill-opacity:1;stroke:none;stroke-width:0.963232px;stroke-linecap:butt;stroke-linejoin:miter;stroke-opacity:1;enable-background:new" />
      <path
         sodipodi:nodetypes="casssssssscssssssscsssssscsazaaaaaasscccccc"
         inkscape:connector-curvature="0"
         id="path930"
         d="m 90.254652,36.075078 c -0.155015,-0.738735 -0.185668,-1.537158 0.191567,-2.149744 0.416036,-0.675597 1.315688,-1.189178 2.022041,-1.25579 2.751874,-0.259499 5.239264,-0.235107 7.83275,-0.595971 5.22043,-0.726368 10.3872,-1.850559 15.4952,-3.150123 5.0633,-1.288191 10.02514,-2.953566 14.98437,-4.59748 6.57774,-2.180427 13.20745,-4.263279 19.58185,-6.981359 3.15216,-1.344095 6.41503,-2.593817 9.19496,-4.597476 1.59539,-1.14989 3.22941,-2.445678 4.17179,-4.1717891 0.64016,-1.1725776 0.74961,-2.5843 0.85137,-3.9163633 0.31622,-4.1392093 -0.76624,-12.4302202 -0.76624,-12.4302202 0,0 -22.15518,5.8679805 -33.37429,8.1732934 -7.77827,1.5982866 -15.81859,3.7927225 -23.75363,3.4906833 -3.67978,-0.1400524 -7.414786,-1.030978 -10.727446,-2.6392943 -2.655583,-1.2893013 -5.359945,-2.5810271 -6.72595,-5.0231777 -0.612087,-1.0942907 -0.776164,-2.5703497 -0.340538,-3.7460837 0.467179,-1.260894 1.628831,-2.356055 2.894702,-2.8095734 6.397326,-2.291945 12.994362,-3.828087 19.326452,-6.215112 19.65926,-7.411015 57.80902,-25.115848 57.80902,-25.115848 0,0 -1.91693,-4.594062 -3.40554,-6.555662 -2.51255,-3.310894 -5.73086,-6.093608 -9.10982,-8.51385 -2.59081,-1.855721 -5.40658,-3.501019 -8.42871,-4.512338 -2.45126,-0.820284 -5.07771,-1.217116 -7.66246,-1.191938 -3.7744,0.03677 -7.54308,0.855944 -11.15314,1.958186 -12.77463,3.900414 -24.31522,8.300997 -37.035239,12.941046 -2.408511,0.878584 -6.896221,3.405541 -6.896221,3.405541 0,0 3.262169,2.452745 4.682614,3.916371 1.504182,1.5499 2.459156,3.326676 1.532495,4.682614 -0.577346,0.844799 -1.80419,0.915212 -3.064985,0.170269 -1.260796,-0.744943 -2.669045,-2.476088 -4.171785,-3.490676 -2.656067,-1.793264 -5.394122,-3.66317 -8.478581,-4.532998 -2.790862,-0.787031 -5.794376,-0.751026 -8.684123,-0.510833 -2.622984,0.218033 -5.364491,0.540689 -7.697738,1.758694 -3.749938,1.957548 -6.898336,5.117493 -9.391931,8.53451 -2.488273,3.409724 -4.389193,7.390897 -5.251882,11.522905 -0.725098,3.473005 -0.442091,7.421471 0.170269,10.642308 0.689537,3.6266584 3.004013,7.1889584 2.298749,10.8125914 C 44.386489,13.705691 38.858154,27.879574 35.849922,39.291449 l 12.516618,7.170519 20.518373,4.427196 21.880583,-2.809563 c 0,0 -0.738961,-9.648162 -0.510844,-12.00453 z"
         style="display:inline;fill:#9d68dc;fill-opacity:1;stroke:none;stroke-width:0.963232px;stroke-linecap:butt;stroke-linejoin:miter;stroke-opacity:1;enable-background:new" />
      <path
         sodipodi:nodetypes="cccc"
         inkscape:connector-curvature="0"
         id="path935"
         d="m 104.31837,-9.4405156 5.99246,3.631737 1.90956,-6.4103184 z"
         style="display:inline;fill:#ffffff;fill-opacity:1;stroke:none;stroke-width:0.963232px;stroke-linecap:butt;stroke-linejoin:miter;stroke-opacity:1;enable-background:new" />
      <path
         sodipodi:nodetypes="cccc"
         inkscape:connector-curvature="0"
         id="path937"
         d="m 119.29721,-14.789112 6.20478,2.505537 0.63854,-5.70428 z"
         style="display:inline;fill:#ffffff;fill-opacity:1;stroke:none;stroke-width:0.963232px;stroke-linecap:butt;stroke-linejoin:miter;stroke-opacity:1;enable-background:new" />
      <path
         sodipodi:nodetypes="cccc"
         inkscape:connector-curvature="0"
         id="path939"
         d="m 133.86748,-21.208503 6.4486,3.390932 1.44736,-6.896221 z"
         style="display:inline;fill:#ffffff;fill-opacity:1;stroke:none;stroke-width:0.963232px;stroke-linecap:butt;stroke-linejoin:miter;stroke-opacity:1;enable-background:new" />
      <path
         sodipodi:nodetypes="cccc"
         inkscape:connector-curvature="0"
         id="path941"
         d="m 147.9317,-27.282554 7.66674,3.632993 2.80958,-8.428712 z"
         style="display:inline;fill:#ffffff;fill-opacity:1;stroke:none;stroke-width:0.963232px;stroke-linecap:butt;stroke-linejoin:miter;stroke-opacity:1;enable-background:new" />
      <path
         inkscape:connector-curvature="0"
         id="path943"
         d="m 164.62313,-35.015551 4.93802,2.213603 0.63854,-4.597479 z"
         style="display:inline;fill:#ffffff;fill-opacity:1;stroke:none;stroke-width:0.963232px;stroke-linecap:butt;stroke-linejoin:miter;stroke-opacity:1;enable-background:new" />
      <path
         sodipodi:nodetypes="csssscscccc"
         inkscape:connector-curvature="0"
         id="path922"
         d="m 66.926717,48.93099 c 0,0 0.38255,-1.587999 0.766243,-2.298734 0.979067,-1.813583 2.245619,-3.536278 3.831232,-4.852898 1.972781,-1.638104 4.420742,-2.647628 6.811083,-3.575814 2.079034,-0.807302 4.271515,-1.330629 6.47052,-1.702775 1.796278,-0.303987 4.21285,-0.381935 5.448857,-0.425691 0.171762,0.786343 0.816648,1.266009 1.426078,1.362218 0.61903,0.09771 2.508444,-0.160439 3.256544,-0.276682 l 2.04332,7.683751 -13.366741,4.512338 z"
         style="display:inline;fill:#c3abdf;fill-opacity:1;stroke:none;stroke-width:0.963232px;stroke-linecap:butt;stroke-linejoin:miter;stroke-opacity:1;enable-background:new" />
      <path
         sodipodi:nodetypes="csssssccaaaaascsaaaaccc"
         inkscape:connector-curvature="0"
         id="path907"
         d="m 112.46365,54.623092 c 0,0 4.58829,-1.89626 6.78067,-3.052808 4.07243,-2.148332 10.36498,-6.369384 11.79167,-7.194208 0.72406,-0.418603 1.59047,-0.613479 2.42645,-0.638537 0.50625,-0.01529 1.08281,-0.0033 1.48993,0.29798 0.33682,0.24927 0.54519,0.69087 0.59596,1.1068 0.0692,0.567094 -0.42569,1.660198 -0.42569,1.660198 l -3.74609,6.555661 c 0,0 3.05627,2.528523 4.46977,3.916375 0.60208,0.591158 1.17844,1.211946 1.70276,1.873047 1.44547,1.822545 3.50412,3.465574 3.95895,5.746845 0.13332,0.668683 0.0969,1.562791 -0.4257,2.000754 -0.64202,0.538057 -1.68564,0.224841 -2.51158,0.08515 -1.12505,-0.190256 -2.14042,-0.79333 -3.19269,-1.234507 -1.3646,-0.572126 -4.04408,-1.830478 -4.04408,-1.830478 0,0 -0.0189,4.598779 -0.38313,6.768506 -0.21891,1.303835 -0.20369,2.72124 -0.85138,3.873802 -0.22124,0.393715 -0.54808,0.801637 -0.9791,0.93652 -0.52097,0.163024 -1.15204,0.02949 -1.61762,-0.255422 -1.31687,-0.806119 -1.88308,-2.451452 -2.72443,-3.746091 -1.0358,-1.593841 -1.57705,-2.359954 -2.85214,-4.938028 l -5.57049,2.420347 z"
         style="display:inline;fill:#36244b;fill-opacity:1;stroke:none;stroke-width:0.963232px;stroke-linecap:butt;stroke-linejoin:miter;stroke-opacity:1;enable-background:new" />
      <path
         sodipodi:nodetypes="cscsazcccsssczzcc"
         inkscape:connector-curvature="0"
         id="path902"
         d="m 114.19385,58.134919 c 0,0 4.29115,-1.865889 6.44162,-3.02515 2.40609,-1.297063 7.48009,-4.816157 7.48009,-4.816157 0,0 -2.60023,5.485154 -2.63383,5.809492 -0.0357,0.344142 -0.02,1.223301 0.31607,1.685656 0.33934,0.466622 0.92447,0.86637 1.5201,0.827776 0.59563,-0.03859 1.32445,-0.90303 1.32445,-0.90303 l 1.23414,-1.520098 4.37969,4.996762 c 0,0 -4.33729,-1.17714 -4.78606,-1.1589 -0.34975,0.0142 -1.14146,0.336606 -1.47495,0.948184 -0.31935,0.585661 -0.51979,1.308414 -0.58697,2.423132 -0.11366,1.885749 -0.24082,4.771003 -0.24082,4.771003 0,0 -3.03649,-5.55183 -3.30639,-5.696077 -0.26991,-0.144239 -2.42541,0.388252 -3.7523,0.741765 -1.32688,0.353498 -4.09115,1.432066 -4.09115,1.432066 z"
         style="display:inline;fill:#9d68dc;fill-opacity:1;stroke:none;stroke-width:0.963232px;stroke-linecap:butt;stroke-linejoin:miter;stroke-opacity:1;enable-background:new" />
      <path
         inkscape:connector-curvature="0"
         id="path1034"
         d="m 163.81346,-7.7713216 c 0,0 -22.15348,5.8689783 -33.37259,8.1742911 -7.77827,1.5982903 -15.8203,3.7918779 -23.75533,3.4898387 -0.70437,-0.02694 -1.40953,-0.089594 -2.1146,-0.1711792 1.25424,0.9952386 2.86411,2.1595156 3.13803,2.2142952 0.4257,0.085153 4.99427,0.9111597 7.49138,0.6810435 3.02393,-0.2786486 5.73317,-2.38637 8.76881,-2.4682826 1.68623,-0.045471 3.26446,1.314159 4.93844,1.1062065 3.12356,-0.3880183 5.35645,-3.5710487 8.42828,-4.2574074 2.96469,-0.6624148 6.16795,1.0151778 9.10931,0.2558586 2.64852,-0.6837229 4.42102,-3.4815527 7.06809,-4.1708712 2.3076,-0.6009111 4.87495,0.8808266 7.15087,0.1693225 1.06972,-0.334422 2.41608,-1.3564805 3.45974,-2.2444067 -0.16324,-1.549685 -0.31043,-2.778691 -0.31043,-2.778691 z"
         style="display:inline;fill:#6f5193;fill-opacity:1;stroke:none;stroke-width:0.963232px;stroke-linecap:butt;stroke-linejoin:miter;stroke-opacity:1;enable-background:new" />
      <path
         inkscape:connector-curvature="0"
         id="path1048"
         d="m 126.80617,-59.733173 c -3.06508,0.961385 -6.07343,1.952171 -9.04535,2.966832 0.63543,1.291445 1.75179,3.438434 2.7185,4.552773 0.54315,0.626093 1.16572,1.291202 1.95844,1.53327 0.76193,0.232668 1.69654,0.232013 2.38363,-0.171215 0.93684,-0.549754 1.4702,-1.685202 1.78724,-2.724138 0.50285,-1.647758 0.33788,-4.553087 0.19754,-6.157537 z"
         style="display:inline;fill:#6f5193;fill-opacity:1;stroke:none;stroke-width:0.963232px;stroke-linecap:butt;stroke-linejoin:miter;stroke-opacity:1;enable-background:new" />
      <path
         inkscape:connector-curvature="0"
         id="path1043"
         d="m 115.37156,-55.949854 c -3.74443,1.300609 -7.47018,2.651148 -11.22015,4.020367 0.49425,0.803479 1.44694,2.314811 2.28015,3.205754 0.86885,0.92905 2.12039,1.447899 2.98,2.385504 0.89893,0.980494 1.17481,2.488167 2.21242,3.320516 0.73587,0.590299 1.71465,1.20768 2.63949,1.021552 1.04284,-0.209878 1.81532,-1.266849 2.29895,-2.214302 0.83392,-1.633625 0.75451,-3.614157 0.7657,-5.448282 0.007,-1.11584 -0.0762,-2.260647 -0.42518,-3.320517 -0.28946,-0.879042 -0.94558,-2.024913 -1.53138,-2.970592 z"
         style="display:inline;fill:#6f5193;fill-opacity:1;stroke:none;stroke-width:0.963232px;stroke-linecap:butt;stroke-linejoin:miter;stroke-opacity:1;enable-background:new" />
      <path
         inkscape:connector-curvature="0"
         id="path1038"
         d="m 98.165074,-49.745285 c -2.00076,0.734978 -3.98513,1.465766 -6.037134,2.214306 -1.225635,0.44709 -2.959522,1.30568 -4.396634,2.056273 0.862064,0.374599 2.156829,0.966205 3.034558,1.604759 2.0122,1.463881 3.19354,3.921442 5.27896,5.278964 1.12191,0.730308 2.46049,1.82122 3.7457,1.44673 0.643046,-0.18738 1.120396,-0.951869 1.190866,-1.617931 0.20315,-1.919923 -1.918496,-3.403306 -2.383626,-5.277082 -0.38458,-1.549324 -0.43442,-4.215999 -0.43269,-5.706019 z"
         style="display:inline;fill:#6f5193;fill-opacity:1;stroke:none;stroke-width:0.963232px;stroke-linecap:butt;stroke-linejoin:miter;stroke-opacity:1;enable-background:new" />
      <path
         inkscape:connector-curvature="0"
         id="path1000"
         d="m 68.521224,-43.979062 c -0.49275,0.02585 -0.987109,0.04787 -1.474948,0.08843 -1.912875,0.159019 -3.886438,0.378724 -5.721069,0.955709 0.422319,0.900573 0.986195,2.01342 1.576541,2.69968 0.756436,0.879334 1.616373,1.979891 2.769292,2.10707 0.812187,0.08959 1.610861,-0.487271 2.227474,-1.023431 0.701503,-0.609983 1.443875,-1.420274 1.505051,-2.347878 0.04718,-0.715778 -0.41364,-1.688402 -0.882341,-2.479572 z"
         style="display:inline;fill:#6f5193;fill-opacity:1;stroke:none;stroke-width:0.963232px;stroke-linecap:butt;stroke-linejoin:miter;stroke-opacity:1;enable-background:new" />
      <path
         inkscape:connector-curvature="0"
         id="path1028"
         d="m 58.58414,-41.693269 c -2.074697,1.199699 -3.960909,2.751157 -5.638298,4.507626 0.577717,0.577495 1.311979,1.385183 2.069445,1.76655 1.065374,0.536393 2.422703,1.311713 3.491717,0.782626 0.989836,-0.489896 1.338103,-1.906649 1.384644,-3.0101 0.04999,-1.185126 -0.755759,-2.961284 -1.307508,-4.046702 z"
         style="display:inline;fill:#6f5193;fill-opacity:1;stroke:none;stroke-width:0.963232px;stroke-linecap:butt;stroke-linejoin:miter;stroke-opacity:1;enable-background:new" />
      <path
         inkscape:connector-curvature="0"
         id="path1022"
         d="m 44.464892,-14.22047 c 0.104375,0.966933 0.242352,1.905677 0.410124,2.788113 0.68953,3.6266574 3.004224,7.1882625 2.298967,10.8118955 C 44.442277,13.41501 39.094951,27.289125 36.049781,38.578572 l 5.420057,3.881141 c 0,0 -0.813785,-6.479096 0.681033,-9.024657 0.39929,-0.679955 1.473157,-0.81715 2.043101,-1.362069 0.756757,-0.723521 0.903628,-1.292716 1.192761,-2.298964 0.587882,-2.045857 -0.17482,-4.25843 -0.08468,-6.38517 0.07369,-1.737949 -0.285711,-3.645505 0.509831,-5.192427 0.41391,-0.804837 1.337929,-1.221838 2.043109,-1.789125 1.78674,-1.437356 4.212763,-2.212555 5.534819,-4.086214 C 54.518171,10.721949 55.139436,8.6581941 55.0924,6.7016107 55.02942,4.0812947 53.614554,1.6444884 52.452917,-0.7051228 50.998166,-3.6476103 48.706782,-6.1078036 47.089292,-8.9640756 46.258756,-10.430711 45.256793,-12.524631 44.464873,-14.22047 Z"
         style="display:inline;fill:#6f5193;fill-opacity:1;stroke:none;stroke-width:0.963232px;stroke-linecap:butt;stroke-linejoin:miter;stroke-opacity:1;enable-background:new" />
      <path
         sodipodi:nodetypes="ssssssss"
         inkscape:connector-curvature="0"
         id="path954"
         d="m 50.801148,19.124067 c -0.662135,-0.02294 -1.290336,0.572318 -1.625457,1.143839 -0.591868,1.009385 -0.607165,2.347739 -0.361216,3.491717 0.209805,0.975838 0.61559,2.135772 1.505052,2.588683 0.701077,0.356993 1.732048,0.24876 2.347878,-0.240823 0.630869,-0.501549 0.741207,-1.482794 0.782626,-2.287674 0.05504,-1.069514 -0.155707,-2.221817 -0.722426,-3.130505 -0.437846,-0.702049 -1.099562,-1.536655 -1.926457,-1.565237 z"
         style="display:inline;opacity:1;fill:#6f5193;fill-opacity:1;stroke:none;stroke-width:0.963232px;stroke-linecap:butt;stroke-linejoin:miter;stroke-opacity:1;enable-background:new" />
      <path
         sodipodi:nodetypes="csssssscc"
         inkscape:connector-curvature="0"
         id="path959"
         d="m 42.974887,41.760023 c 0,0 -0.518464,-2.415586 -0.180609,-3.551918 0.23336,-0.784879 0.727119,-1.592512 1.444848,-1.986672 0.56396,-0.309703 1.332195,-0.367009 1.926462,-0.120394 0.617235,0.25615 1.041524,0.899616 1.324447,1.505056 0.335223,0.717365 0.374807,1.556158 0.361216,2.347878 -0.01311,0.755548 -0.06203,1.562736 -0.421416,2.227474 -0.357722,0.661679 -1.625457,1.565248 -1.625457,1.565248 z"
         style="display:inline;opacity:1;fill:#6f5193;fill-opacity:1;stroke:none;stroke-width:0.963232px;stroke-linecap:butt;stroke-linejoin:miter;stroke-opacity:1;enable-background:new" />
      <path
         sodipodi:nodetypes="sssssssss"
         inkscape:connector-curvature="0"
         id="path962"
         d="m 48.754278,-21.873492 c -1.242065,0.264706 -1.652895,2.025591 -1.986665,3.250909 -0.316474,1.161874 -0.424042,2.509574 0.06022,3.612122 0.445233,1.013696 1.338205,2.00276 2.408082,2.287674 0.818358,0.217924 1.847592,-0.02585 2.468279,-0.602022 0.572085,-0.531037 0.802496,-1.451025 0.722426,-2.227473 -0.08297,-0.804674 -0.924951,-1.347798 -1.20404,-2.10707 -0.338099,-0.919843 -0.0073,-2.068301 -0.541817,-2.889696 -0.425058,-0.653146 -1.164314,-1.486878 -1.92648,-1.324444 z"
         style="display:inline;fill:#6f5193;fill-opacity:1;stroke:none;stroke-width:0.963232px;stroke-linecap:butt;stroke-linejoin:miter;stroke-opacity:1;enable-background:new" />
      <path
         sodipodi:nodetypes="ssssssssss"
         inkscape:connector-curvature="0"
         id="path978"
         d="m 102.51461,-47.786281 c -0.70501,0.433063 -1.19104,1.305549 -1.27708,2.128462 -0.0905,0.865842 0.63172,1.626625 0.85138,2.469018 0.3638,1.395129 0.14111,2.957712 0.76625,4.256923 0.39241,0.81554 0.93993,1.727061 1.7879,2.043323 0.96645,0.360452 2.21346,0.156399 3.065,-0.42569 0.91252,-0.623763 1.53676,-1.792329 1.61762,-2.894709 0.11104,-1.513906 -0.86281,-2.939925 -1.61762,-4.256927 -0.74271,-1.295887 -1.44026,-2.894079 -2.80958,-3.490676 -0.73034,-0.318222 -1.70506,-0.246685 -2.38387,0.170269 z"
         style="display:inline;fill:#6f5193;fill-opacity:1;stroke:none;stroke-width:0.963232px;stroke-linecap:butt;stroke-linejoin:miter;stroke-opacity:1;enable-background:new" />
      <path
         sodipodi:nodetypes="ssssssss"
         inkscape:connector-curvature="0"
         id="path980"
         d="m 121.58563,-47.020034 c -0.88905,0.435623 -1.2327,1.65777 -1.36222,2.639295 -0.0874,0.662232 -0.042,1.481228 0.42569,1.958181 0.42891,0.437439 1.17685,0.381903 1.78791,0.425695 0.62532,0.04481 1.43647,0.279668 1.87305,-0.170269 0.65336,-0.673355 0.30697,-1.881344 0.17026,-2.809571 -0.0837,-0.56851 -0.15661,-1.247234 -0.59597,-1.617632 -0.59579,-0.502292 -1.59894,-0.768581 -2.29872,-0.425699 z"
         style="display:inline;fill:#6f5193;fill-opacity:1;stroke:none;stroke-width:0.963232px;stroke-linecap:butt;stroke-linejoin:miter;stroke-opacity:1;enable-background:new" />
      <path
         sodipodi:nodetypes="sssssssss"
         inkscape:connector-curvature="0"
         id="path982"
         d="m 95.192694,-36.462864 c -1.19456,0.347856 -2.221021,1.467536 -2.639293,2.639295 -0.28764,0.805831 -0.185377,1.820812 0.255422,2.554152 0.369015,0.613893 1.073651,1.245542 1.787911,1.191938 0.84142,-0.06313 1.43996,-0.978608 1.87305,-1.702767 0.30027,-0.502117 0.55045,-1.131166 0.4257,-1.702771 -0.0775,-0.355064 -0.53884,-0.516956 -0.68112,-0.851385 -0.25767,-0.605724 0.18888,-1.472491 -0.25542,-1.958185 -0.1766,-0.193059 -0.51504,-0.243445 -0.76625,-0.170269 z"
         style="display:inline;fill:#6f5193;fill-opacity:1;stroke:none;stroke-width:0.963232px;stroke-linecap:butt;stroke-linejoin:miter;stroke-opacity:1;enable-background:new" />
      <path
         sodipodi:nodetypes="sssssssss"
         inkscape:connector-curvature="0"
         id="path984"
         d="m 135.29292,-55.363604 c -0.605,0.04525 -1.30634,-0.0284 -1.78791,0.340538 -0.82618,0.633003 -1.47817,1.775255 -1.36221,2.809571 0.12148,1.083515 1.10014,2.00718 2.04332,2.554153 0.79513,0.461113 1.80577,0.456166 2.72443,0.425694 1.16292,-0.03859 2.44657,-0.107287 3.40554,-0.766247 0.84332,-0.579497 1.43901,-1.5655 1.70277,-2.554156 0.21996,-0.824438 0.44136,-1.95919 -0.17027,-2.554153 -1.56757,-1.524853 -4.37488,-0.418471 -6.55567,-0.255385 z"
         style="display:inline;fill:#6f5193;fill-opacity:1;stroke:none;stroke-width:0.963232px;stroke-linecap:butt;stroke-linejoin:miter;stroke-opacity:1;enable-background:new" />
      <path
         sodipodi:nodetypes="ssssssssssss"
         inkscape:connector-curvature="0"
         id="path986"
         d="m 65.734778,-29.055817 c -0.425552,-0.01092 -4.359885,2.011476 -5.789421,3.831232 -1.397458,1.778932 -2.012368,4.141405 -2.29873,6.385392 -0.313853,2.459484 -0.109217,5.056941 0.681098,7.40704 0.650113,1.9331884 1.781072,3.7633454 3.235265,5.1934454 1.179855,1.160302 2.651519,2.1529084 4.25693,2.5541565 2.177861,0.5443186 4.612261,0.4155956 6.725938,-0.3405381 2.292731,-0.8201854 4.557146,-2.2941984 5.874552,-4.3420654 1.553868,-2.4154384 1.898502,-5.5587504 1.787913,-8.4287034 -0.0968,-2.512567 -0.766848,-5.122926 -2.128466,-7.236774 -1.3402,-2.080599 -3.310697,-3.960622 -5.619137,-4.852891 -2.091874,-0.808557 -6.725942,-0.170305 -6.725942,-0.170305 z"
         style="display:inline;fill:#6f5193;fill-opacity:1;stroke:none;stroke-width:0.963232px;stroke-linecap:butt;stroke-linejoin:miter;stroke-opacity:1;enable-background:new" />
      <path
         sodipodi:nodetypes="sssssss"
         inkscape:connector-curvature="0"
         id="path990"
         d="m 103.19571,9.0010877 c -1.04782,0.3609617 -2.26064,-0.2386752 -3.235256,-0.7662508 -0.68848,-0.3726952 -1.60606,-0.840744 -1.70278,-1.6176326 -0.0788,-0.6328643 0.43214,-1.374352 1.02166,-1.6176326 0.941866,-0.3886772 2.093466,0.1786424 2.979856,0.6811091 0.82069,0.4652128 1.91604,1.1008876 1.95818,2.0433234 0.0244,0.5446098 -0.50623,1.0995297 -1.02166,1.2770835 z"
         style="display:inline;fill:#6f5193;fill-opacity:1;stroke:none;stroke-width:0.963232px;stroke-linecap:butt;stroke-linejoin:miter;stroke-opacity:1;enable-background:new" />
      <path
         sodipodi:nodetypes="sssssss"
         inkscape:connector-curvature="0"
         id="path992"
         d="m 120.13827,8.9159459 c -0.58495,0.2768647 -1.19637,0.8853591 -1.19193,1.5324951 0.004,0.545137 0.54764,1.007824 1.02166,1.277072 0.72239,0.410328 1.70513,0.667253 2.46901,0.340575 0.57937,-0.247777 0.92964,-0.927783 1.1068,-1.532495 0.14384,-0.49098 0.282,-1.1761635 -0.0851,-1.5324907 -0.79448,-0.7711037 -2.31966,-0.5588008 -3.32039,-0.085153 z"
         style="display:inline;fill:#6f5193;fill-opacity:1;stroke:none;stroke-width:0.963232px;stroke-linecap:butt;stroke-linejoin:miter;stroke-opacity:1;enable-background:new" />
      <path
         sodipodi:nodetypes="ssssss"
         inkscape:connector-curvature="0"
         id="path994"
         d="m 136.91055,2.8711101 c -0.52833,0.3302353 -1.11539,1.0207989 -0.93652,1.617629 0.21862,0.7294484 1.28415,1.0812249 2.04333,1.0216617 0.73013,-0.057302 1.56141,-0.5805822 1.7879,-1.277069 0.16652,-0.5120705 -0.0631,-1.2334186 -0.51083,-1.5324944 -0.66247,-0.4424775 -1.70834,-0.2519997 -2.38388,0.1702727 z"
         style="display:inline;fill:#6f5193;fill-opacity:1;stroke:none;stroke-width:0.963232px;stroke-linecap:butt;stroke-linejoin:miter;stroke-opacity:1;enable-background:new" />
      <path
         sodipodi:nodetypes="sssssss"
         inkscape:connector-curvature="0"
         id="path1183"
         d="m 105.74986,118.82967 c -0.58782,0.30031 -0.98826,1.14217 -0.85138,1.78791 0.10852,0.51192 0.68874,0.87806 1.19194,1.02167 0.35896,0.10244 0.79017,0.0273 1.1068,-0.17027 0.39437,-0.24621 0.80948,-0.68069 0.79583,-1.14539 -0.0157,-0.5357 -0.53457,-0.98719 -0.99334,-1.26424 -0.3626,-0.21898 -0.87263,-0.42239 -1.24985,-0.22969 z"
         style="display:inline;fill:#6f5193;fill-opacity:1;stroke:none;stroke-width:0.963232px;stroke-linecap:butt;stroke-linejoin:miter;stroke-opacity:1;enable-background:new" />
      <path
         sodipodi:nodetypes="ssssssss"
         inkscape:connector-curvature="0"
         id="path1185"
         d="m 110.22052,124.41732 c -0.99025,0.10513 -1.90326,1.26318 -1.95656,2.25757 -0.0237,0.43913 0.39779,0.82371 0.75252,1.08363 0.49151,0.36017 1.1854,0.30272 1.74586,0.54182 0.59072,0.25204 1.05562,1.05773 1.68566,0.93313 0.44118,-0.0872 0.71446,-0.62251 0.84282,-1.05353 0.14959,-0.50236 0.10572,-1.10799 -0.1505,-1.56525 -0.59544,-1.06264 -1.70852,-2.32598 -2.9198,-2.19737 z"
         style="display:inline;fill:#6f5193;fill-opacity:1;stroke:none;stroke-width:0.963232px;stroke-linecap:butt;stroke-linejoin:miter;stroke-opacity:1;enable-background:new" />
      <path
         id="path1189"
         d="m 127.80703,136.05684 c -0.7937,0.70652 -1.67567,1.5203 -2.52096,2.39115 2.34191,0.49996 5.66463,1.36771 5.66463,1.36771 l 4.36276,-2.19173 c 0,0 -4.43104,-1.05993 -7.50643,-1.56713 z m -4.99865,5.68533 c -0.10594,0.11067 -0.21687,0.21661 -0.33675,0.31418 -0.58967,0.47979 -1.25504,0.83739 -1.95092,1.14571 1.23395,0.54293 2.34223,1.08363 2.34223,1.08363 l 3.08535,-1.46741 c 0,0 -1.8638,-0.63719 -3.1399,-1.07611 z m -7.06809,3.4522 c -0.79461,0.3346 -1.6178,0.64874 -2.11836,1.31692 -0.48308,0.64485 -0.73308,1.84581 -0.87105,2.8088 l 5.25828,-2.39491 c 0,0 -1.15609,-0.87309 -2.26887,-1.73081 z"
         style="display:inline;fill:#6f5193;fill-opacity:1;stroke:none;stroke-width:0.963232px;stroke-linecap:butt;stroke-linejoin:miter;stroke-opacity:1;enable-background:new"
         inkscape:connector-curvature="0" />
      <path
         id="path1193"
         d="m 109.98159,106.55974 c -0.64101,1.20323 -1.92009,3.76142 -2.1033,5.37303 -0.2793,2.45694 0.13182,5.08845 1.19275,7.32207 0.86251,1.81591 2.55835,3.11375 4.00155,4.51326 0.47736,0.46292 1.13846,0.74098 1.53139,1.27742 0.39861,0.5442 0.30701,1.37728 0.76569,1.8719 0.38836,0.41877 0.96827,0.851 1.53327,0.76758 0.30319,-0.0448 0.62511,-0.33504 0.90115,-0.63777 -0.0541,-0.85629 -0.12217,-1.67332 -0.2201,-2.34223 -0.49759,-3.39874 -1.27525,-6.8091 -2.63948,-9.96155 -1.05644,-2.44122 -3.47514,-6.04815 -4.96291,-8.18371 z"
         style="display:inline;fill:#6f5193;fill-opacity:1;stroke:none;stroke-width:0.963232px;stroke-linecap:butt;stroke-linejoin:miter;stroke-opacity:1;enable-background:new"
         inkscape:connector-curvature="0" />
      <path
         id="path1232"
         d="m -65.576834,38.397913 c -0.360379,0.0087 -0.718956,0.02876 -1.077992,0.06021 -3.00382,0.262921 -5.902148,1.321495 -8.704834,2.462636 2.030771,-0.203726 5.474178,-0.44958 7.502673,0.05643 2.265635,0.565179 4.023651,4.356718 6.140605,3.371313 0.556598,-0.259099 0.470193,-1.201862 0.361216,-1.806061 -0.175948,-0.97551 -2.164459,-1.738845 -1.565252,-2.528483 0.959772,-1.2648 3.303038,0.37465 4.575352,1.324444 1.489882,1.112217 1.341664,3.875341 3.0101,4.695756 0.831494,0.408872 2.118308,0.418563 2.769292,-0.240823 0.763411,-0.773244 -0.703998,-2.714202 0.240823,-3.250909 1.326551,-0.753552 3.00512,0.97799 4.093735,2.04687 2.100739,2.062666 2.746774,5.208369 4.093735,7.826261 1.708075,3.319737 1.876447,8.038418 5.056969,9.993531 0.888964,0.54647 2.173001,0.414823 3.130501,0 0.80768,-0.349895 0.926588,-1.889922 1.806061,-1.926466 1.675106,-0.06964 2.809177,1.971929 3.732522,3.371313 2.453516,3.718441 3.283572,8.313212 4.334544,12.642418 0.325393,1.340328 -0.119192,2.918074 0.602021,4.093735 0.617239,1.006164 1.709975,2.006896 2.889696,2.04687 2.538472,0.08603 3.9954,-4.384536 6.501814,-3.973335 2.22107,0.364392 3.140869,3.26921 4.334543,5.177374 1.562537,2.497804 2.1774239,5.493695 3.6121219,8.067066 0.6613044,1.186182 1.0367919,2.842507 2.2876743,3.371313 1.2763008,0.539553 2.9050589,-0.01019 4.0937351,-0.722426 1.83897496,-1.101703 2.08367536,-4.044657 3.9733307,-5.056966 1.3485441,-0.722425 3.0767003,-0.668636 4.5753523,-0.361216 1.77619,0.364373 3.024549,2.249659 4.8161607,2.528483 2.053775,0.319605 6.140604,-1.083635 6.140604,-1.083635 L 13.791981,82.112069 9.2034653,79.06999 c 0,0 -1.681208,0.562882 -2.554819,0.596375 -2.611003,0.100006 -5.2529772,-0.414325 -7.7472461,-1.19275 -3.2228982,-1.005832 -6.1779785,-2.751613 -9.1093152,-4.426733 -3.341799,-1.909675 -6.534604,-3.829664 -9.621029,-6.129312 -3.377043,-2.516185 -6.513845,-5.342327 -9.705689,-8.089648 -3.626065,-3.121053 -7.104134,-6.409999 -10.727243,-9.534481 -2.914084,-2.513036 -5.543931,-5.446685 -8.855338,-7.406734 -2.752866,-1.629442 -5.83301,-2.730137 -8.939996,-3.491717 -2.450331,-0.600613 -4.996991,-1.060143 -7.519606,-0.997088 z"
         style="display:inline;fill:#6f5193;fill-opacity:1;stroke:none;stroke-width:0.963232px;stroke-linecap:butt;stroke-linejoin:miter;stroke-opacity:1;enable-background:new"
         inkscape:connector-curvature="0" />
      <path
         inkscape:connector-curvature="0"
         id="path1223"
         d="m 51.233846,118.5531 c -0.411146,0.11774 -1.77221,0.52698 -2.298963,1.16829 -0.447971,0.54541 -0.746698,1.37147 -0.541821,2.04687 0.132079,0.43538 0.978135,0.45033 1.023434,0.90303 0.08275,0.82668 -1.115999,1.25259 -1.505048,1.98667 -0.644856,1.21674 -1.038692,2.56604 -1.324443,3.91313 -0.363802,1.71506 -0.52347,3.48485 -0.481618,5.23757 0.02767,1.15472 0.738499,2.3054 0.481618,3.43151 -0.160913,0.70542 -1.059932,1.09702 -1.20404,1.80606 -0.150501,0.74053 -0.0735,1.65642 0.421413,2.22748 0.527831,0.60905 1.498827,0.61747 2.287675,0.78262 0.473032,0.099 1.101477,-0.21971 1.444848,0.12039 0.299254,0.29638 0.363765,0.91617 0.351787,1.47496 0.944602,-1.84046 1.585989,-3.84163 2.139059,-5.83583 0.569839,-2.05469 0.921052,-4.17633 1.106214,-6.30052 0.174966,-2.00733 0.249488,-4.04521 0,-6.04465 -0.257388,-2.0627 -0.86452,-4.07584 -1.531395,-6.04466 -0.101098,-0.29849 -0.234051,-0.58611 -0.368734,-0.87293 z m -14.091033,39.26487 c -0.36702,0.0186 -0.73164,0.0603 -1.091157,0.13168 -2.016722,0.40043 -4.213844,1.069 -5.598787,2.58868 -0.193022,0.21181 -0.351277,0.53486 -0.489138,0.8861 l 11.93316,2.61314 c 0,0 -1.721862,-3.1118 -2.554819,-4.68258 -0.221819,-0.41827 -0.463159,-0.94974 -0.658465,-1.48248 -0.514211,-0.0499 -1.029587,-0.0803 -1.540794,-0.0545 z m 16.186814,0.91431 c -0.643681,-0.0102 -1.273738,0.11599 -1.902008,0.26904 2.499781,3.19911 4.771014,7.50644 4.771014,7.50644 l 4.682578,0.76569 c 0,0 -2.966301,-4.65507 -4.682578,-6.81034 -0.411321,-0.51653 -0.846143,-1.01322 -1.290586,-1.5013 -0.574473,-0.12352 -1.136412,-0.22262 -1.57842,-0.2295 z m -9.48746,0.70362 c 1.170262,1.81676 2.650769,5.36926 2.650769,5.36926 l 4.257415,0.93501 c 0,0 -2.820631,-3.39398 -4.168993,-5.92802 -0.604351,0.0128 -1.208048,-0.0131 -1.800414,-0.11664 -0.320989,-0.0562 -0.631976,-0.15068 -0.938777,-0.25961 z"
         style="display:inline;fill:#6f5193;fill-opacity:1;stroke:none;stroke-width:0.963232px;stroke-linecap:butt;stroke-linejoin:miter;stroke-opacity:1;enable-background:new" />
      <path
         sodipodi:nodetypes="sssssssssss"
         inkscape:connector-curvature="0"
         id="path1217"
         d="m 46.165591,122.37044 c -0.484238,-0.36271 -1.263078,-0.0863 -1.80606,0.18061 -0.4459,0.21916 -0.788812,0.64568 -1.023435,1.08364 -0.379281,0.70799 -0.480478,1.54702 -0.541818,2.34787 -0.0415,0.54172 -0.17056,1.16663 0.120394,1.62546 0.283927,0.44773 0.857778,0.84171 1.384647,0.78262 0.592928,-0.0665 1.004013,-0.70074 1.324444,-1.20404 0.32725,-0.514 0.543328,-1.13653 0.541817,-1.74586 -9.64e-4,-0.39983 -0.402427,-0.74612 -0.361216,-1.14383 0.03794,-0.36643 0.481846,-0.59976 0.541817,-0.96324 0.05315,-0.3223 0.08089,-0.76739 -0.180608,-0.96323 z"
         style="display:inline;fill:#6f5193;fill-opacity:1;stroke:none;stroke-width:0.963232px;stroke-linecap:butt;stroke-linejoin:miter;stroke-opacity:1;enable-background:new" />
      <path
         sodipodi:nodetypes="sssssssss"
         inkscape:connector-curvature="0"
         id="path1219"
         d="m 43.938117,134.29043 c -0.334931,-0.18221 -0.78019,-0.11464 -1.143839,0 -0.467244,0.1473 -0.996847,0.39889 -1.204039,0.84283 -0.195935,0.41982 0.02294,0.9317 0.120393,1.38464 0.0893,0.41574 0.09207,0.93508 0.421414,1.20404 0.345089,0.28186 0.906085,0.33392 1.324443,0.18061 0.506999,-0.18578 0.87928,-0.70425 1.083639,-1.20404 0.174856,-0.42762 0.181409,-0.93884 0.06021,-1.38464 -0.106596,-0.39212 -0.305298,-0.82926 -0.662222,-1.02344 z"
         style="display:inline;fill:#6f5193;fill-opacity:1;stroke:none;stroke-width:0.963232px;stroke-linecap:butt;stroke-linejoin:miter;stroke-opacity:1;enable-background:new" />
      <path
         sodipodi:nodetypes="sssssss"
         inkscape:connector-curvature="0"
         id="path1273"
         d="m 3.1813682,91.065412 c -0.4766661,0.338062 -0.6743595,1.133987 -0.4816172,1.685656 0.3416303,0.977793 1.5729733,1.406324 2.5284863,1.806057 0.864364,0.361617 1.996309,1.01113 2.769292,0.481617 0.675331,-0.46262 0.857869,-1.681084 0.481613,-2.408078 -0.545057,-1.053153 -2.098627,-1.164711 -3.250905,-1.444848 -0.664126,-0.161459 -1.489368,-0.51578 -2.0468691,-0.120393 z"
         style="display:inline;fill:#6f5193;fill-opacity:1;stroke:none;stroke-width:0.963232px;stroke-linecap:butt;stroke-linejoin:miter;stroke-opacity:1;enable-background:new" />
      <path
         sodipodi:nodetypes="sssssss"
         inkscape:connector-curvature="0"
         id="path1275"
         d="m -16.444481,81.312689 c -0.425487,-0.558451 -1.582727,1.43369 -1.685656,2.408079 -0.11901,1.126779 0.589137,2.268456 1.324443,3.130504 0.491433,0.576141 1.197512,1.409142 1.926465,1.20404 0.604727,-0.17016 0.756589,-1.063398 0.842827,-1.685657 0.117772,-0.849856 -0.132043,-1.744947 -0.481617,-2.528483 -0.431716,-0.967646 -1.926462,-2.528483 -1.926462,-2.528483 z"
         style="display:inline;fill:#6f5193;fill-opacity:1;stroke:none;stroke-width:0.963232px;stroke-linecap:butt;stroke-linejoin:miter;stroke-opacity:1;enable-background:new" />
      <path
         sodipodi:nodetypes="sssssss"
         inkscape:connector-curvature="0"
         id="path1277"
         d="m -34.023464,63.85411 c -0.886004,0.564262 -0.408741,2.081153 -0.361217,3.130501 0.04452,0.982905 -0.09647,2.196751 0.602022,2.889696 0.581139,0.576512 1.732747,0.944234 2.408078,0.481617 0.772983,-0.529512 0.588221,-1.838422 0.481618,-2.769291 -0.128913,-1.125691 -0.492441,-2.361371 -1.324444,-3.130505 -0.465977,-0.430765 -1.270804,-0.942901 -1.806057,-0.602018 z"
         style="display:inline;fill:#6f5193;fill-opacity:1;stroke:none;stroke-width:0.963232px;stroke-linecap:butt;stroke-linejoin:miter;stroke-opacity:1;enable-background:new" />
      <path
         sodipodi:nodetypes="sssssss"
         inkscape:connector-curvature="0"
         id="path1279"
         d="m -50.880022,45.191492 c -0.914698,0.787072 -0.36391,2.411701 -0.240823,3.612118 0.07649,0.745868 0.05818,1.651137 0.602018,2.167274 0.53679,0.509438 2.167274,0.963231 2.167274,0.481613 0,-0.481613 1.007693,-2.062494 0.842826,-3.130504 -0.181737,-1.177318 -0.906125,-2.395264 -1.926461,-3.010096 -0.413939,-0.249415 -1.078502,-0.435623 -1.444834,-0.120394 z"
         style="display:inline;fill:#6f5193;fill-opacity:1;stroke:none;stroke-width:0.963232px;stroke-linecap:butt;stroke-linejoin:miter;stroke-opacity:1;enable-background:new" />
      <path
         sodipodi:nodetypes="caaaaaassccacccaaaaaaaaaaaazasassc"
         inkscape:connector-curvature="0"
         id="path886"
         d="m 33.157122,34.601496 c 0,0 2.926841,2.351242 4.506284,3.358782 2.913374,1.858463 5.93141,3.598495 9.121976,4.925872 3.753845,1.561721 7.706971,2.646208 11.676137,3.527166 3.599077,0.798815 7.263597,1.412032 10.946379,1.581143 4.704217,0.215995 9.447585,-0.05843 14.108661,-0.729761 4.146265,-0.597191 8.192633,-1.778539 12.223445,-2.919028 2.62765,-0.743476 5.157016,-1.890122 7.784096,-2.554156 1.2674,-0.32037 1.80121,1.44646 2.00684,2.49334 1.00058,5.094136 2.18927,11.797761 2.18927,11.797761 l 4.74344,-1.459516 c 0,0 2.41613,3.6505 3.04065,5.716439 0.83698,2.768705 0.85139,8.635474 0.85139,8.635474 l -6.50701,1.76359 2.12846,26.210485 c 0,0 -3.39213,3.838813 -5.35156,5.473183 -1.5025,1.25323 -3.13609,2.36807 -4.86506,3.28391 -2.315176,1.22636 -4.783086,2.18338 -7.297596,2.91904 -3.525688,1.03149 -7.183346,1.58317 -10.824741,2.06764 -3.183995,0.42363 -6.398145,0.62494 -9.608487,0.72976 -3.849664,0.12571 -7.710633,0.124 -11.554509,-0.12163 -3.462782,-0.22129 -6.918949,-0.62612 -10.338241,-1.21627 -4.303089,-0.74269 -8.616616,-1.57326 -12.770773,-2.91904 -3.352597,-1.0861 -6.62888,-2.46141 -9.730115,-4.13529 -2.572708,-1.38861 -5.050376,-2.995 -7.297582,-4.865064 -2.997169,-2.494163 -5.715576,-5.345495 -8.148967,-8.392215 -2.596551,-3.251 -4.7788087,-6.829312 -6.8110797,-10.459869 -1.183732,-2.114682 -3.441069,-6.121743 -3.119277,-6.567195 0.32179,-0.445455 3.573809,-0.681746 5.308558,-1.216894 1.5809137,-0.487693 3.1993217,-0.964392 4.6217987,-1.809195 1.078199,-0.640342 1.974859,-1.070605 2.801015,-1.816025 0.873673,-0.788294 1.688227,-1.791538 2.213913,-2.749731 1.698813,-3.096508 3.702673,-7.623197 6.873933,-14.262606 3.23461,-6.772038 7.078752,-16.2901 7.078752,-16.2901 z"
         style="display:inline;fill:#1e1c58;fill-opacity:1;stroke:none;stroke-width:0.963232px;stroke-linecap:butt;stroke-linejoin:miter;stroke-opacity:1;enable-background:new" />
      <path
         sodipodi:nodetypes="cccaacccaaaaacacaaaaaaacccaaaccccaaaccccaasc"
         inkscape:connector-curvature="0"
         id="path869"
         d="m 28.258572,65.807589 3.569119,-6.063199 4.515152,3.096104 c 0,0 1.219621,0.552823 1.774763,0.321935 0.78303,-0.325684 1.420995,-1.247602 1.442969,-2.095369 0.01675,-0.651915 -1.024658,-1.666616 -1.024658,-1.666616 l -8.575561,-6.251332 5.255853,-12.032875 c 0,0 4.397566,3.380494 6.845821,4.65275 3.707071,1.926411 7.700127,3.306013 11.722845,4.433476 4.089054,1.146053 8.295009,1.941075 12.522578,2.342946 4.397497,0.41802 8.852943,0.464062 13.251819,0.0608 3.848988,-0.352843 7.640793,-1.230339 11.392322,-2.160506 3.8657,-0.958472 11.419316,-3.515687 11.419316,-3.515687 0,0 2.22815,16.239231 3.1581,24.381286 0.88842,7.778478 2.31283,23.372991 2.31283,23.372991 0,0 -3.55934,4.120777 -5.83806,5.534007 -3.651566,2.26464 -7.922616,3.44107 -12.101836,4.43936 -4.546322,1.08598 -9.255891,1.45115 -13.926222,1.64195 -5.674784,0.23183 -11.385787,0.0444 -17.027697,-0.60813 -5.623626,-0.65039 -11.271932,-1.55576 -16.662821,-3.28391 C 38.173066,101.08935 34.198931,99.263319 30.48744,97.056007 26.731076,94.822009 23.047315,92.309748 20.027571,89.150291 16.280505,85.229861 10.814373,75.740985 10.814373,75.740985 l 3.496763,-1.064235 7.23677,8.148968 c 0,0 1.184978,0.653575 1.824391,0.608137 0.406924,-0.02876 0.861314,-0.212681 1.094648,-0.547318 0.314981,-0.451717 0.335696,-1.113033 0.182429,-1.641963 -0.10838,-0.374009 -0.729766,-0.912193 -0.729766,-0.912193 l -7.236762,-6.81108 2.006834,-1.489921 6.507008,5.990096 c 0,0 1.605939,1.671065 2.675784,1.885207 0.549765,0.110054 1.222013,0.0066 1.641955,-0.364872 0.499427,-0.441793 0.830853,-1.238373 0.668942,-1.88521 -0.226479,-0.904778 -1.766091,-1.566818 -2.067646,-1.885214 -2.725626,-1.863636 -4.273622,-3.123078 -7.236773,-5.473184 l 2.675783,-2.919031 7.358402,4.500167 c 0,0 1.347543,0.386668 1.88521,0.06076 0.519475,-0.314872 0.769855,-1.034852 0.79057,-1.641955 0.01493,-0.436398 -0.01092,-0.677025 -0.486503,-1.216265 -1.140923,-1.293706 -4.84384,-3.274291 -4.84384,-3.274291 z"
         style="display:inline;fill:#3b37b6;fill-opacity:1;stroke:none;stroke-width:0.964749;stroke-linecap:butt;stroke-linejoin:miter;stroke-miterlimit:4;stroke-dasharray:none;stroke-opacity:1;enable-background:new" />
      <path
         sodipodi:nodetypes="ccaccc"
         inkscape:connector-curvature="0"
         id="path883"
         d="m 108.14785,59.794764 3.41367,-1.113709 c 0,0 0.95011,1.941536 1.21125,2.982206 0.38483,1.53359 0.50143,4.716831 0.50143,4.716831 l -3.8363,1.025929 z"
         style="display:inline;fill:#3b37b6;fill-opacity:1;stroke:none;stroke-width:0.963232px;stroke-linecap:butt;stroke-linejoin:miter;stroke-opacity:1;enable-background:new" />
      <g
         style="display:inline;fill:#77bbfe;fill-opacity:1;enable-background:new"
         transform="matrix(3.6405616,0,0,3.6405616,-134.8532,-120.05615)"
         id="g874">
        <path
           style="fill:#77bbfe;fill-opacity:1;stroke:none;stroke-width:0;stroke-linecap:butt;stroke-linejoin:miter;stroke-miterlimit:4;stroke-dasharray:none;stroke-opacity:1"
           d="m 51.538571,50.752397 c -0.461205,0.120617 -0.873963,0.413553 -1.228423,0.732327 -0.439129,0.394918 -0.802933,0.887197 -1.063059,1.417413 -0.248223,0.505954 -0.396771,1.068869 -0.448847,1.630021 -0.05438,0.585991 -0.08167,1.217291 0.147476,1.759358 0.180991,0.428154 0.547023,0.768559 0.915584,1.05184 0.368561,0.283281 0.804122,0.489865 1.252045,0.614212 0.533077,0.147986 1.118209,0.280945 1.653646,0.14174 0.340318,-0.08848 0.681417,-0.296431 0.874074,-0.590587 0.118469,-0.180883 0.170653,-0.428088 0.118115,-0.637834 -0.04106,-0.163924 -0.152456,-0.355118 -0.316397,-0.396116 -0.304486,-0.07614 -0.556706,0.312471 -0.864777,0.37249 -0.292453,0.05698 -0.600568,0.03413 -0.89364,-0.01957 -0.305456,-0.05597 -0.608681,-0.15677 -0.878124,-0.311159 -0.260073,-0.14902 -0.5351,-0.321382 -0.687702,-0.579369 -0.14789,-0.250022 -0.164038,-0.564099 -0.171096,-0.8545 -0.01205,-0.495959 0.05725,-1.003507 0.220966,-1.471822 0.127779,-0.365524 0.320143,-0.719681 0.5808,-1.006025 0.282173,-0.30998 0.627461,-0.596157 1.025352,-0.728032 0.369903,-0.122598 0.792803,-0.128986 1.16877,-0.02648 0.196749,0.05364 0.320466,0.364669 0.519963,0.322377 0.206758,-0.04383 0.361007,-0.312711 0.356971,-0.524026 -0.0066,-0.344258 -0.309414,-0.669777 -0.613722,-0.830877 -0.491758,-0.260338 -1.145361,-0.197805 -1.667975,-0.06538 z"
           id="path850"
           inkscape:connector-curvature="0"
           sodipodi:nodetypes="caaaazaaaaaaaaaaaaaaaaac" />
        <path
           style="fill:#77bbfe;fill-opacity:1;stroke:none;stroke-width:0.264583px;stroke-linecap:butt;stroke-linejoin:miter;stroke-opacity:1"
           d="m 59.157153,52.134366 c -0.03147,-0.310802 -0.274049,-0.599785 -0.537434,-0.767764 -0.399501,-0.254789 -0.927041,-0.281457 -1.399695,-0.248035 -0.239703,0.01695 -0.486779,0.0887 -0.68508,0.224425 -0.373998,0.25598 -0.647393,0.652204 -0.862258,1.051245 -0.113359,0.210526 -0.176772,0.448679 -0.212612,0.685083 -0.03364,0.221888 -0.06875,0.459635 0,0.673269 0.05791,0.179942 0.187317,0.337513 0.33073,0.460658 0.184356,0.158302 0.422514,0.244366 0.649644,0.330729 0.247259,0.09402 0.514189,0.125468 0.767765,0.200801 0.250638,0.07446 0.49945,0.155905 0.744141,0.248046 0.227884,0.08581 0.477369,0.138852 0.673269,0.283483 0.152896,0.112882 0.306505,0.256591 0.366165,0.437036 0.08419,0.254638 0.07818,0.566141 -0.04725,0.803198 -0.131394,0.248326 -0.403769,0.418179 -0.667784,0.514233 -0.177753,0.06467 -0.379286,0.04719 -0.566965,0.02363 -0.203929,-0.0256 -0.402446,-0.09444 -0.590587,-0.177175 -0.167755,-0.07377 -0.314196,-0.188745 -0.472347,-0.281333 -0.115069,-0.06737 -0.213413,-0.19657 -0.346718,-0.199491 -0.146856,-0.0032 -0.296249,0.09077 -0.391222,0.202827 -0.09902,0.116832 -0.126,0.284698 -0.14174,0.437036 -0.01506,0.145751 0.0011,0.297978 0.04725,0.437034 0.06343,0.190965 0.163949,0.378307 0.307107,0.519718 0.151828,0.149976 0.356596,0.240685 0.555151,0.318918 0.225693,0.08893 0.46847,0.131711 0.708705,0.165365 0.238138,0.03336 0.481763,0.06403 0.720519,0.03543 0.289447,-0.03467 0.574611,-0.124462 0.838634,-0.248047 0.205715,-0.09629 0.400733,-0.223194 0.566965,-0.377976 0.145823,-0.135779 0.269224,-0.298392 0.366164,-0.472469 0.120621,-0.216601 0.208702,-0.454307 0.259858,-0.696894 0.06918,-0.32803 0.08438,-0.669712 0.05906,-1.003999 -0.01855,-0.244864 -0.06015,-0.493408 -0.153551,-0.720518 -0.0943,-0.229288 -0.225603,-0.451408 -0.4016,-0.626023 -0.151988,-0.150794 -0.346454,-0.258429 -0.543341,-0.34254 -0.223928,-0.09566 -0.472683,-0.117279 -0.708707,-0.177178 -0.260094,-0.06601 -0.519865,-0.133291 -0.779574,-0.200798 -0.240312,-0.06246 -0.491352,-0.09342 -0.720519,-0.188989 -0.09286,-0.03873 -0.212834,-0.06461 -0.259858,-0.153554 -0.05716,-0.108128 -0.01345,-0.249613 0.02363,-0.366164 0.05467,-0.171812 0.157071,-0.332098 0.283482,-0.460659 0.117928,-0.119934 0.264838,-0.221 0.425225,-0.271668 0.172864,-0.05461 0.364017,-0.05022 0.543341,-0.02363 0.152738,0.02265 0.299238,0.08388 0.437033,0.153554 0.09356,0.04731 0.158816,0.14923 0.259861,0.177175 0.129246,0.03575 0.291712,0.05323 0.401598,-0.02363 0.105489,-0.07378 0.166515,-0.226282 0.153545,-0.354359 z"
           id="path852"
           inkscape:connector-curvature="0"
           sodipodi:nodetypes="aaaaaaaaaaaaaaaaaaaaaaaaaaaaaaaaaaaaaaaaaaaaaa" />
        <path
           style="fill:#77bbfe;fill-opacity:1;stroke:none;stroke-width:0.264583px;stroke-linecap:butt;stroke-linejoin:miter;stroke-opacity:1"
           d="m 64.433281,51.803736 c -0.03147,-0.310802 -0.274049,-0.599785 -0.537434,-0.767764 -0.399501,-0.254789 -0.927041,-0.281457 -1.399695,-0.248035 -0.239703,0.01695 -0.480668,0.09809 -0.68508,0.224425 -0.202802,0.125339 -0.386463,0.300433 -0.503115,0.508354 -0.150178,0.267681 -0.192465,0.588282 -0.220964,0.893888 -0.02294,0.24602 -0.01488,0.499579 0.04176,0.740086 0.04458,0.189256 0.116631,0.378227 0.230504,0.535827 0.119404,0.165256 0.287562,0.293326 0.457544,0.405899 0.205461,0.136069 0.435896,0.233645 0.667539,0.317731 0.238073,0.08642 0.494379,0.112974 0.735789,0.189581 0.231607,0.0735 0.50783,0.0886 0.681621,0.258426 0.189804,0.185473 0.27807,0.47319 0.299348,0.737714 0.01767,0.219679 -0.0051,0.476263 -0.147476,0.644507 -0.133907,0.158261 -0.368847,0.214642 -0.574928,0.237185 -0.30825,0.03372 -0.621473,-0.06445 -0.916321,-0.160471 -0.190363,-0.06199 -0.339684,-0.247654 -0.539165,-0.264628 -0.128726,-0.01095 -0.285731,0.01316 -0.371774,0.109526 -0.109064,0.12215 -0.11411,0.322789 -0.08477,0.483893 0.03605,0.197968 0.163949,0.378306 0.307107,0.519718 0.151828,0.149976 0.356596,0.240685 0.555151,0.318918 0.225693,0.08893 0.469068,0.127688 0.708705,0.165365 0.174598,0.02745 0.352199,0.05737 0.528419,0.04378 0.209609,-0.01616 0.424317,-0.05536 0.613125,-0.147821 0.169251,-0.08288 0.313288,-0.214971 0.441683,-0.35292 0.123318,-0.132493 0.221946,-0.288012 0.307699,-0.447412 0.09881,-0.183672 0.192277,-0.375781 0.234801,-0.579964 0.06712,-0.322294 0.04092,-0.658439 0.02565,-0.987294 -0.0091,-0.196804 -0.0035,-0.401449 -0.07003,-0.586883 -0.08375,-0.233349 -0.239445,-0.438484 -0.4016,-0.626023 -0.11109,-0.128482 -0.241272,-0.243131 -0.38465,-0.334188 -0.187207,-0.118892 -0.398981,-0.196307 -0.608481,-0.269052 -0.253492,-0.08802 -0.523614,-0.120232 -0.779574,-0.200798 -0.247416,-0.07788 -0.566705,-0.07007 -0.728871,-0.272511 -0.118403,-0.147807 -0.132468,-0.381377 -0.07803,-0.562768 0.05809,-0.193554 0.217911,-0.368123 0.400168,-0.455416 0.163499,-0.07831 0.364017,-0.05022 0.543341,-0.02363 0.152738,0.02265 0.299238,0.08388 0.437033,0.153554 0.09356,0.04731 0.158816,0.14923 0.259861,0.177175 0.129246,0.03575 0.291712,0.05323 0.401598,-0.02363 0.105489,-0.07378 0.166515,-0.226282 0.153545,-0.354359 z"
           id="path852-7"
           inkscape:connector-curvature="0"
           sodipodi:nodetypes="caaaaaaaaaaaaaaaaaaaaaaaaaaaaaaaaaaaaaaaac" />
      </g>
      <path
         sodipodi:nodetypes="cccasccssaaccsssccscc"
         inkscape:connector-curvature="0"
         id="path891"
         d="M 23.327533,67.191013 30.782908,53.747689 5.4324113,33.581734 c 0,0 -1.04415,-0.69799 -1.581143,-0.547318 -0.5822573,0.163388 -0.9632166,0.825326 -1.1554564,1.3987 -0.2967058,0.884937 0.1216312,2.797407 0.1216312,2.797407 l 1.4595192,4.986682 c 0,0 -10.1232731,2.163283 -14.5951713,4.621809 -0.579971,0.31884 -1.255848,0.670373 -1.520324,1.277073 -0.324411,0.744214 -0.298636,1.609037 0.07907,2.262248 0.23791,0.411467 0.78031,0.551294 1.210177,0.754084 3.1295215,1.476357 9.83957886,3.308237 9.83957886,3.308237 l -2.25008906,7.175962 c 0,0 -0.5406307,1.973286 -0.1824286,2.858216 0.2261517,0.558669 0.772691,1.006975 1.3378882,1.216264 0.6656111,0.246466 1.44855026,0.142965 2.12846516,-0.06076 C 1.5797249,65.254133 3.6688573,63.562685 3.6688573,63.562685 l 3.952853,-3.283911 c 0,0 1.028349,-0.791502 1.641955,-0.851382 0.504382,-0.04922 1.4595157,0.425691 1.4595157,0.425691 z"
         style="display:inline;fill:#36244b;fill-opacity:1;stroke:none;stroke-width:0.963232px;stroke-linecap:butt;stroke-linejoin:miter;stroke-opacity:1;enable-background:new" />
      <path
         sodipodi:nodetypes="ccczazcczazczazcc"
         inkscape:connector-curvature="0"
         id="path889"
         d="M 25.135891,63.927519 28.910072,57.116436 7.5000573,40.392814 c 0,0 1.482287,6.209101 1.39262,6.516135 -0.08967,0.307045 -0.617505,1.072277 -1.158485,1.191935 -0.611119,0.135174 -1.576498,-0.406484 -1.754466,-0.668932 -0.177951,-0.262448 -1.033822,-1.809191 -1.033822,-1.809191 l -9.9125535,3.527161 c 0,0 6.4892901,2.04525 6.9479062,2.21968 0.4586161,0.174419 1.1305255,0.553602 1.4747224,1.049028 0.2903709,0.417954 0.4944469,1.005949 0.3952889,1.474718 -0.09917,0.46877 -1.8852106,5.655635 -1.8852106,5.655635 0,0 5.2477926,-4.282036 5.5948186,-4.43937 0.347018,-0.157345 1.050146,-0.292228 1.581136,-0.243226 0.855437,0.07893 2.0562327,0.651435 2.4325247,0.851381 0.376292,0.19994 13.561354,8.209762 13.561354,8.209762 z"
         style="display:inline;fill:#9d68dc;fill-opacity:1;stroke:none;stroke-width:0.963232px;stroke-linecap:butt;stroke-linejoin:miter;stroke-opacity:1;enable-background:new" />
      <ellipse
         ry="8.4884806"
         rx="6.8630276"
         cy="-16.876766"
         cx="69.403564"
         id="path949"
         style="display:inline;opacity:0.98;fill:#36244b;fill-opacity:1;stroke:none;stroke-width:0.964749;stroke-linecap:round;stroke-miterlimit:4;stroke-dasharray:none;stroke-opacity:1;enable-background:new" />
      <ellipse
         ry="2.5541542"
         rx="4.0866466"
         cy="-55.108227"
         cx="138.5282"
         id="path970"
         style="display:inline;opacity:1;fill:#36244b;fill-opacity:1;stroke:none;stroke-width:0.964749;stroke-linecap:round;stroke-miterlimit:4;stroke-dasharray:none;stroke-opacity:1;enable-background:new" />
      <ellipse
         transform="rotate(-42.038138)"
         ry="1.6020892"
         rx="1.1225319"
         cy="35.859913"
         cx="58.256569"
         id="path894"
         style="display:inline;opacity:1;fill:#ffffff;fill-opacity:0.969697;stroke:none;stroke-width:0.223472;stroke-linecap:round;stroke-miterlimit:4;stroke-dasharray:none;stroke-opacity:1;enable-background:new" />
      <ellipse
         transform="rotate(-44.057635)"
         ry="3.10376"
         rx="1.9182291"
         cy="34.986713"
         cx="64.946259"
         id="path898"
         style="display:inline;opacity:1;fill:#ffffff;fill-opacity:0.969697;stroke:none;stroke-width:0.265;stroke-linecap:round;stroke-miterlimit:4;stroke-dasharray:none;stroke-opacity:1;enable-background:new" />
    </g>
  </g>
  <g
     inkscape:groupmode="layer"
     id="layer27"
     inkscape:label="Shadow"
     style="display:inline;opacity:0.4;filter:url(#filter1794)"
     transform="translate(99.633912,87.026389)">
    <path
       id="path1498"
       style="display:inline;fill:#221d60;fill-opacity:1;stroke:none;stroke-width:0.963232px;stroke-linecap:butt;stroke-linejoin:miter;stroke-opacity:1"
       d="m 53.263784,161.58813 c 1.667874,2.53446 2.934852,4.91963 2.934852,4.91963 l 4.682578,0.7657 c 0,0 -1.599928,-2.50569 -3.128615,-4.692 z m -9.372699,-2.07321 c 1.162178,1.83871 2.601853,5.29025 2.601853,5.29025 l 4.257417,0.93501 c 0,0 -2.57651,-3.10233 -3.982742,-5.58937 z m 76.849735,-18.48013 -2.4269,1.29811 c 1.68211,0.53604 4.54902,1.9528 4.54902,1.9528 l 3.08535,-1.46742 c 0,0 -2.96214,-1.01834 -5.20747,-1.78349 z m 8.75938,-4.68635 -4.00719,2.1447 c 2.3287,0.5065 5.45769,1.32256 5.45769,1.32256 l 4.36276,-2.19173 c 0,0 -3.0282,-0.7311 -5.81326,-1.27553 z m -112.039669,-24.9255 -8.5975957,45.37913 33.0339607,7.23552 c 0,0 -1.721854,-3.1118 -2.554818,-4.68257 -0.146575,-0.27636 -0.30835,-0.60338 -0.459048,-0.94631 l -15.955407,-3.52934 z m 91.269989,-6.64103 c 0,0 -1.24159,5.10264 -2.29896,7.49138 -1.15887,2.61805 -2.73328,5.04768 -4.38534,7.38603 -1.62494,2.29995 -3.486245,4.43298 -5.406895,6.49241 -1.42208,1.52483 -2.88739,3.01936 -4.454952,4.39474 -0.382856,0.33593 -0.766058,0.67012 -1.16265,0.98958 -0.472764,0.38081 -1.086593,0.82486 -1.742091,1.27741 -1.966535,1.35808 -4.304443,2.7881 -4.304443,2.7881 l 4.838728,6.35884 0.366857,0.48161 9.694411,12.74213 18.133975,-8.25896 c 0,0 -0.57483,-0.43068 -1.25296,-0.94442 -0.71845,-0.54428 -1.5334,-1.17158 -2.14658,-1.66496 l -1.74021,0.93125 -9.28804,-12.49944 c 0,0 5.40298,-3.98185 7.36157,-6.64479 1.76065,-2.39381 3.58177,-6.80925 4.6713,-9.64926 -0.20759,-0.57666 -0.42661,-1.14829 -0.66974,-1.71011 -1.55436,-3.59179 -6.21397,-9.96154 -6.21398,-9.96154 z M 3.5613934,79.498952 c 1.3354439,2.646171 5.0250649,9.701479 7.8074466,13.131557 3.687262,4.545598 8.126769,8.563161 13.003631,11.799591 4.682916,3.10772 9.926741,5.4278 15.291307,7.10383 3.289109,1.02762 6.68401,1.67841 10.10829,2.16163 0.0157,-0.0479 0.02004,-0.0987 0.04142,-0.14486 0.327981,-0.71312 1.006529,-1.47088 1.789126,-1.53139 0.698835,-0.054 1.787248,1.1062 1.787248,1.10622 0,0 0.315603,0.71959 0.474093,1.07422 1.086497,0.11938 2.174207,0.23725 3.258431,0.34428 7.671188,0.75718 15.417326,0.95808 23.117566,0.60202 2.316505,-0.1071 6.908174,-0.82213 6.908183,-0.82213 l -0.10348,2.58116 c 0,0 -1.902864,1.9198 -3.004455,2.69028 -2.715784,1.89947 -5.625004,3.63936 -8.770679,4.68258 -3.786513,1.25576 -7.844397,1.74367 -11.833448,1.78913 -1.898482,0.0219 -4.649781,-0.45548 -6.071001,-0.71678 0.06646,0.58574 0.117515,1.17449 0.152393,1.76467 0.03458,0.58522 0.055,1.17248 0.05645,1.75903 9e-6,0.005 -10e-6,0.0103 0,0.015 2.31e-4,0.11741 -0.0087,0.23439 -0.0096,0.3518 -0.0106,1.06553 -0.07012,2.12936 -0.201296,3.18319 -0.222439,1.78702 -1.324444,5.23757 -1.324444,5.23757 3.689795,1.51572 7.028723,1.16461 10.52406,0.77322 3.704975,-0.41489 7.292812,-1.74625 10.697143,-3.26596 3.874947,-1.72979 7.551806,-3.97119 10.896561,-6.58271 2.176336,-1.69924 4.034121,-3.7803 5.873466,-5.83959 0.50162,-0.56167 0.9856,-1.1404 1.47306,-1.71576 0.005,0.006 0.009,0.008 0.0132,0.0132 1.34793,-1.57991 2.63686,-3.21291 3.77767,-4.94409 1.489835,-2.26084 2.873405,-4.62472 3.862345,-7.14522 0.55858,-1.42375 1.02806,-3.50042 1.3282,-4.91211 -0.8773,0.60533 -1.7848,1.1655 -2.72413,1.66308 -0.79699,0.42216 -1.61685,0.80225 -2.445725,1.16265 -0.002,7.9e-4 -0.004,8.6e-4 -0.006,0.002 -0.72937,0.31703 -1.46847,0.61039 -2.2162,0.88234 -0.10178,0.0374 -0.20276,0.0763 -0.30477,0.11289 -0.76942,0.27299 -1.5437,0.53137 -2.32531,0.76004 -3.525763,1.0317 -7.183665,1.58309 -10.825067,2.06756 -3.183992,0.42364 -6.397517,0.62514 -9.607863,0.72996 -3.849662,0.1257 -7.711143,0.12334 -11.555016,-0.12229 -3.46278,-0.22128 -6.918519,-0.62517 -10.33781,-1.21533 -4.303094,-0.7427 -8.616205,-1.57402 -12.770345,-2.91979 -3.352596,-1.08611 -6.628914,-2.46125 -9.730155,-4.13512 -2.572524,-1.38869 -5.050216,-2.99508 -7.297426,-4.865145 -2.997164,-2.494145 -5.716445,-5.345802 -8.149848,-8.392534 -0.349672,-0.437798 -0.690599,-0.895767 -1.025312,-1.363946 -2.096262,-2.810865 -3.9392137,-5.814752 -5.6571087,-8.872271 -0.313051,0.06733 -0.615871,0.120529 -0.857874,0.129815 -1.028414,0.0394 -2.060122,-0.03766 -3.0872351,-0.167439 z m 10.7498216,-4.821804 -1.785369,0.541818 c 2.341578,2.963421 4.968543,6.311924 6.669254,8.56185 0.42491,0.562123 1.282485,0.74822 1.986666,0.722424 0.948985,-0.03496 2.443815,-0.990665 2.803158,-1.228496 -0.193715,0.09141 -0.409855,0.145496 -0.613309,0.159916 -0.639412,0.04546 -1.822993,-0.609553 -1.822993,-0.609553 z m 4.377812,-2.645122 -1.388412,1.032835 2.436303,2.347878 c 0,0 3.07741,3.259355 4.876361,4.575352 0.63083,0.461474 1.267719,1.082094 2.046868,1.143838 0.63921,0.05067 1.265677,-0.317058 1.80606,-0.662222 0.281668,-0.179913 0.601461,-0.516726 0.855995,-0.803317 -0.416347,0.259717 -0.974945,0.335966 -1.450492,0.240808 -1.069843,-0.214136 -2.675223,-1.885073 -2.675223,-1.885073 z m 11.304808,-9.171403 -1.734569,2.946141 c 0,0 3.701575,1.981657 4.842494,3.275365 0.475606,0.539236 0.502191,0.778927 0.487261,1.215319 -0.01532,0.44746 -0.156024,0.9541 -0.436469,1.316921 l 0.0096,0.0058 c 0,0 1.677882,-1.891277 1.444848,-4.454947 -0.05134,-0.5651 -1.881269,-2.180459 -4.612976,-4.304443 z m 82.664865,-1.544552 -3.98462,1.582176 0.76381,4.507627 3.836,-1.025312 c 0,0 -0.11559,-3.182865 -0.50043,-4.716456 -0.0251,-0.100041 -0.0784,-0.233872 -0.11476,-0.348035 z m 17.21777,-5.122814 -1.23414,1.520096 c 0,0 -0.72882,0.864404 -1.32444,0.90303 -0.59564,0.03863 -1.18082,-0.361154 -1.5201,-0.827773 -0.30582,-0.420663 -0.34377,-1.167639 -0.32171,-1.561495 l -10.01986,3.978976 c 0.0139,0.04229 0.0365,0.09257 0.0489,0.133571 0.33668,1.113689 0.53744,2.722816 0.66034,4.25553 0.24366,-0.09469 2.68013,-1.03873 3.94322,-1.375235 1.32689,-0.353535 3.48332,-0.887358 3.75323,-0.743124 0.2699,0.144244 3.30546,5.696621 3.30546,5.696621 0,0 0.12715,-2.885265 0.24081,-4.771013 0.0671,-1.114719 0.26766,-1.837471 0.58696,-2.423125 0.33348,-0.611585 1.12521,-0.933988 1.47496,-0.948186 0.44873,-0.01821 4.78606,1.158893 4.78605,1.158893 z m -27.50479,-9.263584 c 0,0 -7.553865,2.557699 -11.419569,3.516172 -0.425749,0.10558 -0.854349,0.205034 -1.281166,0.308533 l -2.159749,54.401912 c 0.800937,-0.14836 1.599109,-0.30934 2.391146,-0.49855 0.477002,-0.11395 0.955256,-0.24314 1.433559,-0.36309 0.0048,-9.6e-4 0.01031,-0.003 0.01503,-0.004 1.387218,-0.34803 2.775534,-0.72551 4.138874,-1.16642 0.40998,-0.13258 0.81618,-0.27264 1.22098,-0.41764 0.10175,-0.0366 0.20341,-0.0735 0.30477,-0.11101 0.33642,-0.12385 0.67103,-0.25353 1.00274,-0.38754 0.18058,-0.0733 0.35907,-0.15111 0.53805,-0.22764 0.26671,-0.11359 0.533,-0.22674 0.7958,-0.34805 0.28069,-0.12996 0.55581,-0.26889 0.831545,-0.40824 0.16138,-0.0814 0.32581,-0.15786 0.48537,-0.24269 0.4521,-0.24078 0.89818,-0.49361 1.33386,-0.76382 2.27872,-1.41322 5.83959,-5.532934 5.83959,-5.532934 0,0 -1.42559,-15.594946 -2.31401,-23.373419 -0.92995,-8.142055 -3.15685,-24.381808 -3.15685,-24.381808 z m -97.4256407,-1.30751 -9.9126292,3.527461 c 0,0 6.4890622,2.045519 6.9476858,2.219941 0.4586043,0.174422 1.1307476,0.55435 1.4749489,1.049779 0.2903665,0.417955 0.4942345,1.004294 0.3950695,1.47306 -0.09916,0.468777 -1.8850737,5.65711 -1.8850737,5.65711 0,0 5.2479857,-4.282558 5.5950287,-4.439893 0.346976,-0.157344 1.049306,-0.291734 1.580298,-0.242696 0.855436,0.07889 2.0562397,0.650413 2.4325357,0.850361 0.376296,0.199938 13.562382,8.21004 13.562382,8.21004 L 26.98938,60.584237 C 21.54029,56.552475 14.307998,51.575312 8.4471653,47.608829 c -0.205476,0.229788 -0.456273,0.436112 -0.713022,0.492905 -0.611113,0.13517 -1.577293,-0.407303 -1.755259,-0.669755 -0.177957,-0.262442 -1.032845,-1.809816 -1.032845,-1.809816 z m -77.3802563,-2.85395 c -0.360998,-0.0058 -0.721641,-2.41e-4 -1.081754,0.01503 -3.36886,0.144928 -9.826095,2.402435 -9.826095,2.402435 0,0 2.865159,-0.831905 4.34207,-0.936887 2.41217,-0.171513 4.870202,0.0067 7.235526,0.509829 2.274314,0.48385 4.456108,1.385869 6.556374,2.383623 2.00027,0.950248 3.957153,2.046145 5.704139,3.407057 2.057995,1.603203 3.841905,3.548094 5.534821,5.532939 2.228701,2.613027 4.179512,5.45983 6.044656,8.343621 2.754715,4.25919 4.99927,8.828261 7.576045,13.197404 2.541773,4.309798 4.847615,8.722412 7.690806,12.772234 l -0.03005,-0.01878 c 0,0 2.811212,4.202523 4.323254,6.22714 2.801705,3.751442 5.565159,7.561682 8.789492,10.956762 3.386617,3.56595 7.058255,6.89507 11.0169648,9.81293 3.6595974,2.69737 7.5534816,5.13393 11.6791869,7.04363 2.2286776,1.0316 6.9834313,2.34788 6.9834313,2.34788 l 1.333854,-8.49601 c 0,0 -5.2925927,-1.93093 -7.7754677,-3.24338 -4.61571062,-2.43988 -8.9816074,-5.37094 -13.1240344,-8.54869 -5.0061189,-3.8403 -10.0167069,-7.82167 -14.0872669,-12.642414 -4.317388,-5.113057 -7.034444,-11.388609 -10.715955,-16.976962 -3.937942,-5.977615 -7.680629,-12.11662 -12.160803,-17.699387 -3.056965,-3.809303 -6.089848,-7.780467 -9.993531,-10.715955 -2.553515,-1.920193 -5.507496,-3.35538 -8.548683,-4.334543 -2.4017,-0.773264 -4.939949,-1.302357 -7.466929,-1.33949 z m 162.68836,-6.693711 -0.393191,9.882528 c 1.969751,-0.500861 3.926103,-1.05969 5.879103,-1.612286 0.34331,-0.09709 0.68112,-0.214695 1.02155,-0.323579 l -1.82487,-6.861149 c -0.7481,0.116243 -2.637516,0.374274 -3.256556,0.276554 -0.609427,-0.09623 -1.254272,-0.575724 -1.426036,-1.362068 z M 164.49262,5.6781393 c 0,0 -5.96664,4.9433057 -14.17757,8.2081617 -9.53343,3.790703 -19.0594,7.683855 -28.89696,10.595551 -8.4863,2.511752 -14.31704,4.356573 -25.886865,5.899795 -1.69949,0.226697 -4.33454,2.769292 -4.33454,2.769292 l 0.03391,0.0096 c 0.397121,-0.266458 0.843598,-0.453836 1.237897,-0.491026 2.751873,-0.259495 5.238413,-0.23551 7.831908,-0.596376 5.22042,-0.726363 10.38837,-1.849752 15.49637,-3.149315 5.06329,-1.288188 10.02542,-2.954011 14.98465,-4.59793 6.57774,-2.18043 13.20629,-4.263505 19.5807,-6.981543 3.15215,-1.344104 6.41592,-2.594273 9.19585,-4.59793 1.59538,-1.149897 3.2285,-2.44476 4.17087,-4.1708716 0.47833,-0.8761461 0.65965,-1.8868943 0.76382,-2.8972186 z"
       inkscape:connector-curvature="0"
       inkscape:export-xdpi="96"
       inkscape:export-ydpi="96" />
  </g>
  <g
     inkscape:groupmode="layer"
     id="layer3"
     inkscape:label="Credit"
     style="display:inline;opacity:0.992"
     transform="translate(9.5770229,20.046546)">
    <g
       aria-label="@kyrallei"
       transform="matrix(1.6875898,0.1446289,-0.15060235,1.7167142,-39.191302,-155.79611)"
       style="font-style:normal;font-weight:normal;font-size:4.93889px;line-height:1.25;font-family:sans-serif;letter-spacing:0px;word-spacing:0px;display:inline;opacity:1;fill:#a0a0a0;fill-opacity:1;stroke:none;stroke-width:0.264583;enable-background:new"
       id="text897"
       inkscape:export-xdpi="96"
       inkscape:export-ydpi="96">
      <path
         d="m 83.598231,193.25956 q -0.05956,-0.0916 -0.122267,-0.16187 -0.0627,-0.0703 -0.133879,-0.11998 -0.280751,-0.19607 -0.617517,-0.12242 -0.336767,0.0737 -0.550795,0.38011 -0.143605,0.20562 -0.123268,0.37867 0.02369,0.17244 0.209543,0.30224 0.104787,0.0732 0.263238,0.078 0.160428,0.006 0.389929,-0.0571 l 0.04105,-0.0419 q 0.575492,-0.56288 0.643968,-0.63566 z m 0.49911,0.0603 q -0.343481,0.26017 -0.633989,0.54556 -0.289126,0.28342 -0.423066,0.4752 -0.01657,0.0237 -0.01616,0.0358 4.08e-4,0.0121 0.01623,0.0231 0.03559,0.0249 0.117999,0.05 0.08379,0.0232 0.162028,0.0249 0.295374,0.0151 0.543955,-0.12604 0.250558,-0.13975 0.456301,-0.43434 0.294115,-0.42112 0.194097,-0.83807 -0.09666,-0.41755 -0.565237,-0.7448 -0.334133,-0.23336 -0.69497,-0.31477 -0.359458,-0.0834 -0.727638,-0.0111 -0.360084,0.0691 -0.673784,0.28245 -0.311722,0.21469 -0.549224,0.55475 -0.374203,0.5358 -0.257645,1.0849 0.115177,0.55108 0.686563,0.95014 0.387514,0.27064 0.834466,0.32982 0.447548,0.0626 1.070712,-0.0758 0.06656,-0.0153 0.113982,-0.0116 0.04742,0.004 0.07708,0.0244 0.04745,0.0331 0.05639,0.0835 0.0123,0.0498 -0.01808,0.0933 -0.03038,0.0435 -0.122988,0.0877 -0.09123,0.0422 -0.224354,0.0727 -0.548693,0.12861 -1.066413,0.0318 -0.515743,-0.0955 -0.968502,-0.41167 -0.674196,-0.47086 -0.80927,-1.15349 -0.133098,-0.68126 0.321193,-1.33173 0.26788,-0.38356 0.638445,-0.62775 0.373923,-0.24478 0.801762,-0.32249 0.443247,-0.0787 0.887093,0.0312 0.447203,0.10937 0.866351,0.4021 0.565454,0.39492 0.682797,0.93869 0.118724,0.54178 -0.247195,1.06572 -0.18503,0.26493 -0.428841,0.43293 -0.241833,0.16937 -0.524088,0.22815 -0.247295,0.0508 -0.4939,0.008 -0.243247,-0.0434 -0.421188,-0.16768 -0.120604,-0.0842 -0.144015,-0.17706 -0.02005,-0.0934 0.05589,-0.20217 0.01795,-0.0257 0.02762,-0.0395 0.01164,-0.0125 0.01855,-0.0223 -0.222,0.0567 -0.406154,0.034 -0.184153,-0.0227 -0.334414,-0.12766 -0.251093,-0.17537 -0.281034,-0.46101 -0.02796,-0.28427 0.17778,-0.57886 0.13394,-0.19178 0.327821,-0.30934 0.195858,-0.11618 0.479494,-0.17694 0.188829,-0.0387 0.424984,0.0233 0.237535,0.06 0.445132,0.20499 0.118627,0.0829 0.25351,0.21823 0.136861,0.13676 0.293932,0.32882 z"
         style="font-style:normal;font-variant:normal;font-weight:normal;font-stretch:normal;font-size:4.93889px;font-family:'Maiandra GD';-inkscape-font-specification:'Maiandra GD';fill:#a0a0a0;fill-opacity:1;stroke-width:0.264583"
         id="path896"
         inkscape:connector-curvature="0" />
      <path
         d="m 84.981711,196.1 q -0.11434,-1.8e-4 -0.201392,-0.016 -0.08593,-0.0179 -0.158501,-0.0561 -0.09178,-0.0483 -0.100909,-0.12935 -0.0059,-0.0821 0.07494,-0.23579 0.02694,-0.0512 0.3611,-0.61934 0.336297,-0.56699 0.615774,-1.09847 0.27611,-0.52507 0.355891,-0.73379 0.07978,-0.20871 0.07715,-0.34361 0.116474,0.001 0.202404,0.0192 0.08919,0.0169 0.151086,0.0495 0.100319,0.0527 0.1063,0.12946 0.0092,0.0757 -0.07831,0.24219 -0.0202,0.0384 -0.124035,0.20996 -0.449898,0.74158 -0.827024,1.45875 0.642299,-0.12816 1.0092,-0.24039 0.366902,-0.11223 0.524555,-0.2255 0.119217,0.13081 0.152044,0.21346 0.03283,0.0827 -0.0031,0.15096 -0.04826,0.0918 -0.812648,0.22931 -0.339964,0.061 -0.543582,0.10106 0.02035,0.0598 0.06015,0.17059 0.420295,1.23186 0.563303,1.30706 l 0.0085,0.004 q -0.08655,0.11797 -0.177966,0.15709 -0.09029,0.037 -0.177803,-0.009 -0.143008,-0.0752 -0.360158,-0.79699 -0.173742,-0.57635 -0.309669,-0.94481 l -0.05051,0.096 q -0.181829,0.34578 -0.26172,0.55989 -0.07776,0.21523 -0.07512,0.35012 z"
         style="font-style:normal;font-variant:normal;font-weight:normal;font-stretch:normal;font-size:4.93889px;font-family:'Maiandra GD';-inkscape-font-specification:'Maiandra GD';fill:#a0a0a0;fill-opacity:1;stroke-width:0.264583"
         id="path899"
         inkscape:connector-curvature="0" />
      <path
         d="m 86.436372,197.78668 q 0.153573,-0.0363 0.307279,-0.1233 0.154845,-0.0838 0.333265,-0.23382 l 0.143458,-0.11593 q 0.0552,-1.32025 0.01957,-1.72732 -0.03346,-0.40604 -0.161351,-0.49642 0.128657,-0.15773 0.257985,-0.22162 0.129328,-0.0639 0.222926,-0.0193 0.06748,0.0322 0.09544,0.0856 0.029,0.0512 0.02987,0.15585 5.03e-4,0.027 -0.03408,0.65971 -0.03354,0.63057 -0.03183,1.24322 0.602466,-0.49017 0.934222,-0.80485 0.333933,-0.31365 0.403485,-0.45949 0.01349,-0.0283 0.01942,-0.0575 0.0081,-0.0282 0.01299,-0.0553 0.01731,0.003 0.05515,0.008 0.184851,0.0214 0.252329,0.0536 0.07836,0.0374 0.103311,0.1027 0.02495,0.0653 -0.0093,0.13717 -0.04464,0.0936 -0.657887,0.58396 -0.611073,0.49141 -1.082035,0.91871 -0.141081,0.12776 -0.370032,0.34453 -0.517241,0.49073 -0.654373,0.42533 -0.07183,-0.0342 -0.120189,-0.14014 -0.0494,-0.10371 -0.06962,-0.26298 z"
         style="font-style:normal;font-variant:normal;font-weight:normal;font-stretch:normal;font-size:4.93889px;font-family:'Maiandra GD';-inkscape-font-specification:'Maiandra GD';fill:#a0a0a0;fill-opacity:1;stroke-width:0.264583"
         id="path901"
         inkscape:connector-curvature="0" />
      <path
         d="m 89.967531,196.52207 q 0.267441,-0.15908 0.467047,-0.20572 0.200576,-0.0488 0.346297,0.0152 0.123641,0.0543 0.174829,0.17163 0.05437,0.11608 0.0039,0.23089 -0.03298,0.0751 -0.115771,0.12562 -0.07961,0.0493 -0.210009,0.0763 0.0074,-0.11266 -0.02527,-0.18231 -0.03041,-0.0687 -0.103271,-0.10068 -0.108187,-0.0475 -0.274943,0.008 -0.165785,0.0536 -0.368865,0.20408 -0.05469,0.0945 -0.106904,0.19536 -0.05124,0.0987 -0.09392,0.1958 -0.1455,0.33119 -0.207174,0.56749 -0.05947,0.23728 -0.04427,0.41254 -0.108686,0.008 -0.205463,-0.006 -0.09457,-0.0126 -0.176261,-0.0485 -0.108187,-0.0475 -0.126857,-0.11895 -0.01549,-0.0727 0.05629,-0.23604 0.02619,-0.0596 0.222868,-0.44734 0.199857,-0.38895 0.350207,-0.73118 0.12319,-0.2804 0.167072,-0.44023 0.04388,-0.15984 0.04354,-0.29696 0.05095,0.004 0.09581,0.0157 0.04804,0.0106 0.0944,0.0309 0.128057,0.0563 0.162718,0.14524 0.03563,0.0868 -0.01966,0.21262 -0.01261,0.0287 -0.03934,0.0776 -0.02355,0.0476 -0.06703,0.12859 z"
         style="font-style:normal;font-variant:normal;font-weight:normal;font-stretch:normal;font-size:4.93889px;font-family:'Maiandra GD';-inkscape-font-specification:'Maiandra GD';fill:#a0a0a0;fill-opacity:1;stroke-width:0.264583"
         id="path903"
         inkscape:connector-curvature="0" />
      <path
         d="m 92.276767,199.40282 q -0.109795,0.0206 -0.19309,0.0208 -0.08329,1.2e-4 -0.13695,-0.0216 -0.09613,-0.0389 -0.117336,-0.11509 -0.01806,-0.0775 0.02858,-0.21215 -0.225542,0.0753 -0.419009,0.0777 -0.191232,0.003 -0.36114,-0.0654 -0.335345,-0.13563 -0.46507,-0.40661 -0.129726,-0.27098 -0.0058,-0.57726 0.140152,-0.34653 0.505933,-0.44051 0.368921,-0.0953 0.847347,0.0982 0.07825,0.0317 0.162725,0.0736 0.08762,0.0406 0.183699,0.0925 0.01261,-0.0183 0.02075,-0.0384 0.01128,-0.0214 0.02303,-0.0505 0.09404,-0.2325 0.01096,-0.40658 -0.07994,-0.1754 -0.328091,-0.27577 -0.205679,-0.0832 -0.367847,-0.0681 -0.159029,0.0137 -0.299617,0.12334 -0.07234,-0.0527 -0.09493,-0.11903 -0.02035,-0.0655 0.0113,-0.14371 0.06601,-0.1632 0.314184,-0.18509 0.251316,-0.0232 0.584425,0.11151 0.409121,0.16547 0.53209,0.44672 0.126108,0.27993 -0.03303,0.6734 -0.02984,0.0738 -0.110691,0.25438 -0.08085,0.18061 -0.126062,0.29239 -0.124781,0.30852 -0.164964,0.51078 -0.03795,0.20317 -0.0013,0.35064 z m -0.08947,-1.19378 q -0.09651,-0.0572 -0.176516,-0.0974 -0.07687,-0.0415 -0.134993,-0.065 -0.346523,-0.14015 -0.570157,-0.0953 -0.22273,0.0426 -0.314959,0.27062 -0.07415,0.18332 0.0063,0.33813 0.08046,0.1548 0.297319,0.24251 0.163202,0.066 0.32846,0.0626 0.168399,-0.005 0.336619,-0.0798 0.04074,-0.11359 0.06653,-0.18379 0.02893,-0.0716 0.05516,-0.13638 0.01628,-0.0402 0.05287,-0.12429 0.0375,-0.0863 0.05335,-0.1319 z"
         style="font-style:normal;font-variant:normal;font-weight:normal;font-stretch:normal;font-size:4.93889px;font-family:'Maiandra GD';-inkscape-font-specification:'Maiandra GD';fill:#a0a0a0;fill-opacity:1;stroke-width:0.264583"
         id="path905"
         inkscape:connector-curvature="0" />
      <path
         d="m 93.358319,199.82707 q -0.114315,0.0164 -0.207175,0.01 -0.0906,-0.006 -0.162854,-0.0328 -0.108378,-0.0407 -0.126146,-0.11688 -0.01692,-0.0785 0.04746,-0.25007 0.08048,-0.21449 0.330663,-0.80577 0.25103,-0.59353 0.39759,-0.98414 0.181293,-0.48318 0.245129,-0.74256 0.06468,-0.26164 0.04382,-0.41886 0.1098,-0.018 0.202659,-0.0115 0.09286,0.007 0.16737,0.0345 0.112893,0.0424 0.132356,0.11406 0.01946,0.0717 -0.04577,0.24555 -0.05422,0.1445 -0.309485,0.74932 -0.255265,0.60482 -0.430629,1.0722 -0.188071,0.50125 -0.247387,0.74172 -0.05706,0.24131 -0.03761,0.39543 z"
         style="font-style:normal;font-variant:normal;font-weight:normal;font-stretch:normal;font-size:4.93889px;font-family:'Maiandra GD';-inkscape-font-specification:'Maiandra GD';fill:#a0a0a0;fill-opacity:1;stroke-width:0.264583"
         id="path908"
         inkscape:connector-curvature="0" />
      <path
         d="m 94.562114,200.24827 q -0.113626,0.0206 -0.206664,0.0176 -0.09075,-0.002 -0.163962,-0.0267 -0.109818,-0.0366 -0.130414,-0.11209 -0.01983,-0.0778 0.03811,-0.25167 0.07243,-0.21734 0.300406,-0.81753 0.228736,-0.60247 0.360637,-0.99828 0.163161,-0.4896 0.217286,-0.75118 0.05489,-0.26386 0.02819,-0.42019 0.109051,-0.0221 0.202089,-0.0191 0.09304,0.003 0.168538,0.0282 0.114393,0.0381 0.136514,0.10904 0.02212,0.0709 -0.03659,0.24709 -0.04879,0.14642 -0.281344,0.76034 -0.232548,0.61391 -0.390372,1.0875 -0.169261,0.50791 -0.219574,0.75042 -0.04803,0.24327 -0.02285,0.39655 z"
         style="font-style:normal;font-variant:normal;font-weight:normal;font-stretch:normal;font-size:4.93889px;font-family:'Maiandra GD';-inkscape-font-specification:'Maiandra GD';fill:#a0a0a0;fill-opacity:1;stroke-width:0.264583"
         id="path910"
         inkscape:connector-curvature="0" />
      <path
         d="m 95.837316,199.22617 q 0.145871,0.069 0.325193,0.13492 0.182301,0.0643 0.395734,0.12486 0.28999,0.0823 0.402572,0.0566 0.112582,-0.0257 0.152093,-0.1649 0.05992,-0.21111 -0.05133,-0.37555 -0.111254,-0.16444 -0.364125,-0.23622 -0.269111,-0.0764 -0.496474,0.0446 -0.227363,0.12097 -0.363663,0.41569 z m 1.091399,1.29498 q 0.03326,0.0771 0.04065,0.13939 0.01037,0.0606 -0.0041,0.11164 -0.03556,0.12527 -0.246521,0.15313 -0.207983,0.0262 -0.509572,-0.0594 -0.554461,-0.15738 -0.784364,-0.54853 -0.226924,-0.39281 -0.07547,-0.92639 0.152774,-0.53822 0.565083,-0.78969 0.415288,-0.25313 0.911751,-0.11221 0.382786,0.10865 0.566798,0.39653 0.184012,0.28787 0.08787,0.62658 -0.07573,0.26679 -0.312148,0.32252 -0.236419,0.0557 -0.725922,-0.0832 -0.183274,-0.052 -0.363255,-0.11564 -0.177002,-0.0653 -0.348393,-0.14151 l -0.0092,0.0325 q -0.102727,0.3619 0.05078,0.6336 0.153509,0.27169 0.520056,0.37574 0.171674,0.0487 0.33034,0.0461 0.159325,-0.005 0.305643,-0.0611 z"
         style="font-style:normal;font-variant:normal;font-weight:normal;font-stretch:normal;font-size:4.93889px;font-family:'Maiandra GD';-inkscape-font-specification:'Maiandra GD';fill:#a0a0a0;fill-opacity:1;stroke-width:0.264583"
         id="path912"
         inkscape:connector-curvature="0" />
      <path
         d="m 98.176331,201.26211 q -0.112019,0.028 -0.207388,0.0306 -0.09537,0.002 -0.177032,-0.0189 -0.114326,-0.0299 -0.140469,-0.10152 -0.0232,-0.0734 0.02558,-0.26002 0.02805,-0.10733 0.146615,-0.47515 0.118566,-0.36782 0.188691,-0.63614 0.07622,-0.29165 0.09579,-0.48096 0.01957,-0.18931 -0.0099,-0.3341 0.09974,-0.0288 0.197446,-0.0306 0.09831,-0.004 0.186974,0.019 0.107327,0.0281 0.132966,0.0921 0.02625,0.0617 -0.01095,0.20402 -0.0098,0.0373 -0.127712,0.40282 -0.117956,0.36549 -0.205156,0.69914 -0.08171,0.31265 -0.105042,0.5259 -0.021,0.21385 0.0096,0.36392 z m 0.746621,-2.93304 q -0.03476,0.13299 -0.151258,0.19726 -0.1165,0.0643 -0.258825,0.0271 -0.123659,-0.0323 -0.177695,-0.12121 -0.05403,-0.0889 -0.02294,-0.2079 0.03415,-0.13065 0.151258,-0.19726 0.117719,-0.0689 0.250712,-0.0342 0.121326,0.0317 0.178808,0.1265 0.05982,0.0954 0.02994,0.20972 z"
         style="font-style:normal;font-variant:normal;font-weight:normal;font-stretch:normal;font-size:4.93889px;font-family:'Maiandra GD';-inkscape-font-specification:'Maiandra GD';fill:#a0a0a0;fill-opacity:1;stroke-width:0.264583"
         id="path914"
         inkscape:connector-curvature="0" />
    </g>
    <path
       id="path952"
       style="fill:#ffffff;fill-opacity:1;stroke:#1e1c58;stroke-width:4.50001;stroke-linecap:butt;stroke-linejoin:round;stroke-miterlimit:4;stroke-dasharray:none;stroke-opacity:1"
       d="m 80.448647,-17.796537 c -4.492345,-0.0019 -9.059146,0.607226 -13.435356,1.313615 -8.75242,1.412778 -16.953172,3.137876 -25.58655,5.154208 -10.218687,2.3865814 -20.822642,3.7447586 -30.308745,8.2315386 -3.5790295,1.6928258 -7.0414411,3.89638564 -9.3544672,7.1096435 -1.83646677,2.551221 -2.8461374,5.592907 -3.7413736,8.6061919 -2.0016711,6.737448 -3.5648958,13.612289 -4.4901651,20.579622 -1.3431519,10.114016 -1.3125162,20.557077 1.578198,30.341819 2.8907144,9.784738 8.8470207,18.889874 17.5048749,24.287921 5.295197,3.301482 11.4289,5.13126 17.633548,5.795513 6.204646,0.66425 12.490307,0.19314 18.640205,-0.864031 12.2998,-2.114344 24.090445,-6.542411 36.316648,-9.047509 1.163732,-0.238446 2.332698,-0.457103 3.503144,-0.671793 9.443058,11.058826 28.772202,18.102858 46.976462,7.832079 -18.84496,-0.150339 -21.59292,-3.210134 -25.45632,-13.728361 1.64656,-0.847159 3.22339,-1.82308 4.68446,-2.960026 2.764,-2.150817 5.11414,-4.88052 6.5872,-8.057907 2.61305,-5.636313 2.29944,-12.137003 1.8712,-18.334796 -0.73138,-10.584979 -1.66005,-21.247809 -4.70565,-31.411521 -3.0456,-10.163708 -8.38116,-19.9037016 -16.62276,-26.585972 -2.617089,-2.121935 -5.506394,-3.918213 -8.606197,-5.23844 -4.078362,-1.737001 -8.496012,-2.34988 -12.988356,-2.351795 z"
       sodipodi:nodetypes="sssssssssssscccsssssss" />
  </g>
  <g
     style="display:none"
     transform="translate(9.5770229,-15.669231)"
     inkscape:label="speech bubbles"
     id="layer1"
     inkscape:groupmode="layer">
    <path
       id="path919"
       style="opacity:0.992;fill:#ffffff;fill-opacity:1;stroke:#36244b;stroke-width:4.5;stroke-linecap:butt;stroke-linejoin:round;stroke-miterlimit:4;stroke-dasharray:none;stroke-opacity:1;enable-background:new"
       d="M 361.17122,-33.465656 A 75.67083,36.5125 0 0 0 285.88951,3.0468424 75.67083,36.5125 0 0 0 301.70975,25.388631 c -7.95452,7.066503 -18.8645,13.778908 -33.75401,20.450948 22.51718,-2.510579 37.29635,-6.037903 50.03776,-12.93926 a 75.67083,36.5125 0 0 0 43.56685,6.659023 75.67083,36.5125 0 0 0 75.67083,-36.5124996 75.67083,36.5125 0 0 0 -75.67083,-36.5124984 75.67083,36.5125 0 0 0 -0.38913,0 z"
       transform="translate(-1.0633633e-7,35.715776)" />
    <path
       d="m 23.172835,21.73085 a 75.670831,36.5125 0 0 1 75.28171,36.512497 75.670831,36.5125 0 0 1 -15.82024,22.34179 c 7.95452,7.0665 18.864495,13.77891 33.754005,20.450953 C 93.871135,98.525507 79.091965,94.998187 66.350555,88.096827 a 75.670831,36.5125 0 0 1 -43.56685,6.65902 75.670831,36.5125 0 0 1 -75.67084,-36.5125 75.670831,36.5125 0 0 1 75.67084,-36.512497 75.670831,36.5125 0 0 1 0.38913,0 z"
       style="opacity:0.992;fill:#ffffff;fill-opacity:1;stroke:#36244b;stroke-width:4.50001;stroke-linecap:butt;stroke-linejoin:round;stroke-miterlimit:4;stroke-dasharray:none;stroke-opacity:1;enable-background:new"
       id="path919-3" />
    <path
       d="m 90.924104,24.76603 c -0.823769,-5.75e-4 -1.655971,0.04002 -2.493904,0.124023 L 15.808794,32.170229 C 2.4018614,33.514195 -7.3095533,45.389578 -5.9655865,58.79651 l 4.3769915,43.66245 c 1.34396688,13.40693 13.219351,23.11834 26.626283,21.77438 l 60.495531,-6.06475 c 19.275391,14.52996 37.274321,13.82419 59.418601,0.11627 -19.41336,8.78767 -32.9418,4.86437 -41.54527,-2.61482 10.31859,-3.65249 17.16969,-13.94342 16.02693,-25.343153 l -4.377,-43.662452 C 113.79652,34.095436 103.28066,24.774653 90.924104,24.76603 Z"
       style="display:inline;opacity:0.997;fill:#ffffff;fill-opacity:1;stroke:#36244b;stroke-width:4.50001;stroke-linecap:butt;stroke-linejoin:round;stroke-miterlimit:4;stroke-dasharray:none;stroke-opacity:1;enable-background:new"
       id="path924" />
  </g>
</svg>
