<?xml version="1.0" encoding="UTF-8" standalone="no"?>
<svg
   xmlns:dc="http://purl.org/dc/elements/1.1/"
   xmlns:cc="http://creativecommons.org/ns#"
   xmlns:rdf="http://www.w3.org/1999/02/22-rdf-syntax-ns#"
   xmlns:svg="http://www.w3.org/2000/svg"
   xmlns="http://www.w3.org/2000/svg"
   xmlns:sodipodi="http://sodipodi.sourceforge.net/DTD/sodipodi-0.dtd"
   xmlns:inkscape="http://www.inkscape.org/namespaces/inkscape"
   inkscape:version="1.0 (4035a4fb49, 2020-05-01)"
   inkscape:export-ydpi="192"
   inkscape:export-xdpi="192"
   inkscape:export-filename="C:\Users\Kate\Documents\#COMMISSIONS\css dinos (tex)\9-speech bubble tex, voting tex\ballot box tex.png"
   sodipodi:docname="ballot box tex.svg"
   style="enable-background:new"
   id="svg8"
   version="1.1"
   viewBox="0 0 269.36144 239.40178"
   height="239.40178mm"
   width="269.36145mm">
  <sodipodi:namedview
     inkscape:current-layer="svg8"
     inkscape:window-maximized="1"
     inkscape:window-y="-9"
     inkscape:window-x="-9"
     inkscape:cy="452.41281"
     inkscape:cx="509.02951"
     inkscape:zoom="0.81231121"
     showgrid="false"
     id="namedview88"
     inkscape:window-height="1373"
     inkscape:window-width="3440"
     inkscape:pageshadow="2"
     inkscape:pageopacity="0"
     guidetolerance="10"
     gridtolerance="10"
     objecttolerance="10"
     borderopacity="1"
     bordercolor="#666666"
     pagecolor="#ffffff" />
  <defs
     id="defs2">
    <filter
       id="filter1794"
       style="color-interpolation-filters:sRGB">
      <feBlend
         id="feBlend1796"
         in2="BackgroundImage"
         mode="overlay" />
    </filter>
  </defs>
  <metadata
     id="metadata5">
    <rdf:RDF>
      <cc:Work
         rdf:about="">
        <dc:format>image/svg+xml</dc:format>
        <dc:type
           rdf:resource="http://purl.org/dc/dcmitype/StillImage" />
        <dc:title></dc:title>
      </cc:Work>
    </rdf:RDF>
  </metadata>
  <g
     style="display:inline;opacity:0.997"
     transform="translate(90.05689,66.979842)"
     id="layer23">
    <g
       id="g943">
      <path
         style="display:inline;fill:#36244b;fill-opacity:1;stroke:none;stroke-width:0.963232px;stroke-linecap:butt;stroke-linejoin:miter;stroke-opacity:1;enable-background:new"
         d="m 6.6486753,75.323918 c 0,0 -4.0337458,-0.427416 -5.95969754,-1.021662 C -3.4854357,73.014259 -7.504816,71.134749 -11.23041,68.853388 -17.77705,64.844562 -23.379001,59.460331 -29.279769,54.550127 -33.85606,50.74206 -38.051531,46.480743 -42.731644,42.80102 c -2.78539,-2.190002 -6.168323,-4.296802 -9.620646,-5.70428 -3.218777,-1.312259 -6.293635,-2.298683 -10.131483,-2.469011 -3.3761,-0.149845 -6.054163,0.129313 -8.939537,0.936517 -4.352281,1.217564 -8.68737,3.021458 -12.259941,5.789417 -2.596627,2.011815 -6.994829,6.222616 -6.300235,7.577327 0.925645,1.805351 5.778171,-0.762614 8.684126,-0.766251 2.990772,-0.0036 6.072642,0.04442 8.939541,0.766247 3.521344,0.886612 6.956603,2.43815 9.876064,4.597476 3.069667,2.270422 5.402459,5.436509 7.662462,8.513854 3.630025,4.942838 6.204325,10.580524 9.365231,15.835751 3.532248,5.872605 6.804614,11.919312 10.72745,17.538529 3.191644,4.571832 6.697407,8.930904 10.386894,13.111314 2.894894,3.2801 5.843283,6.55353 9.194955,9.36524 2.689702,2.25639 5.653465,4.18744 8.6841233,5.9597 3.2211216,1.88363 6.59410186,3.5218 10.0463445,4.93802 1.8266335,0.74935 5.6191415,1.87305 5.6191415,1.87305 0,0 -6.3831716,26.24835 -5.448869,29.11736 0.934303,2.86902 60.7501457,14.32567 62.6533617,12.43022 1.903217,-1.89545 -1.719546,-7.08706 -3.396982,-10.21661 -1.677436,-3.12956 -4.024779,-5.37318 -6.30025,-7.83275 -1.79969,-1.94529 -5.789411,-5.44887 -5.789411,-5.44887 l 3.916367,-6.6408 c 0,0 5.999755,1.14502 9.024683,1.02167 3.525724,-0.14377 7.018122,-0.99318 10.386886,-2.04333 2.718014,-0.84729 7.832741,-3.40553 7.832741,-3.40553 0,0 15.169151,22.835 17.027701,23.15766 1.858556,0.32266 43.016506,-21.67733 43.420626,-22.81711 0.40412,-1.13979 -0.89058,-2.52937 -2.2136,-3.23526 -3.23593,-1.7265 -7.21899,-2.27848 -10.81258,-2.59673 -2.49023,-0.22054 -7.23678,-0.12767 -7.23678,-0.12767 0,0 0.12378,-8.24691 -0.6811,-12.25994 -0.56837,-2.83383 -1.57813,-5.60034 -2.89472,-8.17331 -1.22642,-2.39676 -2.80455,-4.63233 -4.59747,-6.6408 -1.2054,-1.35032 -4.08665,-3.57582 -4.08665,-3.57582 l 0.29798,-4.342053 z"
         id="path926" />
      <path
         style="display:inline;fill:#c3abdf;fill-opacity:1;stroke:none;stroke-width:0.963232px;stroke-linecap:butt;stroke-linejoin:miter;stroke-opacity:1;enable-background:new"
         d="m 53.389696,113.12539 1.021662,-4.08664 50.390982,-6.47476 c 0,0 -0.84275,4.3424 -1.64611,6.38997 -0.98892,2.5205 -2.37344,4.88433 -3.863256,7.14515 -1.55502,2.35975 -3.37996,4.53944 -5.26252,6.64715 -1.839325,2.05931 -3.698516,4.14036 -5.874855,5.8396 -3.344755,2.61151 -7.021613,4.85288 -10.896565,6.58267 -3.404329,1.51971 -6.992091,2.85064 -10.697069,3.26552 -3.495336,0.39141 -6.833454,0.74345 -10.523247,-0.77227 0,0 1.101998,-3.45055 1.324444,-5.23757 0.292482,-2.34982 0.268855,-4.75121 0,-7.10384 -0.222184,-1.94419 -0.731346,-3.85439 -1.324444,-5.71919 -0.70687,-2.22251 -2.649022,-6.47577 -2.649022,-6.47577 z"
         id="path918" />
      <path
         style="display:inline;opacity:0.98;fill:#c3abdf;fill-opacity:1;stroke:none;stroke-width:0.963232px;stroke-linecap:butt;stroke-linejoin:miter;stroke-opacity:1;enable-background:new"
         d="m 11.438839,118.2694 -1.334241,8.49579 c 0,0 -4.7547547,-1.31627 -6.9834302,-2.34787 -4.1257101,-1.90971 -8.0195929,-4.34626 -11.6791873,-7.04364 -3.9587105,-2.91785 -7.6303515,-6.24697 -11.0169655,-9.81293 -3.224329,-3.39507 -5.987789,-7.20531 -8.789492,-10.956755 -1.512045,-2.024611 -4.323254,-6.227152 -4.323254,-6.227152 z"
         id="path920" />
      <path
         style="display:inline;fill:#9d68dc;fill-opacity:1;stroke:none;stroke-width:0.963232px;stroke-linecap:butt;stroke-linejoin:miter;stroke-opacity:1;enable-background:new"
         d="m 54.411358,109.03875 -1.021662,4.08664 c 0,0 -1.089078,-1.16082 -1.787913,-1.10679 -0.7826,0.0605 -1.459912,0.81937 -1.787901,1.53249 -0.237183,0.51566 -0.114132,1.14677 0,1.70277 0.304205,1.48202 1.302535,2.73883 1.787901,4.17178 0.666875,1.96881 1.2751,3.98214 1.532495,6.04483 0.249488,1.99944 0.174965,4.03751 0,6.04484 -0.185159,2.12419 -0.536954,4.24556 -1.106793,6.30025 -0.633829,2.28542 -1.357117,4.59337 -2.554156,6.6408 -0.966507,1.65312 -3.660952,4.4272 -3.660952,4.4272 0,0 1.36521,1.52984 2.04332,2.29874 1.197249,1.35755 2.367715,2.73875 3.575817,4.08665 1.568485,1.74998 3.303839,3.35509 4.767745,5.19345 1.716278,2.15528 4.682618,6.81107 4.682618,6.81107 l -4.682618,-0.76625 c 0,0 -3.938516,-7.48253 -7.151628,-10.04634 -0.576763,-0.46021 -1.312674,-0.95433 -2.043323,-0.85138 -0.539819,0.0761 -1.086832,0.51078 -1.277073,1.02166 -0.27195,0.73028 0.130551,1.57752 0.425691,2.29874 1.037422,2.53512 4.597476,6.81107 4.597476,6.81107 l -4.256916,-0.93652 c 0,0 -1.620258,-3.8955 -2.809574,-5.61913 -0.83267,-1.20676 -1.232473,-2.60063 -2.554153,-3.23527 -0.743668,-0.3571 -1.849121,-0.7146 -2.469014,-0.17027 -0.734935,0.64535 0.106486,2.49225 0.681101,3.57582 0.832961,1.57078 2.554153,4.68261 2.554153,4.68261 l -33.0337307,-7.23677 8.5989947,-45.3788 c 0,0 0.06087,-1.58417 -0.340574,-2.21361 -0.275118,-0.43135 -0.768006,-0.80038 -1.277073,-0.85138 -0.671214,-0.0672 -1.399181,0.28615 -1.873054,0.76624 -0.707096,0.71638 -1.106793,2.80958 -1.106793,2.80958 l -1.424927,6.33593 c -6.3634677,-0.79845 -12.08603044,-3.73859 -17.7664933,-6.46874 -5.0046217,-2.40534 -9.8662027,-5.22695 -14.2284577,-8.66243 -3.85577,-3.03661 -7.341921,-6.585669 -10.391172,-10.431449 -3.68084,-4.642353 -6.36677,-9.940175 -9.400501,-15.084125 -2.576775,-4.36914 -4.822608,-8.937269 -7.577323,-13.19646 -1.865147,-2.883791 -3.816131,-5.730546 -6.044832,-8.343574 -1.692916,-1.984849 -3.476005,-3.930798 -5.534,-5.533996 -1.746985,-1.360918 -3.704009,-2.455289 -5.704279,-3.405538 -2.100266,-0.99775 -4.281348,-1.900031 -6.555661,-2.383883 -2.365324,-0.503217 -4.824604,-0.682332 -7.236774,-0.510829 -1.476907,0.104994 -4.342062,0.93652 -4.342062,0.93652 0,0 4.751152,-2.939889 7.321909,-4.001505 3.005007,-1.240948 6.126461,-2.44095 9.365235,-2.724433 2.872298,-0.251417 5.798607,0.250107 8.598985,0.936531 3.106986,0.761573 6.186676,1.86123 8.939541,3.490672 3.311407,1.960046 5.940319,4.894015 8.854399,7.407043 3.623116,3.124483 7.101385,6.414455 10.72745,9.535516 3.191844,2.747313 6.328741,5.571967 9.705784,8.088152 3.086428,2.299651 6.278852,4.220299 9.620647,6.129974 2.9313401,1.675117 5.8869228,3.421367 9.109821,4.427196 2.4942688,0.778432 5.1365993,1.291966 7.7476033,1.191941 0.873614,-0.03349 2.554156,-0.595967 2.554156,-0.595967 z"
         id="path913" />
      <path
         style="display:inline;fill:#9d68dc;fill-opacity:1;stroke:none;stroke-width:0.963232px;stroke-linecap:butt;stroke-linejoin:miter;stroke-opacity:1;enable-background:new"
         d="m 108.72971,104.78183 c 0,0 -1.24137,5.10344 -2.29874,7.49218 -1.15887,2.61805 -2.73257,5.04742 -4.38463,7.38577 -1.62493,2.29995 -3.485646,4.43237 -5.406296,6.4918 -1.7694,1.89725 -3.598778,3.7576 -5.619137,5.38501 -1.891046,1.52325 -6.044832,4.06537 -6.044832,4.06537 l 14.899229,19.58185 18.134506,-8.25844 c 0,0 -2.37023,-1.76756 -3.53022,-2.70938 -0.37713,-0.30621 -0.66462,-1.01676 -0.47128,-1.4624 0.26656,-0.61445 0.79199,-0.83756 1.45208,-0.95113 0.9644,-0.16594 1.7964,0.20518 2.65906,0.46007 1.64851,0.48706 4.74326,2.02355 4.74326,2.02355 l 3.08627,-1.46864 c 0,0 -4.43003,-1.53325 -6.65293,-2.27657 -1.01047,-0.33788 -2.80951,-0.71755 -3.03843,-0.99245 -0.22459,-0.26969 -0.17038,-0.75547 0.0494,-1.05176 0.3724,-0.50192 1.21503,-1.02623 1.65806,-1.11667 0.54681,-0.11162 4.24656,0.47097 6.34495,0.86126 2.23666,0.41601 6.64081,1.57506 6.64081,1.57506 l 4.36335,-2.19232 c 0,0 -5.76742,-1.39865 -8.70542,-1.76662 -2.87571,-0.36016 -8.68412,-0.42569 -8.68412,-0.42569 0,0 0.1777,-7.18757 -0.34057,-10.72745 -0.49759,-3.39874 -1.27507,-6.80876 -2.6393,-9.9612 -1.55435,-3.5918 -6.21509,-9.9612 -6.21509,-9.9612 z"
         id="path909" />
      <path
         style="display:inline;fill:#36244b;fill-opacity:1;stroke:none;stroke-width:0.963232px;stroke-linecap:butt;stroke-linejoin:miter;stroke-opacity:1;enable-background:new"
         d="m 33.157122,34.601496 c 3.845114,-11.086639 6.825915,-19.641573 8.841697,-29.8073175 0.57672,-2.9084374 1.306565,-6.2657632 0.91586,-8.8479189 -0.477532,-3.1570042 -1.956951,-6.1102236 -2.408079,-9.2711086 -0.385772,-2.702945 -0.363692,-5.259581 0.120394,-7.946661 0.737326,-4.09285 1.618477,-7.765751 3.491717,-11.19757 2.156753,-3.951226 5.595496,-7.590047 8.669087,-10.354744 2.072699,-1.864397 5.913594,-3.665197 8.548683,-4.575356 3.331638,-1.150745 4.42349,-1.097793 7.946665,-1.204039 2.092213,-0.06309 4.946843,-0.122177 6.983428,0.361216 1.64612,0.39072 4.695756,1.926465 4.695756,1.926465 0,0 8.336271,-4.295145 12.642418,-6.140604 7.482432,-3.206694 15.153682,-5.975061 22.876762,-8.548687 6.3496,-2.115923 12.60957,-4.948633 19.26464,-5.658983 4.9218,-0.525344 10.13342,-0.538887 14.80969,1.083657 6.08909,2.112752 11.52664,6.209618 16.01373,10.836357 2.61233,2.693633 4.47755,6.091369 6.0202,9.511917 0.94513,2.09565 1.84205,4.324856 1.92647,6.622222 0.14161,3.854503 -1.21835,10.330847 -2.28768,10.956761 -1.06932,0.625915 -9.87313,-4.214139 -9.87313,-4.214139 0,0 -3.5092,11.765239 -5.24934,12.261302 -1.74015,0.496063 -8.25661,-2.121817 -11.4868,-4.555333 0,0 -2.05797,10.14902 -3.73252,10.956766 -1.67456,0.807746 -11.79959,-5.418179 -11.79959,-5.418179 0,0 -0.70109,9.5308624 -2.2111,10.5177164 -1.51001,0.986858 -11.57819,-4.3211894 -11.57819,-4.3211894 0,0 -2.7966,10.1971434 -4.27132,10.9008384 -1.47471,0.7036951 -12.341406,-6.321209 -12.341406,-6.321209 l -4.75596,1.505052 c 0,0 2.28233,2.597526 3.73252,3.4917134 2.075226,1.2795701 4.440766,2.2520514 6.863036,2.5284829 6.63918,0.7576701 13.30539,-1.367384 19.88857,-2.5138769 13.8464,-2.4114174 38.45191,-9.9934138 41.15625,-9.1653098 2.70434,0.828104 3.10839,12.5213906 1.92647,18.6626175 -0.52249,2.7148141 -2.47817,7.3214355 -5.53859,9.1507055 -9.84911,5.887006 -21.00746,9.916125 -32.02746,13.485248 -10.30843,3.338668 -31.666256,7.344643 -31.666256,7.344643 l 3.107156,10.287201 -69.329344,1.271582 z"
         id="path946" />
      <path
         style="display:inline;fill:#9d68dc;fill-opacity:1;stroke:none;stroke-width:0.963232px;stroke-linecap:butt;stroke-linejoin:miter;stroke-opacity:1;enable-background:new"
         d="m 90.254652,36.075078 c -0.155015,-0.738735 -0.185668,-1.537158 0.191567,-2.149744 0.416036,-0.675597 1.315688,-1.189178 2.022041,-1.25579 2.751874,-0.259499 5.239264,-0.235107 7.83275,-0.595971 5.22043,-0.726368 10.3872,-1.850559 15.4952,-3.150123 5.0633,-1.288191 10.02514,-2.953566 14.98437,-4.59748 6.57774,-2.180427 13.20745,-4.263279 19.58185,-6.981359 3.15216,-1.344095 6.41503,-2.593817 9.19496,-4.597476 1.59539,-1.14989 3.22941,-2.445678 4.17179,-4.1717891 0.64016,-1.1725776 0.74961,-2.5843 0.85137,-3.9163633 0.31622,-4.1392093 -0.76624,-12.4302202 -0.76624,-12.4302202 0,0 -22.15518,5.8679805 -33.37429,8.1732934 -7.77827,1.5982866 -15.81859,3.7927225 -23.75363,3.4906833 -3.67978,-0.1400524 -7.414786,-1.030978 -10.727446,-2.6392943 -2.655583,-1.2893013 -5.359945,-2.5810271 -6.72595,-5.0231777 -0.612087,-1.0942907 -0.776164,-2.5703497 -0.340538,-3.7460837 0.467179,-1.260894 1.628831,-2.356055 2.894702,-2.8095734 6.397326,-2.291945 12.994362,-3.828087 19.326452,-6.215112 19.65926,-7.411015 57.80902,-25.115848 57.80902,-25.115848 0,0 -1.91693,-4.594062 -3.40554,-6.555662 -2.51255,-3.310894 -5.73086,-6.093608 -9.10982,-8.51385 -2.59081,-1.855721 -5.40658,-3.501019 -8.42871,-4.512338 -2.45126,-0.820284 -5.07771,-1.217116 -7.66246,-1.191938 -3.7744,0.03677 -7.54308,0.855944 -11.15314,1.958186 -12.77463,3.900414 -24.31522,8.300997 -37.035239,12.941046 -2.408511,0.878584 -6.896221,3.405541 -6.896221,3.405541 0,0 3.262169,2.452745 4.682614,3.916371 1.504182,1.5499 2.459156,3.326676 1.532495,4.682614 -0.577346,0.844799 -1.80419,0.915212 -3.064985,0.170269 -1.260796,-0.744943 -2.669045,-2.476088 -4.171785,-3.490676 -2.656067,-1.793264 -5.394122,-3.66317 -8.478581,-4.532998 -2.790862,-0.787031 -5.794376,-0.751026 -8.684123,-0.510833 -2.622984,0.218033 -5.364491,0.540689 -7.697738,1.758694 -3.749938,1.957548 -6.898336,5.117493 -9.391931,8.53451 -2.488273,3.409724 -4.389193,7.390897 -5.251882,11.522905 -0.725098,3.473005 -0.442091,7.421471 0.170269,10.642308 0.689537,3.6266584 3.004013,7.1889584 2.298749,10.8125914 C 44.386489,13.705691 38.858154,27.879574 35.849922,39.291449 l 12.516618,7.170519 20.518373,4.427196 21.880583,-2.809563 c 0,0 -0.738961,-9.648162 -0.510844,-12.00453 z"
         id="path930" />
      <path
         style="display:inline;fill:#ffffff;fill-opacity:1;stroke:none;stroke-width:0.963232px;stroke-linecap:butt;stroke-linejoin:miter;stroke-opacity:1;enable-background:new"
         d="m 104.31837,-9.4405156 5.99246,3.631737 1.90956,-6.4103184 z"
         id="path935" />
      <path
         style="display:inline;fill:#ffffff;fill-opacity:1;stroke:none;stroke-width:0.963232px;stroke-linecap:butt;stroke-linejoin:miter;stroke-opacity:1;enable-background:new"
         d="m 119.29721,-14.789112 6.20478,2.505537 0.63854,-5.70428 z"
         id="path937" />
      <path
         style="display:inline;fill:#ffffff;fill-opacity:1;stroke:none;stroke-width:0.963232px;stroke-linecap:butt;stroke-linejoin:miter;stroke-opacity:1;enable-background:new"
         d="m 133.86748,-21.208503 6.4486,3.390932 1.44736,-6.896221 z"
         id="path939" />
      <path
         style="display:inline;fill:#ffffff;fill-opacity:1;stroke:none;stroke-width:0.963232px;stroke-linecap:butt;stroke-linejoin:miter;stroke-opacity:1;enable-background:new"
         d="m 147.9317,-27.282554 7.66674,3.632993 2.80958,-8.428712 z"
         id="path941" />
      <path
         style="display:inline;fill:#ffffff;fill-opacity:1;stroke:none;stroke-width:0.963232px;stroke-linecap:butt;stroke-linejoin:miter;stroke-opacity:1;enable-background:new"
         d="m 164.62313,-35.015551 4.93802,2.213603 0.63854,-4.597479 z"
         id="path943" />
      <path
         style="display:inline;fill:#c3abdf;fill-opacity:1;stroke:none;stroke-width:0.963232px;stroke-linecap:butt;stroke-linejoin:miter;stroke-opacity:1;enable-background:new"
         d="m 66.926717,48.93099 c 0,0 0.38255,-1.587999 0.766243,-2.298734 0.979067,-1.813583 2.245619,-3.536278 3.831232,-4.852898 1.972781,-1.638104 4.420742,-2.647628 6.811083,-3.575814 2.079034,-0.807302 4.271515,-1.330629 6.47052,-1.702775 1.796278,-0.303987 4.21285,-0.381935 5.448857,-0.425691 0.171762,0.786343 0.816648,1.266009 1.426078,1.362218 0.61903,0.09771 2.508444,-0.160439 3.256544,-0.276682 l 2.04332,7.683751 -13.366741,4.512338 z"
         id="path922" />
      <path
         style="display:inline;fill:#36244b;fill-opacity:1;stroke:none;stroke-width:0.963232px;stroke-linecap:butt;stroke-linejoin:miter;stroke-opacity:1;enable-background:new"
         d="m 112.46365,54.623092 c 0,0 4.58829,-1.89626 6.78067,-3.052808 4.07243,-2.148332 10.36498,-6.369384 11.79167,-7.194208 0.72406,-0.418603 1.59047,-0.613479 2.42645,-0.638537 0.50625,-0.01529 1.08281,-0.0033 1.48993,0.29798 0.33682,0.24927 0.54519,0.69087 0.59596,1.1068 0.0692,0.567094 -0.42569,1.660198 -0.42569,1.660198 l -3.74609,6.555661 c 0,0 3.05627,2.528523 4.46977,3.916375 0.60208,0.591158 1.17844,1.211946 1.70276,1.873047 1.44547,1.822545 3.50412,3.465574 3.95895,5.746845 0.13332,0.668683 0.0969,1.562791 -0.4257,2.000754 -0.64202,0.538057 -1.68564,0.224841 -2.51158,0.08515 -1.12505,-0.190256 -2.14042,-0.79333 -3.19269,-1.234507 -1.3646,-0.572126 -4.04408,-1.830478 -4.04408,-1.830478 0,0 -0.0189,4.598779 -0.38313,6.768506 -0.21891,1.303835 -0.20369,2.72124 -0.85138,3.873802 -0.22124,0.393715 -0.54808,0.801637 -0.9791,0.93652 -0.52097,0.163024 -1.15204,0.02949 -1.61762,-0.255422 -1.31687,-0.806119 -1.88308,-2.451452 -2.72443,-3.746091 -1.0358,-1.593841 -1.57705,-2.359954 -2.85214,-4.938028 l -5.57049,2.420347 z"
         id="path907" />
      <path
         style="display:inline;fill:#9d68dc;fill-opacity:1;stroke:none;stroke-width:0.963232px;stroke-linecap:butt;stroke-linejoin:miter;stroke-opacity:1;enable-background:new"
         d="m 114.19385,58.134919 c 0,0 4.29115,-1.865889 6.44162,-3.02515 2.40609,-1.297063 7.48009,-4.816157 7.48009,-4.816157 0,0 -2.60023,5.485154 -2.63383,5.809492 -0.0357,0.344142 -0.02,1.223301 0.31607,1.685656 0.33934,0.466622 0.92447,0.86637 1.5201,0.827776 0.59563,-0.03859 1.32445,-0.90303 1.32445,-0.90303 l 1.23414,-1.520098 4.37969,4.996762 c 0,0 -4.33729,-1.17714 -4.78606,-1.1589 -0.34975,0.0142 -1.14146,0.336606 -1.47495,0.948184 -0.31935,0.585661 -0.51979,1.308414 -0.58697,2.423132 -0.11366,1.885749 -0.24082,4.771003 -0.24082,4.771003 0,0 -3.03649,-5.55183 -3.30639,-5.696077 -0.26991,-0.144239 -2.42541,0.388252 -3.7523,0.741765 -1.32688,0.353498 -4.09115,1.432066 -4.09115,1.432066 z"
         id="path902" />
      <path
         style="display:inline;fill:#6f5193;fill-opacity:1;stroke:none;stroke-width:0.963232px;stroke-linecap:butt;stroke-linejoin:miter;stroke-opacity:1;enable-background:new"
         d="m 163.81346,-7.7713216 c 0,0 -22.15348,5.8689783 -33.37259,8.1742911 -7.77827,1.5982903 -15.8203,3.7918779 -23.75533,3.4898387 -0.70437,-0.02694 -1.40953,-0.089594 -2.1146,-0.1711792 1.25424,0.9952386 2.86411,2.1595156 3.13803,2.2142952 0.4257,0.085153 4.99427,0.9111597 7.49138,0.6810435 3.02393,-0.2786486 5.73317,-2.38637 8.76881,-2.4682826 1.68623,-0.045471 3.26446,1.314159 4.93844,1.1062065 3.12356,-0.3880183 5.35645,-3.5710487 8.42828,-4.2574074 2.96469,-0.6624148 6.16795,1.0151778 9.10931,0.2558586 2.64852,-0.6837229 4.42102,-3.4815527 7.06809,-4.1708712 2.3076,-0.6009111 4.87495,0.8808266 7.15087,0.1693225 1.06972,-0.334422 2.41608,-1.3564805 3.45974,-2.2444067 -0.16324,-1.549685 -0.31043,-2.778691 -0.31043,-2.778691 z"
         id="path1034" />
      <path
         style="display:inline;fill:#6f5193;fill-opacity:1;stroke:none;stroke-width:0.963232px;stroke-linecap:butt;stroke-linejoin:miter;stroke-opacity:1;enable-background:new"
         d="m 126.80617,-59.733173 c -3.06508,0.961385 -6.07343,1.952171 -9.04535,2.966832 0.63543,1.291445 1.75179,3.438434 2.7185,4.552773 0.54315,0.626093 1.16572,1.291202 1.95844,1.53327 0.76193,0.232668 1.69654,0.232013 2.38363,-0.171215 0.93684,-0.549754 1.4702,-1.685202 1.78724,-2.724138 0.50285,-1.647758 0.33788,-4.553087 0.19754,-6.157537 z"
         id="path1048" />
      <path
         style="display:inline;fill:#6f5193;fill-opacity:1;stroke:none;stroke-width:0.963232px;stroke-linecap:butt;stroke-linejoin:miter;stroke-opacity:1;enable-background:new"
         d="m 115.37156,-55.949854 c -3.74443,1.300609 -7.47018,2.651148 -11.22015,4.020367 0.49425,0.803479 1.44694,2.314811 2.28015,3.205754 0.86885,0.92905 2.12039,1.447899 2.98,2.385504 0.89893,0.980494 1.17481,2.488167 2.21242,3.320516 0.73587,0.590299 1.71465,1.20768 2.63949,1.021552 1.04284,-0.209878 1.81532,-1.266849 2.29895,-2.214302 0.83392,-1.633625 0.75451,-3.614157 0.7657,-5.448282 0.007,-1.11584 -0.0762,-2.260647 -0.42518,-3.320517 -0.28946,-0.879042 -0.94558,-2.024913 -1.53138,-2.970592 z"
         id="path1043" />
      <path
         style="display:inline;fill:#6f5193;fill-opacity:1;stroke:none;stroke-width:0.963232px;stroke-linecap:butt;stroke-linejoin:miter;stroke-opacity:1;enable-background:new"
         d="m 98.165074,-49.745285 c -2.00076,0.734978 -3.98513,1.465766 -6.037134,2.214306 -1.225635,0.44709 -2.959522,1.30568 -4.396634,2.056273 0.862064,0.374599 2.156829,0.966205 3.034558,1.604759 2.0122,1.463881 3.19354,3.921442 5.27896,5.278964 1.12191,0.730308 2.46049,1.82122 3.7457,1.44673 0.643046,-0.18738 1.120396,-0.951869 1.190866,-1.617931 0.20315,-1.919923 -1.918496,-3.403306 -2.383626,-5.277082 -0.38458,-1.549324 -0.43442,-4.215999 -0.43269,-5.706019 z"
         id="path1038" />
      <path
         style="display:inline;fill:#6f5193;fill-opacity:1;stroke:none;stroke-width:0.963232px;stroke-linecap:butt;stroke-linejoin:miter;stroke-opacity:1;enable-background:new"
         d="m 68.521224,-43.979062 c -0.49275,0.02585 -0.987109,0.04787 -1.474948,0.08843 -1.912875,0.159019 -3.886438,0.378724 -5.721069,0.955709 0.422319,0.900573 0.986195,2.01342 1.576541,2.69968 0.756436,0.879334 1.616373,1.979891 2.769292,2.10707 0.812187,0.08959 1.610861,-0.487271 2.227474,-1.023431 0.701503,-0.609983 1.443875,-1.420274 1.505051,-2.347878 0.04718,-0.715778 -0.41364,-1.688402 -0.882341,-2.479572 z"
         id="path1000" />
      <path
         style="display:inline;fill:#6f5193;fill-opacity:1;stroke:none;stroke-width:0.963232px;stroke-linecap:butt;stroke-linejoin:miter;stroke-opacity:1;enable-background:new"
         d="m 58.58414,-41.693269 c -2.074697,1.199699 -3.960909,2.751157 -5.638298,4.507626 0.577717,0.577495 1.311979,1.385183 2.069445,1.76655 1.065374,0.536393 2.422703,1.311713 3.491717,0.782626 0.989836,-0.489896 1.338103,-1.906649 1.384644,-3.0101 0.04999,-1.185126 -0.755759,-2.961284 -1.307508,-4.046702 z"
         id="path1028" />
      <path
         style="display:inline;fill:#6f5193;fill-opacity:1;stroke:none;stroke-width:0.963232px;stroke-linecap:butt;stroke-linejoin:miter;stroke-opacity:1;enable-background:new"
         d="m 44.464892,-14.22047 c 0.104375,0.966933 0.242352,1.905677 0.410124,2.788113 0.68953,3.6266574 3.004224,7.1882625 2.298967,10.8118955 C 44.442277,13.41501 39.094951,27.289125 36.049781,38.578572 l 5.420057,3.881141 c 0,0 -0.813785,-6.479096 0.681033,-9.024657 0.39929,-0.679955 1.473157,-0.81715 2.043101,-1.362069 0.756757,-0.723521 0.903628,-1.292716 1.192761,-2.298964 0.587882,-2.045857 -0.17482,-4.25843 -0.08468,-6.38517 0.07369,-1.737949 -0.285711,-3.645505 0.509831,-5.192427 0.41391,-0.804837 1.337929,-1.221838 2.043109,-1.789125 1.78674,-1.437356 4.212763,-2.212555 5.534819,-4.086214 C 54.518171,10.721949 55.139436,8.6581941 55.0924,6.7016107 55.02942,4.0812947 53.614554,1.6444884 52.452917,-0.7051228 50.998166,-3.6476103 48.706782,-6.1078036 47.089292,-8.9640756 46.258756,-10.430711 45.256793,-12.524631 44.464873,-14.22047 Z"
         id="path1022" />
      <path
         style="display:inline;opacity:1;fill:#6f5193;fill-opacity:1;stroke:none;stroke-width:0.963232px;stroke-linecap:butt;stroke-linejoin:miter;stroke-opacity:1;enable-background:new"
         d="m 50.801148,19.124067 c -0.662135,-0.02294 -1.290336,0.572318 -1.625457,1.143839 -0.591868,1.009385 -0.607165,2.347739 -0.361216,3.491717 0.209805,0.975838 0.61559,2.135772 1.505052,2.588683 0.701077,0.356993 1.732048,0.24876 2.347878,-0.240823 0.630869,-0.501549 0.741207,-1.482794 0.782626,-2.287674 0.05504,-1.069514 -0.155707,-2.221817 -0.722426,-3.130505 -0.437846,-0.702049 -1.099562,-1.536655 -1.926457,-1.565237 z"
         id="path954" />
      <path
         style="display:inline;opacity:1;fill:#6f5193;fill-opacity:1;stroke:none;stroke-width:0.963232px;stroke-linecap:butt;stroke-linejoin:miter;stroke-opacity:1;enable-background:new"
         d="m 42.974887,41.760023 c 0,0 -0.518464,-2.415586 -0.180609,-3.551918 0.23336,-0.784879 0.727119,-1.592512 1.444848,-1.986672 0.56396,-0.309703 1.332195,-0.367009 1.926462,-0.120394 0.617235,0.25615 1.041524,0.899616 1.324447,1.505056 0.335223,0.717365 0.374807,1.556158 0.361216,2.347878 -0.01311,0.755548 -0.06203,1.562736 -0.421416,2.227474 -0.357722,0.661679 -1.625457,1.565248 -1.625457,1.565248 z"
         id="path959" />
      <path
         style="display:inline;fill:#6f5193;fill-opacity:1;stroke:none;stroke-width:0.963232px;stroke-linecap:butt;stroke-linejoin:miter;stroke-opacity:1;enable-background:new"
         d="m 48.754278,-21.873492 c -1.242065,0.264706 -1.652895,2.025591 -1.986665,3.250909 -0.316474,1.161874 -0.424042,2.509574 0.06022,3.612122 0.445233,1.013696 1.338205,2.00276 2.408082,2.287674 0.818358,0.217924 1.847592,-0.02585 2.468279,-0.602022 0.572085,-0.531037 0.802496,-1.451025 0.722426,-2.227473 -0.08297,-0.804674 -0.924951,-1.347798 -1.20404,-2.10707 -0.338099,-0.919843 -0.0073,-2.068301 -0.541817,-2.889696 -0.425058,-0.653146 -1.164314,-1.486878 -1.92648,-1.324444 z"
         id="path962" />
      <path
         style="display:inline;fill:#6f5193;fill-opacity:1;stroke:none;stroke-width:0.963232px;stroke-linecap:butt;stroke-linejoin:miter;stroke-opacity:1;enable-background:new"
         d="m 102.51461,-47.786281 c -0.70501,0.433063 -1.19104,1.305549 -1.27708,2.128462 -0.0905,0.865842 0.63172,1.626625 0.85138,2.469018 0.3638,1.395129 0.14111,2.957712 0.76625,4.256923 0.39241,0.81554 0.93993,1.727061 1.7879,2.043323 0.96645,0.360452 2.21346,0.156399 3.065,-0.42569 0.91252,-0.623763 1.53676,-1.792329 1.61762,-2.894709 0.11104,-1.513906 -0.86281,-2.939925 -1.61762,-4.256927 -0.74271,-1.295887 -1.44026,-2.894079 -2.80958,-3.490676 -0.73034,-0.318222 -1.70506,-0.246685 -2.38387,0.170269 z"
         id="path978" />
      <path
         style="display:inline;fill:#6f5193;fill-opacity:1;stroke:none;stroke-width:0.963232px;stroke-linecap:butt;stroke-linejoin:miter;stroke-opacity:1;enable-background:new"
         d="m 121.58563,-47.020034 c -0.88905,0.435623 -1.2327,1.65777 -1.36222,2.639295 -0.0874,0.662232 -0.042,1.481228 0.42569,1.958181 0.42891,0.437439 1.17685,0.381903 1.78791,0.425695 0.62532,0.04481 1.43647,0.279668 1.87305,-0.170269 0.65336,-0.673355 0.30697,-1.881344 0.17026,-2.809571 -0.0837,-0.56851 -0.15661,-1.247234 -0.59597,-1.617632 -0.59579,-0.502292 -1.59894,-0.768581 -2.29872,-0.425699 z"
         id="path980" />
      <path
         style="display:inline;fill:#6f5193;fill-opacity:1;stroke:none;stroke-width:0.963232px;stroke-linecap:butt;stroke-linejoin:miter;stroke-opacity:1;enable-background:new"
         d="m 95.192694,-36.462864 c -1.19456,0.347856 -2.221021,1.467536 -2.639293,2.639295 -0.28764,0.805831 -0.185377,1.820812 0.255422,2.554152 0.369015,0.613893 1.073651,1.245542 1.787911,1.191938 0.84142,-0.06313 1.43996,-0.978608 1.87305,-1.702767 0.30027,-0.502117 0.55045,-1.131166 0.4257,-1.702771 -0.0775,-0.355064 -0.53884,-0.516956 -0.68112,-0.851385 -0.25767,-0.605724 0.18888,-1.472491 -0.25542,-1.958185 -0.1766,-0.193059 -0.51504,-0.243445 -0.76625,-0.170269 z"
         id="path982" />
      <path
         style="display:inline;fill:#6f5193;fill-opacity:1;stroke:none;stroke-width:0.963232px;stroke-linecap:butt;stroke-linejoin:miter;stroke-opacity:1;enable-background:new"
         d="m 135.29292,-55.363604 c -0.605,0.04525 -1.30634,-0.0284 -1.78791,0.340538 -0.82618,0.633003 -1.47817,1.775255 -1.36221,2.809571 0.12148,1.083515 1.10014,2.00718 2.04332,2.554153 0.79513,0.461113 1.80577,0.456166 2.72443,0.425694 1.16292,-0.03859 2.44657,-0.107287 3.40554,-0.766247 0.84332,-0.579497 1.43901,-1.5655 1.70277,-2.554156 0.21996,-0.824438 0.44136,-1.95919 -0.17027,-2.554153 -1.56757,-1.524853 -4.37488,-0.418471 -6.55567,-0.255385 z"
         id="path984" />
      <path
         style="display:inline;fill:#6f5193;fill-opacity:1;stroke:none;stroke-width:0.963232px;stroke-linecap:butt;stroke-linejoin:miter;stroke-opacity:1;enable-background:new"
         d="m 65.734778,-29.055817 c -0.425552,-0.01092 -4.359885,2.011476 -5.789421,3.831232 -1.397458,1.778932 -2.012368,4.141405 -2.29873,6.385392 -0.313853,2.459484 -0.109217,5.056941 0.681098,7.40704 0.650113,1.9331884 1.781072,3.7633454 3.235265,5.1934454 1.179855,1.160302 2.651519,2.1529084 4.25693,2.5541565 2.177861,0.5443186 4.612261,0.4155956 6.725938,-0.3405381 2.292731,-0.8201854 4.557146,-2.2941984 5.874552,-4.3420654 1.553868,-2.4154384 1.898502,-5.5587504 1.787913,-8.4287034 -0.0968,-2.512567 -0.766848,-5.122926 -2.128466,-7.236774 -1.3402,-2.080599 -3.310697,-3.960622 -5.619137,-4.852891 -2.091874,-0.808557 -6.725942,-0.170305 -6.725942,-0.170305 z"
         id="path986" />
      <path
         style="display:inline;fill:#6f5193;fill-opacity:1;stroke:none;stroke-width:0.963232px;stroke-linecap:butt;stroke-linejoin:miter;stroke-opacity:1;enable-background:new"
         d="m 103.19571,9.0010877 c -1.04782,0.3609617 -2.26064,-0.2386752 -3.235256,-0.7662508 -0.68848,-0.3726952 -1.60606,-0.840744 -1.70278,-1.6176326 -0.0788,-0.6328643 0.43214,-1.374352 1.02166,-1.6176326 0.941866,-0.3886772 2.093466,0.1786424 2.979856,0.6811091 0.82069,0.4652128 1.91604,1.1008876 1.95818,2.0433234 0.0244,0.5446098 -0.50623,1.0995297 -1.02166,1.2770835 z"
         id="path990" />
      <path
         style="display:inline;fill:#6f5193;fill-opacity:1;stroke:none;stroke-width:0.963232px;stroke-linecap:butt;stroke-linejoin:miter;stroke-opacity:1;enable-background:new"
         d="m 120.13827,8.9159459 c -0.58495,0.2768647 -1.19637,0.8853591 -1.19193,1.5324951 0.004,0.545137 0.54764,1.007824 1.02166,1.277072 0.72239,0.410328 1.70513,0.667253 2.46901,0.340575 0.57937,-0.247777 0.92964,-0.927783 1.1068,-1.532495 0.14384,-0.49098 0.282,-1.1761635 -0.0851,-1.5324907 -0.79448,-0.7711037 -2.31966,-0.5588008 -3.32039,-0.085153 z"
         id="path992" />
      <path
         style="display:inline;fill:#6f5193;fill-opacity:1;stroke:none;stroke-width:0.963232px;stroke-linecap:butt;stroke-linejoin:miter;stroke-opacity:1;enable-background:new"
         d="m 136.91055,2.8711101 c -0.52833,0.3302353 -1.11539,1.0207989 -0.93652,1.617629 0.21862,0.7294484 1.28415,1.0812249 2.04333,1.0216617 0.73013,-0.057302 1.56141,-0.5805822 1.7879,-1.277069 0.16652,-0.5120705 -0.0631,-1.2334186 -0.51083,-1.5324944 -0.66247,-0.4424775 -1.70834,-0.2519997 -2.38388,0.1702727 z"
         id="path994" />
      <path
         style="display:inline;fill:#6f5193;fill-opacity:1;stroke:none;stroke-width:0.963232px;stroke-linecap:butt;stroke-linejoin:miter;stroke-opacity:1;enable-background:new"
         d="m 105.74986,118.82967 c -0.58782,0.30031 -0.98826,1.14217 -0.85138,1.78791 0.10852,0.51192 0.68874,0.87806 1.19194,1.02167 0.35896,0.10244 0.79017,0.0273 1.1068,-0.17027 0.39437,-0.24621 0.80948,-0.68069 0.79583,-1.14539 -0.0157,-0.5357 -0.53457,-0.98719 -0.99334,-1.26424 -0.3626,-0.21898 -0.87263,-0.42239 -1.24985,-0.22969 z"
         id="path1183" />
      <path
         style="display:inline;fill:#6f5193;fill-opacity:1;stroke:none;stroke-width:0.963232px;stroke-linecap:butt;stroke-linejoin:miter;stroke-opacity:1;enable-background:new"
         d="m 110.22052,124.41732 c -0.99025,0.10513 -1.90326,1.26318 -1.95656,2.25757 -0.0237,0.43913 0.39779,0.82371 0.75252,1.08363 0.49151,0.36017 1.1854,0.30272 1.74586,0.54182 0.59072,0.25204 1.05562,1.05773 1.68566,0.93313 0.44118,-0.0872 0.71446,-0.62251 0.84282,-1.05353 0.14959,-0.50236 0.10572,-1.10799 -0.1505,-1.56525 -0.59544,-1.06264 -1.70852,-2.32598 -2.9198,-2.19737 z"
         id="path1185" />
      <path
         style="display:inline;fill:#6f5193;fill-opacity:1;stroke:none;stroke-width:0.963232px;stroke-linecap:butt;stroke-linejoin:miter;stroke-opacity:1;enable-background:new"
         d="m 127.80703,136.05684 c -0.7937,0.70652 -1.67567,1.5203 -2.52096,2.39115 2.34191,0.49996 5.66463,1.36771 5.66463,1.36771 l 4.36276,-2.19173 c 0,0 -4.43104,-1.05993 -7.50643,-1.56713 z m -4.99865,5.68533 c -0.10594,0.11067 -0.21687,0.21661 -0.33675,0.31418 -0.58967,0.47979 -1.25504,0.83739 -1.95092,1.14571 1.23395,0.54293 2.34223,1.08363 2.34223,1.08363 l 3.08535,-1.46741 c 0,0 -1.8638,-0.63719 -3.1399,-1.07611 z m -7.06809,3.4522 c -0.79461,0.3346 -1.6178,0.64874 -2.11836,1.31692 -0.48308,0.64485 -0.73308,1.84581 -0.87105,2.8088 l 5.25828,-2.39491 c 0,0 -1.15609,-0.87309 -2.26887,-1.73081 z"
         id="path1189" />
      <path
         style="display:inline;fill:#6f5193;fill-opacity:1;stroke:none;stroke-width:0.963232px;stroke-linecap:butt;stroke-linejoin:miter;stroke-opacity:1;enable-background:new"
         d="m 109.98159,106.55974 c -0.64101,1.20323 -1.92009,3.76142 -2.1033,5.37303 -0.2793,2.45694 0.13182,5.08845 1.19275,7.32207 0.86251,1.81591 2.55835,3.11375 4.00155,4.51326 0.47736,0.46292 1.13846,0.74098 1.53139,1.27742 0.39861,0.5442 0.30701,1.37728 0.76569,1.8719 0.38836,0.41877 0.96827,0.851 1.53327,0.76758 0.30319,-0.0448 0.62511,-0.33504 0.90115,-0.63777 -0.0541,-0.85629 -0.12217,-1.67332 -0.2201,-2.34223 -0.49759,-3.39874 -1.27525,-6.8091 -2.63948,-9.96155 -1.05644,-2.44122 -3.47514,-6.04815 -4.96291,-8.18371 z"
         id="path1193" />
      <path
         style="display:inline;fill:#6f5193;fill-opacity:1;stroke:none;stroke-width:0.963232px;stroke-linecap:butt;stroke-linejoin:miter;stroke-opacity:1;enable-background:new"
         d="m -65.576834,38.397913 c -0.360379,0.0087 -0.718956,0.02876 -1.077992,0.06021 -3.00382,0.262921 -5.902148,1.321495 -8.704834,2.462636 2.030771,-0.203726 5.474178,-0.44958 7.502673,0.05643 2.265635,0.565179 4.023651,4.356718 6.140605,3.371313 0.556598,-0.259099 0.470193,-1.201862 0.361216,-1.806061 -0.175948,-0.97551 -2.164459,-1.738845 -1.565252,-2.528483 0.959772,-1.2648 3.303038,0.37465 4.575352,1.324444 1.489882,1.112217 1.341664,3.875341 3.0101,4.695756 0.831494,0.408872 2.118308,0.418563 2.769292,-0.240823 0.763411,-0.773244 -0.703998,-2.714202 0.240823,-3.250909 1.326551,-0.753552 3.00512,0.97799 4.093735,2.04687 2.100739,2.062666 2.746774,5.208369 4.093735,7.826261 1.708075,3.319737 1.876447,8.038418 5.056969,9.993531 0.888964,0.54647 2.173001,0.414823 3.130501,0 0.80768,-0.349895 0.926588,-1.889922 1.806061,-1.926466 1.675106,-0.06964 2.809177,1.971929 3.732522,3.371313 2.453516,3.718441 3.283572,8.313212 4.334544,12.642418 0.325393,1.340328 -0.119192,2.918074 0.602021,4.093735 0.617239,1.006164 1.709975,2.006896 2.889696,2.04687 2.538472,0.08603 3.9954,-4.384536 6.501814,-3.973335 2.22107,0.364392 3.140869,3.26921 4.334543,5.177374 1.562537,2.497804 2.1774239,5.493695 3.6121219,8.067066 0.6613044,1.186182 1.0367919,2.842507 2.2876743,3.371313 1.2763008,0.539553 2.9050589,-0.01019 4.0937351,-0.722426 1.83897496,-1.101703 2.08367536,-4.044657 3.9733307,-5.056966 1.3485441,-0.722425 3.0767003,-0.668636 4.5753523,-0.361216 1.77619,0.364373 3.024549,2.249659 4.8161607,2.528483 2.053775,0.319605 6.140604,-1.083635 6.140604,-1.083635 L 13.791981,82.112069 9.2034653,79.06999 c 0,0 -1.681208,0.562882 -2.554819,0.596375 -2.611003,0.100006 -5.2529772,-0.414325 -7.7472461,-1.19275 -3.2228982,-1.005832 -6.1779785,-2.751613 -9.1093152,-4.426733 -3.341799,-1.909675 -6.534604,-3.829664 -9.621029,-6.129312 -3.377043,-2.516185 -6.513845,-5.342327 -9.705689,-8.089648 -3.626065,-3.121053 -7.104134,-6.409999 -10.727243,-9.534481 -2.914084,-2.513036 -5.543931,-5.446685 -8.855338,-7.406734 -2.752866,-1.629442 -5.83301,-2.730137 -8.939996,-3.491717 -2.450331,-0.600613 -4.996991,-1.060143 -7.519606,-0.997088 z"
         id="path1232" />
      <path
         style="display:inline;fill:#6f5193;fill-opacity:1;stroke:none;stroke-width:0.963232px;stroke-linecap:butt;stroke-linejoin:miter;stroke-opacity:1;enable-background:new"
         d="m 51.233846,118.5531 c -0.411146,0.11774 -1.77221,0.52698 -2.298963,1.16829 -0.447971,0.54541 -0.746698,1.37147 -0.541821,2.04687 0.132079,0.43538 0.978135,0.45033 1.023434,0.90303 0.08275,0.82668 -1.115999,1.25259 -1.505048,1.98667 -0.644856,1.21674 -1.038692,2.56604 -1.324443,3.91313 -0.363802,1.71506 -0.52347,3.48485 -0.481618,5.23757 0.02767,1.15472 0.738499,2.3054 0.481618,3.43151 -0.160913,0.70542 -1.059932,1.09702 -1.20404,1.80606 -0.150501,0.74053 -0.0735,1.65642 0.421413,2.22748 0.527831,0.60905 1.498827,0.61747 2.287675,0.78262 0.473032,0.099 1.101477,-0.21971 1.444848,0.12039 0.299254,0.29638 0.363765,0.91617 0.351787,1.47496 0.944602,-1.84046 1.585989,-3.84163 2.139059,-5.83583 0.569839,-2.05469 0.921052,-4.17633 1.106214,-6.30052 0.174966,-2.00733 0.249488,-4.04521 0,-6.04465 -0.257388,-2.0627 -0.86452,-4.07584 -1.531395,-6.04466 -0.101098,-0.29849 -0.234051,-0.58611 -0.368734,-0.87293 z m -14.091033,39.26487 c -0.36702,0.0186 -0.73164,0.0603 -1.091157,0.13168 -2.016722,0.40043 -4.213844,1.069 -5.598787,2.58868 -0.193022,0.21181 -0.351277,0.53486 -0.489138,0.8861 l 11.93316,2.61314 c 0,0 -1.721862,-3.1118 -2.554819,-4.68258 -0.221819,-0.41827 -0.463159,-0.94974 -0.658465,-1.48248 -0.514211,-0.0499 -1.029587,-0.0803 -1.540794,-0.0545 z m 16.186814,0.91431 c -0.643681,-0.0102 -1.273738,0.11599 -1.902008,0.26904 2.499781,3.19911 4.771014,7.50644 4.771014,7.50644 l 4.682578,0.76569 c 0,0 -2.966301,-4.65507 -4.682578,-6.81034 -0.411321,-0.51653 -0.846143,-1.01322 -1.290586,-1.5013 -0.574473,-0.12352 -1.136412,-0.22262 -1.57842,-0.2295 z m -9.48746,0.70362 c 1.170262,1.81676 2.650769,5.36926 2.650769,5.36926 l 4.257415,0.93501 c 0,0 -2.820631,-3.39398 -4.168993,-5.92802 -0.604351,0.0128 -1.208048,-0.0131 -1.800414,-0.11664 -0.320989,-0.0562 -0.631976,-0.15068 -0.938777,-0.25961 z"
         id="path1223" />
      <path
         style="display:inline;fill:#6f5193;fill-opacity:1;stroke:none;stroke-width:0.963232px;stroke-linecap:butt;stroke-linejoin:miter;stroke-opacity:1;enable-background:new"
         d="m 46.165591,122.37044 c -0.484238,-0.36271 -1.263078,-0.0863 -1.80606,0.18061 -0.4459,0.21916 -0.788812,0.64568 -1.023435,1.08364 -0.379281,0.70799 -0.480478,1.54702 -0.541818,2.34787 -0.0415,0.54172 -0.17056,1.16663 0.120394,1.62546 0.283927,0.44773 0.857778,0.84171 1.384647,0.78262 0.592928,-0.0665 1.004013,-0.70074 1.324444,-1.20404 0.32725,-0.514 0.543328,-1.13653 0.541817,-1.74586 -9.64e-4,-0.39983 -0.402427,-0.74612 -0.361216,-1.14383 0.03794,-0.36643 0.481846,-0.59976 0.541817,-0.96324 0.05315,-0.3223 0.08089,-0.76739 -0.180608,-0.96323 z"
         id="path1217" />
      <path
         style="display:inline;fill:#6f5193;fill-opacity:1;stroke:none;stroke-width:0.963232px;stroke-linecap:butt;stroke-linejoin:miter;stroke-opacity:1;enable-background:new"
         d="m 43.938117,134.29043 c -0.334931,-0.18221 -0.78019,-0.11464 -1.143839,0 -0.467244,0.1473 -0.996847,0.39889 -1.204039,0.84283 -0.195935,0.41982 0.02294,0.9317 0.120393,1.38464 0.0893,0.41574 0.09207,0.93508 0.421414,1.20404 0.345089,0.28186 0.906085,0.33392 1.324443,0.18061 0.506999,-0.18578 0.87928,-0.70425 1.083639,-1.20404 0.174856,-0.42762 0.181409,-0.93884 0.06021,-1.38464 -0.106596,-0.39212 -0.305298,-0.82926 -0.662222,-1.02344 z"
         id="path1219" />
      <path
         style="display:inline;fill:#6f5193;fill-opacity:1;stroke:none;stroke-width:0.963232px;stroke-linecap:butt;stroke-linejoin:miter;stroke-opacity:1;enable-background:new"
         d="m 3.1813682,91.065412 c -0.4766661,0.338062 -0.6743595,1.133987 -0.4816172,1.685656 0.3416303,0.977793 1.5729733,1.406324 2.5284863,1.806057 0.864364,0.361617 1.996309,1.01113 2.769292,0.481617 0.675331,-0.46262 0.857869,-1.681084 0.481613,-2.408078 -0.545057,-1.053153 -2.098627,-1.164711 -3.250905,-1.444848 -0.664126,-0.161459 -1.489368,-0.51578 -2.0468691,-0.120393 z"
         id="path1273" />
      <path
         style="display:inline;fill:#6f5193;fill-opacity:1;stroke:none;stroke-width:0.963232px;stroke-linecap:butt;stroke-linejoin:miter;stroke-opacity:1;enable-background:new"
         d="m -16.444481,81.312689 c -0.425487,-0.558451 -1.582727,1.43369 -1.685656,2.408079 -0.11901,1.126779 0.589137,2.268456 1.324443,3.130504 0.491433,0.576141 1.197512,1.409142 1.926465,1.20404 0.604727,-0.17016 0.756589,-1.063398 0.842827,-1.685657 0.117772,-0.849856 -0.132043,-1.744947 -0.481617,-2.528483 -0.431716,-0.967646 -1.926462,-2.528483 -1.926462,-2.528483 z"
         id="path1275" />
      <path
         style="display:inline;fill:#6f5193;fill-opacity:1;stroke:none;stroke-width:0.963232px;stroke-linecap:butt;stroke-linejoin:miter;stroke-opacity:1;enable-background:new"
         d="m -34.023464,63.85411 c -0.886004,0.564262 -0.408741,2.081153 -0.361217,3.130501 0.04452,0.982905 -0.09647,2.196751 0.602022,2.889696 0.581139,0.576512 1.732747,0.944234 2.408078,0.481617 0.772983,-0.529512 0.588221,-1.838422 0.481618,-2.769291 -0.128913,-1.125691 -0.492441,-2.361371 -1.324444,-3.130505 -0.465977,-0.430765 -1.270804,-0.942901 -1.806057,-0.602018 z"
         id="path1277" />
      <path
         style="display:inline;fill:#6f5193;fill-opacity:1;stroke:none;stroke-width:0.963232px;stroke-linecap:butt;stroke-linejoin:miter;stroke-opacity:1;enable-background:new"
         d="m -50.880022,45.191492 c -0.914698,0.787072 -0.36391,2.411701 -0.240823,3.612118 0.07649,0.745868 0.05818,1.651137 0.602018,2.167274 0.53679,0.509438 2.167274,0.963231 2.167274,0.481613 0,-0.481613 1.007693,-2.062494 0.842826,-3.130504 -0.181737,-1.177318 -0.906125,-2.395264 -1.926461,-3.010096 -0.413939,-0.249415 -1.078502,-0.435623 -1.444834,-0.120394 z"
         id="path1279" />
      <path
         style="display:inline;fill:#1e1c58;fill-opacity:1;stroke:none;stroke-width:0.963232px;stroke-linecap:butt;stroke-linejoin:miter;stroke-opacity:1;enable-background:new"
         d="m 33.157122,34.601496 c 0,0 2.926841,2.351242 4.506284,3.358782 2.913374,1.858463 5.93141,3.598495 9.121976,4.925872 3.753845,1.561721 7.706971,2.646208 11.676137,3.527166 3.599077,0.798815 7.263597,1.412032 10.946379,1.581143 4.704217,0.215995 9.447585,-0.05843 14.108661,-0.729761 4.146265,-0.597191 8.192633,-1.778539 12.223445,-2.919028 2.62765,-0.743476 5.157016,-1.890122 7.784096,-2.554156 1.2674,-0.32037 1.80121,1.44646 2.00684,2.49334 1.00058,5.094136 2.18927,11.797761 2.18927,11.797761 l 4.74344,-1.459516 c 0,0 2.41613,3.6505 3.04065,5.716439 0.83698,2.768705 0.85139,8.635474 0.85139,8.635474 l -6.50701,1.76359 2.12846,26.210485 c 0,0 -3.39213,3.838813 -5.35156,5.473183 -1.5025,1.25323 -3.13609,2.36807 -4.86506,3.28391 -2.315176,1.22636 -4.783086,2.18338 -7.297596,2.91904 -3.525688,1.03149 -7.183346,1.58317 -10.824741,2.06764 -3.183995,0.42363 -6.398145,0.62494 -9.608487,0.72976 -3.849664,0.12571 -7.710633,0.124 -11.554509,-0.12163 -3.462782,-0.22129 -6.918949,-0.62612 -10.338241,-1.21627 -4.303089,-0.74269 -8.616616,-1.57326 -12.770773,-2.91904 -3.352597,-1.0861 -6.62888,-2.46141 -9.730115,-4.13529 -2.572708,-1.38861 -5.050376,-2.995 -7.297582,-4.865064 -2.997169,-2.494163 -5.715576,-5.345495 -8.148967,-8.392215 -2.596551,-3.251 -4.7788087,-6.829312 -6.8110797,-10.459869 -1.183732,-2.114682 -3.441069,-6.121743 -3.119277,-6.567195 0.32179,-0.445455 3.573809,-0.681746 5.308558,-1.216894 1.5809137,-0.487693 3.1993217,-0.964392 4.6217987,-1.809195 1.078199,-0.640342 1.974859,-1.070605 2.801015,-1.816025 0.873673,-0.788294 1.688227,-1.791538 2.213913,-2.749731 1.698813,-3.096508 3.702673,-7.623197 6.873933,-14.262606 3.23461,-6.772038 7.078752,-16.2901 7.078752,-16.2901 z"
         id="path886" />
      <path
         style="display:inline;fill:#3b37b6;fill-opacity:1;stroke:none;stroke-width:0.964749;stroke-linecap:butt;stroke-linejoin:miter;stroke-miterlimit:4;stroke-dasharray:none;stroke-opacity:1;enable-background:new"
         d="m 28.258572,65.807589 3.569119,-6.063199 4.515152,3.096104 c 0,0 1.219621,0.552823 1.774763,0.321935 0.78303,-0.325684 1.420995,-1.247602 1.442969,-2.095369 0.01675,-0.651915 -1.024658,-1.666616 -1.024658,-1.666616 l -8.575561,-6.251332 5.255853,-12.032875 c 0,0 4.397566,3.380494 6.845821,4.65275 3.707071,1.926411 7.700127,3.306013 11.722845,4.433476 4.089054,1.146053 8.295009,1.941075 12.522578,2.342946 4.397497,0.41802 8.852943,0.464062 13.251819,0.0608 3.848988,-0.352843 7.640793,-1.230339 11.392322,-2.160506 3.8657,-0.958472 11.419316,-3.515687 11.419316,-3.515687 0,0 2.22815,16.239231 3.1581,24.381286 0.88842,7.778478 2.31283,23.372991 2.31283,23.372991 0,0 -3.55934,4.120777 -5.83806,5.534007 -3.651566,2.26464 -7.922616,3.44107 -12.101836,4.43936 -4.546322,1.08598 -9.255891,1.45115 -13.926222,1.64195 -5.674784,0.23183 -11.385787,0.0444 -17.027697,-0.60813 -5.623626,-0.65039 -11.271932,-1.55576 -16.662821,-3.28391 C 38.173066,101.08935 34.198931,99.263319 30.48744,97.056007 26.731076,94.822009 23.047315,92.309748 20.027571,89.150291 16.280505,85.229861 10.814373,75.740985 10.814373,75.740985 l 3.496763,-1.064235 7.23677,8.148968 c 0,0 1.184978,0.653575 1.824391,0.608137 0.406924,-0.02876 0.861314,-0.212681 1.094648,-0.547318 0.314981,-0.451717 0.335696,-1.113033 0.182429,-1.641963 -0.10838,-0.374009 -0.729766,-0.912193 -0.729766,-0.912193 l -7.236762,-6.81108 2.006834,-1.489921 6.507008,5.990096 c 0,0 1.605939,1.671065 2.675784,1.885207 0.549765,0.110054 1.222013,0.0066 1.641955,-0.364872 0.499427,-0.441793 0.830853,-1.238373 0.668942,-1.88521 -0.226479,-0.904778 -1.766091,-1.566818 -2.067646,-1.885214 -2.725626,-1.863636 -4.273622,-3.123078 -7.236773,-5.473184 l 2.675783,-2.919031 7.358402,4.500167 c 0,0 1.347543,0.386668 1.88521,0.06076 0.519475,-0.314872 0.769855,-1.034852 0.79057,-1.641955 0.01493,-0.436398 -0.01092,-0.677025 -0.486503,-1.216265 -1.140923,-1.293706 -4.84384,-3.274291 -4.84384,-3.274291 z"
         id="path869" />
      <path
         style="display:inline;fill:#3b37b6;fill-opacity:1;stroke:none;stroke-width:0.963232px;stroke-linecap:butt;stroke-linejoin:miter;stroke-opacity:1;enable-background:new"
         d="m 108.14785,59.794764 3.41367,-1.113709 c 0,0 0.95011,1.941536 1.21125,2.982206 0.38483,1.53359 0.50143,4.716831 0.50143,4.716831 l -3.8363,1.025929 z"
         id="path883" />
      <g
         id="g874"
         transform="matrix(3.6405616,0,0,3.6405616,-134.8532,-120.05615)"
         style="display:inline;fill:#77bbfe;fill-opacity:1;enable-background:new">
        <path
           id="path850"
           d="m 51.538571,50.752397 c -0.461205,0.120617 -0.873963,0.413553 -1.228423,0.732327 -0.439129,0.394918 -0.802933,0.887197 -1.063059,1.417413 -0.248223,0.505954 -0.396771,1.068869 -0.448847,1.630021 -0.05438,0.585991 -0.08167,1.217291 0.147476,1.759358 0.180991,0.428154 0.547023,0.768559 0.915584,1.05184 0.368561,0.283281 0.804122,0.489865 1.252045,0.614212 0.533077,0.147986 1.118209,0.280945 1.653646,0.14174 0.340318,-0.08848 0.681417,-0.296431 0.874074,-0.590587 0.118469,-0.180883 0.170653,-0.428088 0.118115,-0.637834 -0.04106,-0.163924 -0.152456,-0.355118 -0.316397,-0.396116 -0.304486,-0.07614 -0.556706,0.312471 -0.864777,0.37249 -0.292453,0.05698 -0.600568,0.03413 -0.89364,-0.01957 -0.305456,-0.05597 -0.608681,-0.15677 -0.878124,-0.311159 -0.260073,-0.14902 -0.5351,-0.321382 -0.687702,-0.579369 -0.14789,-0.250022 -0.164038,-0.564099 -0.171096,-0.8545 -0.01205,-0.495959 0.05725,-1.003507 0.220966,-1.471822 0.127779,-0.365524 0.320143,-0.719681 0.5808,-1.006025 0.282173,-0.30998 0.627461,-0.596157 1.025352,-0.728032 0.369903,-0.122598 0.792803,-0.128986 1.16877,-0.02648 0.196749,0.05364 0.320466,0.364669 0.519963,0.322377 0.206758,-0.04383 0.361007,-0.312711 0.356971,-0.524026 -0.0066,-0.344258 -0.309414,-0.669777 -0.613722,-0.830877 -0.491758,-0.260338 -1.145361,-0.197805 -1.667975,-0.06538 z"
           style="fill:#77bbfe;fill-opacity:1;stroke:none;stroke-width:0;stroke-linecap:butt;stroke-linejoin:miter;stroke-miterlimit:4;stroke-dasharray:none;stroke-opacity:1" />
        <path
           id="path852"
           d="m 59.157153,52.134366 c -0.03147,-0.310802 -0.274049,-0.599785 -0.537434,-0.767764 -0.399501,-0.254789 -0.927041,-0.281457 -1.399695,-0.248035 -0.239703,0.01695 -0.486779,0.0887 -0.68508,0.224425 -0.373998,0.25598 -0.647393,0.652204 -0.862258,1.051245 -0.113359,0.210526 -0.176772,0.448679 -0.212612,0.685083 -0.03364,0.221888 -0.06875,0.459635 0,0.673269 0.05791,0.179942 0.187317,0.337513 0.33073,0.460658 0.184356,0.158302 0.422514,0.244366 0.649644,0.330729 0.247259,0.09402 0.514189,0.125468 0.767765,0.200801 0.250638,0.07446 0.49945,0.155905 0.744141,0.248046 0.227884,0.08581 0.477369,0.138852 0.673269,0.283483 0.152896,0.112882 0.306505,0.256591 0.366165,0.437036 0.08419,0.254638 0.07818,0.566141 -0.04725,0.803198 -0.131394,0.248326 -0.403769,0.418179 -0.667784,0.514233 -0.177753,0.06467 -0.379286,0.04719 -0.566965,0.02363 -0.203929,-0.0256 -0.402446,-0.09444 -0.590587,-0.177175 -0.167755,-0.07377 -0.314196,-0.188745 -0.472347,-0.281333 -0.115069,-0.06737 -0.213413,-0.19657 -0.346718,-0.199491 -0.146856,-0.0032 -0.296249,0.09077 -0.391222,0.202827 -0.09902,0.116832 -0.126,0.284698 -0.14174,0.437036 -0.01506,0.145751 0.0011,0.297978 0.04725,0.437034 0.06343,0.190965 0.163949,0.378307 0.307107,0.519718 0.151828,0.149976 0.356596,0.240685 0.555151,0.318918 0.225693,0.08893 0.46847,0.131711 0.708705,0.165365 0.238138,0.03336 0.481763,0.06403 0.720519,0.03543 0.289447,-0.03467 0.574611,-0.124462 0.838634,-0.248047 0.205715,-0.09629 0.400733,-0.223194 0.566965,-0.377976 0.145823,-0.135779 0.269224,-0.298392 0.366164,-0.472469 0.120621,-0.216601 0.208702,-0.454307 0.259858,-0.696894 0.06918,-0.32803 0.08438,-0.669712 0.05906,-1.003999 -0.01855,-0.244864 -0.06015,-0.493408 -0.153551,-0.720518 -0.0943,-0.229288 -0.225603,-0.451408 -0.4016,-0.626023 -0.151988,-0.150794 -0.346454,-0.258429 -0.543341,-0.34254 -0.223928,-0.09566 -0.472683,-0.117279 -0.708707,-0.177178 -0.260094,-0.06601 -0.519865,-0.133291 -0.779574,-0.200798 -0.240312,-0.06246 -0.491352,-0.09342 -0.720519,-0.188989 -0.09286,-0.03873 -0.212834,-0.06461 -0.259858,-0.153554 -0.05716,-0.108128 -0.01345,-0.249613 0.02363,-0.366164 0.05467,-0.171812 0.157071,-0.332098 0.283482,-0.460659 0.117928,-0.119934 0.264838,-0.221 0.425225,-0.271668 0.172864,-0.05461 0.364017,-0.05022 0.543341,-0.02363 0.152738,0.02265 0.299238,0.08388 0.437033,0.153554 0.09356,0.04731 0.158816,0.14923 0.259861,0.177175 0.129246,0.03575 0.291712,0.05323 0.401598,-0.02363 0.105489,-0.07378 0.166515,-0.226282 0.153545,-0.354359 z"
           style="fill:#77bbfe;fill-opacity:1;stroke:none;stroke-width:0.264583px;stroke-linecap:butt;stroke-linejoin:miter;stroke-opacity:1" />
        <path
           id="path852-7"
           d="m 64.433281,51.803736 c -0.03147,-0.310802 -0.274049,-0.599785 -0.537434,-0.767764 -0.399501,-0.254789 -0.927041,-0.281457 -1.399695,-0.248035 -0.239703,0.01695 -0.480668,0.09809 -0.68508,0.224425 -0.202802,0.125339 -0.386463,0.300433 -0.503115,0.508354 -0.150178,0.267681 -0.192465,0.588282 -0.220964,0.893888 -0.02294,0.24602 -0.01488,0.499579 0.04176,0.740086 0.04458,0.189256 0.116631,0.378227 0.230504,0.535827 0.119404,0.165256 0.287562,0.293326 0.457544,0.405899 0.205461,0.136069 0.435896,0.233645 0.667539,0.317731 0.238073,0.08642 0.494379,0.112974 0.735789,0.189581 0.231607,0.0735 0.50783,0.0886 0.681621,0.258426 0.189804,0.185473 0.27807,0.47319 0.299348,0.737714 0.01767,0.219679 -0.0051,0.476263 -0.147476,0.644507 -0.133907,0.158261 -0.368847,0.214642 -0.574928,0.237185 -0.30825,0.03372 -0.621473,-0.06445 -0.916321,-0.160471 -0.190363,-0.06199 -0.339684,-0.247654 -0.539165,-0.264628 -0.128726,-0.01095 -0.285731,0.01316 -0.371774,0.109526 -0.109064,0.12215 -0.11411,0.322789 -0.08477,0.483893 0.03605,0.197968 0.163949,0.378306 0.307107,0.519718 0.151828,0.149976 0.356596,0.240685 0.555151,0.318918 0.225693,0.08893 0.469068,0.127688 0.708705,0.165365 0.174598,0.02745 0.352199,0.05737 0.528419,0.04378 0.209609,-0.01616 0.424317,-0.05536 0.613125,-0.147821 0.169251,-0.08288 0.313288,-0.214971 0.441683,-0.35292 0.123318,-0.132493 0.221946,-0.288012 0.307699,-0.447412 0.09881,-0.183672 0.192277,-0.375781 0.234801,-0.579964 0.06712,-0.322294 0.04092,-0.658439 0.02565,-0.987294 -0.0091,-0.196804 -0.0035,-0.401449 -0.07003,-0.586883 -0.08375,-0.233349 -0.239445,-0.438484 -0.4016,-0.626023 -0.11109,-0.128482 -0.241272,-0.243131 -0.38465,-0.334188 -0.187207,-0.118892 -0.398981,-0.196307 -0.608481,-0.269052 -0.253492,-0.08802 -0.523614,-0.120232 -0.779574,-0.200798 -0.247416,-0.07788 -0.566705,-0.07007 -0.728871,-0.272511 -0.118403,-0.147807 -0.132468,-0.381377 -0.07803,-0.562768 0.05809,-0.193554 0.217911,-0.368123 0.400168,-0.455416 0.163499,-0.07831 0.364017,-0.05022 0.543341,-0.02363 0.152738,0.02265 0.299238,0.08388 0.437033,0.153554 0.09356,0.04731 0.158816,0.14923 0.259861,0.177175 0.129246,0.03575 0.291712,0.05323 0.401598,-0.02363 0.105489,-0.07378 0.166515,-0.226282 0.153545,-0.354359 z"
           style="fill:#77bbfe;fill-opacity:1;stroke:none;stroke-width:0.264583px;stroke-linecap:butt;stroke-linejoin:miter;stroke-opacity:1" />
      </g>
      <path
         style="display:inline;fill:#36244b;fill-opacity:1;stroke:none;stroke-width:0.963232px;stroke-linecap:butt;stroke-linejoin:miter;stroke-opacity:1;enable-background:new"
         d="M 23.327533,67.191013 30.782908,53.747689 5.4324113,33.581734 c 0,0 -1.04415,-0.69799 -1.581143,-0.547318 -0.5822573,0.163388 -0.9632166,0.825326 -1.1554564,1.3987 -0.2967058,0.884937 0.1216312,2.797407 0.1216312,2.797407 l 1.4595192,4.986682 c 0,0 -10.1232731,2.163283 -14.5951713,4.621809 -0.579971,0.31884 -1.255848,0.670373 -1.520324,1.277073 -0.324411,0.744214 -0.298636,1.609037 0.07907,2.262248 0.23791,0.411467 0.78031,0.551294 1.210177,0.754084 3.1295215,1.476357 9.83957886,3.308237 9.83957886,3.308237 l -2.25008906,7.175962 c 0,0 -0.5406307,1.973286 -0.1824286,2.858216 0.2261517,0.558669 0.772691,1.006975 1.3378882,1.216264 0.6656111,0.246466 1.44855026,0.142965 2.12846516,-0.06076 C 1.5797249,65.254133 3.6688573,63.562685 3.6688573,63.562685 l 3.952853,-3.283911 c 0,0 1.028349,-0.791502 1.641955,-0.851382 0.504382,-0.04922 1.4595157,0.425691 1.4595157,0.425691 z"
         id="path891" />
      <path
         style="display:inline;fill:#9d68dc;fill-opacity:1;stroke:none;stroke-width:0.963232px;stroke-linecap:butt;stroke-linejoin:miter;stroke-opacity:1;enable-background:new"
         d="M 25.135891,63.927519 28.910072,57.116436 7.5000573,40.392814 c 0,0 1.482287,6.209101 1.39262,6.516135 -0.08967,0.307045 -0.617505,1.072277 -1.158485,1.191935 -0.611119,0.135174 -1.576498,-0.406484 -1.754466,-0.668932 -0.177951,-0.262448 -1.033822,-1.809191 -1.033822,-1.809191 l -9.9125535,3.527161 c 0,0 6.4892901,2.04525 6.9479062,2.21968 0.4586161,0.174419 1.1305255,0.553602 1.4747224,1.049028 0.2903709,0.417954 0.4944469,1.005949 0.3952889,1.474718 -0.09917,0.46877 -1.8852106,5.655635 -1.8852106,5.655635 0,0 5.2477926,-4.282036 5.5948186,-4.43937 0.347018,-0.157345 1.050146,-0.292228 1.581136,-0.243226 0.855437,0.07893 2.0562327,0.651435 2.4325247,0.851381 0.376292,0.19994 13.561354,8.209762 13.561354,8.209762 z"
         id="path889" />
      <ellipse
         style="display:inline;opacity:0.98;fill:#36244b;fill-opacity:1;stroke:none;stroke-width:0.964749;stroke-linecap:round;stroke-miterlimit:4;stroke-dasharray:none;stroke-opacity:1;enable-background:new"
         id="path949"
         cx="69.403564"
         cy="-16.876766"
         rx="6.8630276"
         ry="8.4884806" />
      <ellipse
         style="display:inline;opacity:1;fill:#36244b;fill-opacity:1;stroke:none;stroke-width:0.964749;stroke-linecap:round;stroke-miterlimit:4;stroke-dasharray:none;stroke-opacity:1;enable-background:new"
         id="path970"
         cx="138.5282"
         cy="-55.108227"
         rx="4.0866466"
         ry="2.5541542" />
      <ellipse
         style="display:inline;opacity:1;fill:#ffffff;fill-opacity:0.969697;stroke:none;stroke-width:0.223472;stroke-linecap:round;stroke-miterlimit:4;stroke-dasharray:none;stroke-opacity:1;enable-background:new"
         id="path894"
         cx="58.256569"
         cy="35.859913"
         rx="1.1225319"
         ry="1.6020892"
         transform="rotate(-42.038138)" />
      <ellipse
         style="display:inline;opacity:1;fill:#ffffff;fill-opacity:0.969697;stroke:none;stroke-width:0.265;stroke-linecap:round;stroke-miterlimit:4;stroke-dasharray:none;stroke-opacity:1;enable-background:new"
         id="path898"
         cx="64.946259"
         cy="34.986713"
         rx="1.9182291"
         ry="3.10376"
         transform="rotate(-44.057635)" />
    </g>
  </g>
  <g
     id="layer1"
     style="display:inline"
     transform="translate(-9.5770221,-20.046547)">
    <path
       id="path1216"
       style="color:#000000;font-style:normal;font-variant:normal;font-weight:normal;font-stretch:normal;font-size:medium;line-height:normal;font-family:sans-serif;font-variant-ligatures:normal;font-variant-position:normal;font-variant-caps:normal;font-variant-numeric:normal;font-variant-alternates:normal;font-variant-east-asian:normal;font-feature-settings:normal;font-variation-settings:normal;text-indent:0;text-align:start;text-decoration:none;text-decoration-line:none;text-decoration-style:solid;text-decoration-color:#000000;letter-spacing:normal;word-spacing:normal;text-transform:none;writing-mode:lr-tb;direction:ltr;text-orientation:mixed;dominant-baseline:auto;baseline-shift:baseline;text-anchor:start;white-space:normal;shape-padding:0;shape-margin:0;inline-size:0;clip-rule:nonzero;display:inline;overflow:visible;visibility:visible;isolation:auto;mix-blend-mode:normal;color-interpolation:sRGB;color-interpolation-filters:linearRGB;solid-color:#000000;solid-opacity:1;vector-effect:none;fill:#dceefe;fill-opacity:1;fill-rule:nonzero;stroke:none;stroke-width:17.0079;stroke-linecap:butt;stroke-linejoin:round;stroke-miterlimit:4;stroke-dasharray:none;stroke-dashoffset:0;stroke-opacity:1;color-rendering:auto;image-rendering:auto;shape-rendering:auto;text-rendering:auto;enable-background:accumulate;stop-color:#000000"
       d="m 866,643 14.58398,-29.58398 c 7.71845,1.39647 15.91244,3.2544 24.91602,5.58398 L 950,540 c -16.63464,-8.62916 -30.95618,-13.52084 -51,-13.62109 -4.6255,-0.0231 -9.55496,0.20874 -14.88867,0.70898 L 828.5,612 Z"
       transform="scale(0.26458333)" />
    <path
       d="m 213.05573,181.10729 -13.9237,8.86354 -13.9237,8.86354 v 16.13959 h 3.29127 v 41.40419 h 58.80675 l 25.73589,-16.38247 v -40.42802 l 3.64578,-2.32079 v -16.13958 z"
       style="color:#000000;font-style:normal;font-variant:normal;font-weight:normal;font-stretch:normal;font-size:medium;line-height:normal;font-family:sans-serif;font-variant-ligatures:normal;font-variant-position:normal;font-variant-caps:normal;font-variant-numeric:normal;font-variant-alternates:normal;font-variant-east-asian:normal;font-feature-settings:normal;font-variation-settings:normal;text-indent:0;text-align:start;text-decoration:none;text-decoration-line:none;text-decoration-style:solid;text-decoration-color:#000000;letter-spacing:normal;word-spacing:normal;text-transform:none;writing-mode:lr-tb;direction:ltr;text-orientation:mixed;dominant-baseline:auto;baseline-shift:baseline;text-anchor:start;white-space:normal;shape-padding:0;shape-margin:0;inline-size:0;clip-rule:nonzero;display:inline;overflow:visible;visibility:visible;isolation:auto;mix-blend-mode:normal;color-interpolation:sRGB;color-interpolation-filters:linearRGB;solid-color:#000000;solid-opacity:1;vector-effect:none;fill:#375db6;fill-opacity:1;fill-rule:nonzero;stroke:none;stroke-width:4.50001;stroke-linecap:butt;stroke-linejoin:round;stroke-miterlimit:4;stroke-dasharray:none;stroke-dashoffset:0;stroke-opacity:1;color-rendering:auto;image-rendering:auto;shape-rendering:auto;text-rendering:auto;enable-background:accumulate;stop-color:#000000"
       id="path1058" />
    <path
       id="path1060"
       style="color:#000000;font-style:normal;font-variant:normal;font-weight:normal;font-stretch:normal;font-size:medium;line-height:normal;font-family:sans-serif;font-variant-ligatures:normal;font-variant-position:normal;font-variant-caps:normal;font-variant-numeric:normal;font-variant-alternates:normal;font-variant-east-asian:normal;font-feature-settings:normal;font-variation-settings:normal;text-indent:0;text-align:start;text-decoration:none;text-decoration-line:none;text-decoration-style:solid;text-decoration-color:#000000;letter-spacing:normal;word-spacing:normal;text-transform:none;writing-mode:lr-tb;direction:ltr;text-orientation:mixed;dominant-baseline:auto;baseline-shift:baseline;text-anchor:start;white-space:normal;shape-padding:0;shape-margin:0;inline-size:0;clip-rule:nonzero;display:inline;overflow:visible;visibility:visible;isolation:auto;mix-blend-mode:normal;color-interpolation:sRGB;color-interpolation-filters:linearRGB;solid-color:#000000;solid-opacity:1;vector-effect:none;fill:#1c2e58;fill-opacity:1;fill-rule:nonzero;stroke:none;stroke-width:17.0079;stroke-linecap:butt;stroke-linejoin:round;stroke-miterlimit:4;stroke-dasharray:none;stroke-dashoffset:0;stroke-opacity:1;color-rendering:auto;image-rendering:auto;shape-rendering:auto;text-rendering:auto;enable-background:accumulate;stop-color:#000000"
       d="m 805.25391,675.99609 a 8.5047874,8.5047874 0 0 0 -4.57032,1.33008 l -52.625,33.49805 -52.625,33.5 a 8.5047874,8.5047874 0 0 0 -3.20312,3.72461 8.503937,8.503937 0 0 0 -0.002,0.002 8.503937,8.503937 0 0 0 -0.002,0.008 8.5047874,8.5047874 0 0 0 -0.17968,0.43946 8.503937,8.503937 0 0 0 -0.0117,0.0273 8.5047874,8.5047874 0 0 0 -0.0645,0.17773 8.503937,8.503937 0 0 0 -0.0371,0.10938 8.5047874,8.5047874 0 0 0 -0.0371,0.11523 8.503937,8.503937 0 0 0 -0.0293,0.0957 8.5047874,8.5047874 0 0 0 -0.16602,0.63476 8.503937,8.503937 0 0 0 -0.0156,0.0742 8.5047874,8.5047874 0 0 0 -0.0352,0.16406 8.503937,8.503937 0 0 0 -0.0137,0.0742 8.5047874,8.5047874 0 0 0 -0.0254,0.14649 8.503937,8.503937 0 0 0 -0.0273,0.18164 8.5047874,8.5047874 0 0 0 -0.006,0.0352 8.503937,8.503937 0 0 0 -0.0176,0.14649 8.5047874,8.5047874 0 0 0 -0.0391,0.39062 8.503937,8.503937 0 0 0 -0.006,0.0918 8.5047874,8.5047874 0 0 0 -0.008,0.13477 8.503937,8.503937 0 0 0 -0.002,0.0781 8.5047874,8.5047874 0 0 0 -0.006,0.20703 8.503937,8.503937 0 0 0 -0.002,0.11524 v 61.0039 a 8.5047874,8.5047874 0 0 0 8.5039,8.50391 h 3.9336 v 147.98242 a 8.5047847,8.5047847 0 0 0 8.5039,8.50586 h 222.08008 a 8.5039456,8.5039456 0 0 0 0.17774,0.002 8.5039456,8.5039456 0 0 0 4.74414,-1.44336 l 97.09567,-61.81054 a 8.5047847,8.5047847 0 0 0 3.9375,-7.17188 V 758.9375 l 9.8438,-6.26562 a 8.5047874,8.5047874 0 0 0 3.9336,-7.17579 v -60.74414 a 8.503937,8.503937 0 0 0 -1.3282,-4.82031 8.503937,8.503937 0 0 0 -2.8574,-2.75781 8.5047874,8.5047874 0 0 0 -0.01,-0.004 8.503937,8.503937 0 0 0 -1.5507,-0.71289 8.5047874,8.5047874 0 0 0 -0.1524,-0.0508 8.503937,8.503937 0 0 0 -0.08,-0.0254 8.5047874,8.5047874 0 0 0 -0.037,-0.01 8.503937,8.503937 0 0 0 -0.6738,-0.17773 8.5047874,8.5047874 0 0 0 -0.1582,-0.0332 8.503937,8.503937 0 0 0 -0.082,-0.0156 8.5047874,8.5047874 0 0 0 -0.029,-0.006 8.503937,8.503937 0 0 0 -0.2129,-0.0371 8.5047874,8.5047874 0 0 0 -0.1582,-0.0234 8.503937,8.503937 0 0 0 -0.084,-0.0117 8.5047874,8.5047874 0 0 0 -0.061,-0.006 8.503937,8.503937 0 0 0 -0.4277,-0.043 8.5047874,8.5047874 0 0 0 -0.1601,-0.01 8.503937,8.503937 0 0 0 -0.086,-0.004 8.5047874,8.5047874 0 0 0 -0.031,0 8.503937,8.503937 0 0 0 -0.2129,-0.006 8.5047874,8.5047874 0 0 0 -0.074,-0.002 8.503937,8.503937 0 0 0 -0.041,0 z m 2.47265,17.00782 h 208.83004 l -27.99605,17.82031 -50.53516,32.16992 H 729.19531 l 27.99414,-17.82031 z m 229.51754,6.99414 v 40.83398 L 949,797.00977 v -40.84571 l 48.69141,-30.99023 z M 827.7832,711.19336 A 6.8031496,6.8031496 0 0 0 820.97656,718 a 6.8031496,6.8031496 0 0 0 6.80664,6.80469 h 90.1836 A 6.8031496,6.8031496 0 0 0 924.77344,718 6.8031496,6.8031496 0 0 0 917.9668,711.19336 Z m -119.27734,48.80859 h 223.48633 v 43.9961 H 708.50586 Z m 314.95894,9.76367 v 132.63672 l -80.25972,51.0918 V 820.5625 a 8.503937,8.503937 0 0 0 2.05078,-1.01367 z M 720.94531,821.00586 H 926.19727 V 960.48438 H 720.94531 Z"
       transform="scale(0.26458333)" />
    <path
       id="path1218"
       style="color:#000000;font-style:normal;font-variant:normal;font-weight:normal;font-stretch:normal;font-size:medium;line-height:normal;font-family:sans-serif;font-variant-ligatures:normal;font-variant-position:normal;font-variant-caps:normal;font-variant-numeric:normal;font-variant-alternates:normal;font-variant-east-asian:normal;font-feature-settings:normal;font-variation-settings:normal;text-indent:0;text-align:start;text-decoration:none;text-decoration-line:none;text-decoration-style:solid;text-decoration-color:#000000;letter-spacing:normal;word-spacing:normal;text-transform:none;writing-mode:lr-tb;direction:ltr;text-orientation:mixed;dominant-baseline:auto;baseline-shift:baseline;text-anchor:start;white-space:normal;shape-padding:0;shape-margin:0;inline-size:0;clip-rule:nonzero;display:inline;overflow:visible;visibility:visible;isolation:auto;mix-blend-mode:normal;color-interpolation:sRGB;color-interpolation-filters:linearRGB;solid-color:#000000;solid-opacity:1;vector-effect:none;fill:#81c1fe;fill-opacity:1;fill-rule:nonzero;stroke:none;stroke-width:17.0079;stroke-linecap:butt;stroke-linejoin:round;stroke-miterlimit:4;stroke-dasharray:none;stroke-dashoffset:0;stroke-opacity:1;color-rendering:auto;image-rendering:auto;shape-rendering:auto;text-rendering:auto;enable-background:accumulate;stop-color:#000000"
       d="m 899.05273,517.91602 c -4.94176,-0.0466 -10.161,0.18211 -15.73632,0.70507 a 8.5047874,8.5047874 0 0 0 -6.31836,3.81055 l -55.61524,84.90625 a 8.5047874,8.5047874 0 0 0 -0.0605,0.0977 8.5047874,8.5047874 0 0 0 1.91992,11.24804 l 37.33789,30.8711 a 8.5047873,8.5047873 0 0 0 13.04492,-2.79688 l 11.7168,-23.76758 c 5.63292,1.17118 11.58309,2.57582 18.02343,4.24219 a 8.5047874,8.5047874 0 0 0 9.54493,-4.06054 l 44.49804,-79.00196 a 8.5047874,8.5047874 0 0 0 -3.49023,-11.7207 c -15.91329,-8.25494 -30.94894,-13.47848 -50.01367,-14.39649 -1.58873,-0.0765 -3.20431,-0.12118 -4.85157,-0.13671 z m 0.75391,16.95898 c 1.14829,-0.0117 2.26425,-10e-4 3.33789,0.0391 13.29347,0.49973 23.66735,3.72461 34.94531,8.91016 l -37.01172,65.6914 c -20.75591,-5.02045 -38.62275,-7.97618 -55.89648,-7.46289 l 43.63477,-66.63671 c 3.8044,-0.26731 7.54537,-0.50608 10.99023,-0.54102 z m -48.84766,84.00781 c 5.4966,0.0407 11.0613,0.42915 16.88477,1.14649 l -4.7168,9.56445 -12.94531,-10.70313 c 0.25941,4.1e-4 0.51767,-0.01 0.77734,-0.008 z"
       transform="scale(0.26458333)" />
    <path
       id="path1090"
       style="color:#000000;font-style:normal;font-variant:normal;font-weight:normal;font-stretch:normal;font-size:medium;line-height:normal;font-family:sans-serif;font-variant-ligatures:normal;font-variant-position:normal;font-variant-caps:normal;font-variant-numeric:normal;font-variant-alternates:normal;font-variant-east-asian:normal;font-feature-settings:normal;font-variation-settings:normal;text-indent:0;text-align:start;text-decoration:none;text-decoration-line:none;text-decoration-style:solid;text-decoration-color:#000000;letter-spacing:normal;word-spacing:normal;text-transform:none;writing-mode:lr-tb;direction:ltr;text-orientation:mixed;dominant-baseline:auto;baseline-shift:baseline;text-anchor:start;white-space:normal;shape-padding:0;shape-margin:0;inline-size:0;clip-rule:nonzero;display:inline;overflow:visible;visibility:visible;opacity:0.997;isolation:auto;mix-blend-mode:normal;color-interpolation:sRGB;color-interpolation-filters:linearRGB;solid-color:#000000;solid-opacity:1;vector-effect:none;fill:#77bbfe;fill-opacity:1;fill-rule:nonzero;stroke:none;stroke-width:1.88976;stroke-linecap:butt;stroke-linejoin:miter;stroke-miterlimit:4;stroke-dasharray:none;stroke-dashoffset:0;stroke-opacity:1;color-rendering:auto;image-rendering:auto;shape-rendering:auto;text-rendering:auto;enable-background:new;stop-color:#000000"
       d="m 775.4375,847.09375 c -2.54736,-0.003 -5.02563,0.4753 -7.35938,1.00391 v -0.14844 l -1.18164,0.31055 c -4.75339,1.24312 -8.91069,4.21771 -12.44531,7.39648 -4.40534,3.96185 -8.041,8.88848 -10.64453,14.19531 -2.49162,5.07859 -3.97535,10.70254 -4.49609,16.31446 -0.53662,5.78203 -0.84729,12.13175 1.51367,17.71679 1.88356,4.45576 5.61323,7.8853 9.2793,10.70313 3.72498,2.86303 8.10532,4.93573 12.60742,6.18554 5.26091,1.46049 11.15592,2.84121 16.71289,1.39649 3.53881,-0.92001 7.06671,-3.05068 9.125,-6.19336 1.30874,-1.99824 1.87697,-4.63538 1.2832,-7.00586 -0.45861,-1.83095 -1.60579,-4.02478 -3.78711,-4.57031 -1.92015,-0.48015 -3.5779,0.50054 -4.99023,1.46289 -1.41234,0.96234 -2.72135,1.94729 -3.9043,2.17773 -2.70028,0.52611 -5.6096,0.32104 -8.41601,-0.19336 -2.9079,-0.5328 -5.78635,-1.4945 -8.31836,-2.94531 -2.52805,-1.44858 -5.06271,-3.08223 -6.4004,-5.34375 -1.28968,-2.18033 -1.48199,-5.08943 -1.55078,-7.91992 -0.11565,-4.76198 0.55578,-9.63541 2.11914,-14.10742 1.21879,-3.48658 3.056,-6.85144 5.50782,-9.54492 2.70485,-2.97139 5.98331,-5.6642 9.65429,-6.88086 3.43408,-1.13817 7.41265,-1.19822 10.91797,-0.24219 0.56648,0.15458 1.30264,0.87829 2.12696,1.68945 0.41215,0.40554 0.85539,0.82446 1.41015,1.13672 0.55476,0.31219 1.26929,0.5042 2.00781,0.34766 1.351,-0.28649 2.40506,-1.24644 3.12891,-2.36914 0.72386,-1.12268 1.14739,-2.43893 1.12305,-3.7129 -0.0752,-3.91974 -3.29805,-7.26331 -6.51953,-8.96874 -2.59284,-1.37265 -5.54771,-1.88723 -8.50391,-1.89063 z m 47.85352,0.51953 c -1.23346,-0.016 -2.45438,0.0318 -3.63477,0.11524 -2.4932,0.17612 -5.07219,0.91281 -7.19141,2.36328 -3.86702,2.64672 -6.61114,6.66503 -8.7539,10.64453 -1.18337,2.19776 -1.82328,4.63781 -2.18555,7.02734 -0.33033,2.17935 -0.73528,4.65542 0.0312,7.03516 0.6446,2.003 2.03133,3.66854 3.52734,4.95312 1.98535,1.7048 4.44012,2.5668 6.65821,3.41016 2.57147,0.9778 5.21275,1.28424 7.5957,1.99219 2.44226,0.72555 4.85962,1.51205 7.23438,2.40625 2.32826,0.87673 4.6766,1.40143 6.3789,2.6582 1.43501,1.05944 2.77537,2.37095 3.25586,3.82422 0.74967,2.26734 0.67794,5.11031 -0.39844,7.14453 -1.11987,2.11654 -3.58906,3.70825 -6.03906,4.59961 -1.47681,0.53726 -3.30751,0.40568 -5.12305,0.17773 -1.86822,-0.2347 -3.73103,-0.86932 -5.52929,-1.66015 -1.50006,-0.65964 -2.9127,-1.7588 -4.53907,-2.71094 -0.43846,-0.25663 -0.9476,-0.72056 -1.55078,-1.16602 -0.60317,-0.44545 -1.3567,-0.90093 -2.31054,-0.92187 -1.85647,-0.0389 -3.4967,1.05056 -4.57618,2.32422 -1.20536,1.42212 -1.45089,3.26513 -1.60937,4.79883 -0.16176,1.56578 0.0155,3.1828 0.50977,4.67968 0.65816,1.98138 1.69626,3.95337 3.24023,5.47852 1.65615,1.63601 3.79207,2.55837 5.76563,3.33594 2.33298,0.91925 4.78684,1.34246 7.16601,1.67578 2.34512,0.32844 4.81961,0.65263 7.31641,0.35351 2.95816,-0.35452 5.84413,-1.26893 8.51172,-2.51757 2.09922,-0.98257 4.09658,-2.28091 5.80859,-3.875 1.51136,-1.40727 2.77829,-3.07625 3.77344,-4.86329 1.23118,-2.21083 2.12709,-4.62937 2.64843,-7.10156 0.70024,-3.32043 0.85382,-6.7648 0.59961,-10.12109 -0.18633,-2.4604 -0.60908,-4.99248 -1.58007,-7.35352 -0.96087,-2.33624 -2.30418,-4.62142 -4.14844,-6.45117 -1.61753,-1.60486 -3.6324,-2.70729 -5.625,-3.55859 -2.38201,-1.01757 -4.87328,-1.22314 -7.08789,-1.78516 -2.54865,-0.64683 -5.09916,-1.30857 -7.64649,-1.9707 -2.43904,-0.6339 -4.85054,-0.93745 -6.93945,-1.8086 -0.51991,-0.21694 -1.02466,-0.37633 -1.40234,-0.55468 -0.37758,-0.1784 -0.58653,-0.34705 -0.67969,-0.52344 -0.30841,-0.58371 -0.059,-1.72779 0.30273,-2.86524 0.48446,-1.52246 1.41097,-2.97743 2.55469,-4.14062 1.06794,-1.08609 2.39195,-1.98946 3.7793,-2.42773 1.49125,-0.47109 3.23047,-0.44826 4.9082,-0.19922 1.34079,0.1988 2.69189,0.75361 4.00195,1.41601 0.29405,0.14854 0.63418,0.45152 1.05469,0.8125 0.42055,0.36095 0.94021,0.78845 1.66992,0.99024 1.38781,0.38388 3.23888,0.67986 4.73047,-0.36329 1.30163,-0.91033 1.96469,-2.48738 1.91602,-4.01562 l 0.0176,-0.0293 -0.0293,-0.30273 c -0.35188,-3.4749 -2.92864,-6.46761 -5.70508,-8.23828 -3.15901,-2.01476 -6.97151,-2.64339 -10.67187,-2.69141 z m 59.51953,0 c -1.23346,-0.016 -2.45438,0.0318 -3.63477,0.11524 -2.49316,0.17612 -5.07023,0.91281 -7.18945,2.36328 -3.86706,2.64672 -6.6131,6.66503 -8.75586,10.64453 -1.18341,2.19776 -1.82914,4.63781 -2.19141,7.02734 -0.33033,2.17935 -0.72968,4.65542 0.0371,7.03516 0.6446,2.003 2.03321,3.6685 3.5293,4.95312 1.98531,1.7048 4.4323,2.5668 6.65039,3.41016 2.57144,0.97784 5.22049,1.28424 7.60352,1.99219 2.44217,0.72555 4.85969,1.51205 7.23437,2.40625 2.3283,0.87673 4.67469,1.40143 6.37695,2.6582 1.43501,1.05944 2.77541,2.37099 3.25586,3.82422 0.74963,2.26734 0.67794,5.11031 -0.39844,7.14453 -1.11987,2.11654 -3.58905,3.70825 -6.03906,4.59961 -1.47681,0.53726 -3.30751,0.40568 -5.12304,0.17773 -1.86822,-0.2347 -3.73686,-0.86932 -5.53516,-1.66015 -1.50002,-0.65964 -2.90684,-1.7588 -4.5332,-2.71094 -0.43847,-0.25663 -0.94761,-0.72056 -1.55078,-1.16602 -0.60318,-0.44545 -1.35671,-0.90093 -2.31055,-0.92187 -1.85651,-0.0389 -3.49667,1.05059 -4.57617,2.32422 -1.2053,1.42212 -1.4509,3.26513 -1.60938,4.79883 -0.16176,1.56578 0.008,3.1828 0.50195,4.67968 0.65817,1.98138 1.70411,3.95337 3.24805,5.47852 1.65619,1.63601 3.79211,2.55837 5.76563,3.33594 2.33302,0.91925 4.78883,1.34246 7.16797,1.67578 2.34519,0.32844 4.81176,0.65263 7.30859,0.35351 2.95812,-0.35452 5.84999,-1.26893 8.51758,-2.51757 2.09918,-0.98257 4.09849,-2.28091 5.81054,-3.875 1.51136,-1.40727 2.7763,-3.07625 3.77149,-4.86329 1.23122,-2.21087 2.12908,-4.62933 2.65039,-7.10156 0.70027,-3.32043 0.84409,-6.7648 0.58984,-10.12109 -0.18633,-2.4604 -0.6013,-4.99248 -1.57226,-7.35352 -0.96083,-2.33624 -2.30426,-4.62142 -4.14844,-6.45117 -1.61756,-1.60486 -3.63236,-2.70729 -5.625,-3.55859 -2.38201,-1.01757 -4.87914,-1.22314 -7.09375,-1.78516 -2.54865,-0.64683 -5.09326,-1.30857 -7.64063,-1.9707 -2.43904,-0.6339 -4.85054,-0.93749 -6.93945,-1.8086 -0.51991,-0.21694 -1.02465,-0.37633 -1.40234,-0.55468 -0.37758,-0.1784 -0.58457,-0.34743 -0.67774,-0.52344 -0.30841,-0.58371 -0.0668,-1.72779 0.29492,-2.86524 0.48443,-1.52246 1.40902,-2.97743 2.55274,-4.14062 1.0679,-1.08609 2.39976,-1.98946 3.78711,-2.42773 1.49125,-0.47109 3.23238,-0.44826 4.91015,-0.19922 1.34079,0.1988 2.68213,0.75361 3.99219,1.41601 0.29405,0.14854 0.64395,0.45152 1.06446,0.8125 0.42054,0.36095 0.93044,0.78845 1.66015,0.99024 1.38781,0.38388 3.24865,0.67986 4.74024,-0.36329 1.30217,-0.91074 1.9653,-2.48875 1.91601,-4.01757 l 0.0156,-0.0274 -0.0254,-0.27148 c -9.8e-4,-0.0104 -9.1e-4,-0.0209 -0.002,-0.0312 -0.35187,-3.4749 -2.93062,-6.46761 -5.70703,-8.23828 -3.15904,-2.01476 -6.97151,-2.64339 -10.67187,-2.69141 z"
       transform="scale(0.26458333)" />
    <path
       d="M 43.63477,0 0,66.63671 C 17.27373,66.12342 35.14057,69.07915 55.89648,74.0996 40.25325,65.01656 21.26423,66.47526 43.63477,0 Z M 5.77734,83.46679 C 5.51765,83.46479 5.25928,83.47479 5,83.47479 l 12.94531,10.70313 4.7168,-9.56445 C 16.83861,83.89612 11.27395,83.50769 5.77734,83.46698 Z"
       style="display:inline;opacity:1;mix-blend-mode:color-burn;fill:#221d60;fill-opacity:0.2;stroke:none;stroke-width:0.999999px;stroke-linecap:butt;stroke-linejoin:miter;stroke-opacity:1;filter:url(#filter1794);enable-background:new"
       id="path1344"
       transform="matrix(0.26458333,0,0,0.26458333,223.62097,141.66215)" />
  </g>
  <g
     transform="translate(90.05689,66.979842)"
     style="display:inline;opacity:0.4;filter:url(#filter1794)"
     id="layer27">
    <path
       id="path1323"
       style="color:#000000;font-style:normal;font-variant:normal;font-weight:normal;font-stretch:normal;font-size:medium;line-height:normal;font-family:sans-serif;font-variant-ligatures:normal;font-variant-position:normal;font-variant-caps:normal;font-variant-numeric:normal;font-variant-alternates:normal;font-variant-east-asian:normal;font-feature-settings:normal;font-variation-settings:normal;text-indent:0;text-align:start;text-decoration:none;text-decoration-line:none;text-decoration-style:solid;text-decoration-color:#000000;letter-spacing:normal;word-spacing:normal;text-transform:none;writing-mode:lr-tb;direction:ltr;text-orientation:mixed;dominant-baseline:auto;baseline-shift:baseline;text-anchor:start;white-space:normal;shape-padding:0;shape-margin:0;inline-size:0;clip-rule:nonzero;display:inline;overflow:visible;visibility:visible;isolation:auto;mix-blend-mode:normal;color-interpolation:sRGB;color-interpolation-filters:linearRGB;solid-color:#000000;solid-opacity:1;vector-effect:none;fill:#221d60;fill-opacity:1;fill-rule:nonzero;stroke:none;stroke-width:17.0079;stroke-linecap:butt;stroke-linejoin:round;stroke-miterlimit:4;stroke-dasharray:none;stroke-dashoffset:0;stroke-opacity:1;color-rendering:auto;image-rendering:auto;shape-rendering:auto;text-rendering:auto;enable-background:accumulate;stop-color:#000000"
       d="m 1023.4648,769.76562 -78.20894,49.78321 a 8.5039369,8.5039369 0 0 1 -2.05078,1.01367 v 14 a 8.5039369,8.5039369 0 0 0 2.05078,-1.01367 l 78.20894,-49.78321 z m -314.95894,6.14649 v 28.08594 H 931.99219 C 835.03094,800.032 714.80956,793.03061 708.50586,775.91211 Z m 12.43945,45.09375 v 14 125.47852 H 926.19727 V 946.69531 C 829.546,947.58981 761.33246,918.63938 743.07812,835.00586 h 183.11915 v -14 z"
       transform="matrix(0.26458333,0,0,0.26458333,-99.633912,-87.026389)" />
    <path
       id="path1498"
       style="display:inline;fill:#221d60;fill-opacity:1;stroke:none;stroke-width:3.64056px;stroke-linecap:butt;stroke-linejoin:miter;stroke-opacity:1"
       d="m 998.27344,350.37891 c 0,0 -22.55055,18.68382 -53.58399,31.02343 -36.03186,14.32707 -72.03546,29.04204 -109.21679,40.04688 -32.07421,9.49323 -54.11138,16.46422 -97.83985,22.29687 -6.42327,0.85681 -16.38281,10.4668 -16.38281,10.4668 l 0.12695,0.0371 c 1.50093,-1.00709 3.18943,-1.71491 4.67969,-1.85547 10.40078,-0.98077 19.79938,-0.89 29.60156,-2.25391 19.73072,-2.74528 39.26254,-6.99256 58.56836,-11.90429 19.13685,-4.86874 37.89122,-11.16374 56.63477,-17.37695 24.86075,-8.241 49.9136,-16.11382 74.00586,-26.38672 11.91364,-5.08008 24.24903,-9.80603 34.75586,-17.37891 6.02978,-4.34607 12.20196,-9.23979 15.76367,-15.76367 1.80786,-3.31142 2.493,-7.13067 2.88672,-10.94922 z m -280.58594,114.88476 -1.48633,37.35156 c 7.44473,-1.89301 14.83929,-4.00519 22.22071,-6.09375 1.29752,-0.36695 2.57466,-0.81309 3.86132,-1.2246 l -6.89843,-25.93165 c -2.82747,0.43935 -9.96892,1.41621 -12.3086,1.04688 -2.30334,-0.3637 -4.73948,-2.17643 -5.38867,-5.14844 z m -616.93164,25.29688 c -0.68145,0.01 -1.362441,0.0297 -2.042969,0.0586 -12.7327,0.54776 -37.136719,9.08008 -37.136719,9.08008 0,0 10.82813,-3.14423 16.410156,-3.54102 9.116863,-0.64823 18.407857,0.0261 27.347652,1.92774 8.59584,1.82872 16.84129,5.23677 24.7793,9.00781 7.56008,3.59149 14.95581,7.73335 21.5586,12.87695 7.77822,6.05935 14.52149,13.41034 20.91992,20.91211 8.42343,9.87601 15.79634,20.63579 22.8457,31.53516 10.41152,16.09772 18.89382,33.36756 28.63281,49.88086 9.6067,16.289 18.32244,32.96507 29.06836,48.27148 L 253.02539,670.5 c 0,0 10.62504,15.88306 16.33984,23.53516 10.58913,14.17867 21.03425,28.58031 33.22071,41.41211 12.79981,13.4776 26.67662,26.05975 41.63867,37.08789 13.83155,10.19478 28.54741,19.40333 44.14062,26.62109 8.42335,3.89896 26.39454,8.875 26.39454,8.875 l 5.04101,-32.11133 c 0,0 -20.00262,-7.29737 -29.38672,-12.25781 -17.4452,-9.22159 -33.9471,-20.30015 -49.60351,-32.31055 -18.92077,-14.51452 -37.8574,-29.56307 -53.24219,-47.7832 -16.31769,-19.32494 -26.58758,-43.04273 -40.50195,-64.16406 -14.88356,-22.59256 -29.02995,-45.79627 -45.96289,-66.89649 -11.55389,-14.39736 -23.01546,-29.40524 -37.76954,-40.5 -9.65108,-7.25742 -20.81629,-12.68204 -32.31054,-16.38281 -9.07729,-2.92257 -18.66992,-4.92215 -28.22071,-5.0625 -0.6822,-0.011 -1.36542,-0.0117 -2.04687,-0.002 z m 294.50781,10.78906 -37.46679,13.33203 c 0,0 24.52638,7.73139 26.25976,8.39063 1.73331,0.65923 4.2733,2.0943 5.57422,3.96679 1.09745,1.57967 1.86894,3.79665 1.49414,5.56836 -0.37478,1.77176 -7.125,21.38086 -7.125,21.38086 0,0 19.83483,-16.1866 21.14648,-16.78125 1.31141,-0.59468 3.96576,-1.10331 5.97266,-0.91797 3.23314,0.29817 7.77114,2.45914 9.19336,3.21485 1.42222,0.75567 51.25977,31.02929 51.25977,31.02929 l 7.0039,-12.63476 c -20.59498,-15.23816 -47.9289,-34.04959 -70.08008,-49.04102 -0.7766,0.86849 -1.72492,1.64863 -2.69531,1.86328 -2.30972,0.51088 -5.96214,-1.5393 -6.63476,-2.53125 -0.6726,-0.9919 -3.90235,-6.83984 -3.90235,-6.83984 z m 368.22266,4.94141 c 0,0 -28.55158,9.66648 -43.16211,13.28906 -1.60913,0.39904 -3.22863,0.77484 -4.8418,1.16601 l -8.16211,205.61329 c 3.02717,-0.56074 6.04359,-1.16965 9.03711,-1.88477 1.80284,-0.43068 3.61021,-0.91774 5.41797,-1.37109 0.0181,-0.004 0.0388,-0.0118 0.0566,-0.0156 4.08329,-1.02443 8.16721,-2.11972 12.20899,-3.33984 l 14.01757,-8.92383 33.9336,-21.59961 c 1.32289,-1.4645 2.16992,-2.44336 2.16992,-2.44336 0,0 -5.38829,-58.94089 -8.74609,-88.33984 -3.51461,-30.77166 -11.92889,-92.14455 -11.92969,-92.15039 z m 87.32226,35.13867 -37.86914,15.03906 c 0.0525,0.15984 0.13673,0.35089 0.1836,0.50586 1.27249,4.20922 2.03159,10.29105 2.49609,16.08398 0.92092,-0.35788 10.13041,-3.92741 14.9043,-5.19921 5.01501,-1.3362 13.16541,-3.35374 14.18554,-2.8086 0.24052,0.12854 1.08986,1.4504 2.20508,3.3086 l 11.90625,-18.17579 c -0.35376,0.14391 -0.7068,0.25517 -1.04883,0.27735 -2.25123,0.146 -4.46377,-1.36531 -5.74609,-3.12891 -1.15585,-1.58991 -1.30017,-4.41375 -1.2168,-5.90234 z m -48.44336,19.23437 -15.05859,5.98047 2.88672,17.03711 14.49805,-3.875 c 0,0 -0.43807,-12.02992 -1.89258,-17.82617 -0.0949,-0.37811 -0.29617,-0.88493 -0.4336,-1.31641 z m -312.43359,5.83789 -6.55664,11.13477 c 0,0 13.9906,7.48932 18.30273,12.3789 1.79757,2.03806 1.89823,2.9444 1.8418,4.59376 -0.0579,1.69116 -0.59044,3.60722 -1.65039,4.97851 l 0.0371,0.0215 c 0,0 6.3417,-7.14843 5.46094,-16.8379 -0.19404,-2.13581 -7.11099,-8.24187 -17.43555,-16.26953 z m -42.72656,34.66407 -5.24805,3.90234 9.20899,8.875 c 0,0 11.6305,12.31912 18.42968,17.29297 2.38424,1.74415 4.79152,4.0889 7.73633,4.32226 2.41591,0.19151 4.78378,-1.19739 6.82617,-2.50195 1.06458,-0.67999 2.27236,-1.95393 3.23438,-3.03711 -1.5736,0.98161 -3.68508,1.26981 -5.48242,0.91016 -4.0435,-0.80934 -10.10938,-7.125 -10.10938,-7.125 z m -16.54688,9.99609 -6.74804,2.04883 c 8.85005,11.20033 18.77914,23.85572 25.20703,32.35937 1.60596,2.12456 4.84829,2.82797 7.50976,2.73047 3.58672,-0.13213 9.23561,-3.74369 10.59375,-4.64258 -0.73215,0.34549 -1.5494,0.54902 -2.31836,0.60352 -2.41667,0.17182 -6.88867,-2.30274 -6.88867,-2.30274 z m -40.6289,18.22461 c 5.04734,10.00127 18.99172,36.66678 29.50781,49.63086 13.93611,17.18021 30.7162,32.36548 49.14844,44.59765 17.69921,11.74572 37.51744,20.51501 57.79297,26.84961 12.43127,3.88392 25.26291,6.34358 38.20507,8.16993 0.0593,-0.18104 0.0755,-0.37437 0.15625,-0.54883 1.23962,-2.69526 3.80583,-5.55841 6.76368,-5.78711 2.64126,-0.2041 6.7539,4.18156 6.7539,4.18164 0,0 1.19395,2.71826 1.79297,4.05859 4.10645,0.4512 8.2166,0.89821 12.31445,1.30274 28.99347,2.86178 58.26978,3.62113 87.37305,2.27539 3.16984,-0.14656 7.46767,-0.59776 11.66016,-1.10938 v -11.51172 a 8.5039367,8.5039367 0 0 1 0.002,-0.11523 8.5047871,8.5047871 0 0 1 0.006,-0.20703 8.5039367,8.5039367 0 0 1 0.002,-0.0781 8.5047871,8.5047871 0 0 1 0.008,-0.13476 8.5039367,8.5039367 0 0 1 0.006,-0.0918 8.5047871,8.5047871 0 0 1 0.0391,-0.39062 8.5039367,8.5039367 0 0 1 0.0176,-0.14649 8.5047871,8.5047871 0 0 1 0.008,-0.0352 8.5039367,8.5039367 0 0 1 0.0254,-0.18165 8.5047871,8.5047871 0 0 1 0.0254,-0.14648 8.5039367,8.5039367 0 0 1 0.0137,-0.0742 8.5047871,8.5047871 0 0 1 0.0352,-0.16406 8.5039367,8.5039367 0 0 1 0.0156,-0.0742 8.5047871,8.5047871 0 0 1 0.16602,-0.63477 8.5039367,8.5039367 0 0 1 0.0293,-0.0957 8.5047871,8.5047871 0 0 1 0.0371,-0.11523 8.5039367,8.5039367 0 0 1 0.0371,-0.10938 8.5047871,8.5047871 0 0 1 0.0645,-0.17773 8.5039367,8.5039367 0 0 1 0.0117,-0.0254 8.5047871,8.5047871 0 0 1 0.17968,-0.43946 8.5039367,8.5039367 0 0 1 0.002,-0.008 8.5039367,8.5039367 0 0 0 0.002,-0.002 8.5047871,8.5047871 0 0 1 0.37891,-0.75391 c -12.01168,1.59497 -24.13348,2.35458 -36.24415,2.75 -14.5499,0.47509 -29.1458,0.46548 -43.67382,-0.46289 -13.08768,-0.83633 -26.14896,-2.36127 -39.07227,-4.5918 -16.26366,-2.80705 -32.56494,-5.94878 -48.26562,-11.03515 -12.67123,-4.10498 -25.05417,-9.30247 -36.7754,-15.62891 -9.7229,-5.24859 -19.08668,-11.32071 -27.58007,-18.38867 -11.32787,-9.42669 -21.60562,-20.2055 -30.80274,-31.7207 -1.32159,-1.65467 -2.60994,-3.3848 -3.875,-5.1543 -7.92288,-10.62374 -14.88803,-21.97723 -21.38086,-33.5332 -1.18318,0.25447 -2.32753,0.45513 -3.24218,0.49023 -3.88692,0.14891 -7.78597,-0.14231 -11.66797,-0.63281 z m 52.5332,120.6582 -32.49609,171.51172 124.85351,27.3457 c 0,0 -6.50804,-11.76049 -9.65625,-17.69726 -0.55398,-1.04451 -1.16481,-2.28006 -1.73437,-3.57617 l -60.30469,-13.33985 z m 248.93555,32.73828 c -9.4885,6.44454 -19.5907,12.24788 -30.44532,15.84766 -14.31123,4.74618 -29.64788,6.5899 -44.72461,6.76172 -7.17534,0.0828 -17.57377,-1.7214 -22.94531,-2.70899 0.25119,2.21382 0.4424,4.43932 0.57422,6.66993 0.1307,2.21185 0.20936,4.43155 0.21485,6.64843 10e-6,0.0189 -4e-5,0.0389 0,0.0566 8.5e-4,0.44376 -0.0337,0.88633 -0.0371,1.33008 -0.0401,4.0272 -0.26399,8.04632 -0.75977,12.0293 -0.84071,6.75409 -5.00586,19.79687 -5.00586,19.79687 13.94568,5.72871 26.56467,4.40115 39.77539,2.92188 14.00306,-1.56809 27.56293,-6.59997 40.42969,-12.34375 11.52927,-5.14671 22.58328,-11.5066 32.9375,-18.78906 h -1.50977 A 8.5047871,8.5047871 0 0 1 691.49805,812.5 Z m 12.4375,54.75 c -3.54796,2.26291 -6.20118,3.89453 -6.20117,3.89453 l 6.20117,8.14844 z m -161.47852,94.27735 c 4.39249,6.94945 9.83399,19.99414 9.83399,19.99414 l 16.08984,3.5332 c 0,0 -9.73784,-11.72516 -15.05274,-21.125 z m 35.42383,7.83398 c 6.30378,9.57906 11.0918,18.5957 11.0918,18.5957 l 17.69922,2.89258 c 0,0 -6.04846,-9.4692 -11.82618,-17.73242 z"
       transform="matrix(0.26458333,0,0,0.26458333,-99.633912,-87.026389)" />
  </g>
  <g
     style="display:inline;opacity:0.992"
     id="layer3">
    <g
       id="text897"
       style="font-style:normal;font-weight:normal;font-size:4.93889px;line-height:1.25;font-family:sans-serif;letter-spacing:0px;word-spacing:0px;display:inline;opacity:1;fill:#a0a0a0;fill-opacity:1;stroke:none;stroke-width:0.264583;enable-background:new"
       transform="matrix(1.6875898,0.1446289,-0.15060235,1.7167142,-39.191302,-155.79611)"
       aria-label="@kyrallei">
      <path
         id="path896"
         style="font-style:normal;font-variant:normal;font-weight:normal;font-stretch:normal;font-size:4.93889px;font-family:'Maiandra GD';-inkscape-font-specification:'Maiandra GD';fill:#a0a0a0;fill-opacity:1;stroke-width:0.264583"
         d="m 83.598231,193.25956 q -0.05956,-0.0916 -0.122267,-0.16187 -0.0627,-0.0703 -0.133879,-0.11998 -0.280751,-0.19607 -0.617517,-0.12242 -0.336767,0.0737 -0.550795,0.38011 -0.143605,0.20562 -0.123268,0.37867 0.02369,0.17244 0.209543,0.30224 0.104787,0.0732 0.263238,0.078 0.160428,0.006 0.389929,-0.0571 l 0.04105,-0.0419 q 0.575492,-0.56288 0.643968,-0.63566 z m 0.49911,0.0603 q -0.343481,0.26017 -0.633989,0.54556 -0.289126,0.28342 -0.423066,0.4752 -0.01657,0.0237 -0.01616,0.0358 4.08e-4,0.0121 0.01623,0.0231 0.03559,0.0249 0.117999,0.05 0.08379,0.0232 0.162028,0.0249 0.295374,0.0151 0.543955,-0.12604 0.250558,-0.13975 0.456301,-0.43434 0.294115,-0.42112 0.194097,-0.83807 -0.09666,-0.41755 -0.565237,-0.7448 -0.334133,-0.23336 -0.69497,-0.31477 -0.359458,-0.0834 -0.727638,-0.0111 -0.360084,0.0691 -0.673784,0.28245 -0.311722,0.21469 -0.549224,0.55475 -0.374203,0.5358 -0.257645,1.0849 0.115177,0.55108 0.686563,0.95014 0.387514,0.27064 0.834466,0.32982 0.447548,0.0626 1.070712,-0.0758 0.06656,-0.0153 0.113982,-0.0116 0.04742,0.004 0.07708,0.0244 0.04745,0.0331 0.05639,0.0835 0.0123,0.0498 -0.01808,0.0933 -0.03038,0.0435 -0.122988,0.0877 -0.09123,0.0422 -0.224354,0.0727 -0.548693,0.12861 -1.066413,0.0318 -0.515743,-0.0955 -0.968502,-0.41167 -0.674196,-0.47086 -0.80927,-1.15349 -0.133098,-0.68126 0.321193,-1.33173 0.26788,-0.38356 0.638445,-0.62775 0.373923,-0.24478 0.801762,-0.32249 0.443247,-0.0787 0.887093,0.0312 0.447203,0.10937 0.866351,0.4021 0.565454,0.39492 0.682797,0.93869 0.118724,0.54178 -0.247195,1.06572 -0.18503,0.26493 -0.428841,0.43293 -0.241833,0.16937 -0.524088,0.22815 -0.247295,0.0508 -0.4939,0.008 -0.243247,-0.0434 -0.421188,-0.16768 -0.120604,-0.0842 -0.144015,-0.17706 -0.02005,-0.0934 0.05589,-0.20217 0.01795,-0.0257 0.02762,-0.0395 0.01164,-0.0125 0.01855,-0.0223 -0.222,0.0567 -0.406154,0.034 -0.184153,-0.0227 -0.334414,-0.12766 -0.251093,-0.17537 -0.281034,-0.46101 -0.02796,-0.28427 0.17778,-0.57886 0.13394,-0.19178 0.327821,-0.30934 0.195858,-0.11618 0.479494,-0.17694 0.188829,-0.0387 0.424984,0.0233 0.237535,0.06 0.445132,0.20499 0.118627,0.0829 0.25351,0.21823 0.136861,0.13676 0.293932,0.32882 z" />
      <path
         id="path899"
         style="font-style:normal;font-variant:normal;font-weight:normal;font-stretch:normal;font-size:4.93889px;font-family:'Maiandra GD';-inkscape-font-specification:'Maiandra GD';fill:#a0a0a0;fill-opacity:1;stroke-width:0.264583"
         d="m 84.981711,196.1 q -0.11434,-1.8e-4 -0.201392,-0.016 -0.08593,-0.0179 -0.158501,-0.0561 -0.09178,-0.0483 -0.100909,-0.12935 -0.0059,-0.0821 0.07494,-0.23579 0.02694,-0.0512 0.3611,-0.61934 0.336297,-0.56699 0.615774,-1.09847 0.27611,-0.52507 0.355891,-0.73379 0.07978,-0.20871 0.07715,-0.34361 0.116474,0.001 0.202404,0.0192 0.08919,0.0169 0.151086,0.0495 0.100319,0.0527 0.1063,0.12946 0.0092,0.0757 -0.07831,0.24219 -0.0202,0.0384 -0.124035,0.20996 -0.449898,0.74158 -0.827024,1.45875 0.642299,-0.12816 1.0092,-0.24039 0.366902,-0.11223 0.524555,-0.2255 0.119217,0.13081 0.152044,0.21346 0.03283,0.0827 -0.0031,0.15096 -0.04826,0.0918 -0.812648,0.22931 -0.339964,0.061 -0.543582,0.10106 0.02035,0.0598 0.06015,0.17059 0.420295,1.23186 0.563303,1.30706 l 0.0085,0.004 q -0.08655,0.11797 -0.177966,0.15709 -0.09029,0.037 -0.177803,-0.009 -0.143008,-0.0752 -0.360158,-0.79699 -0.173742,-0.57635 -0.309669,-0.94481 l -0.05051,0.096 q -0.181829,0.34578 -0.26172,0.55989 -0.07776,0.21523 -0.07512,0.35012 z" />
      <path
         id="path901"
         style="font-style:normal;font-variant:normal;font-weight:normal;font-stretch:normal;font-size:4.93889px;font-family:'Maiandra GD';-inkscape-font-specification:'Maiandra GD';fill:#a0a0a0;fill-opacity:1;stroke-width:0.264583"
         d="m 86.436372,197.78668 q 0.153573,-0.0363 0.307279,-0.1233 0.154845,-0.0838 0.333265,-0.23382 l 0.143458,-0.11593 q 0.0552,-1.32025 0.01957,-1.72732 -0.03346,-0.40604 -0.161351,-0.49642 0.128657,-0.15773 0.257985,-0.22162 0.129328,-0.0639 0.222926,-0.0193 0.06748,0.0322 0.09544,0.0856 0.029,0.0512 0.02987,0.15585 5.03e-4,0.027 -0.03408,0.65971 -0.03354,0.63057 -0.03183,1.24322 0.602466,-0.49017 0.934222,-0.80485 0.333933,-0.31365 0.403485,-0.45949 0.01349,-0.0283 0.01942,-0.0575 0.0081,-0.0282 0.01299,-0.0553 0.01731,0.003 0.05515,0.008 0.184851,0.0214 0.252329,0.0536 0.07836,0.0374 0.103311,0.1027 0.02495,0.0653 -0.0093,0.13717 -0.04464,0.0936 -0.657887,0.58396 -0.611073,0.49141 -1.082035,0.91871 -0.141081,0.12776 -0.370032,0.34453 -0.517241,0.49073 -0.654373,0.42533 -0.07183,-0.0342 -0.120189,-0.14014 -0.0494,-0.10371 -0.06962,-0.26298 z" />
      <path
         id="path903"
         style="font-style:normal;font-variant:normal;font-weight:normal;font-stretch:normal;font-size:4.93889px;font-family:'Maiandra GD';-inkscape-font-specification:'Maiandra GD';fill:#a0a0a0;fill-opacity:1;stroke-width:0.264583"
         d="m 89.967531,196.52207 q 0.267441,-0.15908 0.467047,-0.20572 0.200576,-0.0488 0.346297,0.0152 0.123641,0.0543 0.174829,0.17163 0.05437,0.11608 0.0039,0.23089 -0.03298,0.0751 -0.115771,0.12562 -0.07961,0.0493 -0.210009,0.0763 0.0074,-0.11266 -0.02527,-0.18231 -0.03041,-0.0687 -0.103271,-0.10068 -0.108187,-0.0475 -0.274943,0.008 -0.165785,0.0536 -0.368865,0.20408 -0.05469,0.0945 -0.106904,0.19536 -0.05124,0.0987 -0.09392,0.1958 -0.1455,0.33119 -0.207174,0.56749 -0.05947,0.23728 -0.04427,0.41254 -0.108686,0.008 -0.205463,-0.006 -0.09457,-0.0126 -0.176261,-0.0485 -0.108187,-0.0475 -0.126857,-0.11895 -0.01549,-0.0727 0.05629,-0.23604 0.02619,-0.0596 0.222868,-0.44734 0.199857,-0.38895 0.350207,-0.73118 0.12319,-0.2804 0.167072,-0.44023 0.04388,-0.15984 0.04354,-0.29696 0.05095,0.004 0.09581,0.0157 0.04804,0.0106 0.0944,0.0309 0.128057,0.0563 0.162718,0.14524 0.03563,0.0868 -0.01966,0.21262 -0.01261,0.0287 -0.03934,0.0776 -0.02355,0.0476 -0.06703,0.12859 z" />
      <path
         id="path905"
         style="font-style:normal;font-variant:normal;font-weight:normal;font-stretch:normal;font-size:4.93889px;font-family:'Maiandra GD';-inkscape-font-specification:'Maiandra GD';fill:#a0a0a0;fill-opacity:1;stroke-width:0.264583"
         d="m 92.276767,199.40282 q -0.109795,0.0206 -0.19309,0.0208 -0.08329,1.2e-4 -0.13695,-0.0216 -0.09613,-0.0389 -0.117336,-0.11509 -0.01806,-0.0775 0.02858,-0.21215 -0.225542,0.0753 -0.419009,0.0777 -0.191232,0.003 -0.36114,-0.0654 -0.335345,-0.13563 -0.46507,-0.40661 -0.129726,-0.27098 -0.0058,-0.57726 0.140152,-0.34653 0.505933,-0.44051 0.368921,-0.0953 0.847347,0.0982 0.07825,0.0317 0.162725,0.0736 0.08762,0.0406 0.183699,0.0925 0.01261,-0.0183 0.02075,-0.0384 0.01128,-0.0214 0.02303,-0.0505 0.09404,-0.2325 0.01096,-0.40658 -0.07994,-0.1754 -0.328091,-0.27577 -0.205679,-0.0832 -0.367847,-0.0681 -0.159029,0.0137 -0.299617,0.12334 -0.07234,-0.0527 -0.09493,-0.11903 -0.02035,-0.0655 0.0113,-0.14371 0.06601,-0.1632 0.314184,-0.18509 0.251316,-0.0232 0.584425,0.11151 0.409121,0.16547 0.53209,0.44672 0.126108,0.27993 -0.03303,0.6734 -0.02984,0.0738 -0.110691,0.25438 -0.08085,0.18061 -0.126062,0.29239 -0.124781,0.30852 -0.164964,0.51078 -0.03795,0.20317 -0.0013,0.35064 z m -0.08947,-1.19378 q -0.09651,-0.0572 -0.176516,-0.0974 -0.07687,-0.0415 -0.134993,-0.065 -0.346523,-0.14015 -0.570157,-0.0953 -0.22273,0.0426 -0.314959,0.27062 -0.07415,0.18332 0.0063,0.33813 0.08046,0.1548 0.297319,0.24251 0.163202,0.066 0.32846,0.0626 0.168399,-0.005 0.336619,-0.0798 0.04074,-0.11359 0.06653,-0.18379 0.02893,-0.0716 0.05516,-0.13638 0.01628,-0.0402 0.05287,-0.12429 0.0375,-0.0863 0.05335,-0.1319 z" />
      <path
         id="path908"
         style="font-style:normal;font-variant:normal;font-weight:normal;font-stretch:normal;font-size:4.93889px;font-family:'Maiandra GD';-inkscape-font-specification:'Maiandra GD';fill:#a0a0a0;fill-opacity:1;stroke-width:0.264583"
         d="m 93.358319,199.82707 q -0.114315,0.0164 -0.207175,0.01 -0.0906,-0.006 -0.162854,-0.0328 -0.108378,-0.0407 -0.126146,-0.11688 -0.01692,-0.0785 0.04746,-0.25007 0.08048,-0.21449 0.330663,-0.80577 0.25103,-0.59353 0.39759,-0.98414 0.181293,-0.48318 0.245129,-0.74256 0.06468,-0.26164 0.04382,-0.41886 0.1098,-0.018 0.202659,-0.0115 0.09286,0.007 0.16737,0.0345 0.112893,0.0424 0.132356,0.11406 0.01946,0.0717 -0.04577,0.24555 -0.05422,0.1445 -0.309485,0.74932 -0.255265,0.60482 -0.430629,1.0722 -0.188071,0.50125 -0.247387,0.74172 -0.05706,0.24131 -0.03761,0.39543 z" />
      <path
         id="path910"
         style="font-style:normal;font-variant:normal;font-weight:normal;font-stretch:normal;font-size:4.93889px;font-family:'Maiandra GD';-inkscape-font-specification:'Maiandra GD';fill:#a0a0a0;fill-opacity:1;stroke-width:0.264583"
         d="m 94.562114,200.24827 q -0.113626,0.0206 -0.206664,0.0176 -0.09075,-0.002 -0.163962,-0.0267 -0.109818,-0.0366 -0.130414,-0.11209 -0.01983,-0.0778 0.03811,-0.25167 0.07243,-0.21734 0.300406,-0.81753 0.228736,-0.60247 0.360637,-0.99828 0.163161,-0.4896 0.217286,-0.75118 0.05489,-0.26386 0.02819,-0.42019 0.109051,-0.0221 0.202089,-0.0191 0.09304,0.003 0.168538,0.0282 0.114393,0.0381 0.136514,0.10904 0.02212,0.0709 -0.03659,0.24709 -0.04879,0.14642 -0.281344,0.76034 -0.232548,0.61391 -0.390372,1.0875 -0.169261,0.50791 -0.219574,0.75042 -0.04803,0.24327 -0.02285,0.39655 z" />
      <path
         id="path912"
         style="font-style:normal;font-variant:normal;font-weight:normal;font-stretch:normal;font-size:4.93889px;font-family:'Maiandra GD';-inkscape-font-specification:'Maiandra GD';fill:#a0a0a0;fill-opacity:1;stroke-width:0.264583"
         d="m 95.837316,199.22617 q 0.145871,0.069 0.325193,0.13492 0.182301,0.0643 0.395734,0.12486 0.28999,0.0823 0.402572,0.0566 0.112582,-0.0257 0.152093,-0.1649 0.05992,-0.21111 -0.05133,-0.37555 -0.111254,-0.16444 -0.364125,-0.23622 -0.269111,-0.0764 -0.496474,0.0446 -0.227363,0.12097 -0.363663,0.41569 z m 1.091399,1.29498 q 0.03326,0.0771 0.04065,0.13939 0.01037,0.0606 -0.0041,0.11164 -0.03556,0.12527 -0.246521,0.15313 -0.207983,0.0262 -0.509572,-0.0594 -0.554461,-0.15738 -0.784364,-0.54853 -0.226924,-0.39281 -0.07547,-0.92639 0.152774,-0.53822 0.565083,-0.78969 0.415288,-0.25313 0.911751,-0.11221 0.382786,0.10865 0.566798,0.39653 0.184012,0.28787 0.08787,0.62658 -0.07573,0.26679 -0.312148,0.32252 -0.236419,0.0557 -0.725922,-0.0832 -0.183274,-0.052 -0.363255,-0.11564 -0.177002,-0.0653 -0.348393,-0.14151 l -0.0092,0.0325 q -0.102727,0.3619 0.05078,0.6336 0.153509,0.27169 0.520056,0.37574 0.171674,0.0487 0.33034,0.0461 0.159325,-0.005 0.305643,-0.0611 z" />
      <path
         id="path914"
         style="font-style:normal;font-variant:normal;font-weight:normal;font-stretch:normal;font-size:4.93889px;font-family:'Maiandra GD';-inkscape-font-specification:'Maiandra GD';fill:#a0a0a0;fill-opacity:1;stroke-width:0.264583"
         d="m 98.176331,201.26211 q -0.112019,0.028 -0.207388,0.0306 -0.09537,0.002 -0.177032,-0.0189 -0.114326,-0.0299 -0.140469,-0.10152 -0.0232,-0.0734 0.02558,-0.26002 0.02805,-0.10733 0.146615,-0.47515 0.118566,-0.36782 0.188691,-0.63614 0.07622,-0.29165 0.09579,-0.48096 0.01957,-0.18931 -0.0099,-0.3341 0.09974,-0.0288 0.197446,-0.0306 0.09831,-0.004 0.186974,0.019 0.107327,0.0281 0.132966,0.0921 0.02625,0.0617 -0.01095,0.20402 -0.0098,0.0373 -0.127712,0.40282 -0.117956,0.36549 -0.205156,0.69914 -0.08171,0.31265 -0.105042,0.5259 -0.021,0.21385 0.0096,0.36392 z m 0.746621,-2.93304 q -0.03476,0.13299 -0.151258,0.19726 -0.1165,0.0643 -0.258825,0.0271 -0.123659,-0.0323 -0.177695,-0.12121 -0.05403,-0.0889 -0.02294,-0.2079 0.03415,-0.13065 0.151258,-0.19726 0.117719,-0.0689 0.250712,-0.0342 0.121326,0.0317 0.178808,0.1265 0.05982,0.0954 0.02994,0.20972 z" />
    </g>
  </g>
</svg>
