<?xml version="1.0" encoding="UTF-8" standalone="no"?>
<svg
   xmlns:dc="http://purl.org/dc/elements/1.1/"
   xmlns:cc="http://creativecommons.org/ns#"
   xmlns:rdf="http://www.w3.org/1999/02/22-rdf-syntax-ns#"
   xmlns:svg="http://www.w3.org/2000/svg"
   xmlns="http://www.w3.org/2000/svg"
   xmlns:sodipodi="http://sodipodi.sourceforge.net/DTD/sodipodi-0.dtd"
   xmlns:inkscape="http://www.inkscape.org/namespaces/inkscape"
   inkscape:version="1.0 (4035a4fb49, 2020-05-01)"
   inkscape:export-ydpi="192"
   inkscape:export-xdpi="192"
   inkscape:export-filename="C:\Users\Kate\Documents\#COMMISSIONS\css dinos\7-megaphone\css dino megaphone.png"
   sodipodi:docname="css dino megaphone.svg"
   style="enable-background:new"
   id="svg8"
   version="1.1"
   viewBox="0 0 324.56469 239.40178"
   height="239.40178mm"
   width="324.5647mm">
  <sodipodi:namedview
     inkscape:current-layer="svg8"
     inkscape:window-maximized="1"
     inkscape:window-y="-9"
     inkscape:window-x="-9"
     inkscape:cy="452.41281"
     inkscape:cx="613.35061"
     inkscape:zoom="0.81231121"
     showgrid="false"
     id="namedview82"
     inkscape:window-height="1013"
     inkscape:window-width="1920"
     inkscape:pageshadow="2"
     inkscape:pageopacity="0"
     guidetolerance="10"
     gridtolerance="10"
     objecttolerance="10"
     borderopacity="1"
     bordercolor="#666666"
     pagecolor="#ffffff" />
  <defs
     id="defs2" />
  <metadata
     id="metadata5">
    <rdf:RDF>
      <cc:Work
         rdf:about="">
        <dc:format>image/svg+xml</dc:format>
        <dc:type
           rdf:resource="http://purl.org/dc/dcmitype/StillImage" />
        <dc:title></dc:title>
      </cc:Work>
    </rdf:RDF>
  </metadata>
  <g
     style="display:inline"
     transform="translate(90.05689,66.979842)"
     id="layer23">
    <path
       id="path1743-5"
       d="m 115.44942,41.912063 c -0.13767,7.43224 -0.32412,27.149452 7.61555,24.193504 1.27427,-0.474411 3.52056,-2.060351 3.52056,-2.060351"
       style="opacity:1;fill:none;stroke:#1e1c58;stroke-width:4;stroke-linecap:round;stroke-linejoin:miter;stroke-miterlimit:4;stroke-dasharray:none;stroke-opacity:1;enable-background:new" />
    <path
       style="display:inline;opacity:1;mix-blend-mode:normal;fill:#36244b;fill-opacity:1;stroke:none;stroke-width:0.963232px;stroke-linecap:butt;stroke-linejoin:miter;stroke-opacity:1;enable-background:new"
       d="m 110.50947,46.246451 c 0,0 4.01787,-2.916326 5.87914,-4.553343 3.45737,-3.040821 8.5888,-8.61593 9.78314,-9.751418 0.60614,-0.576268 1.40299,-0.968286 2.20995,-1.188077 0.48865,-0.133213 1.05203,-0.256338 1.5183,-0.05858 0.38576,0.163625 0.69159,0.544278 0.83819,0.936814 0.19985,0.535204 -0.0258,1.713711 -0.0258,1.713711 l -2.10977,7.249742 c 0,0 3.56268,1.743995 5.26145,2.762957 0.7236,0.434029 1.42911,0.90288 2.09345,1.423092 1.83147,1.434137 4.21717,2.550388 5.1927,4.662122 0.28594,0.618989 0.45955,1.496837 0.0538,2.044833 -0.49845,0.673234 -1.58638,0.612665 -2.42209,0.669925 -1.13835,0.07802 -2.26657,-0.27098 -3.39281,-0.453943 -1.46054,-0.237269 -4.35994,-0.83437 -4.35994,-0.83437 0,0 1.05668,4.475774 1.20976,6.670527 0.0919,1.318884 0.4381,2.693456 0.0778,3.965493 -0.12307,0.434525 -0.34549,0.90755 -0.73304,1.139454 -0.46842,0.280297 -1.11322,0.297987 -1.63251,0.12981 -1.46883,-0.475937 -2.40398,-1.943317 -3.52466,-3.005402 -1.3797,-1.307536 -2.08505,-1.925894 -3.92748,-4.134456 l -4.85034,3.655502 z"
       id="path907" />
    <path
       style="display:inline;opacity:1;mix-blend-mode:normal;fill:#9d68dc;fill-opacity:1;stroke:none;stroke-width:0.963232px;stroke-linecap:butt;stroke-linejoin:miter;stroke-opacity:1;enable-background:new"
       d="m 113.0127,49.256501 c 0,0 3.73605,-2.817334 5.55594,-4.447191 2.0362,-1.823598 6.14695,-6.431337 6.14695,-6.431337 0,0 -1.24591,5.941028 -1.20276,6.264234 0.0457,0.342952 0.26652,1.19408 0.70137,1.565061 0.43902,0.374365 1.10138,0.62625 1.67149,0.449485 0.5701,-0.176762 1.07665,-1.187627 1.07665,-1.187627 l 0.84459,-1.766484 5.42643,3.834466 c 0,0 -4.49229,-0.130592 -4.92436,-0.0079 -0.33674,0.09557 -1.03115,0.594119 -1.21243,1.266712 -0.17359,0.644087 -0.19951,1.393671 -0.004,2.493207 0.33033,1.860069 0.88118,4.695103 0.88118,4.695103 0,0 -4.25021,-4.688155 -4.54635,-4.76531 -0.29615,-0.07715 -2.26745,0.944484 -3.47493,1.59839 -1.20748,0.653889 -3.64302,2.348778 -3.64302,2.348778 z"
       id="path902" />
    <path
       id="path926"
       d="m 6.6486753,75.323918 c 0,0 -4.0337458,-0.427416 -5.95969754,-1.021662 C -3.4854357,73.014259 -7.504816,71.134749 -11.23041,68.853388 -17.77705,64.844562 -23.379001,59.460331 -29.279769,54.550127 -33.85606,50.74206 -38.051531,46.480743 -42.731644,42.80102 c -2.78539,-2.190002 -6.168323,-4.296802 -9.620646,-5.70428 -3.218777,-1.312259 -6.293635,-2.298683 -10.131483,-2.469011 -3.3761,-0.149845 -6.054163,0.129313 -8.939537,0.936517 -4.352281,1.217564 -8.68737,3.021458 -12.259941,5.789417 -2.596627,2.011815 -6.994829,6.222616 -6.300235,7.577327 0.925645,1.805351 5.778171,-0.762614 8.684126,-0.766251 2.990772,-0.0036 6.072642,0.04442 8.939541,0.766247 3.521344,0.886612 6.956603,2.43815 9.876064,4.597476 3.069667,2.270422 5.402459,5.436509 7.662462,8.513854 3.630025,4.942838 6.204325,10.580524 9.365231,15.835751 3.532248,5.872605 6.804614,11.919312 10.72745,17.538529 3.191644,4.571832 6.697407,8.930904 10.386894,13.111314 2.894894,3.2801 5.843283,6.55353 9.194955,9.36524 2.689702,2.25639 5.653465,4.18744 8.6841233,5.9597 3.2211216,1.88363 6.59410186,3.5218 10.0463445,4.93802 1.8266335,0.74935 5.6191415,1.87305 5.6191415,1.87305 0,0 -6.3831716,26.24835 -5.448869,29.11736 0.934303,2.86902 60.7501457,14.32567 62.6533617,12.43022 1.903217,-1.89545 -1.719546,-7.08706 -3.396982,-10.21661 -1.677436,-3.12956 -4.024779,-5.37318 -6.30025,-7.83275 -1.79969,-1.94529 -5.789411,-5.44887 -5.789411,-5.44887 l 3.916367,-6.6408 c 0,0 5.999755,1.14502 9.024683,1.02167 3.525724,-0.14377 7.018122,-0.99318 10.386886,-2.04333 2.718014,-0.84729 7.832741,-3.40553 7.832741,-3.40553 0,0 15.169151,22.835 17.027701,23.15766 1.858556,0.32266 43.016506,-21.67733 43.420626,-22.81711 0.40412,-1.13979 -0.89058,-2.52937 -2.2136,-3.23526 -3.23593,-1.7265 -7.21899,-2.27848 -10.81258,-2.59673 -2.49023,-0.22054 -7.23678,-0.12767 -7.23678,-0.12767 0,0 0.12378,-8.24691 -0.6811,-12.25994 -0.56837,-2.83383 -1.57813,-5.60034 -2.89472,-8.17331 -1.22642,-2.39676 -2.80455,-4.63233 -4.59747,-6.6408 -1.2054,-1.35032 -4.08665,-3.57582 -4.08665,-3.57582 l 0.29798,-4.342053 z"
       style="display:inline;fill:#36244b;fill-opacity:1;stroke:none;stroke-width:0.963232px;stroke-linecap:butt;stroke-linejoin:miter;stroke-opacity:1;enable-background:new" />
    <path
       id="path918"
       d="m 53.389696,113.12539 1.021662,-4.08664 50.390982,-6.47476 c 0,0 -0.84275,4.3424 -1.64611,6.38997 -0.98892,2.5205 -2.37344,4.88433 -3.863256,7.14515 -1.55502,2.35975 -3.37996,4.53944 -5.26252,6.64715 -1.839325,2.05931 -3.698516,4.14036 -5.874855,5.8396 -3.344755,2.61151 -7.021613,4.85288 -10.896565,6.58267 -3.404329,1.51971 -6.992091,2.85064 -10.697069,3.26552 -3.495336,0.39141 -6.833454,0.74345 -10.523247,-0.77227 0,0 1.101998,-3.45055 1.324444,-5.23757 0.292482,-2.34982 0.268855,-4.75121 0,-7.10384 -0.222184,-1.94419 -0.731346,-3.85439 -1.324444,-5.71919 -0.70687,-2.22251 -2.649022,-6.47577 -2.649022,-6.47577 z"
       style="display:inline;fill:#c3abdf;fill-opacity:1;stroke:none;stroke-width:0.963232px;stroke-linecap:butt;stroke-linejoin:miter;stroke-opacity:1;enable-background:new" />
    <path
       id="path920"
       d="m 11.438839,118.2694 -1.334241,8.49579 c 0,0 -4.7547547,-1.31627 -6.9834302,-2.34787 -4.1257101,-1.90971 -8.0195929,-4.34626 -11.6791873,-7.04364 -3.9587105,-2.91785 -7.6303515,-6.24697 -11.0169655,-9.81293 -3.224329,-3.39507 -5.987789,-7.20531 -8.789492,-10.956755 -1.512045,-2.024611 -4.323254,-6.227152 -4.323254,-6.227152 z"
       style="display:inline;opacity:0.98;fill:#c3abdf;fill-opacity:1;stroke:none;stroke-width:0.963232px;stroke-linecap:butt;stroke-linejoin:miter;stroke-opacity:1;enable-background:new" />
    <path
       id="path913"
       d="m 54.411358,109.03875 -1.021662,4.08664 c 0,0 -1.089078,-1.16082 -1.787913,-1.10679 -0.7826,0.0605 -1.459912,0.81937 -1.787901,1.53249 -0.237183,0.51566 -0.114132,1.14677 0,1.70277 0.304205,1.48202 1.302535,2.73883 1.787901,4.17178 0.666875,1.96881 1.2751,3.98214 1.532495,6.04483 0.249488,1.99944 0.174965,4.03751 0,6.04484 -0.185159,2.12419 -0.536954,4.24556 -1.106793,6.30025 -0.633829,2.28542 -1.357117,4.59337 -2.554156,6.6408 -0.966507,1.65312 -3.660952,4.4272 -3.660952,4.4272 0,0 1.36521,1.52984 2.04332,2.29874 1.197249,1.35755 2.367715,2.73875 3.575817,4.08665 1.568485,1.74998 3.303839,3.35509 4.767745,5.19345 1.716278,2.15528 4.682618,6.81107 4.682618,6.81107 l -4.682618,-0.76625 c 0,0 -3.938516,-7.48253 -7.151628,-10.04634 -0.576763,-0.46021 -1.312674,-0.95433 -2.043323,-0.85138 -0.539819,0.0761 -1.086832,0.51078 -1.277073,1.02166 -0.27195,0.73028 0.130551,1.57752 0.425691,2.29874 1.037422,2.53512 4.597476,6.81107 4.597476,6.81107 l -4.256916,-0.93652 c 0,0 -1.620258,-3.8955 -2.809574,-5.61913 -0.83267,-1.20676 -1.232473,-2.60063 -2.554153,-3.23527 -0.743668,-0.3571 -1.849121,-0.7146 -2.469014,-0.17027 -0.734935,0.64535 0.106486,2.49225 0.681101,3.57582 0.832961,1.57078 2.554153,4.68261 2.554153,4.68261 l -33.0337307,-7.23677 8.5989947,-45.3788 c 0,0 0.06087,-1.58417 -0.340574,-2.21361 -0.275118,-0.43135 -0.768006,-0.80038 -1.277073,-0.85138 -0.671214,-0.0672 -1.399181,0.28615 -1.873054,0.76624 -0.707096,0.71638 -1.106793,2.80958 -1.106793,2.80958 l -1.424927,6.33593 c -6.3634677,-0.79845 -12.08603044,-3.73859 -17.7664933,-6.46874 -5.0046217,-2.40534 -9.8662027,-5.22695 -14.2284577,-8.66243 -3.85577,-3.03661 -7.341921,-6.585669 -10.391172,-10.431449 -3.68084,-4.642353 -6.36677,-9.940175 -9.400501,-15.084125 -2.576775,-4.36914 -4.822608,-8.937269 -7.577323,-13.19646 -1.865147,-2.883791 -3.816131,-5.730546 -6.044832,-8.343574 -1.692916,-1.984849 -3.476005,-3.930798 -5.534,-5.533996 -1.746985,-1.360918 -3.704009,-2.455289 -5.704279,-3.405538 -2.100266,-0.99775 -4.281348,-1.900031 -6.555661,-2.383883 -2.365324,-0.503217 -4.824604,-0.682332 -7.236774,-0.510829 -1.476907,0.104994 -4.342062,0.93652 -4.342062,0.93652 0,0 4.751152,-2.939889 7.321909,-4.001505 3.005007,-1.240948 6.126461,-2.44095 9.365235,-2.724433 2.872298,-0.251417 5.798607,0.250107 8.598985,0.936531 3.106986,0.761573 6.186676,1.86123 8.939541,3.490672 3.311407,1.960046 5.940319,4.894015 8.854399,7.407043 3.623116,3.124483 7.101385,6.414455 10.72745,9.535516 3.191844,2.747313 6.328741,5.571967 9.705784,8.088152 3.086428,2.299651 6.278852,4.220299 9.620647,6.129974 2.9313401,1.675117 5.8869228,3.421367 9.109821,4.427196 2.4942688,0.778432 5.1365993,1.291966 7.7476033,1.191941 0.873614,-0.03349 2.554156,-0.595967 2.554156,-0.595967 z"
       style="display:inline;fill:#9d68dc;fill-opacity:1;stroke:none;stroke-width:0.963232px;stroke-linecap:butt;stroke-linejoin:miter;stroke-opacity:1;enable-background:new" />
    <path
       id="path909"
       d="m 108.72971,104.78183 c 0,0 -1.24137,5.10344 -2.29874,7.49218 -1.15887,2.61805 -2.73257,5.04742 -4.38463,7.38577 -1.62493,2.29995 -3.485646,4.43237 -5.406296,6.4918 -1.7694,1.89725 -3.598778,3.7576 -5.619137,5.38501 -1.891046,1.52325 -6.044832,4.06537 -6.044832,4.06537 l 14.899229,19.58185 18.134506,-8.25844 c 0,0 -2.37023,-1.76756 -3.53022,-2.70938 -0.37713,-0.30621 -0.66462,-1.01676 -0.47128,-1.4624 0.26656,-0.61445 0.79199,-0.83756 1.45208,-0.95113 0.9644,-0.16594 1.7964,0.20518 2.65906,0.46007 1.64851,0.48706 4.74326,2.02355 4.74326,2.02355 l 3.08627,-1.46864 c 0,0 -4.43003,-1.53325 -6.65293,-2.27657 -1.01047,-0.33788 -2.80951,-0.71755 -3.03843,-0.99245 -0.22459,-0.26969 -0.17038,-0.75547 0.0494,-1.05176 0.3724,-0.50192 1.21503,-1.02623 1.65806,-1.11667 0.54681,-0.11162 4.24656,0.47097 6.34495,0.86126 2.23666,0.41601 6.64081,1.57506 6.64081,1.57506 l 4.36335,-2.19232 c 0,0 -5.76742,-1.39865 -8.70542,-1.76662 -2.87571,-0.36016 -8.68412,-0.42569 -8.68412,-0.42569 0,0 0.1777,-7.18757 -0.34057,-10.72745 -0.49759,-3.39874 -1.27507,-6.80876 -2.6393,-9.9612 -1.55435,-3.5918 -6.21509,-9.9612 -6.21509,-9.9612 z"
       style="display:inline;fill:#9d68dc;fill-opacity:1;stroke:none;stroke-width:0.963232px;stroke-linecap:butt;stroke-linejoin:miter;stroke-opacity:1;enable-background:new" />
    <path
       id="path946"
       d="m 33.157122,34.601496 c 3.845114,-11.086639 6.825915,-19.641573 8.841697,-29.8073175 0.57672,-2.9084374 1.306565,-6.2657632 0.91586,-8.8479189 -0.477532,-3.1570042 -1.956951,-6.1102236 -2.408079,-9.2711086 -0.385772,-2.702945 -0.363692,-5.259581 0.120394,-7.946661 0.737326,-4.09285 1.618477,-7.765751 3.491717,-11.19757 2.156753,-3.951226 5.595496,-7.590047 8.669087,-10.354744 2.072699,-1.864397 5.913594,-3.665197 8.548683,-4.575356 3.331638,-1.150745 4.42349,-1.097793 7.946665,-1.204039 2.092213,-0.06309 4.946843,-0.122177 6.983428,0.361216 1.64612,0.39072 4.695756,1.926465 4.695756,1.926465 0,0 8.336271,-4.295145 12.642418,-6.140604 7.482432,-3.206694 15.153682,-5.975061 22.876762,-8.548687 6.3496,-2.115923 12.60957,-4.948633 19.26464,-5.658983 4.9218,-0.525344 10.13342,-0.538887 14.80969,1.083657 6.08909,2.112752 11.52664,6.209618 16.01373,10.836357 2.61233,2.693633 4.47755,6.091369 6.0202,9.511917 0.94513,2.09565 1.84205,4.324856 1.92647,6.622222 0.14161,3.854503 -1.21835,10.330847 -2.28768,10.956761 -1.06932,0.625915 -9.87313,-4.214139 -9.87313,-4.214139 0,0 -3.5092,11.765239 -5.24934,12.261302 -1.74015,0.496063 -8.25661,-2.121817 -11.4868,-4.555333 0,0 -2.05797,10.14902 -3.73252,10.956766 -1.67456,0.807746 -11.79959,-5.418179 -11.79959,-5.418179 0,0 -0.70109,9.5308624 -2.2111,10.5177164 -1.51001,0.986858 -11.57819,-4.3211894 -11.57819,-4.3211894 0,0 -2.7966,10.1971434 -4.27132,10.9008384 -1.47471,0.7036951 -12.341406,-6.321209 -12.341406,-6.321209 l -4.75596,1.505052 c 0,0 2.28233,2.597526 3.73252,3.4917134 2.075226,1.2795701 4.440766,2.2520514 6.863036,2.5284829 6.63918,0.7576701 13.30539,-1.367384 19.88857,-2.5138769 13.8464,-2.4114174 38.45191,-9.9934138 41.15625,-9.1653098 2.70434,0.828104 3.10839,12.5213906 1.92647,18.6626175 -0.52249,2.7148141 -2.47817,7.3214355 -5.53859,9.1507055 -9.84911,5.887006 -21.00746,9.916125 -32.02746,13.485248 -10.30843,3.338668 -31.666256,7.344643 -31.666256,7.344643 l 3.107156,10.287201 -69.329344,1.271582 z"
       style="display:inline;fill:#36244b;fill-opacity:1;stroke:none;stroke-width:0.963232px;stroke-linecap:butt;stroke-linejoin:miter;stroke-opacity:1;enable-background:new" />
    <path
       id="path930"
       d="m 90.254652,36.075078 c -0.155015,-0.738735 -0.185668,-1.537158 0.191567,-2.149744 0.416036,-0.675597 1.315688,-1.189178 2.022041,-1.25579 2.751874,-0.259499 5.239264,-0.235107 7.83275,-0.595971 5.22043,-0.726368 10.3872,-1.850559 15.4952,-3.150123 5.0633,-1.288191 10.02514,-2.953566 14.98437,-4.59748 6.57774,-2.180427 13.20745,-4.263279 19.58185,-6.981359 3.15216,-1.344095 6.41503,-2.593817 9.19496,-4.597476 1.59539,-1.14989 3.22941,-2.445678 4.17179,-4.1717891 0.64016,-1.1725776 0.74961,-2.5843 0.85137,-3.9163633 0.31622,-4.1392093 -0.76624,-12.4302202 -0.76624,-12.4302202 0,0 -22.15518,5.8679805 -33.37429,8.1732934 -7.77827,1.5982866 -15.81859,3.7927225 -23.75363,3.4906833 -3.67978,-0.1400524 -7.414786,-1.030978 -10.727446,-2.6392943 -2.655583,-1.2893013 -5.359945,-2.5810271 -6.72595,-5.0231777 -0.612087,-1.0942907 -0.776164,-2.5703497 -0.340538,-3.7460837 0.467179,-1.260894 1.628831,-2.356055 2.894702,-2.8095734 6.397326,-2.291945 12.994362,-3.828087 19.326452,-6.215112 19.65926,-7.411015 57.80902,-25.115848 57.80902,-25.115848 0,0 -1.91693,-4.594062 -3.40554,-6.555662 -2.51255,-3.310894 -5.73086,-6.093608 -9.10982,-8.51385 -2.59081,-1.855721 -5.40658,-3.501019 -8.42871,-4.512338 -2.45126,-0.820284 -5.07771,-1.217116 -7.66246,-1.191938 -3.7744,0.03677 -7.54308,0.855944 -11.15314,1.958186 -12.77463,3.900414 -24.31522,8.300997 -37.035239,12.941046 -2.408511,0.878584 -6.896221,3.405541 -6.896221,3.405541 0,0 3.262169,2.452745 4.682614,3.916371 1.504182,1.5499 2.459156,3.326676 1.532495,4.682614 -0.577346,0.844799 -1.80419,0.915212 -3.064985,0.170269 -1.260796,-0.744943 -2.669045,-2.476088 -4.171785,-3.490676 -2.656067,-1.793264 -5.394122,-3.66317 -8.478581,-4.532998 -2.790862,-0.787031 -5.794376,-0.751026 -8.684123,-0.510833 -2.622984,0.218033 -5.364491,0.540689 -7.697738,1.758694 -3.749938,1.957548 -6.898336,5.117493 -9.391931,8.53451 -2.488273,3.409724 -4.389193,7.390897 -5.251882,11.522905 -0.725098,3.473005 -0.442091,7.421471 0.170269,10.642308 0.689537,3.6266584 3.004013,7.1889584 2.298749,10.8125914 C 44.386489,13.705691 38.858154,27.879574 35.849922,39.291449 l 12.516618,7.170519 20.518373,4.427196 21.880583,-2.809563 c 0,0 -0.738961,-9.648162 -0.510844,-12.00453 z"
       style="display:inline;fill:#9d68dc;fill-opacity:1;stroke:none;stroke-width:0.963232px;stroke-linecap:butt;stroke-linejoin:miter;stroke-opacity:1;enable-background:new" />
    <path
       id="path935"
       d="m 104.31837,-9.4405156 5.99246,3.631737 1.90956,-6.4103184 z"
       style="display:inline;fill:#ffffff;fill-opacity:1;stroke:none;stroke-width:0.963232px;stroke-linecap:butt;stroke-linejoin:miter;stroke-opacity:1;enable-background:new" />
    <path
       id="path937"
       d="m 119.29721,-14.789112 6.20478,2.505537 0.63854,-5.70428 z"
       style="display:inline;fill:#ffffff;fill-opacity:1;stroke:none;stroke-width:0.963232px;stroke-linecap:butt;stroke-linejoin:miter;stroke-opacity:1;enable-background:new" />
    <path
       id="path939"
       d="m 133.86748,-21.208503 6.4486,3.390932 1.44736,-6.896221 z"
       style="display:inline;fill:#ffffff;fill-opacity:1;stroke:none;stroke-width:0.963232px;stroke-linecap:butt;stroke-linejoin:miter;stroke-opacity:1;enable-background:new" />
    <path
       id="path941"
       d="m 147.9317,-27.282554 7.66674,3.632993 2.80958,-8.428712 z"
       style="display:inline;fill:#ffffff;fill-opacity:1;stroke:none;stroke-width:0.963232px;stroke-linecap:butt;stroke-linejoin:miter;stroke-opacity:1;enable-background:new" />
    <path
       id="path943"
       d="m 164.62313,-35.015551 4.93802,2.213603 0.63854,-4.597479 z"
       style="display:inline;fill:#ffffff;fill-opacity:1;stroke:none;stroke-width:0.963232px;stroke-linecap:butt;stroke-linejoin:miter;stroke-opacity:1;enable-background:new" />
    <path
       id="path922"
       d="m 66.926717,48.93099 c 0,0 0.38255,-1.587999 0.766243,-2.298734 0.979067,-1.813583 2.245619,-3.536278 3.831232,-4.852898 1.972781,-1.638104 4.420742,-2.647628 6.811083,-3.575814 2.079034,-0.807302 4.271515,-1.330629 6.47052,-1.702775 1.796278,-0.303987 4.21285,-0.381935 5.448857,-0.425691 0.171762,0.786343 0.816648,1.266009 1.426078,1.362218 0.61903,0.09771 2.508444,-0.160439 3.256544,-0.276682 l 2.04332,7.683751 -13.366741,4.512338 z"
       style="display:inline;fill:#c3abdf;fill-opacity:1;stroke:none;stroke-width:0.963232px;stroke-linecap:butt;stroke-linejoin:miter;stroke-opacity:1;enable-background:new" />
    <path
       id="path1034"
       d="m 163.81346,-7.7713216 c 0,0 -22.15348,5.8689783 -33.37259,8.1742911 -7.77827,1.5982903 -15.8203,3.7918779 -23.75533,3.4898387 -0.70437,-0.02694 -1.40953,-0.089594 -2.1146,-0.1711792 1.25424,0.9952386 2.86411,2.1595156 3.13803,2.2142952 0.4257,0.085153 4.99427,0.9111597 7.49138,0.6810435 3.02393,-0.2786486 5.73317,-2.38637 8.76881,-2.4682826 1.68623,-0.045471 3.26446,1.314159 4.93844,1.1062065 3.12356,-0.3880183 5.35645,-3.5710487 8.42828,-4.2574074 2.96469,-0.6624148 6.16795,1.0151778 9.10931,0.2558586 2.64852,-0.6837229 4.42102,-3.4815527 7.06809,-4.1708712 2.3076,-0.6009111 4.87495,0.8808266 7.15087,0.1693225 1.06972,-0.334422 2.41608,-1.3564805 3.45974,-2.2444067 -0.16324,-1.549685 -0.31043,-2.778691 -0.31043,-2.778691 z"
       style="display:inline;fill:#6f5193;fill-opacity:1;stroke:none;stroke-width:0.963232px;stroke-linecap:butt;stroke-linejoin:miter;stroke-opacity:1;enable-background:new" />
    <path
       id="path1048"
       d="m 126.80617,-59.733173 c -3.06508,0.961385 -6.07343,1.952171 -9.04535,2.966832 0.63543,1.291445 1.75179,3.438434 2.7185,4.552773 0.54315,0.626093 1.16572,1.291202 1.95844,1.53327 0.76193,0.232668 1.69654,0.232013 2.38363,-0.171215 0.93684,-0.549754 1.4702,-1.685202 1.78724,-2.724138 0.50285,-1.647758 0.33788,-4.553087 0.19754,-6.157537 z"
       style="display:inline;fill:#6f5193;fill-opacity:1;stroke:none;stroke-width:0.963232px;stroke-linecap:butt;stroke-linejoin:miter;stroke-opacity:1;enable-background:new" />
    <path
       id="path1043"
       d="m 115.37156,-55.949854 c -3.74443,1.300609 -7.47018,2.651148 -11.22015,4.020367 0.49425,0.803479 1.44694,2.314811 2.28015,3.205754 0.86885,0.92905 2.12039,1.447899 2.98,2.385504 0.89893,0.980494 1.17481,2.488167 2.21242,3.320516 0.73587,0.590299 1.71465,1.20768 2.63949,1.021552 1.04284,-0.209878 1.81532,-1.266849 2.29895,-2.214302 0.83392,-1.633625 0.75451,-3.614157 0.7657,-5.448282 0.007,-1.11584 -0.0762,-2.260647 -0.42518,-3.320517 -0.28946,-0.879042 -0.94558,-2.024913 -1.53138,-2.970592 z"
       style="display:inline;fill:#6f5193;fill-opacity:1;stroke:none;stroke-width:0.963232px;stroke-linecap:butt;stroke-linejoin:miter;stroke-opacity:1;enable-background:new" />
    <path
       id="path1038"
       d="m 98.165074,-49.745285 c -2.00076,0.734978 -3.98513,1.465766 -6.037134,2.214306 -1.225635,0.44709 -2.959522,1.30568 -4.396634,2.056273 0.862064,0.374599 2.156829,0.966205 3.034558,1.604759 2.0122,1.463881 3.19354,3.921442 5.27896,5.278964 1.12191,0.730308 2.46049,1.82122 3.7457,1.44673 0.643046,-0.18738 1.120396,-0.951869 1.190866,-1.617931 0.20315,-1.919923 -1.918496,-3.403306 -2.383626,-5.277082 -0.38458,-1.549324 -0.43442,-4.215999 -0.43269,-5.706019 z"
       style="display:inline;fill:#6f5193;fill-opacity:1;stroke:none;stroke-width:0.963232px;stroke-linecap:butt;stroke-linejoin:miter;stroke-opacity:1;enable-background:new" />
    <path
       id="path1000"
       d="m 68.521224,-43.979062 c -0.49275,0.02585 -0.987109,0.04787 -1.474948,0.08843 -1.912875,0.159019 -3.886438,0.378724 -5.721069,0.955709 0.422319,0.900573 0.986195,2.01342 1.576541,2.69968 0.756436,0.879334 1.616373,1.979891 2.769292,2.10707 0.812187,0.08959 1.610861,-0.487271 2.227474,-1.023431 0.701503,-0.609983 1.443875,-1.420274 1.505051,-2.347878 0.04718,-0.715778 -0.41364,-1.688402 -0.882341,-2.479572 z"
       style="display:inline;fill:#6f5193;fill-opacity:1;stroke:none;stroke-width:0.963232px;stroke-linecap:butt;stroke-linejoin:miter;stroke-opacity:1;enable-background:new" />
    <path
       id="path1028"
       d="m 58.58414,-41.693269 c -2.074697,1.199699 -3.960909,2.751157 -5.638298,4.507626 0.577717,0.577495 1.311979,1.385183 2.069445,1.76655 1.065374,0.536393 2.422703,1.311713 3.491717,0.782626 0.989836,-0.489896 1.338103,-1.906649 1.384644,-3.0101 0.04999,-1.185126 -0.755759,-2.961284 -1.307508,-4.046702 z"
       style="display:inline;fill:#6f5193;fill-opacity:1;stroke:none;stroke-width:0.963232px;stroke-linecap:butt;stroke-linejoin:miter;stroke-opacity:1;enable-background:new" />
    <path
       id="path1022"
       d="m 44.464892,-14.22047 c 0.104375,0.966933 0.242352,1.905677 0.410124,2.788113 0.68953,3.6266574 3.004224,7.1882625 2.298967,10.8118955 C 44.442277,13.41501 39.094951,27.289125 36.049781,38.578572 l 5.420057,3.881141 c 0,0 -0.813785,-6.479096 0.681033,-9.024657 0.39929,-0.679955 1.473157,-0.81715 2.043101,-1.362069 0.756757,-0.723521 0.903628,-1.292716 1.192761,-2.298964 0.587882,-2.045857 -0.17482,-4.25843 -0.08468,-6.38517 0.07369,-1.737949 -0.285711,-3.645505 0.509831,-5.192427 0.41391,-0.804837 1.337929,-1.221838 2.043109,-1.789125 1.78674,-1.437356 4.212763,-2.212555 5.534819,-4.086214 C 54.518171,10.721949 55.139436,8.6581941 55.0924,6.7016107 55.02942,4.0812947 53.614554,1.6444884 52.452917,-0.7051228 50.998166,-3.6476103 48.706782,-6.1078036 47.089292,-8.9640756 46.258756,-10.430711 45.256793,-12.524631 44.464873,-14.22047 Z"
       style="display:inline;fill:#6f5193;fill-opacity:1;stroke:none;stroke-width:0.963232px;stroke-linecap:butt;stroke-linejoin:miter;stroke-opacity:1;enable-background:new" />
    <path
       id="path954"
       d="m 50.801148,19.124067 c -0.662135,-0.02294 -1.290336,0.572318 -1.625457,1.143839 -0.591868,1.009385 -0.607165,2.347739 -0.361216,3.491717 0.209805,0.975838 0.61559,2.135772 1.505052,2.588683 0.701077,0.356993 1.732048,0.24876 2.347878,-0.240823 0.630869,-0.501549 0.741207,-1.482794 0.782626,-2.287674 0.05504,-1.069514 -0.155707,-2.221817 -0.722426,-3.130505 -0.437846,-0.702049 -1.099562,-1.536655 -1.926457,-1.565237 z"
       style="display:inline;fill:#6f5193;fill-opacity:1;stroke:none;stroke-width:0.963232px;stroke-linecap:butt;stroke-linejoin:miter;stroke-opacity:1;enable-background:new" />
    <path
       id="path959"
       d="m 42.974887,41.760023 c 0,0 -0.518464,-2.415586 -0.180609,-3.551918 0.23336,-0.784879 0.727119,-1.592512 1.444848,-1.986672 0.56396,-0.309703 1.332195,-0.367009 1.926462,-0.120394 0.617235,0.25615 1.041524,0.899616 1.324447,1.505056 0.335223,0.717365 0.374807,1.556158 0.361216,2.347878 -0.01311,0.755548 -0.06203,1.562736 -0.421416,2.227474 -0.357722,0.661679 -1.625457,1.565248 -1.625457,1.565248 z"
       style="display:inline;fill:#6f5193;fill-opacity:1;stroke:none;stroke-width:0.963232px;stroke-linecap:butt;stroke-linejoin:miter;stroke-opacity:1;enable-background:new" />
    <path
       id="path962"
       d="m 48.754278,-21.873492 c -1.242065,0.264706 -1.652895,2.025591 -1.986665,3.250909 -0.316474,1.161874 -0.424042,2.509574 0.06022,3.612122 0.445233,1.013696 1.338205,2.00276 2.408082,2.287674 0.818358,0.217924 1.847592,-0.02585 2.468279,-0.602022 0.572085,-0.531037 0.802496,-1.451025 0.722426,-2.227473 -0.08297,-0.804674 -0.924951,-1.347798 -1.20404,-2.10707 -0.338099,-0.919843 -0.0073,-2.068301 -0.541817,-2.889696 -0.425058,-0.653146 -1.164314,-1.486878 -1.92648,-1.324444 z"
       style="display:inline;fill:#6f5193;fill-opacity:1;stroke:none;stroke-width:0.963232px;stroke-linecap:butt;stroke-linejoin:miter;stroke-opacity:1;enable-background:new" />
    <path
       id="path978"
       d="m 102.51461,-47.786281 c -0.70501,0.433063 -1.19104,1.305549 -1.27708,2.128462 -0.0905,0.865842 0.63172,1.626625 0.85138,2.469018 0.3638,1.395129 0.14111,2.957712 0.76625,4.256923 0.39241,0.81554 0.93993,1.727061 1.7879,2.043323 0.96645,0.360452 2.21346,0.156399 3.065,-0.42569 0.91252,-0.623763 1.53676,-1.792329 1.61762,-2.894709 0.11104,-1.513906 -0.86281,-2.939925 -1.61762,-4.256927 -0.74271,-1.295887 -1.44026,-2.894079 -2.80958,-3.490676 -0.73034,-0.318222 -1.70506,-0.246685 -2.38387,0.170269 z"
       style="display:inline;fill:#6f5193;fill-opacity:1;stroke:none;stroke-width:0.963232px;stroke-linecap:butt;stroke-linejoin:miter;stroke-opacity:1;enable-background:new" />
    <path
       id="path980"
       d="m 121.58563,-47.020034 c -0.88905,0.435623 -1.2327,1.65777 -1.36222,2.639295 -0.0874,0.662232 -0.042,1.481228 0.42569,1.958181 0.42891,0.437439 1.17685,0.381903 1.78791,0.425695 0.62532,0.04481 1.43647,0.279668 1.87305,-0.170269 0.65336,-0.673355 0.30697,-1.881344 0.17026,-2.809571 -0.0837,-0.56851 -0.15661,-1.247234 -0.59597,-1.617632 -0.59579,-0.502292 -1.59894,-0.768581 -2.29872,-0.425699 z"
       style="display:inline;fill:#6f5193;fill-opacity:1;stroke:none;stroke-width:0.963232px;stroke-linecap:butt;stroke-linejoin:miter;stroke-opacity:1;enable-background:new" />
    <path
       id="path982"
       d="m 95.192694,-36.462864 c -1.19456,0.347856 -2.221021,1.467536 -2.639293,2.639295 -0.28764,0.805831 -0.185377,1.820812 0.255422,2.554152 0.369015,0.613893 1.073651,1.245542 1.787911,1.191938 0.84142,-0.06313 1.43996,-0.978608 1.87305,-1.702767 0.30027,-0.502117 0.55045,-1.131166 0.4257,-1.702771 -0.0775,-0.355064 -0.53884,-0.516956 -0.68112,-0.851385 -0.25767,-0.605724 0.18888,-1.472491 -0.25542,-1.958185 -0.1766,-0.193059 -0.51504,-0.243445 -0.76625,-0.170269 z"
       style="display:inline;fill:#6f5193;fill-opacity:1;stroke:none;stroke-width:0.963232px;stroke-linecap:butt;stroke-linejoin:miter;stroke-opacity:1;enable-background:new" />
    <path
       id="path984"
       d="m 135.29292,-55.363604 c -0.605,0.04525 -1.30634,-0.0284 -1.78791,0.340538 -0.82618,0.633003 -1.47817,1.775255 -1.36221,2.809571 0.12148,1.083515 1.10014,2.00718 2.04332,2.554153 0.79513,0.461113 1.80577,0.456166 2.72443,0.425694 1.16292,-0.03859 2.44657,-0.107287 3.40554,-0.766247 0.84332,-0.579497 1.43901,-1.5655 1.70277,-2.554156 0.21996,-0.824438 0.44136,-1.95919 -0.17027,-2.554153 -1.56757,-1.524853 -4.37488,-0.418471 -6.55567,-0.255385 z"
       style="display:inline;fill:#6f5193;fill-opacity:1;stroke:none;stroke-width:0.963232px;stroke-linecap:butt;stroke-linejoin:miter;stroke-opacity:1;enable-background:new" />
    <path
       id="path986"
       d="m 65.734778,-29.055817 c -0.425552,-0.01092 -4.359885,2.011476 -5.789421,3.831232 -1.397458,1.778932 -2.012368,4.141405 -2.29873,6.385392 -0.313853,2.459484 -0.109217,5.056941 0.681098,7.40704 0.650113,1.9331884 1.781072,3.7633454 3.235265,5.1934454 1.179855,1.160302 2.651519,2.1529084 4.25693,2.5541565 2.177861,0.5443186 4.612261,0.4155956 6.725938,-0.3405381 2.292731,-0.8201854 4.557146,-2.2941984 5.874552,-4.3420654 1.553868,-2.4154384 1.898502,-5.5587504 1.787913,-8.4287034 -0.0968,-2.512567 -0.766848,-5.122926 -2.128466,-7.236774 -1.3402,-2.080599 -3.310697,-3.960622 -5.619137,-4.852891 -2.091874,-0.808557 -6.725942,-0.170305 -6.725942,-0.170305 z"
       style="display:inline;fill:#6f5193;fill-opacity:1;stroke:none;stroke-width:0.963232px;stroke-linecap:butt;stroke-linejoin:miter;stroke-opacity:1;enable-background:new" />
    <path
       id="path990"
       d="m 103.19571,9.0010877 c -1.04782,0.3609617 -2.26064,-0.2386752 -3.235256,-0.7662508 -0.68848,-0.3726952 -1.60606,-0.840744 -1.70278,-1.6176326 -0.0788,-0.6328643 0.43214,-1.374352 1.02166,-1.6176326 0.941866,-0.3886772 2.093466,0.1786424 2.979856,0.6811091 0.82069,0.4652128 1.91604,1.1008876 1.95818,2.0433234 0.0244,0.5446098 -0.50623,1.0995297 -1.02166,1.2770835 z"
       style="display:inline;fill:#6f5193;fill-opacity:1;stroke:none;stroke-width:0.963232px;stroke-linecap:butt;stroke-linejoin:miter;stroke-opacity:1;enable-background:new" />
    <path
       id="path992"
       d="m 120.13827,8.9159459 c -0.58495,0.2768647 -1.19637,0.8853591 -1.19193,1.5324951 0.004,0.545137 0.54764,1.007824 1.02166,1.277072 0.72239,0.410328 1.70513,0.667253 2.46901,0.340575 0.57937,-0.247777 0.92964,-0.927783 1.1068,-1.532495 0.14384,-0.49098 0.282,-1.1761635 -0.0851,-1.5324907 -0.79448,-0.7711037 -2.31966,-0.5588008 -3.32039,-0.085153 z"
       style="display:inline;fill:#6f5193;fill-opacity:1;stroke:none;stroke-width:0.963232px;stroke-linecap:butt;stroke-linejoin:miter;stroke-opacity:1;enable-background:new" />
    <path
       id="path994"
       d="m 136.91055,2.8711101 c -0.52833,0.3302353 -1.11539,1.0207989 -0.93652,1.617629 0.21862,0.7294484 1.28415,1.0812249 2.04333,1.0216617 0.73013,-0.057302 1.56141,-0.5805822 1.7879,-1.277069 0.16652,-0.5120705 -0.0631,-1.2334186 -0.51083,-1.5324944 -0.66247,-0.4424775 -1.70834,-0.2519997 -2.38388,0.1702727 z"
       style="display:inline;fill:#6f5193;fill-opacity:1;stroke:none;stroke-width:0.963232px;stroke-linecap:butt;stroke-linejoin:miter;stroke-opacity:1;enable-background:new" />
    <path
       id="path1183"
       d="m 105.74986,118.82967 c -0.58782,0.30031 -0.98826,1.14217 -0.85138,1.78791 0.10852,0.51192 0.68874,0.87806 1.19194,1.02167 0.35896,0.10244 0.79017,0.0273 1.1068,-0.17027 0.39437,-0.24621 0.80948,-0.68069 0.79583,-1.14539 -0.0157,-0.5357 -0.53457,-0.98719 -0.99334,-1.26424 -0.3626,-0.21898 -0.87263,-0.42239 -1.24985,-0.22969 z"
       style="display:inline;fill:#6f5193;fill-opacity:1;stroke:none;stroke-width:0.963232px;stroke-linecap:butt;stroke-linejoin:miter;stroke-opacity:1;enable-background:new" />
    <path
       id="path1185"
       d="m 110.22052,124.41732 c -0.99025,0.10513 -1.90326,1.26318 -1.95656,2.25757 -0.0237,0.43913 0.39779,0.82371 0.75252,1.08363 0.49151,0.36017 1.1854,0.30272 1.74586,0.54182 0.59072,0.25204 1.05562,1.05773 1.68566,0.93313 0.44118,-0.0872 0.71446,-0.62251 0.84282,-1.05353 0.14959,-0.50236 0.10572,-1.10799 -0.1505,-1.56525 -0.59544,-1.06264 -1.70852,-2.32598 -2.9198,-2.19737 z"
       style="display:inline;fill:#6f5193;fill-opacity:1;stroke:none;stroke-width:0.963232px;stroke-linecap:butt;stroke-linejoin:miter;stroke-opacity:1;enable-background:new" />
    <path
       id="path1189"
       d="m 127.80703,136.05684 c -0.7937,0.70652 -1.67567,1.5203 -2.52096,2.39115 2.34191,0.49996 5.66463,1.36771 5.66463,1.36771 l 4.36276,-2.19173 c 0,0 -4.43104,-1.05993 -7.50643,-1.56713 z m -4.99865,5.68533 c -0.10594,0.11067 -0.21687,0.21661 -0.33675,0.31418 -0.58967,0.47979 -1.25504,0.83739 -1.95092,1.14571 1.23395,0.54293 2.34223,1.08363 2.34223,1.08363 l 3.08535,-1.46741 c 0,0 -1.8638,-0.63719 -3.1399,-1.07611 z m -7.06809,3.4522 c -0.79461,0.3346 -1.6178,0.64874 -2.11836,1.31692 -0.48308,0.64485 -0.73308,1.84581 -0.87105,2.8088 l 5.25828,-2.39491 c 0,0 -1.15609,-0.87309 -2.26887,-1.73081 z"
       style="display:inline;fill:#6f5193;fill-opacity:1;stroke:none;stroke-width:0.963232px;stroke-linecap:butt;stroke-linejoin:miter;stroke-opacity:1;enable-background:new" />
    <path
       id="path1193"
       d="m 109.98159,106.55974 c -0.64101,1.20323 -1.92009,3.76142 -2.1033,5.37303 -0.2793,2.45694 0.13182,5.08845 1.19275,7.32207 0.86251,1.81591 2.55835,3.11375 4.00155,4.51326 0.47736,0.46292 1.13846,0.74098 1.53139,1.27742 0.39861,0.5442 0.30701,1.37728 0.76569,1.8719 0.38836,0.41877 0.96827,0.851 1.53327,0.76758 0.30319,-0.0448 0.62511,-0.33504 0.90115,-0.63777 -0.0541,-0.85629 -0.12217,-1.67332 -0.2201,-2.34223 -0.49759,-3.39874 -1.27525,-6.8091 -2.63948,-9.96155 -1.05644,-2.44122 -3.47514,-6.04815 -4.96291,-8.18371 z"
       style="display:inline;fill:#6f5193;fill-opacity:1;stroke:none;stroke-width:0.963232px;stroke-linecap:butt;stroke-linejoin:miter;stroke-opacity:1;enable-background:new" />
    <path
       id="path1232"
       d="m -65.576834,38.397913 c -0.360379,0.0087 -0.718956,0.02876 -1.077992,0.06021 -3.00382,0.262921 -5.902148,1.321495 -8.704834,2.462636 2.030771,-0.203726 5.474178,-0.44958 7.502673,0.05643 2.265635,0.565179 4.023651,4.356718 6.140605,3.371313 0.556598,-0.259099 0.470193,-1.201862 0.361216,-1.806061 -0.175948,-0.97551 -2.164459,-1.738845 -1.565252,-2.528483 0.959772,-1.2648 3.303038,0.37465 4.575352,1.324444 1.489882,1.112217 1.341664,3.875341 3.0101,4.695756 0.831494,0.408872 2.118308,0.418563 2.769292,-0.240823 0.763411,-0.773244 -0.703998,-2.714202 0.240823,-3.250909 1.326551,-0.753552 3.00512,0.97799 4.093735,2.04687 2.100739,2.062666 2.746774,5.208369 4.093735,7.826261 1.708075,3.319737 1.876447,8.038418 5.056969,9.993531 0.888964,0.54647 2.173001,0.414823 3.130501,0 0.80768,-0.349895 0.926588,-1.889922 1.806061,-1.926466 1.675106,-0.06964 2.809177,1.971929 3.732522,3.371313 2.453516,3.718441 3.283572,8.313212 4.334544,12.642418 0.325393,1.340328 -0.119192,2.918074 0.602021,4.093735 0.617239,1.006164 1.709975,2.006896 2.889696,2.04687 2.538472,0.08603 3.9954,-4.384536 6.501814,-3.973335 2.22107,0.364392 3.140869,3.26921 4.334543,5.177374 1.562537,2.497804 2.1774239,5.493695 3.6121219,8.067066 0.6613044,1.186182 1.0367919,2.842507 2.2876743,3.371313 1.2763008,0.539553 2.9050589,-0.01019 4.0937351,-0.722426 1.83897496,-1.101703 2.08367536,-4.044657 3.9733307,-5.056966 1.3485441,-0.722425 3.0767003,-0.668636 4.5753523,-0.361216 1.77619,0.364373 3.024549,2.249659 4.8161607,2.528483 2.053775,0.319605 6.140604,-1.083635 6.140604,-1.083635 L 13.791981,82.112069 9.2034653,79.06999 c 0,0 -1.681208,0.562882 -2.554819,0.596375 -2.611003,0.100006 -5.2529772,-0.414325 -7.7472461,-1.19275 -3.2228982,-1.005832 -6.1779785,-2.751613 -9.1093152,-4.426733 -3.341799,-1.909675 -6.534604,-3.829664 -9.621029,-6.129312 -3.377043,-2.516185 -6.513845,-5.342327 -9.705689,-8.089648 -3.626065,-3.121053 -7.104134,-6.409999 -10.727243,-9.534481 -2.914084,-2.513036 -5.543931,-5.446685 -8.855338,-7.406734 -2.752866,-1.629442 -5.83301,-2.730137 -8.939996,-3.491717 -2.450331,-0.600613 -4.996991,-1.060143 -7.519606,-0.997088 z"
       style="display:inline;fill:#6f5193;fill-opacity:1;stroke:none;stroke-width:0.963232px;stroke-linecap:butt;stroke-linejoin:miter;stroke-opacity:1;enable-background:new" />
    <path
       id="path1223"
       d="m 51.233846,118.5531 c -0.411146,0.11774 -1.77221,0.52698 -2.298963,1.16829 -0.447971,0.54541 -0.746698,1.37147 -0.541821,2.04687 0.132079,0.43538 0.978135,0.45033 1.023434,0.90303 0.08275,0.82668 -1.115999,1.25259 -1.505048,1.98667 -0.644856,1.21674 -1.038692,2.56604 -1.324443,3.91313 -0.363802,1.71506 -0.52347,3.48485 -0.481618,5.23757 0.02767,1.15472 0.738499,2.3054 0.481618,3.43151 -0.160913,0.70542 -1.059932,1.09702 -1.20404,1.80606 -0.150501,0.74053 -0.0735,1.65642 0.421413,2.22748 0.527831,0.60905 1.498827,0.61747 2.287675,0.78262 0.473032,0.099 1.101477,-0.21971 1.444848,0.12039 0.299254,0.29638 0.363765,0.91617 0.351787,1.47496 0.944602,-1.84046 1.585989,-3.84163 2.139059,-5.83583 0.569839,-2.05469 0.921052,-4.17633 1.106214,-6.30052 0.174966,-2.00733 0.249488,-4.04521 0,-6.04465 -0.257388,-2.0627 -0.86452,-4.07584 -1.531395,-6.04466 -0.101098,-0.29849 -0.234051,-0.58611 -0.368734,-0.87293 z m -14.091033,39.26487 c -0.36702,0.0186 -0.73164,0.0603 -1.091157,0.13168 -2.016722,0.40043 -4.213844,1.069 -5.598787,2.58868 -0.193022,0.21181 -0.351277,0.53486 -0.489138,0.8861 l 11.93316,2.61314 c 0,0 -1.721862,-3.1118 -2.554819,-4.68258 -0.221819,-0.41827 -0.463159,-0.94974 -0.658465,-1.48248 -0.514211,-0.0499 -1.029587,-0.0803 -1.540794,-0.0545 z m 16.186814,0.91431 c -0.643681,-0.0102 -1.273738,0.11599 -1.902008,0.26904 2.499781,3.19911 4.771014,7.50644 4.771014,7.50644 l 4.682578,0.76569 c 0,0 -2.966301,-4.65507 -4.682578,-6.81034 -0.411321,-0.51653 -0.846143,-1.01322 -1.290586,-1.5013 -0.574473,-0.12352 -1.136412,-0.22262 -1.57842,-0.2295 z m -9.48746,0.70362 c 1.170262,1.81676 2.650769,5.36926 2.650769,5.36926 l 4.257415,0.93501 c 0,0 -2.820631,-3.39398 -4.168993,-5.92802 -0.604351,0.0128 -1.208048,-0.0131 -1.800414,-0.11664 -0.320989,-0.0562 -0.631976,-0.15068 -0.938777,-0.25961 z"
       style="display:inline;fill:#6f5193;fill-opacity:1;stroke:none;stroke-width:0.963232px;stroke-linecap:butt;stroke-linejoin:miter;stroke-opacity:1;enable-background:new" />
    <path
       id="path1217"
       d="m 46.165591,122.37044 c -0.484238,-0.36271 -1.263078,-0.0863 -1.80606,0.18061 -0.4459,0.21916 -0.788812,0.64568 -1.023435,1.08364 -0.379281,0.70799 -0.480478,1.54702 -0.541818,2.34787 -0.0415,0.54172 -0.17056,1.16663 0.120394,1.62546 0.283927,0.44773 0.857778,0.84171 1.384647,0.78262 0.592928,-0.0665 1.004013,-0.70074 1.324444,-1.20404 0.32725,-0.514 0.543328,-1.13653 0.541817,-1.74586 -9.64e-4,-0.39983 -0.402427,-0.74612 -0.361216,-1.14383 0.03794,-0.36643 0.481846,-0.59976 0.541817,-0.96324 0.05315,-0.3223 0.08089,-0.76739 -0.180608,-0.96323 z"
       style="display:inline;fill:#6f5193;fill-opacity:1;stroke:none;stroke-width:0.963232px;stroke-linecap:butt;stroke-linejoin:miter;stroke-opacity:1;enable-background:new" />
    <path
       id="path1219"
       d="m 43.938117,134.29043 c -0.334931,-0.18221 -0.78019,-0.11464 -1.143839,0 -0.467244,0.1473 -0.996847,0.39889 -1.204039,0.84283 -0.195935,0.41982 0.02294,0.9317 0.120393,1.38464 0.0893,0.41574 0.09207,0.93508 0.421414,1.20404 0.345089,0.28186 0.906085,0.33392 1.324443,0.18061 0.506999,-0.18578 0.87928,-0.70425 1.083639,-1.20404 0.174856,-0.42762 0.181409,-0.93884 0.06021,-1.38464 -0.106596,-0.39212 -0.305298,-0.82926 -0.662222,-1.02344 z"
       style="display:inline;fill:#6f5193;fill-opacity:1;stroke:none;stroke-width:0.963232px;stroke-linecap:butt;stroke-linejoin:miter;stroke-opacity:1;enable-background:new" />
    <path
       id="path1273"
       d="m 3.1813682,91.065412 c -0.4766661,0.338062 -0.6743595,1.133987 -0.4816172,1.685656 0.3416303,0.977793 1.5729733,1.406324 2.5284863,1.806057 0.864364,0.361617 1.996309,1.01113 2.769292,0.481617 0.675331,-0.46262 0.857869,-1.681084 0.481613,-2.408078 -0.545057,-1.053153 -2.098627,-1.164711 -3.250905,-1.444848 -0.664126,-0.161459 -1.489368,-0.51578 -2.0468691,-0.120393 z"
       style="display:inline;fill:#6f5193;fill-opacity:1;stroke:none;stroke-width:0.963232px;stroke-linecap:butt;stroke-linejoin:miter;stroke-opacity:1;enable-background:new" />
    <path
       id="path1275"
       d="m -16.444481,81.312689 c -0.425487,-0.558451 -1.582727,1.43369 -1.685656,2.408079 -0.11901,1.126779 0.589137,2.268456 1.324443,3.130504 0.491433,0.576141 1.197512,1.409142 1.926465,1.20404 0.604727,-0.17016 0.756589,-1.063398 0.842827,-1.685657 0.117772,-0.849856 -0.132043,-1.744947 -0.481617,-2.528483 -0.431716,-0.967646 -1.926462,-2.528483 -1.926462,-2.528483 z"
       style="display:inline;fill:#6f5193;fill-opacity:1;stroke:none;stroke-width:0.963232px;stroke-linecap:butt;stroke-linejoin:miter;stroke-opacity:1;enable-background:new" />
    <path
       id="path1277"
       d="m -34.023464,63.85411 c -0.886004,0.564262 -0.408741,2.081153 -0.361217,3.130501 0.04452,0.982905 -0.09647,2.196751 0.602022,2.889696 0.581139,0.576512 1.732747,0.944234 2.408078,0.481617 0.772983,-0.529512 0.588221,-1.838422 0.481618,-2.769291 -0.128913,-1.125691 -0.492441,-2.361371 -1.324444,-3.130505 -0.465977,-0.430765 -1.270804,-0.942901 -1.806057,-0.602018 z"
       style="display:inline;fill:#6f5193;fill-opacity:1;stroke:none;stroke-width:0.963232px;stroke-linecap:butt;stroke-linejoin:miter;stroke-opacity:1;enable-background:new" />
    <path
       id="path1279"
       d="m -50.880022,45.191492 c -0.914698,0.787072 -0.36391,2.411701 -0.240823,3.612118 0.07649,0.745868 0.05818,1.651137 0.602018,2.167274 0.53679,0.509438 2.167274,0.963231 2.167274,0.481613 0,-0.481613 1.007693,-2.062494 0.842826,-3.130504 -0.181737,-1.177318 -0.906125,-2.395264 -1.926461,-3.010096 -0.413939,-0.249415 -1.078502,-0.435623 -1.444834,-0.120394 z"
       style="display:inline;fill:#6f5193;fill-opacity:1;stroke:none;stroke-width:0.963232px;stroke-linecap:butt;stroke-linejoin:miter;stroke-opacity:1;enable-background:new" />
    <path
       transform="matrix(0.26458333,0,0,0.26458333,-90.05689,-66.979842)"
       d="m 465.69141,383.92969 c 0,0 -14.53057,35.97325 -26.75586,61.56836 -11.98587,25.09383 -19.55781,42.20291 -25.97852,53.90625 -1.98684,3.62151 -5.06707,7.4132 -8.36914,10.39258 -3.12248,2.81734 -6.51085,4.44309 -10.58594,6.86328 -5.37629,3.19295 -11.49364,4.99463 -17.46875,6.83789 -6.55653,2.02261 -18.84628,2.91599 -20.0625,4.59961 -1.21622,1.68359 7.31512,16.82781 11.78907,24.82031 7.68102,13.72179 15.92845,27.24596 25.74218,39.5332 9.19707,11.51516 19.47095,22.29199 30.79883,31.71875 8.49338,7.06796 17.85841,13.14038 27.58203,18.38867 11.7212,6.32648 24.10416,11.52397 36.77539,15.62891 15.70075,5.08641 32.00393,8.22619 48.26758,11.0332 12.92331,2.23049 25.98654,3.75933 39.07422,4.59571 14.52804,0.92836 29.12001,0.93606 43.66992,0.46093 12.13358,-0.39617 24.28047,-1.15669 36.31446,-2.75781 13.76275,-1.83107 27.58862,-3.91591 40.91406,-7.81445 9.50366,-2.78045 18.82981,-6.39814 27.58008,-11.0332 6.53469,-3.46145 12.70993,-7.6755 18.38867,-12.41211 7.40572,-6.17715 20.22656,-20.68555 20.22656,-20.68555 l -8.04492,-99.06445 -2.69141,-18.53321 32.17188,-24.73242 c 0,0 -5.23795,-21.54744 -10.75977,-30.98242 -4.12033,-7.04013 -16.22461,-18.32031 -16.22461,-18.32031 l -15.63476,9.25586 c -1.04734,-5.60614 -2.1307,-11.32931 -3.17969,-16.66993 -0.77719,-3.95671 -2.79577,-10.63467 -7.58594,-9.42382 -9.92912,2.50973 -19.48865,6.8443 -29.41992,9.65429 -15.23457,4.31051 -30.5283,8.77611 -46.19922,11.03321 -17.61666,2.53731 -35.5445,3.57417 -53.32422,2.75781 -13.91918,-0.63916 -27.76828,-2.95742 -41.37109,-5.97656 -15.00158,-3.32961 -29.9431,-7.42751 -44.13086,-13.33008 -12.05883,-5.01686 -23.46538,-11.59308 -34.47656,-18.61719 -5.96954,-3.80803 -17.03125,-12.69531 -17.03125,-12.69531 z"
       style="display:inline;fill:#1e1c58;fill-opacity:1;stroke:none;stroke-width:3.64056px;stroke-linecap:butt;stroke-linejoin:miter;stroke-opacity:1;enable-background:new"
       id="path886-2" />
    <path
       id="path869"
       d="m 28.258572,65.807589 3.569119,-6.063199 4.515152,3.096104 c 0,0 1.219621,0.552823 1.774763,0.321935 0.78303,-0.325684 1.420995,-1.247602 1.442969,-2.095369 0.01675,-0.651915 -1.024658,-1.666616 -1.024658,-1.666616 l -8.575561,-6.251332 5.255853,-12.032875 c 0,0 4.397566,3.380494 6.845821,4.65275 3.707071,1.926411 7.700127,3.306013 11.722845,4.433476 4.089054,1.146053 8.295009,1.941075 12.522578,2.342946 4.397497,0.41802 8.852943,0.464062 13.251819,0.0608 3.848988,-0.352843 7.640793,-1.230339 11.392322,-2.160506 3.8657,-0.958472 11.419316,-3.515687 11.419316,-3.515687 0,0 2.22815,16.239231 3.1581,24.381286 0.88842,7.778478 2.31283,23.372991 2.31283,23.372991 0,0 -3.55934,4.120777 -5.83806,5.534007 -3.651566,2.26464 -7.922616,3.44107 -12.101836,4.43936 -4.546322,1.08598 -9.255891,1.45115 -13.926222,1.64195 -5.674784,0.23183 -11.385787,0.0444 -17.027697,-0.60813 -5.623626,-0.65039 -11.271932,-1.55576 -16.662821,-3.28391 C 38.173066,101.08935 34.198931,99.263319 30.48744,97.056007 26.731076,94.822009 23.047315,92.309748 20.027571,89.150291 16.280505,85.229861 10.814373,75.740985 10.814373,75.740985 l 3.496763,-1.064235 7.23677,8.148968 c 0,0 1.184978,0.653575 1.824391,0.608137 0.406924,-0.02876 0.861314,-0.212681 1.094648,-0.547318 0.314981,-0.451717 0.335696,-1.113033 0.182429,-1.641963 -0.10838,-0.374009 -0.729766,-0.912193 -0.729766,-0.912193 l -7.236762,-6.81108 2.006834,-1.489921 6.507008,5.990096 c 0,0 1.605939,1.671065 2.675784,1.885207 0.549765,0.110054 1.222013,0.0066 1.641955,-0.364872 0.499427,-0.441793 0.830853,-1.238373 0.668942,-1.88521 -0.226479,-0.904778 -1.766091,-1.566818 -2.067646,-1.885214 -2.725626,-1.863636 -4.273622,-3.123078 -7.236773,-5.473184 l 2.675783,-2.919031 7.358402,4.500167 c 0,0 1.347543,0.386668 1.88521,0.06076 0.519475,-0.314872 0.769855,-1.034852 0.79057,-1.641955 0.01493,-0.436398 -0.01092,-0.677025 -0.486503,-1.216265 -1.140923,-1.293706 -4.84384,-3.274291 -4.84384,-3.274291 z"
       style="display:inline;fill:#3b37b6;fill-opacity:1;stroke:none;stroke-width:0.964749;stroke-linecap:butt;stroke-linejoin:miter;stroke-miterlimit:4;stroke-dasharray:none;stroke-opacity:1;enable-background:new" />
    <g
       style="display:inline;fill:#77bbfe;fill-opacity:1;enable-background:new"
       transform="matrix(3.6405616,0,0,3.6405616,-134.8532,-120.05615)"
       id="g874">
      <path
         style="fill:#77bbfe;fill-opacity:1;stroke:none;stroke-width:0;stroke-linecap:butt;stroke-linejoin:miter;stroke-miterlimit:4;stroke-dasharray:none;stroke-opacity:1"
         d="m 51.538571,50.752397 c -0.461205,0.120617 -0.873963,0.413553 -1.228423,0.732327 -0.439129,0.394918 -0.802933,0.887197 -1.063059,1.417413 -0.248223,0.505954 -0.396771,1.068869 -0.448847,1.630021 -0.05438,0.585991 -0.08167,1.217291 0.147476,1.759358 0.180991,0.428154 0.547023,0.768559 0.915584,1.05184 0.368561,0.283281 0.804122,0.489865 1.252045,0.614212 0.533077,0.147986 1.118209,0.280945 1.653646,0.14174 0.340318,-0.08848 0.681417,-0.296431 0.874074,-0.590587 0.118469,-0.180883 0.170653,-0.428088 0.118115,-0.637834 -0.04106,-0.163924 -0.152456,-0.355118 -0.316397,-0.396116 -0.304486,-0.07614 -0.556706,0.312471 -0.864777,0.37249 -0.292453,0.05698 -0.600568,0.03413 -0.89364,-0.01957 -0.305456,-0.05597 -0.608681,-0.15677 -0.878124,-0.311159 -0.260073,-0.14902 -0.5351,-0.321382 -0.687702,-0.579369 -0.14789,-0.250022 -0.164038,-0.564099 -0.171096,-0.8545 -0.01205,-0.495959 0.05725,-1.003507 0.220966,-1.471822 0.127779,-0.365524 0.320143,-0.719681 0.5808,-1.006025 0.282173,-0.30998 0.627461,-0.596157 1.025352,-0.728032 0.369903,-0.122598 0.792803,-0.128986 1.16877,-0.02648 0.196749,0.05364 0.320466,0.364669 0.519963,0.322377 0.206758,-0.04383 0.361007,-0.312711 0.356971,-0.524026 -0.0066,-0.344258 -0.309414,-0.669777 -0.613722,-0.830877 -0.491758,-0.260338 -1.145361,-0.197805 -1.667975,-0.06538 z"
         id="path850" />
      <path
         style="fill:#77bbfe;fill-opacity:1;stroke:none;stroke-width:0.264583px;stroke-linecap:butt;stroke-linejoin:miter;stroke-opacity:1"
         d="m 59.157153,52.134366 c -0.03147,-0.310802 -0.274049,-0.599785 -0.537434,-0.767764 -0.399501,-0.254789 -0.927041,-0.281457 -1.399695,-0.248035 -0.239703,0.01695 -0.486779,0.0887 -0.68508,0.224425 -0.373998,0.25598 -0.647393,0.652204 -0.862258,1.051245 -0.113359,0.210526 -0.176772,0.448679 -0.212612,0.685083 -0.03364,0.221888 -0.06875,0.459635 0,0.673269 0.05791,0.179942 0.187317,0.337513 0.33073,0.460658 0.184356,0.158302 0.422514,0.244366 0.649644,0.330729 0.247259,0.09402 0.514189,0.125468 0.767765,0.200801 0.250638,0.07446 0.49945,0.155905 0.744141,0.248046 0.227884,0.08581 0.477369,0.138852 0.673269,0.283483 0.152896,0.112882 0.306505,0.256591 0.366165,0.437036 0.08419,0.254638 0.07818,0.566141 -0.04725,0.803198 -0.131394,0.248326 -0.403769,0.418179 -0.667784,0.514233 -0.177753,0.06467 -0.379286,0.04719 -0.566965,0.02363 -0.203929,-0.0256 -0.402446,-0.09444 -0.590587,-0.177175 -0.167755,-0.07377 -0.314196,-0.188745 -0.472347,-0.281333 -0.115069,-0.06737 -0.213413,-0.19657 -0.346718,-0.199491 -0.146856,-0.0032 -0.296249,0.09077 -0.391222,0.202827 -0.09902,0.116832 -0.126,0.284698 -0.14174,0.437036 -0.01506,0.145751 0.0011,0.297978 0.04725,0.437034 0.06343,0.190965 0.163949,0.378307 0.307107,0.519718 0.151828,0.149976 0.356596,0.240685 0.555151,0.318918 0.225693,0.08893 0.46847,0.131711 0.708705,0.165365 0.238138,0.03336 0.481763,0.06403 0.720519,0.03543 0.289447,-0.03467 0.574611,-0.124462 0.838634,-0.248047 0.205715,-0.09629 0.400733,-0.223194 0.566965,-0.377976 0.145823,-0.135779 0.269224,-0.298392 0.366164,-0.472469 0.120621,-0.216601 0.208702,-0.454307 0.259858,-0.696894 0.06918,-0.32803 0.08438,-0.669712 0.05906,-1.003999 -0.01855,-0.244864 -0.06015,-0.493408 -0.153551,-0.720518 -0.0943,-0.229288 -0.225603,-0.451408 -0.4016,-0.626023 -0.151988,-0.150794 -0.346454,-0.258429 -0.543341,-0.34254 -0.223928,-0.09566 -0.472683,-0.117279 -0.708707,-0.177178 -0.260094,-0.06601 -0.519865,-0.133291 -0.779574,-0.200798 -0.240312,-0.06246 -0.491352,-0.09342 -0.720519,-0.188989 -0.09286,-0.03873 -0.212834,-0.06461 -0.259858,-0.153554 -0.05716,-0.108128 -0.01345,-0.249613 0.02363,-0.366164 0.05467,-0.171812 0.157071,-0.332098 0.283482,-0.460659 0.117928,-0.119934 0.264838,-0.221 0.425225,-0.271668 0.172864,-0.05461 0.364017,-0.05022 0.543341,-0.02363 0.152738,0.02265 0.299238,0.08388 0.437033,0.153554 0.09356,0.04731 0.158816,0.14923 0.259861,0.177175 0.129246,0.03575 0.291712,0.05323 0.401598,-0.02363 0.105489,-0.07378 0.166515,-0.226282 0.153545,-0.354359 z"
         id="path852" />
      <path
         style="fill:#77bbfe;fill-opacity:1;stroke:none;stroke-width:0.264583px;stroke-linecap:butt;stroke-linejoin:miter;stroke-opacity:1"
         d="m 64.433281,51.803736 c -0.03147,-0.310802 -0.274049,-0.599785 -0.537434,-0.767764 -0.399501,-0.254789 -0.927041,-0.281457 -1.399695,-0.248035 -0.239703,0.01695 -0.480668,0.09809 -0.68508,0.224425 -0.202802,0.125339 -0.386463,0.300433 -0.503115,0.508354 -0.150178,0.267681 -0.192465,0.588282 -0.220964,0.893888 -0.02294,0.24602 -0.01488,0.499579 0.04176,0.740086 0.04458,0.189256 0.116631,0.378227 0.230504,0.535827 0.119404,0.165256 0.287562,0.293326 0.457544,0.405899 0.205461,0.136069 0.435896,0.233645 0.667539,0.317731 0.238073,0.08642 0.494379,0.112974 0.735789,0.189581 0.231607,0.0735 0.50783,0.0886 0.681621,0.258426 0.189804,0.185473 0.27807,0.47319 0.299348,0.737714 0.01767,0.219679 -0.0051,0.476263 -0.147476,0.644507 -0.133907,0.158261 -0.368847,0.214642 -0.574928,0.237185 -0.30825,0.03372 -0.621473,-0.06445 -0.916321,-0.160471 -0.190363,-0.06199 -0.339684,-0.247654 -0.539165,-0.264628 -0.128726,-0.01095 -0.285731,0.01316 -0.371774,0.109526 -0.109064,0.12215 -0.11411,0.322789 -0.08477,0.483893 0.03605,0.197968 0.163949,0.378306 0.307107,0.519718 0.151828,0.149976 0.356596,0.240685 0.555151,0.318918 0.225693,0.08893 0.469068,0.127688 0.708705,0.165365 0.174598,0.02745 0.352199,0.05737 0.528419,0.04378 0.209609,-0.01616 0.424317,-0.05536 0.613125,-0.147821 0.169251,-0.08288 0.313288,-0.214971 0.441683,-0.35292 0.123318,-0.132493 0.221946,-0.288012 0.307699,-0.447412 0.09881,-0.183672 0.192277,-0.375781 0.234801,-0.579964 0.06712,-0.322294 0.04092,-0.658439 0.02565,-0.987294 -0.0091,-0.196804 -0.0035,-0.401449 -0.07003,-0.586883 -0.08375,-0.233349 -0.239445,-0.438484 -0.4016,-0.626023 -0.11109,-0.128482 -0.241272,-0.243131 -0.38465,-0.334188 -0.187207,-0.118892 -0.398981,-0.196307 -0.608481,-0.269052 -0.253492,-0.08802 -0.523614,-0.120232 -0.779574,-0.200798 -0.247416,-0.07788 -0.566705,-0.07007 -0.728871,-0.272511 -0.118403,-0.147807 -0.132468,-0.381377 -0.07803,-0.562768 0.05809,-0.193554 0.217911,-0.368123 0.400168,-0.455416 0.163499,-0.07831 0.364017,-0.05022 0.543341,-0.02363 0.152738,0.02265 0.299238,0.08388 0.437033,0.153554 0.09356,0.04731 0.158816,0.14923 0.259861,0.177175 0.129246,0.03575 0.291712,0.05323 0.401598,-0.02363 0.105489,-0.07378 0.166515,-0.226282 0.153545,-0.354359 z"
         id="path852-7" />
    </g>
    <path
       id="path891"
       d="M 23.327533,67.191013 30.782908,53.747689 5.4324113,33.581734 c 0,0 -1.04415,-0.69799 -1.581143,-0.547318 -0.5822573,0.163388 -0.9632166,0.825326 -1.1554564,1.3987 -0.2967058,0.884937 0.1216312,2.797407 0.1216312,2.797407 l 1.4595192,4.986682 c 0,0 -10.1232731,2.163283 -14.5951713,4.621809 -0.579971,0.31884 -1.255848,0.670373 -1.520324,1.277073 -0.324411,0.744214 -0.298636,1.609037 0.07907,2.262248 0.23791,0.411467 0.78031,0.551294 1.210177,0.754084 3.1295215,1.476357 9.83957886,3.308237 9.83957886,3.308237 l -2.25008906,7.175962 c 0,0 -0.5406307,1.973286 -0.1824286,2.858216 0.2261517,0.558669 0.772691,1.006975 1.3378882,1.216264 0.6656111,0.246466 1.44855026,0.142965 2.12846516,-0.06076 C 1.5797249,65.254133 3.6688573,63.562685 3.6688573,63.562685 l 3.952853,-3.283911 c 0,0 1.028349,-0.791502 1.641955,-0.851382 0.504382,-0.04922 1.4595157,0.425691 1.4595157,0.425691 z"
       style="display:inline;fill:#36244b;fill-opacity:1;stroke:none;stroke-width:0.963232px;stroke-linecap:butt;stroke-linejoin:miter;stroke-opacity:1;enable-background:new" />
    <path
       id="path889"
       d="M 25.135891,63.927519 28.910072,57.116436 7.5000573,40.392814 c 0,0 1.482287,6.209101 1.39262,6.516135 -0.08967,0.307045 -0.617505,1.072277 -1.158485,1.191935 -0.611119,0.135174 -1.576498,-0.406484 -1.754466,-0.668932 -0.177951,-0.262448 -1.033822,-1.809191 -1.033822,-1.809191 l -9.9125535,3.527161 c 0,0 6.4892901,2.04525 6.9479062,2.21968 0.4586161,0.174419 1.1305255,0.553602 1.4747224,1.049028 0.2903709,0.417954 0.4944469,1.005949 0.3952889,1.474718 -0.09917,0.46877 -1.8852106,5.655635 -1.8852106,5.655635 0,0 5.2477926,-4.282036 5.5948186,-4.43937 0.347018,-0.157345 1.050146,-0.292228 1.581136,-0.243226 0.855437,0.07893 2.0562327,0.651435 2.4325247,0.851381 0.376292,0.19994 13.561354,8.209762 13.561354,8.209762 z"
       style="display:inline;fill:#9d68dc;fill-opacity:1;stroke:none;stroke-width:0.963232px;stroke-linecap:butt;stroke-linejoin:miter;stroke-opacity:1;enable-background:new" />
    <ellipse
       ry="8.4884806"
       rx="6.8630276"
       cy="-16.876766"
       cx="69.403564"
       id="path949"
       style="display:inline;opacity:0.98;fill:#36244b;fill-opacity:1;stroke:none;stroke-width:0.964749;stroke-linecap:round;stroke-miterlimit:4;stroke-dasharray:none;stroke-opacity:1;enable-background:new" />
    <ellipse
       ry="2.5541542"
       rx="4.0866466"
       cy="-55.108227"
       cx="138.5282"
       id="path970"
       style="display:inline;fill:#36244b;fill-opacity:1;stroke:none;stroke-width:0.964749;stroke-linecap:round;stroke-miterlimit:4;stroke-dasharray:none;stroke-opacity:1;enable-background:new" />
    <ellipse
       transform="rotate(-42.038138)"
       ry="1.6020892"
       rx="1.1225319"
       cy="35.859913"
       cx="58.256569"
       id="path894"
       style="display:inline;fill:#ffffff;fill-opacity:0.969697;stroke:none;stroke-width:0.223472;stroke-linecap:round;stroke-miterlimit:4;stroke-dasharray:none;stroke-opacity:1;enable-background:new" />
    <ellipse
       transform="rotate(-44.057635)"
       ry="3.10376"
       rx="1.9182291"
       cy="34.986713"
       cx="64.946259"
       id="path898"
       style="display:inline;fill:#ffffff;fill-opacity:0.969697;stroke:none;stroke-width:0.265;stroke-linecap:round;stroke-miterlimit:4;stroke-dasharray:none;stroke-opacity:1;enable-background:new" />
    <path
       style="display:inline;opacity:1;mix-blend-mode:normal;fill:#3b37b6;fill-opacity:1;stroke:none;stroke-width:0.963232px;stroke-linecap:butt;stroke-linejoin:miter;stroke-opacity:1;enable-background:new"
       d="m 107.09376,52.603996 3.48721,-2.201129 c 0,0 1.37766,1.665631 1.87484,2.616419 0.73268,1.401135 1.5902,4.468916 1.5902,4.468916 l -5.52107,4.135496 z"
       id="path883" />
  </g>
  <g
     style="display:inline;opacity:1"
     id="layer2">
    <path
       transform="scale(0.26458333)"
       d="m 1173.7949,93.255859 c -6.7674,0 -12.5823,2.534822 -17.2734,6.236329 -4.6911,3.701502 -8.6659,8.356152 -13.8203,13.775392 -10.2904,10.81912 -25.2019,25.12525 -56.375,40.84375 -69.7666,30.27234 -145.76924,31.05687 -221.83401,30.31836 -0.0221,-1.2e-4 -0.0443,-1.2e-4 -0.0664,0 -15.57135,-1e-5 -29.35052,8.99792 -38.84961,22.51367 -9.49905,13.51575 -15.11914,31.71395 -15.11914,51.75586 0,20.04191 5.62009,38.23034 15.11914,51.74609 6.10637,8.68844 13.98745,15.4931 22.97071,19.25781 l -12.22266,43.00196 c -7.98625,0.4941 -15.23069,5.93334 -17.5293,14.01953 l -1.45703,5.125 c -2.29852,8.08587 1.00153,16.52327 7.5332,21.14453 l -18.5586,65.28906 c -1.46854,5.16612 -0.65077,10.47874 1.83008,14.84961 -2.14037,1.26382 -4.35224,2.43785 -5.26563,2.77539 -2.3399,0.86476 -2.70256,0.56479 -3.10742,0.35352 -0.40486,-0.21124 -1.44578,-1.10682 -2.54687,-3.52149 -2.20215,-4.82932 -3.79722,-14.48777 -4.66602,-25.22265 -0.86884,-10.73492 -1.24459,-22.64977 -2.28906,-33.30078 -1.04447,-10.65105 -2.01645,-19.93845 -7.52149,-27.2168 -1.47453,-1.94954 -3.80076,-3.06572 -6.24414,-2.99609 -1.57084,0.0454 -3.08848,0.57928 -4.34179,1.52734 -3.3278,2.51824 -3.98526,7.25683 -1.46875,10.58594 1.2692,1.67807 3.55526,9.67571 4.52539,19.56836 0.97009,9.89265 1.36196,21.78738 2.27343,33.04883 0.91144,11.26144 2.1093,21.78824 5.97852,30.27343 1.93459,4.24256 4.75063,8.28488 9.30273,10.66016 4.55207,2.37528 10.24172,2.30613 15.34571,0.41992 3.64819,-1.34823 6.98367,-3.42551 9.88476,-5.26172 1.28792,-0.81517 2.36483,-1.53706 3.25977,-2.14062 l 16.63086,4.72851 c 10.22638,2.90699 21.04028,-3.11932 23.94726,-13.3457 L 907.6543,332.89844 c 61.46265,0.68334 122.116,5.84661 178.6719,30.38672 31.1731,15.71848 46.0846,30.02462 56.375,40.84375 5.1544,5.41923 9.1292,10.07391 13.8203,13.77539 4.6911,3.70151 10.506,6.23047 17.2734,6.23047 9.318,0 17.1075,-6.26298 23.2969,-15.19336 6.1894,-8.93042 11.3423,-21.10392 15.6855,-35.91993 8.6866,-29.63199 13.9239,-69.86536 13.9239,-114.32226 0,-44.45691 -5.2373,-84.70003 -13.9239,-114.33203 -4.3432,-14.816 -9.4961,-26.98952 -15.6855,-35.91992 -6.1894,-8.930409 -13.9789,-15.191411 -23.2969,-15.191411 z"
       style="color:#000000;font-style:normal;font-variant:normal;font-weight:normal;font-stretch:normal;font-size:medium;line-height:normal;font-family:sans-serif;font-variant-ligatures:normal;font-variant-position:normal;font-variant-caps:normal;font-variant-numeric:normal;font-variant-alternates:normal;font-variant-east-asian:normal;font-feature-settings:normal;font-variation-settings:normal;text-indent:0;text-align:start;text-decoration:none;text-decoration-line:none;text-decoration-style:solid;text-decoration-color:#000000;letter-spacing:normal;word-spacing:normal;text-transform:none;writing-mode:lr-tb;direction:ltr;text-orientation:mixed;dominant-baseline:auto;baseline-shift:baseline;text-anchor:start;white-space:normal;shape-padding:0;shape-margin:0;inline-size:0;clip-rule:nonzero;display:inline;overflow:visible;visibility:visible;opacity:1;isolation:auto;mix-blend-mode:normal;color-interpolation:sRGB;color-interpolation-filters:linearRGB;solid-color:#000000;solid-opacity:1;vector-effect:none;fill:#1e1c58;fill-opacity:1;fill-rule:nonzero;stroke:none;stroke-width:15.1181;stroke-linecap:round;stroke-linejoin:miter;stroke-miterlimit:4;stroke-dasharray:none;stroke-dashoffset:0;stroke-opacity:1;color-rendering:auto;image-rendering:auto;shape-rendering:auto;text-rendering:auto;enable-background:accumulate;stop-color:#000000;stop-opacity:1"
       id="path2155" />
    <path
       transform="scale(0.26458333)"
       d="m 1173.9375,105.73633 c -3.4754,0.10268 -7.9472,2.8431 -12.8398,10.04101 -4.9245,7.24436 -9.7543,18.41591 -13.8008,32.40625 -4.9697,17.18184 -8.8151,38.62021 -11.0489,62.625 10.2481,0.046 20.1107,0.005 25.8848,-0.0664 a 6.236823,6.236823 0 0 1 0.078,0 c 0.7007,0 1.3717,0.0546 2.0274,0.13086 0.3919,-0.0403 0.7868,-0.0684 1.1914,-0.0684 4.409,2e-5 8.0754,2.48717 10.6152,5.44726 2.5398,2.96009 4.3942,6.61202 5.9356,10.85938 2.5221,6.94973 3.8456,15.81382 4.3476,25.34961 h 0.4512 v 6.23828 6.23633 h -0.4512 c -0.502,9.53579 -1.8255,18.39207 -4.3476,25.34179 -1.5414,4.24736 -3.3958,7.90711 -5.9356,10.86719 -2.5398,2.96009 -6.2062,5.44724 -10.6152,5.44727 -0.4073,0 -0.8048,-0.0294 -1.1992,-0.0703 -0.6533,0.0756 -1.3217,0.13086 -2.0196,0.13086 a 6.236823,6.236823 0 0 1 -0.078,0 c -5.7753,-0.072 -15.6383,-0.11185 -25.8867,-0.0664 2.2327,23.9968 6.0776,45.43007 11.0449,62.60937 4.0451,13.98983 8.8757,25.16227 13.7988,32.41016 4.8937,7.20403 9.3688,9.95009 12.8438,10.05469 3.5471,-0.0669 7.9902,-2.72991 12.9043,-9.82032 4.9776,-7.18193 9.8722,-18.3299 13.9746,-32.32422 8.2048,-27.98856 13.4199,-67.34751 13.4199,-110.8164 0,-43.4689 -5.2151,-82.83757 -13.4199,-110.82617 -4.1024,-13.9943 -8.997,-25.13445 -13.9746,-32.31641 -4.9124,-7.08782 -9.354,-9.7516 -12.9004,-9.82031 z m -166.8359,83.88281 c -41.48566,6.78445 -83.75444,7.6208 -125.65043,7.41016 -10.25761,13.51459 -17.52148,36.02918 -17.52148,61.66797 0,25.64093 7.26433,48.15575 17.52343,61.66992 42.04119,-0.21191 84.45815,0.62696 126.08208,7.47461 -3.3344,-4.96371 -6.1708,-10.66827 -8.55864,-16.85352 -5.85845,-15.17511 -9.01758,-33.55209 -9.01758,-52.29101 0,-18.70551 3.00285,-37.03517 8.70899,-52.18165 2.33553,-6.19945 5.12773,-11.92042 8.43363,-16.89648 z m 143.3652,33.60547 c -4.8756,0.0207 -9.347,0.0377 -15.1328,0.0117 -0.7842,11.63063 -1.2614,23.49316 -1.2617,35.45508 v 0.006 0.002 c 2e-4,11.9627 0.4775,23.82565 1.2617,35.45703 5.7868,-0.0257 10.2585,-0.007 15.1348,0.0137 -0.5706,-1.23675 -1.1017,-2.53127 -1.5958,-3.89258 -0.089,-0.24517 -0.1652,-0.51245 -0.2519,-0.76172 -0.063,-0.18088 -0.1355,-0.34756 -0.1973,-0.53124 -0.098,-0.29278 -0.184,-0.60814 -0.2793,-0.90626 -0.1945,-0.60667 -0.385,-1.21743 -0.5664,-1.8457 -0.1301,-0.45182 -0.2536,-0.91442 -0.3769,-1.37695 -0.1879,-0.7032 -0.3712,-1.40953 -0.543,-2.13672 -0.099,-0.42003 -0.1895,-0.85164 -0.2832,-1.2793 -0.1715,-0.78239 -0.3411,-1.56584 -0.4941,-2.37304 -0.081,-0.42863 -0.1525,-0.86946 -0.2286,-1.30469 -0.1446,-0.82929 -0.2868,-1.65909 -0.4121,-2.51172 -0.063,-0.42643 -0.114,-0.86498 -0.1718,-1.29688 -0.1166,-0.87302 -0.2359,-1.74384 -0.3321,-2.63867 -0.056,-0.51517 -0.094,-1.04458 -0.1425,-1.5664 -0.077,-0.8327 -0.1611,-1.66051 -0.2208,-2.50977 -0.05,-0.71278 -0.079,-1.4427 -0.1171,-2.16601 -0.035,-0.67287 -0.08,-1.33576 -0.1036,-2.01758 -0.05,-1.42166 -0.078,-2.86125 -0.078,-4.31641 v -0.0391 -0.002 c 0,-1.46995 0.028,-2.92359 0.078,-4.35938 0.024,-0.6724 0.069,-1.32651 0.1036,-1.99023 0.038,-0.73255 0.066,-1.47162 0.1171,-2.19336 0.06,-0.84877 0.1434,-1.67556 0.2208,-2.50782 0.048,-0.52182 0.087,-1.05123 0.1425,-1.5664 0.097,-0.90139 0.2165,-1.77892 0.334,-2.6582 0.057,-0.42331 0.1065,-0.85343 0.168,-1.27149 0.1272,-0.8669 0.2726,-1.70995 0.4199,-2.55273 0.073,-0.42009 0.1423,-0.84584 0.2207,-1.25977 0.1575,-0.8316 0.3307,-1.64005 0.5078,-2.44531 0.087,-0.39521 0.1702,-0.79492 0.2617,-1.1836 0.1812,-0.76904 0.377,-1.51561 0.5762,-2.25781 0.1118,-0.41726 0.2225,-0.83561 0.3399,-1.24414 0.1935,-0.67224 0.397,-1.32515 0.6054,-1.97265 0.087,-0.27069 0.1645,-0.55796 0.2539,-0.82422 0.056,-0.1669 0.1223,-0.31785 0.1797,-0.48243 0.093,-0.26743 0.1742,-0.55368 0.2695,-0.8164 0.4937,-1.36019 1.0238,-2.65191 1.5938,-3.88672 z m 15.002,0.10351 c -0.049,0.0297 -0.3254,0.15607 -0.8848,0.72461 -0.026,0.0279 -0.05,0.052 -0.078,0.082 -0.134,0.14068 -0.291,0.34397 -0.4434,0.53125 -0.1669,0.21007 -0.3374,0.43204 -0.5156,0.69336 -0.092,0.13394 -0.1869,0.28248 -0.2813,0.42968 -0.2127,0.33429 -0.4301,0.69713 -0.6504,1.09571 -0.091,0.16491 -0.182,0.3381 -0.2734,0.51367 -0.2074,0.39696 -0.4139,0.82668 -0.6211,1.27539 -0.1196,0.2603 -0.239,0.52582 -0.3574,0.80273 -0.185,0.43104 -0.364,0.88802 -0.543,1.35742 -0.1187,0.3109 -0.238,0.62435 -0.3535,0.95118 -0.1855,0.52765 -0.3651,1.08002 -0.541,1.64648 -0.094,0.30179 -0.1884,0.60184 -0.2793,0.91406 -0.184,0.63319 -0.3602,1.29429 -0.5313,1.96875 -0.073,0.28909 -0.1479,0.57292 -0.2187,0.86914 -0.1779,0.74464 -0.345,1.51681 -0.5059,2.30469 -0.053,0.25797 -0.1074,0.50918 -0.1582,0.77149 -0.1668,0.86239 -0.3199,1.75503 -0.4648,2.66211 -0.035,0.21838 -0.074,0.42958 -0.1074,0.65039 -0.1495,0.98372 -0.2807,1.99653 -0.4024,3.02539 -0.02,0.16643 -0.045,0.32663 -0.062,0.49414 -0.1271,1.12572 -0.237,2.27961 -0.3281,3.45117 -0.01,0.085 -0.014,0.16674 -0.019,0.25195 -0.095,1.26808 -0.1691,2.55834 -0.2188,3.8711 -0.05,1.32467 -0.076,2.67172 -0.076,4.0332 0,1.36148 0.026,2.70658 0.076,4.03125 0.05,1.31143 0.1236,2.60034 0.2188,3.86719 0.01,0.0978 0.016,0.19156 0.023,0.28906 0.09,1.15717 0.1967,2.29776 0.3223,3.41016 0.02,0.18142 0.047,0.35496 0.068,0.53515 0.1203,1.01387 0.2511,2.01244 0.3985,2.98242 0.036,0.23536 0.076,0.46073 0.1132,0.69336 0.1427,0.8906 0.2932,1.76777 0.4571,2.61524 0.054,0.27972 0.1136,0.54747 0.1699,0.82226 0.1567,0.76527 0.3175,1.51779 0.4902,2.24219 0.077,0.32305 0.1581,0.6327 0.2383,0.94727 0.1652,0.64911 0.3345,1.28574 0.5117,1.89648 0.095,0.32777 0.1943,0.6427 0.293,0.95898 0.1715,0.55117 0.3467,1.08918 0.5273,1.60352 0.1197,0.33903 0.2421,0.66442 0.3653,0.98633 0.1765,0.46204 0.3548,0.9114 0.5371,1.33594 0.1181,0.27613 0.2362,0.54116 0.3555,0.80078 0.2105,0.45644 0.4216,0.89418 0.6328,1.29687 0.084,0.16126 0.1682,0.32042 0.2519,0.47266 0.2324,0.42091 0.4616,0.80482 0.6856,1.15429 0.079,0.12286 0.1584,0.24783 0.2363,0.36133 0.1951,0.2873 0.3809,0.53137 0.5625,0.75782 0.132,0.16074 0.2687,0.33758 0.3867,0.46289 0.052,0.057 0.097,0.10071 0.1445,0.15039 0.5321,0.53191 0.791,0.66009 0.8438,0.6914 0.1506,-0.0835 0.4919,-0.31585 1.1191,-1.04687 1.0776,-1.25589 2.4814,-3.70102 3.6758,-6.99219 2.3888,-6.58234 4.0528,-16.43436 4.0527,-27.32617 10e-5,-10.89182 -1.6639,-20.74579 -4.0527,-27.32813 -1.1944,-3.29117 -2.5982,-5.74215 -3.6758,-6.99804 -0.6164,-0.71849 -0.9582,-0.95706 -1.1132,-1.04493 z m -304.83013,109.44727 -12.24414,43.07422 c 6.99828,4.49839 10.6124,13.25648 8.23242,21.62891 l -1.45703,5.12695 c -2.37992,8.37226 -10.06099,13.91973 -18.3789,14.06445 l -18.48438,65.02344 c -1.07664,3.78746 0.97425,7.46829 4.76172,8.54492 l 18.23437,5.18164 c 3.78751,1.07664 7.46044,-0.97617 8.53711,-4.76367 l 44.86719,-157.83789 c -10.06115,-0.0209 -20.13712,0.0447 -30.21484,0.14258 -0.0221,1.2e-4 -0.0443,1.2e-4 -0.0664,0 -1.27551,0 -2.537,-0.0673 -3.78711,-0.18555 z"
       style="color:#000000;font-style:normal;font-variant:normal;font-weight:normal;font-stretch:normal;font-size:medium;line-height:normal;font-family:sans-serif;font-variant-ligatures:normal;font-variant-position:normal;font-variant-caps:normal;font-variant-numeric:normal;font-variant-alternates:normal;font-variant-east-asian:normal;font-feature-settings:normal;font-variation-settings:normal;text-indent:0;text-align:start;text-decoration:none;text-decoration-line:none;text-decoration-style:solid;text-decoration-color:#000000;letter-spacing:normal;word-spacing:normal;text-transform:none;writing-mode:lr-tb;direction:ltr;text-orientation:mixed;dominant-baseline:auto;baseline-shift:baseline;text-anchor:start;white-space:normal;shape-padding:0;shape-margin:0;inline-size:0;clip-rule:nonzero;display:inline;overflow:visible;visibility:visible;isolation:auto;mix-blend-mode:normal;color-interpolation:sRGB;color-interpolation-filters:linearRGB;solid-color:#000000;solid-opacity:1;vector-effect:none;fill:#77bbfe;fill-opacity:1;fill-rule:nonzero;stroke:none;stroke-width:12.4724;stroke-linecap:square;stroke-linejoin:miter;stroke-miterlimit:4;stroke-dasharray:none;stroke-dashoffset:0;stroke-opacity:1;color-rendering:auto;image-rendering:auto;shape-rendering:auto;text-rendering:auto;enable-background:accumulate;stop-color:#000000"
       id="path2316" />
    <path
       transform="scale(0.26458333)"
       d="m 1138.6094,134.3418 c -10.5389,9.29329 -24.8723,19.93945 -46.8223,30.99023 l -0.1133,0.0566 -0.1152,0.0527 c -28.7327,13.02833 -46.3976,15.70794 -61.8789,19.81445 -7.2181,3.27654 -14.3565,12.43049 -19.3399,25.6582 -5.0345,13.36375 -7.9082,30.43297 -7.9082,47.78321 0,17.31677 3.0076,34.40122 8.1797,47.79882 5.1261,13.2779 12.4333,22.51366 19.6739,25.78516 2.3783,0.68553 10.704,2.5301 21.6347,5.60937 11.1844,3.15079 25.2069,7.65773 39.5918,14.03907 l 0.1387,0.0625 0.1367,0.0684 c 21.9486,11.05008 36.2816,21.6954 46.8203,30.98828 -1.1487,-3.30365 -2.248,-6.7636 -3.2969,-10.39063 -8.5584,-29.59989 -13.7107,-69.69981 -13.7109,-113.96093 0,-44.27203 5.1549,-84.38069 13.7168,-113.98243 1.0474,-3.62109 2.146,-7.07436 3.293,-10.37304 z m -274.18752,62.56054 c -10.79078,0.002 -20.86985,6.15151 -28.64649,17.2168 -0.18447,0.26248 -0.35964,0.5408 -0.54101,0.80859 h 23.16992 c 2.25948,-6.54585 5.0161,-12.59705 8.23242,-18.00781 -0.73512,-0.007 -1.47225,-0.0104 -2.20703,-0.0176 z M 830.875,222.48633 c -2.77601,5.67697 -4.93762,12.12007 -6.30078,19.09765 h 27.86719 c 0.776,-6.66833 2.00845,-13.05607 3.64257,-19.09765 z m -7.44336,26.65625 c -0.32864,3.11057 -0.50391,6.29991 -0.50391,9.55469 0,3.25343 0.17553,6.44151 0.50391,9.55078 h 28.33398 c -0.1988,-3.13691 -0.30859,-6.31982 -0.30859,-9.55078 0,-3.23231 0.10963,-6.41648 0.30859,-9.55469 z m 1.14063,26.66406 c 1.36293,6.9779 3.52478,13.42049 6.30078,19.09766 h 25.21093 c -1.63419,-6.04195 -2.86667,-12.42877 -3.64257,-19.09766 z m 10.66015,26.65625 c 0.18189,0.26854 0.35799,0.54735 0.54297,0.81055 7.77657,11.06478 17.85556,17.21479 28.64649,17.21679 h 0.008 c 0.73478,-0.007 1.47191,-0.0104 2.20703,-0.0176 -3.21687,-5.41152 -5.97468,-11.46289 -8.23438,-18.00977 z m 1.9961,82.62891 c -2.97288,0.0367 -5.56664,1.96364 -6.44141,5.04101 l -1.45703,5.12696 c -1.07668,3.7875 0.97617,7.46047 4.76367,8.53711 l 0.54102,0.15429 c 3.78746,1.07664 7.46438,-0.96836 8.54101,-4.75586 l 1.45899,-5.12695 c 1.07663,-3.7875 -0.97816,-7.46044 -4.76563,-8.53711 l -0.53906,-0.15234 c -0.71016,-0.20187 -1.41552,-0.29559 -2.10156,-0.28711 z"
       style="color:#000000;font-style:normal;font-variant:normal;font-weight:normal;font-stretch:normal;font-size:medium;line-height:normal;font-family:sans-serif;font-variant-ligatures:normal;font-variant-position:normal;font-variant-caps:normal;font-variant-numeric:normal;font-variant-alternates:normal;font-variant-east-asian:normal;font-feature-settings:normal;font-variation-settings:normal;text-indent:0;text-align:start;text-decoration:none;text-decoration-line:none;text-decoration-style:solid;text-decoration-color:#000000;letter-spacing:normal;word-spacing:normal;text-transform:none;writing-mode:lr-tb;direction:ltr;text-orientation:mixed;dominant-baseline:auto;baseline-shift:baseline;text-anchor:start;white-space:normal;shape-padding:0;shape-margin:0;inline-size:0;clip-rule:nonzero;display:inline;overflow:visible;visibility:visible;isolation:auto;mix-blend-mode:normal;color-interpolation:sRGB;color-interpolation-filters:linearRGB;solid-color:#000000;solid-opacity:1;vector-effect:none;fill:#3b37b6;fill-opacity:1;fill-rule:nonzero;stroke:none;stroke-width:12.4724;stroke-linecap:square;stroke-linejoin:miter;stroke-miterlimit:4;stroke-dasharray:none;stroke-dashoffset:0;stroke-opacity:1;color-rendering:auto;image-rendering:auto;shape-rendering:auto;text-rendering:auto;enable-background:new;stop-color:#000000"
       id="path2209" />
  </g>
  <g
     transform="translate(90.05689,66.979842)"
     style="display:inline;opacity:0.4;mix-blend-mode:overlay"
     id="layer27">
    <path
       transform="matrix(0.26458333,0,0,0.26458333,-90.05689,-66.979842)"
       d="m 1173.9375,105.73633 c -3.4754,0.10269 -7.9472,2.8431 -12.8398,10.04101 -4.9245,7.24436 -9.7543,18.41591 -13.8008,32.40625 -4.9697,17.18184 -8.815,38.62022 -11.0489,62.625 8.5994,0.0386 16.3912,0.009 22.2598,-0.041 a 37.476658,121.62236 0 0 1 30.1817,-92.35156 c -0.6148,-1.01276 -1.233,-1.96678 -1.8516,-2.85938 -4.9124,-7.08782 -9.354,-9.7516 -12.9004,-9.82031 z m -39.8613,153.38476 c 0.011,11.81941 0.4828,23.54083 1.2578,35.03516 5.7868,-0.0257 10.2583,-0.007 15.1348,0.0137 -0.5706,-1.23675 -1.1017,-2.53127 -1.5958,-3.89258 -0.089,-0.24517 -0.1654,-0.51244 -0.2519,-0.76172 -0.063,-0.18086 -0.1353,-0.34759 -0.1973,-0.53124 -0.098,-0.29277 -0.184,-0.60814 -0.2793,-0.90626 -0.1946,-0.60666 -0.385,-1.21743 -0.5664,-1.8457 -0.13,-0.45182 -0.2537,-0.91442 -0.3769,-1.37695 -0.1879,-0.7032 -0.3711,-1.40953 -0.543,-2.13672 -0.099,-0.42003 -0.1895,-0.85164 -0.2832,-1.2793 -0.1716,-0.78239 -0.341,-1.56585 -0.4941,-2.37304 -0.081,-0.42864 -0.1522,-0.86946 -0.2286,-1.30469 -0.1447,-0.82929 -0.2868,-1.65909 -0.4121,-2.51172 -0.063,-0.42643 -0.114,-0.86497 -0.1718,-1.29688 -0.1165,-0.873 -0.2357,-1.74384 -0.3321,-2.63867 -0.056,-0.51517 -0.094,-1.04459 -0.1425,-1.5664 -0.077,-0.8327 -0.161,-1.66051 -0.2208,-2.50977 -0.02,-0.28537 -0.032,-0.57785 -0.047,-0.86719 -3.9035,-2.16555 -7.1208,-4.68578 -10.25,-7.25 z m 23.2343,12.07618 c 0.1079,0.88624 0.2202,1.76599 0.3497,2.61718 0.038,0.23535 0.076,0.46073 0.1132,0.69336 0.1429,0.8906 0.2933,1.76777 0.4571,2.61524 0.054,0.27972 0.1136,0.54748 0.1699,0.82226 0.1568,0.76527 0.3175,1.51779 0.4902,2.24219 0.077,0.32304 0.1578,0.6327 0.2383,0.94727 0.1652,0.6491 0.3345,1.28574 0.5117,1.89648 0.095,0.32776 0.1943,0.64271 0.293,0.95898 0.1716,0.55118 0.3466,1.08918 0.5273,1.60352 0.1198,0.33902 0.2421,0.66442 0.3653,0.98633 0.1765,0.46204 0.3549,0.9114 0.5371,1.33594 0.1179,0.27613 0.2376,0.54116 0.3574,0.80078 0.2105,0.45644 0.4197,0.89418 0.6309,1.29687 0.084,0.16127 0.1703,0.32043 0.2539,0.47266 0.2324,0.42091 0.4614,0.80484 0.6855,1.15429 0.079,0.12288 0.1585,0.24783 0.2363,0.36133 0.1951,0.28729 0.3809,0.53137 0.5625,0.75782 0.1319,0.16074 0.2688,0.33758 0.3868,0.46289 0.052,0.057 0.095,0.10072 0.1425,0.15039 0.5322,0.5319 0.791,0.66009 0.8438,0.6914 0.1508,-0.0835 0.492,-0.31586 1.1191,-1.04687 1.0777,-1.25589 2.4814,-3.70102 3.6758,-6.99219 1.2946,-3.56709 2.3647,-8.11539 3.084,-13.24805 -6.3157,-0.0263 -11.5602,-0.60401 -16.0313,-1.58007 z m -292.47261,2.92382 c 2.23635,19.12206 8.47491,35.52294 16.61523,46.2461 42.0412,-0.21192 84.45802,0.62696 126.08208,7.47461 -3.3345,-4.96371 -6.1708,-10.66827 -8.55864,-16.85352 -3.59998,-9.32501 -6.1761,-19.8612 -7.63086,-30.94531 z m -40.26562,1.68555 c 1.36286,6.9779 3.52475,13.42049 6.30078,19.09766 h 25.21093 c -1.63419,-6.04195 -2.86667,-12.42877 -3.64257,-19.09766 z m 179.61723,5.82617 c 1.3949,9.01776 3.5791,17.49951 6.4218,24.86328 5.1261,13.2779 12.4332,22.51366 19.6739,25.78516 2.3783,0.68553 10.704,2.53012 21.6347,5.60937 11.1844,3.1508 25.2069,7.65772 39.5918,14.03907 l 0.1387,0.0625 0.1367,0.0684 c 21.9486,11.05008 36.2816,21.6954 46.8203,30.98828 -1.1487,-3.30365 -2.2478,-6.7636 -3.2969,-10.39063 -3.5946,-12.43235 -6.5784,-26.73502 -8.8417,-42.40234 -31.1868,-37.24426 -90.7242,-42.59992 -122.2793,-48.62305 z m -168.95708,20.83008 c 0.1818,0.26854 0.35792,0.54735 0.54297,0.81055 7.77664,11.06478 17.85556,17.2148 28.64649,17.21679 h 0.008 c 0.73478,-0.007 1.47191,-0.0104 2.20703,-0.0176 -3.21687,-5.41152 -5.97467,-11.46289 -8.23438,-18.00977 z m 328.75978,4.08203 c -0.5784,0.0618 -1.167,0.10742 -1.7813,0.10742 a 6.2368227,6.2368227 0 0 1 -0.078,0 c -5.7753,-0.072 -15.6383,-0.11183 -25.8867,-0.0664 2.2327,23.9968 6.0776,45.43007 11.0449,62.60937 4.0451,13.98983 8.8757,25.16227 13.7988,32.41016 4.8937,7.20403 9.3688,9.95008 12.8438,10.05469 3.5471,-0.0669 7.9902,-2.72991 12.9043,-9.82032 4.9776,-7.18193 9.8722,-18.32989 13.9746,-32.32422 1.2323,-4.20379 2.3867,-8.69254 3.4766,-13.38476 a 37.476658,121.62236 0 0 1 -9.2793,3.78711 37.476658,121.62236 0 0 1 -31.0176,-53.37305 z m -316.26173,22.79492 c -15.99496,5.92457 -32.10729,11.50322 -48.45508,16.3418 -32.0742,9.49324 -54.11137,16.46618 -97.83984,22.29883 -6.42327,0.85681 -16.38282,10.4668 -16.38282,10.4668 l 0.12891,0.0351 c 1.50093,-1.00708 3.18747,-1.71491 4.67774,-1.85547 10.40076,-0.98077 19.79937,-0.89 29.60156,-2.2539 19.73072,-2.74531 39.26253,-6.99061 58.56836,-11.90235 19.13684,-4.86874 37.89122,-11.16567 56.63476,-17.3789 3.49386,-1.15817 6.99395,-2.30767 10.49219,-3.45899 l 3.39063,-11.92969 c -0.27428,-0.11493 -0.54421,-0.2427 -0.81641,-0.36328 z m 12.9082,3.43555 -12.24414,43.07422 c 6.99829,4.49839 10.61239,13.25645 8.23242,21.62891 l -1.45703,5.12695 c -2.37989,8.37226 -10.061,13.91973 -18.3789,14.06445 l -18.48438,65.02344 c -0.54488,1.9168 -0.28709,3.80531 0.58984,5.34375 22.89106,-47.72157 34.32911,-87.52062 72.85352,-143.81836 l 2.95703,-10.40039 c -10.06114,-0.0208 -20.13711,0.0447 -30.21484,0.14258 -0.0227,1.2e-4 -0.0441,1.2e-4 -0.0664,0 -1.27551,0 -2.53695,-0.0673 -3.78711,-0.18555 z m -23.41015,52.31641 c -2.97291,0.0378 -5.56664,1.96365 -6.44141,5.04101 l -1.45703,5.12696 c -1.07668,3.78749 0.97617,7.46047 4.76367,8.53711 l 0.54102,0.15429 c 3.78738,1.07668 7.46441,-0.96836 8.54101,-4.75586 l 1.45899,-5.12695 c 1.07663,-3.7875 -0.97816,-7.46044 -4.76563,-8.53711 l -0.53906,-0.15234 c -0.71021,-0.20183 -1.41554,-0.29547 -2.10156,-0.28711 z m -155.73829,4.40429 -1.48632,37.35157 c 7.44472,-1.89302 14.83928,-4.0052 22.2207,-6.09375 1.29755,-0.36696 2.57466,-0.81113 3.86133,-1.22266 l -6.89649,-25.93164 c -2.82746,0.43934 -9.96891,1.41426 -12.30859,1.04492 -2.30335,-0.3637 -4.74144,-2.17643 -5.39063,-5.14844 z M 64.560547,414.79492 c -0.681448,0.01 -1.36244,0.0297 -2.042969,0.0586 -12.732699,0.54775 -37.138672,9.08007 -37.138672,9.08007 0,0 10.828132,-3.14423 16.410156,-3.54101 9.116863,-0.64824 18.40785,0.0242 27.347657,1.92578 8.595832,1.82872 16.841283,5.23874 24.779297,9.00976 7.560074,3.59149 14.957764,7.73335 21.560544,12.87696 7.77825,6.05935 14.51955,13.41033 20.91797,20.91211 8.42344,9.87601 15.79634,20.63579 22.8457,31.53515 10.41153,16.09773 18.89578,33.36561 28.63477,49.87891 9.6067,16.289 18.32049,32.96702 29.06641,48.27344 l -0.11329,-0.0703 c 0,0 10.62504,15.88306 16.33985,23.53515 10.58912,14.17868 21.03425,28.57836 33.2207,41.41016 12.79981,13.4776 26.67662,26.06171 41.63867,37.08984 13.83155,10.19479 28.54936,19.40334 44.14258,26.62109 8.42335,3.89897 26.39258,8.87305 26.39258,8.87305 l 5.04297,-32.11133 c 0,0 -20.00458,-7.29737 -29.38867,-12.25781 -17.44521,-9.22159 -33.94515,-20.30015 -49.60157,-32.31055 -18.92076,-14.51452 -37.85934,-29.56111 -53.24414,-47.78125 -16.31768,-19.32494 -26.58758,-43.04468 -40.50195,-64.16601 -14.88356,-22.59256 -29.028,-45.79431 -45.96094,-66.89453 -11.55388,-14.39737 -23.0174,-29.4072 -37.77148,-40.50196 -9.65108,-7.25742 -20.8163,-12.68009 -32.310548,-16.38085 -9.077291,-2.92258 -18.669913,-4.92411 -28.220703,-5.06446 -0.682201,-0.011 -1.363475,-0.01 -2.044922,0 z m 758.697263,3.875 -3.02734,6.33399 c 0,0 -1.91564,3.82008 -4.07031,4.48828 -2.15471,0.66823 -4.65731,-0.28427 -6.31641,-1.69922 -1.49548,-1.27565 -2.29559,-3.98629 -2.5625,-5.45313 l -17.00391,11.98438 c 0.61319,6.28447 0.99766,12.99375 1.38672,19.65039 0.74256,-0.44535 1.45153,-0.85916 2.07227,-1.19531 4.5637,-2.47154 12.01549,-6.33843 13.13476,-6.04688 0.44849,0.11684 3.30877,3.05161 6.56055,6.50391 z m -464.1914,6.91211 -37.46485,13.33203 c 0,0 24.52443,7.73139 26.25782,8.39063 1.73329,0.65923 4.27525,2.09626 5.57617,3.96875 1.09745,1.57967 1.86698,3.79469 1.49218,5.5664 -0.37477,1.77176 -7.125,21.38086 -7.125,21.38086 0,0 19.83483,-16.18464 21.14649,-16.77929 1.3114,-0.59469 3.96576,-1.10331 5.97266,-0.91797 3.23313,0.29816 7.77309,2.45718 9.19531,3.21289 1.42222,0.75567 51.25781,31.03125 51.25781,31.03125 l 7.00391,-12.63477 c -20.59499,-15.23815 -47.9289,-34.04958 -70.08008,-49.04101 -0.7766,0.86849 -1.72492,1.64668 -2.69531,1.86132 -2.30972,0.51088 -5.96019,-1.53931 -6.63282,-2.53124 -0.67259,-0.99191 -3.90429,-6.83985 -3.90429,-6.83985 z m 368.22265,4.94141 c 0,0 -28.54962,9.66844 -43.16015,13.29101 -1.60913,0.39905 -3.22863,0.77484 -4.8418,1.16602 l -8.16406,205.61328 c 3.02716,-0.56073 6.04358,-1.16964 9.03711,-1.88477 1.80284,-0.43067 3.61022,-0.91969 5.41796,-1.37304 0.0181,-0.004 0.0408,-0.01 0.0586,-0.0137 5.24303,-1.31539 10.4898,-2.74373 15.64258,-4.41016 1.54953,-0.50109 3.08528,-1.03009 4.61523,-1.57813 0.38457,-0.13833 0.7673,-0.27815 1.15039,-0.41992 1.27151,-0.46809 2.53731,-0.95639 3.79102,-1.46289 0.6825,-0.27704 1.35674,-0.57208 2.0332,-0.86133 1.00804,-0.42931 2.01455,-0.85595 3.00781,-1.31445 1.06088,-0.49119 2.10043,-1.01629 3.14258,-1.54297 0.60994,-0.30765 1.23092,-0.59735 1.83399,-0.91797 1.70872,-0.91003 3.39435,-1.86545 5.04101,-2.88672 8.61249,-5.3413 22.07227,-20.9121 22.07227,-20.91211 0,0 -5.38829,-58.94089 -8.7461,-88.33984 -3.51477,-30.77312 -11.93164,-92.15234 -11.93164,-92.15234 z m 48.62891,13.92383 -1.94141,1.36718 c 0.0884,0.14313 0.21486,0.30754 0.29688,0.44727 0.67904,1.16018 1.35061,2.51709 2.00976,3.97851 -0.11768,-1.95903 -0.23684,-3.8974 -0.36523,-5.79296 z m -11.24219,7.91796 -17.5293,12.31836 3.39844,21.37696 20.86719,-15.62891 c 0,0 -3.23664,-11.59305 -6.00586,-16.88867 -0.18066,-0.34545 -0.49599,-0.79034 -0.73047,-1.17774 z m -310.9414,38.3711 -6.55469,11.13476 c 0,0 13.9906,7.4893 18.30273,12.37891 1.79757,2.03806 1.89627,2.94439 1.83985,4.59375 -0.0579,1.69119 -0.58849,3.60527 -1.64844,4.97656 l 0.0351,0.0215 c 0,0 6.3417,-7.14648 5.46094,-16.83594 -0.19404,-2.13581 -7.10903,-8.24188 -17.43359,-16.26953 z m -42.72657,34.66211 -5.24804,3.90429 9.20898,8.87305 c 0,0 11.6305,12.31912 18.42969,17.29297 2.38424,1.74415 4.79151,4.09086 7.73633,4.32422 2.41591,0.19151 4.78378,-1.19935 6.82617,-2.50391 1.06457,-0.67998 2.27431,-1.95198 3.23633,-3.03515 -1.5736,0.9816 -3.68508,1.2698 -5.48243,0.91015 -4.0435,-0.80933 -10.11132,-7.125 -10.11132,-7.125 z m -16.54492,9.99804 -6.74805,2.04688 c 8.85006,11.20033 18.77915,23.85767 25.20704,32.36133 1.60594,2.12456 4.84634,2.82796 7.50781,2.73047 3.58671,-0.13214 9.2356,-3.74565 10.59375,-4.64454 -0.73215,0.34549 -1.54745,0.55097 -2.31641,0.60547 -2.41667,0.17182 -6.89062,-2.30468 -6.89062,-2.30468 z m -40.63086,18.22461 c 5.04735,10.00128 18.99368,36.66679 29.50977,49.63086 13.93611,17.18022 30.71425,32.36353 49.14648,44.59571 17.69921,11.74571 37.5194,20.515 57.79492,26.84961 12.43128,3.88391 25.26292,6.34357 38.20508,8.16992 0.0593,-0.18104 0.0754,-0.37241 0.15625,-0.54688 1.23961,-2.69525 3.80387,-5.55841 6.76172,-5.78711 2.64127,-0.20409 6.75391,4.17962 6.75391,4.17969 0,0 1.19396,2.72021 1.79296,4.06055 4.10645,0.4512 8.2166,0.89626 12.31446,1.30078 28.99346,2.86178 58.27173,3.62113 87.375,2.27539 8.75529,-0.40479 26.10934,-3.10742 26.10937,-3.10742 l -0.39257,9.75586 c 0,0 -7.19198,7.25592 -11.35547,10.16797 -10.26438,7.17909 -21.25928,13.75438 -33.14844,17.69726 -14.31123,4.74618 -29.64788,6.59186 -44.72461,6.76367 -7.17537,0.0828 -17.57377,-1.72139 -22.94531,-2.70898 0.25118,2.21382 0.44435,4.43737 0.57617,6.66797 0.13069,2.21185 0.20741,4.43155 0.21289,6.64844 3e-5,0.0189 -4e-5,0.0389 0,0.0566 8.7e-4,0.44375 -0.0337,0.88632 -0.0371,1.33007 -0.0401,4.0272 -0.26398,8.04827 -0.75977,12.03125 -0.84071,6.7541 -5.00586,19.79493 -5.00585,19.79493 13.94567,5.7287 26.56466,4.40309 39.77539,2.92382 14.00305,-1.56808 27.56487,-6.59996 40.43164,-12.34375 14.64547,-6.53779 28.542,-15.01054 41.18359,-24.88086 8.22552,-6.42232 15.24541,-14.28716 22.19727,-22.07031 1.89588,-2.12285 3.726,-4.30978 5.56835,-6.48437 0.0189,0.0227 0.0349,0.0292 0.0508,0.0488 5.09453,-5.9713 9.96562,-12.1425 14.27734,-18.68554 5.63087,-8.54491 10.85993,-17.47956 14.59766,-27.00586 2.11116,-5.3811 3.88514,-13.23089 5.01953,-18.56641 -3.31578,2.28786 -6.7447,4.40649 -10.29492,6.28711 -3.01225,1.59557 -6.1114,3.03239 -9.24414,4.39453 -0.008,0.003 -0.0159,0.002 -0.0234,0.006 -2.75668,1.19823 -5.54894,2.3081 -8.375,3.33594 -0.38468,0.14135 -0.7668,0.28749 -1.15235,0.42578 -2.90804,1.03177 -5.83494,2.00878 -8.78906,2.87305 -13.32572,3.89934 -27.15128,5.98338 -40.91406,7.81445 -12.03399,1.60116 -24.17891,2.3636 -36.3125,2.75977 -14.5499,0.47508 -29.14385,0.46547 -43.67188,-0.46289 -13.08767,-0.83634 -26.14896,-2.36323 -39.07226,-4.59375 -16.26366,-2.80706 -32.56494,-5.94879 -48.26563,-11.03516 -12.67123,-4.10498 -25.05416,-9.30247 -36.77539,-15.62891 -9.72292,-5.24859 -19.08864,-11.31876 -27.58203,-18.38671 -11.32786,-9.42669 -21.60562,-20.2055 -30.80273,-31.72071 -1.3216,-1.65467 -2.60995,-3.38481 -3.875,-5.15429 -7.92288,-10.62375 -14.88803,-21.97723 -21.38086,-33.53321 -1.18319,0.25448 -2.32753,0.45514 -3.24219,0.49024 -3.88692,0.14891 -7.78597,-0.14231 -11.66797,-0.63282 z m 397.49024,95.55664 c 0,0 -4.6931,19.28615 -8.68946,28.31446 -4.37998,9.89499 -10.33021,19.07815 -16.57422,27.91601 -6.1415,8.69273 -13.17639,16.75344 -20.43554,24.53711 -5.37479,5.76314 -10.91325,11.41304 -16.83789,16.61133 -1.44702,1.26966 -2.89365,2.53283 -4.39258,3.74024 -1.78683,1.43927 -4.10847,3.11769 -6.58594,4.82812 -7.43257,5.1329 -16.26758,10.53711 -16.26758,10.53711 l 18.28711,24.0332 1.38672,1.82031 36.64063,48.16016 68.5371,-31.2168 c 0,0 -2.17136,-1.62666 -4.73437,-3.56836 -2.7154,-2.05711 -5.79575,-4.42822 -8.11328,-6.29296 l -6.57813,3.51953 -35.10351,-47.24219 c 0,0 20.41972,-15.04863 27.82226,-25.11328 6.65443,-9.04747 13.53835,-25.73681 17.65625,-36.4707 -0.78459,-2.17951 -1.61233,-4.33948 -2.53125,-6.4629 -5.87474,-13.57525 -23.48629,-37.65039 -23.48632,-37.65039 z m -344.95704,25.09961 -32.49414,171.51172 124.85157,27.34766 c 0,0 -6.50804,-11.7605 -9.65625,-17.69727 -0.55399,-1.04451 -1.16481,-2.28201 -1.73438,-3.57812 l -60.30469,-13.33789 z m 423.45704,94.20704 -15.14454,8.10546 c 8.80139,1.91433 20.62696,5 20.62696,5 l 16.48828,-8.2832 c 0,0 -11.44449,-2.76459 -21.9707,-4.82226 z m -33.10743,17.71289 -9.17187,4.90625 c 6.35758,2.02597 17.19336,7.38086 17.19336,7.38086 l 11.66211,-5.54688 c 0,0 -11.19731,-3.84833 -19.6836,-6.74023 z m -290.45507,69.8457 c 4.39248,6.94945 9.83398,19.99414 9.83398,19.99414 l 16.0918,3.53516 c 0,0 -9.73784,-11.72517 -15.05274,-21.125 z m 35.42382,7.83594 c 6.30378,9.57906 11.09375,18.59375 11.09375,18.59375 l 17.69727,2.89453 c 0,0 -6.0465,-9.47116 -11.82422,-17.73438 z"
       style="display:inline;opacity:1;mix-blend-mode:normal;fill:#221d60;fill-opacity:1;stroke:none;stroke-width:3.63969;stroke-linecap:butt;stroke-linejoin:miter;stroke-miterlimit:4;stroke-dasharray:none;stroke-opacity:1"
       id="path1498" />
  </g>
  <g
     style="display:inline;opacity:1"
     id="layer3">
    <g
       id="text897"
       style="font-style:normal;font-weight:normal;font-size:4.93889px;line-height:1.25;font-family:sans-serif;letter-spacing:0px;word-spacing:0px;display:inline;opacity:1;fill:#a0a0a0;fill-opacity:1;stroke:none;stroke-width:0.264583;enable-background:new"
       transform="matrix(1.6875898,0.1446289,-0.15060235,1.7167142,-39.191302,-155.79611)"
       aria-label="@kyrallei">
      <path
         id="path896"
         style="font-style:normal;font-variant:normal;font-weight:normal;font-stretch:normal;font-size:4.93889px;font-family:'Maiandra GD';-inkscape-font-specification:'Maiandra GD';fill:#a0a0a0;fill-opacity:1;stroke-width:0.264583"
         d="m 83.598231,193.25956 q -0.05956,-0.0916 -0.122267,-0.16187 -0.0627,-0.0703 -0.133879,-0.11998 -0.280751,-0.19607 -0.617517,-0.12242 -0.336767,0.0737 -0.550795,0.38011 -0.143605,0.20562 -0.123268,0.37867 0.02369,0.17244 0.209543,0.30224 0.104787,0.0732 0.263238,0.078 0.160428,0.006 0.389929,-0.0571 l 0.04105,-0.0419 q 0.575492,-0.56288 0.643968,-0.63566 z m 0.49911,0.0603 q -0.343481,0.26017 -0.633989,0.54556 -0.289126,0.28342 -0.423066,0.4752 -0.01657,0.0237 -0.01616,0.0358 4.08e-4,0.0121 0.01623,0.0231 0.03559,0.0249 0.117999,0.05 0.08379,0.0232 0.162028,0.0249 0.295374,0.0151 0.543955,-0.12604 0.250558,-0.13975 0.456301,-0.43434 0.294115,-0.42112 0.194097,-0.83807 -0.09666,-0.41755 -0.565237,-0.7448 -0.334133,-0.23336 -0.69497,-0.31477 -0.359458,-0.0834 -0.727638,-0.0111 -0.360084,0.0691 -0.673784,0.28245 -0.311722,0.21469 -0.549224,0.55475 -0.374203,0.5358 -0.257645,1.0849 0.115177,0.55108 0.686563,0.95014 0.387514,0.27064 0.834466,0.32982 0.447548,0.0626 1.070712,-0.0758 0.06656,-0.0153 0.113982,-0.0116 0.04742,0.004 0.07708,0.0244 0.04745,0.0331 0.05639,0.0835 0.0123,0.0498 -0.01808,0.0933 -0.03038,0.0435 -0.122988,0.0877 -0.09123,0.0422 -0.224354,0.0727 -0.548693,0.12861 -1.066413,0.0318 -0.515743,-0.0955 -0.968502,-0.41167 -0.674196,-0.47086 -0.80927,-1.15349 -0.133098,-0.68126 0.321193,-1.33173 0.26788,-0.38356 0.638445,-0.62775 0.373923,-0.24478 0.801762,-0.32249 0.443247,-0.0787 0.887093,0.0312 0.447203,0.10937 0.866351,0.4021 0.565454,0.39492 0.682797,0.93869 0.118724,0.54178 -0.247195,1.06572 -0.18503,0.26493 -0.428841,0.43293 -0.241833,0.16937 -0.524088,0.22815 -0.247295,0.0508 -0.4939,0.008 -0.243247,-0.0434 -0.421188,-0.16768 -0.120604,-0.0842 -0.144015,-0.17706 -0.02005,-0.0934 0.05589,-0.20217 0.01795,-0.0257 0.02762,-0.0395 0.01164,-0.0125 0.01855,-0.0223 -0.222,0.0567 -0.406154,0.034 -0.184153,-0.0227 -0.334414,-0.12766 -0.251093,-0.17537 -0.281034,-0.46101 -0.02796,-0.28427 0.17778,-0.57886 0.13394,-0.19178 0.327821,-0.30934 0.195858,-0.11618 0.479494,-0.17694 0.188829,-0.0387 0.424984,0.0233 0.237535,0.06 0.445132,0.20499 0.118627,0.0829 0.25351,0.21823 0.136861,0.13676 0.293932,0.32882 z" />
      <path
         id="path899"
         style="font-style:normal;font-variant:normal;font-weight:normal;font-stretch:normal;font-size:4.93889px;font-family:'Maiandra GD';-inkscape-font-specification:'Maiandra GD';fill:#a0a0a0;fill-opacity:1;stroke-width:0.264583"
         d="m 84.981711,196.1 q -0.11434,-1.8e-4 -0.201392,-0.016 -0.08593,-0.0179 -0.158501,-0.0561 -0.09178,-0.0483 -0.100909,-0.12935 -0.0059,-0.0821 0.07494,-0.23579 0.02694,-0.0512 0.3611,-0.61934 0.336297,-0.56699 0.615774,-1.09847 0.27611,-0.52507 0.355891,-0.73379 0.07978,-0.20871 0.07715,-0.34361 0.116474,0.001 0.202404,0.0192 0.08919,0.0169 0.151086,0.0495 0.100319,0.0527 0.1063,0.12946 0.0092,0.0757 -0.07831,0.24219 -0.0202,0.0384 -0.124035,0.20996 -0.449898,0.74158 -0.827024,1.45875 0.642299,-0.12816 1.0092,-0.24039 0.366902,-0.11223 0.524555,-0.2255 0.119217,0.13081 0.152044,0.21346 0.03283,0.0827 -0.0031,0.15096 -0.04826,0.0918 -0.812648,0.22931 -0.339964,0.061 -0.543582,0.10106 0.02035,0.0598 0.06015,0.17059 0.420295,1.23186 0.563303,1.30706 l 0.0085,0.004 q -0.08655,0.11797 -0.177966,0.15709 -0.09029,0.037 -0.177803,-0.009 -0.143008,-0.0752 -0.360158,-0.79699 -0.173742,-0.57635 -0.309669,-0.94481 l -0.05051,0.096 q -0.181829,0.34578 -0.26172,0.55989 -0.07776,0.21523 -0.07512,0.35012 z" />
      <path
         id="path901"
         style="font-style:normal;font-variant:normal;font-weight:normal;font-stretch:normal;font-size:4.93889px;font-family:'Maiandra GD';-inkscape-font-specification:'Maiandra GD';fill:#a0a0a0;fill-opacity:1;stroke-width:0.264583"
         d="m 86.436372,197.78668 q 0.153573,-0.0363 0.307279,-0.1233 0.154845,-0.0838 0.333265,-0.23382 l 0.143458,-0.11593 q 0.0552,-1.32025 0.01957,-1.72732 -0.03346,-0.40604 -0.161351,-0.49642 0.128657,-0.15773 0.257985,-0.22162 0.129328,-0.0639 0.222926,-0.0193 0.06748,0.0322 0.09544,0.0856 0.029,0.0512 0.02987,0.15585 5.03e-4,0.027 -0.03408,0.65971 -0.03354,0.63057 -0.03183,1.24322 0.602466,-0.49017 0.934222,-0.80485 0.333933,-0.31365 0.403485,-0.45949 0.01349,-0.0283 0.01942,-0.0575 0.0081,-0.0282 0.01299,-0.0553 0.01731,0.003 0.05515,0.008 0.184851,0.0214 0.252329,0.0536 0.07836,0.0374 0.103311,0.1027 0.02495,0.0653 -0.0093,0.13717 -0.04464,0.0936 -0.657887,0.58396 -0.611073,0.49141 -1.082035,0.91871 -0.141081,0.12776 -0.370032,0.34453 -0.517241,0.49073 -0.654373,0.42533 -0.07183,-0.0342 -0.120189,-0.14014 -0.0494,-0.10371 -0.06962,-0.26298 z" />
      <path
         id="path903"
         style="font-style:normal;font-variant:normal;font-weight:normal;font-stretch:normal;font-size:4.93889px;font-family:'Maiandra GD';-inkscape-font-specification:'Maiandra GD';fill:#a0a0a0;fill-opacity:1;stroke-width:0.264583"
         d="m 89.967531,196.52207 q 0.267441,-0.15908 0.467047,-0.20572 0.200576,-0.0488 0.346297,0.0152 0.123641,0.0543 0.174829,0.17163 0.05437,0.11608 0.0039,0.23089 -0.03298,0.0751 -0.115771,0.12562 -0.07961,0.0493 -0.210009,0.0763 0.0074,-0.11266 -0.02527,-0.18231 -0.03041,-0.0687 -0.103271,-0.10068 -0.108187,-0.0475 -0.274943,0.008 -0.165785,0.0536 -0.368865,0.20408 -0.05469,0.0945 -0.106904,0.19536 -0.05124,0.0987 -0.09392,0.1958 -0.1455,0.33119 -0.207174,0.56749 -0.05947,0.23728 -0.04427,0.41254 -0.108686,0.008 -0.205463,-0.006 -0.09457,-0.0126 -0.176261,-0.0485 -0.108187,-0.0475 -0.126857,-0.11895 -0.01549,-0.0727 0.05629,-0.23604 0.02619,-0.0596 0.222868,-0.44734 0.199857,-0.38895 0.350207,-0.73118 0.12319,-0.2804 0.167072,-0.44023 0.04388,-0.15984 0.04354,-0.29696 0.05095,0.004 0.09581,0.0157 0.04804,0.0106 0.0944,0.0309 0.128057,0.0563 0.162718,0.14524 0.03563,0.0868 -0.01966,0.21262 -0.01261,0.0287 -0.03934,0.0776 -0.02355,0.0476 -0.06703,0.12859 z" />
      <path
         id="path905"
         style="font-style:normal;font-variant:normal;font-weight:normal;font-stretch:normal;font-size:4.93889px;font-family:'Maiandra GD';-inkscape-font-specification:'Maiandra GD';fill:#a0a0a0;fill-opacity:1;stroke-width:0.264583"
         d="m 92.276767,199.40282 q -0.109795,0.0206 -0.19309,0.0208 -0.08329,1.2e-4 -0.13695,-0.0216 -0.09613,-0.0389 -0.117336,-0.11509 -0.01806,-0.0775 0.02858,-0.21215 -0.225542,0.0753 -0.419009,0.0777 -0.191232,0.003 -0.36114,-0.0654 -0.335345,-0.13563 -0.46507,-0.40661 -0.129726,-0.27098 -0.0058,-0.57726 0.140152,-0.34653 0.505933,-0.44051 0.368921,-0.0953 0.847347,0.0982 0.07825,0.0317 0.162725,0.0736 0.08762,0.0406 0.183699,0.0925 0.01261,-0.0183 0.02075,-0.0384 0.01128,-0.0214 0.02303,-0.0505 0.09404,-0.2325 0.01096,-0.40658 -0.07994,-0.1754 -0.328091,-0.27577 -0.205679,-0.0832 -0.367847,-0.0681 -0.159029,0.0137 -0.299617,0.12334 -0.07234,-0.0527 -0.09493,-0.11903 -0.02035,-0.0655 0.0113,-0.14371 0.06601,-0.1632 0.314184,-0.18509 0.251316,-0.0232 0.584425,0.11151 0.409121,0.16547 0.53209,0.44672 0.126108,0.27993 -0.03303,0.6734 -0.02984,0.0738 -0.110691,0.25438 -0.08085,0.18061 -0.126062,0.29239 -0.124781,0.30852 -0.164964,0.51078 -0.03795,0.20317 -0.0013,0.35064 z m -0.08947,-1.19378 q -0.09651,-0.0572 -0.176516,-0.0974 -0.07687,-0.0415 -0.134993,-0.065 -0.346523,-0.14015 -0.570157,-0.0953 -0.22273,0.0426 -0.314959,0.27062 -0.07415,0.18332 0.0063,0.33813 0.08046,0.1548 0.297319,0.24251 0.163202,0.066 0.32846,0.0626 0.168399,-0.005 0.336619,-0.0798 0.04074,-0.11359 0.06653,-0.18379 0.02893,-0.0716 0.05516,-0.13638 0.01628,-0.0402 0.05287,-0.12429 0.0375,-0.0863 0.05335,-0.1319 z" />
      <path
         id="path908"
         style="font-style:normal;font-variant:normal;font-weight:normal;font-stretch:normal;font-size:4.93889px;font-family:'Maiandra GD';-inkscape-font-specification:'Maiandra GD';fill:#a0a0a0;fill-opacity:1;stroke-width:0.264583"
         d="m 93.358319,199.82707 q -0.114315,0.0164 -0.207175,0.01 -0.0906,-0.006 -0.162854,-0.0328 -0.108378,-0.0407 -0.126146,-0.11688 -0.01692,-0.0785 0.04746,-0.25007 0.08048,-0.21449 0.330663,-0.80577 0.25103,-0.59353 0.39759,-0.98414 0.181293,-0.48318 0.245129,-0.74256 0.06468,-0.26164 0.04382,-0.41886 0.1098,-0.018 0.202659,-0.0115 0.09286,0.007 0.16737,0.0345 0.112893,0.0424 0.132356,0.11406 0.01946,0.0717 -0.04577,0.24555 -0.05422,0.1445 -0.309485,0.74932 -0.255265,0.60482 -0.430629,1.0722 -0.188071,0.50125 -0.247387,0.74172 -0.05706,0.24131 -0.03761,0.39543 z" />
      <path
         id="path910"
         style="font-style:normal;font-variant:normal;font-weight:normal;font-stretch:normal;font-size:4.93889px;font-family:'Maiandra GD';-inkscape-font-specification:'Maiandra GD';fill:#a0a0a0;fill-opacity:1;stroke-width:0.264583"
         d="m 94.562114,200.24827 q -0.113626,0.0206 -0.206664,0.0176 -0.09075,-0.002 -0.163962,-0.0267 -0.109818,-0.0366 -0.130414,-0.11209 -0.01983,-0.0778 0.03811,-0.25167 0.07243,-0.21734 0.300406,-0.81753 0.228736,-0.60247 0.360637,-0.99828 0.163161,-0.4896 0.217286,-0.75118 0.05489,-0.26386 0.02819,-0.42019 0.109051,-0.0221 0.202089,-0.0191 0.09304,0.003 0.168538,0.0282 0.114393,0.0381 0.136514,0.10904 0.02212,0.0709 -0.03659,0.24709 -0.04879,0.14642 -0.281344,0.76034 -0.232548,0.61391 -0.390372,1.0875 -0.169261,0.50791 -0.219574,0.75042 -0.04803,0.24327 -0.02285,0.39655 z" />
      <path
         id="path912"
         style="font-style:normal;font-variant:normal;font-weight:normal;font-stretch:normal;font-size:4.93889px;font-family:'Maiandra GD';-inkscape-font-specification:'Maiandra GD';fill:#a0a0a0;fill-opacity:1;stroke-width:0.264583"
         d="m 95.837316,199.22617 q 0.145871,0.069 0.325193,0.13492 0.182301,0.0643 0.395734,0.12486 0.28999,0.0823 0.402572,0.0566 0.112582,-0.0257 0.152093,-0.1649 0.05992,-0.21111 -0.05133,-0.37555 -0.111254,-0.16444 -0.364125,-0.23622 -0.269111,-0.0764 -0.496474,0.0446 -0.227363,0.12097 -0.363663,0.41569 z m 1.091399,1.29498 q 0.03326,0.0771 0.04065,0.13939 0.01037,0.0606 -0.0041,0.11164 -0.03556,0.12527 -0.246521,0.15313 -0.207983,0.0262 -0.509572,-0.0594 -0.554461,-0.15738 -0.784364,-0.54853 -0.226924,-0.39281 -0.07547,-0.92639 0.152774,-0.53822 0.565083,-0.78969 0.415288,-0.25313 0.911751,-0.11221 0.382786,0.10865 0.566798,0.39653 0.184012,0.28787 0.08787,0.62658 -0.07573,0.26679 -0.312148,0.32252 -0.236419,0.0557 -0.725922,-0.0832 -0.183274,-0.052 -0.363255,-0.11564 -0.177002,-0.0653 -0.348393,-0.14151 l -0.0092,0.0325 q -0.102727,0.3619 0.05078,0.6336 0.153509,0.27169 0.520056,0.37574 0.171674,0.0487 0.33034,0.0461 0.159325,-0.005 0.305643,-0.0611 z" />
      <path
         id="path914"
         style="font-style:normal;font-variant:normal;font-weight:normal;font-stretch:normal;font-size:4.93889px;font-family:'Maiandra GD';-inkscape-font-specification:'Maiandra GD';fill:#a0a0a0;fill-opacity:1;stroke-width:0.264583"
         d="m 98.176331,201.26211 q -0.112019,0.028 -0.207388,0.0306 -0.09537,0.002 -0.177032,-0.0189 -0.114326,-0.0299 -0.140469,-0.10152 -0.0232,-0.0734 0.02558,-0.26002 0.02805,-0.10733 0.146615,-0.47515 0.118566,-0.36782 0.188691,-0.63614 0.07622,-0.29165 0.09579,-0.48096 0.01957,-0.18931 -0.0099,-0.3341 0.09974,-0.0288 0.197446,-0.0306 0.09831,-0.004 0.186974,0.019 0.107327,0.0281 0.132966,0.0921 0.02625,0.0617 -0.01095,0.20402 -0.0098,0.0373 -0.127712,0.40282 -0.117956,0.36549 -0.205156,0.69914 -0.08171,0.31265 -0.105042,0.5259 -0.021,0.21385 0.0096,0.36392 z m 0.746621,-2.93304 q -0.03476,0.13299 -0.151258,0.19726 -0.1165,0.0643 -0.258825,0.0271 -0.123659,-0.0323 -0.177695,-0.12121 -0.05403,-0.0889 -0.02294,-0.2079 0.03415,-0.13065 0.151258,-0.19726 0.117719,-0.0689 0.250712,-0.0342 0.121326,0.0317 0.178808,0.1265 0.05982,0.0954 0.02994,0.20972 z" />
    </g>
  </g>
</svg>
