<?xml version="1.0" standalone="no"?>
<!DOCTYPE svg PUBLIC "-//W3C//DTD SVG 1.1//EN" "http://www.w3.org/Graphics/SVG/1.1/DTD/svg11.dtd" >
<svg xmlns="http://www.w3.org/2000/svg" xmlns:xlink="http://www.w3.org/1999/xlink" version="1.1">
<metadata></metadata>
<defs>
<font id="averagemonoregular" horiz-adv-x="1236" >
<font-face units-per-em="2048" ascent="1638" descent="-410" />
<missing-glyph horiz-adv-x="1228" />
<glyph horiz-adv-x="0" />
<glyph unicode="&#xd;" horiz-adv-x="1228" />
<glyph unicode=" "  horiz-adv-x="1228" />
<glyph unicode="&#x09;" horiz-adv-x="1228" />
<glyph unicode="&#xa0;" horiz-adv-x="1228" />
<glyph unicode="!" horiz-adv-x="1228" d="M473 72q0 52 37 86q38 35 90 35h27q53 0 91 -35t38 -86t-38 -86t-91 -35h-27q-52 0 -90 35q-37 34 -37 86zM514 1174v12q0 40 29 69t71 29q41 0 70 -29t29 -75q0 -7 -1 -12t-1 -15l-37 -668q-6 -75 -62 -75q-53 0 -59 75q-11 163 -18 334q-5 124 -19 334q0 8 -1 11t-1 10 z" />
<glyph unicode="&#x22;" horiz-adv-x="1228" d="M279 1255h303l-72 -538q-8 -90 -80 -90t-80 90q-1 10 -17 131l-19 139l-18 138q-1 6 -7.5 56t-9.5 74zM647 1255h303l-71 -538q-7 -90 -80 -90t-80 90q-3 22 -9 66.5t-9 64.5l-18 139l-18 138q-3 21 -9 64.5t-9 65.5z" />
<glyph unicode="#" horiz-adv-x="1228" d="M170 430q0 59 74 59h166q2 22 7 111t7 111h-139q-74 0 -74 61q0 59 74 59h147q3 39 9 113.5t8 109.5q2 33 7.5 107.5t8.5 114.5q4 67 61 67q58 0 58 -77l-29 -435h147q3 39 9 113.5t8 109.5q2 33 7.5 107.5t8.5 114.5q1 67 60 67t59 -77l-33 -435h164q74 0 74 -59 q0 -61 -74 -61h-170q-2 -22 -7 -111t-7 -111h143q74 0 74 -59q0 -61 -74 -61h-151q-3 -39 -9 -113.5t-8 -109.5q-2 -33 -7.5 -107.5t-8.5 -114.5q-6 -69 -62 -69q-21 0 -40 16t-19 39v16l33 443h-150q-10 -150 -15 -223q-7 -110 -15 -222q-8 -69 -62 -69q-25 0 -42 17 t-17 44v16l32 437h-159q-74 0 -74 61zM530 489h150q2 22 7 111t7 111h-149q-2 -22 -7 -111q-1 -10 -8 -111z" />
<glyph unicode="$" horiz-adv-x="1228" d="M213 188v162q0 74 61 74q28 0 42 -15q13 -15 18 -53q1 -29 26 -57q22 -25 63 -46q39 -20 87 -32q50 -12 102 -12q62 0 114 15q51 15 89 42q37 27 58 64q22 39 22 82q0 48 -25 81q-24 31 -64 52q-38 20 -90 34q-30 8 -102 23q-60 11 -127 29q-62 16 -113 47q-50 30 -82 82 t-32 131q0 54 23 106q24 54 62 92q39 39 93 67q55 28 117 40v90q0 74 61 74q60 0 60 -74v-88q59 -6 96 -22q33 -14 84 -48q12 43 57 43q60 0 60 -73v-123q0 -74 -60 -74q-29 0 -43 13q-13 12 -18 49q-5 25 -24 46q-20 22 -52 39q-30 16 -74 26q-40 9 -84 9q-48 0 -92 -15 q-41 -14 -75 -42q-36 -29 -52 -62q-18 -36 -18 -75q0 -43 23 -70q24 -29 63 -48q38 -19 86 -33q45 -13 94 -21q63 -11 131 -30t119 -49q53 -32 86 -86t33 -140q0 -124 -93 -210q-93 -85 -247 -108v-227q0 -74 -60 -74q-61 0 -61 74v225q-60 5 -119 28q-58 23 -102 58 q-6 -63 -60 -63q-61 0 -61 73z" />
<glyph unicode="%" horiz-adv-x="1228" d="M160 487q0 23 13 37q14 16 36 23q236 74 388 125t388 125q8 2 13 3t18 1q23 0 38 -18t15 -40q0 -42 -49 -57l-776 -250v2q-10 -4 -19 -6q-10 -2 -12 -2q-19 0 -36 17t-17 40zM217 997q0 54 22 106q21 49 57 87q36 37 85 58q52 22 104 22q55 0 107 -22q49 -21 86 -58 q35 -35 57 -87q21 -49 21 -108q0 -52 -22 -104q-21 -49 -58 -86q-39 -39 -85 -59q-48 -21 -104 -21q-55 0 -104 21q-47 20 -86 59q-37 37 -58 87q-22 52 -22 105zM332 997q0 -65 45 -111t110 -46q62 0 108 46t46 109q0 67 -45 114q-45 46 -111 46q-63 0 -108 -46 q-45 -47 -45 -112zM471 229q0 54 22 106q21 49 57 87q36 37 85 58q52 22 104 22q55 0 107 -22q49 -21 86 -58q35 -35 57 -88q21 -51 21 -109q0 -53 -22 -103q-21 -48 -58 -85q-39 -39 -85 -59q-48 -21 -104 -21q-55 0 -104 21q-47 20 -86 59q-37 37 -58 87q-22 52 -22 105z M586 229q0 -65 45 -111t110 -46q64 0 109 46q45 47 45 109q0 67 -45 114q-45 46 -111 46q-63 0 -108 -46q-45 -47 -45 -112z" />
<glyph unicode="&#x26;" horiz-adv-x="1228" d="M197 291q0 103 62 184q63 82 155 123q-38 61 -52 86q-18 33 -27 54q-10 22 -11 39q-2 24 -2 42q0 54 21 102q21 49 58 84q36 35 86 56q47 20 105 20q71 0 137 -39q8 4 26 14q13 7 25 7q21 0 40 -19q18 -18 18 -43q0 -19 -10 -32q-9 -12 -33 -27l-78 -39q-35 31 -65 44 q-31 14 -60 14q-58 0 -105 -45q-45 -44 -45 -101q0 -29 20 -74q20 -44 68 -120l211 -336q49 101 78 243h105q73 0 73 -59q0 -61 -73 -61h-11q-22 -76 -46 -135t-54 -105l21 -33l20 -33h70q73 0 73 -59q0 -61 -73 -61h-129l-56 81q-90 -114 -227 -114q-64 0 -121 27 q-54 25 -100 75q-43 46 -69 109q-25 60 -25 131zM317 291q0 -42 16 -85q15 -41 42 -71t61 -48q33 -17 74 -17q95 0 160 104l-201 318q-72 -21 -112 -73t-40 -128z" />
<glyph unicode="'" horiz-adv-x="1228" d="M463 1255h303l-72 -538q-6 -37 -24 -63q-18 -27 -56 -27q-37 0 -55 24t-24 66q-3 22 -9 66.5t-9 64.5l-18 139q-3 23 -9.5 69t-9.5 69q-1 6 -7.5 56t-9.5 74z" />
<glyph unicode="(" horiz-adv-x="1228" d="M584 498q0 84 18 173q17 83 49 173q27 76 67 159q36 74 70 131q30 50 64 89q28 32 45 32q25 0 42 -17t17 -42q0 -23 -12 -50q-13 -29 -35 -63q-25 -45 -51 -97q-30 -60 -53 -129q-24 -71 -42 -164q-18 -91 -18 -201q0 -160 50 -324q50 -165 155 -352q1 -3 2 -6.5t2 -6 t1 -3.5q1 -3 1 -13q0 -24 -18 -42q-17 -17 -43 -17q-17 0 -45 32q-33 38 -64 88q-33 54 -70 130q-35 74 -66 161q-30 85 -48 177t-18 182z" />
<glyph unicode=")" horiz-adv-x="1228" d="M283 -213q0 23 12 50q13 29 35 63q25 45 51 97q30 60 53 129q24 71 42 164q18 91 18 202q0 162 -50 323q-51 165 -155 352q-1 3 -2 6.5t-2 6t-1 3.5q-1 3 -1 13q0 24 18 42q17 17 43 17q17 0 45 -32q33 -38 64 -88q33 -54 70 -130q35 -74 66 -161q30 -84 48 -178 q18 -91 18 -181q0 -87 -19 -173q-21 -93 -49 -173q-29 -80 -66 -158q-38 -79 -70 -132q-32 -52 -65 -89q-29 -32 -44 -32q-25 0 -42 17t-17 42z" />
<glyph unicode="*" horiz-adv-x="1228" d="M213 948q0 25 17 42q18 18 42 18q14 0 15 -1l6 -3l6 -2q3 -1 6 -1l248 -77v258q0 73 61 73q60 0 60 -73v-260q11 4 56 18.5t68 22.5t68 22.5t56 18.5v-3q14 6 21 7q3 0 5.5 0.5t4 1t3 0.5h2.5q21 0 40 -19q18 -18 18 -41q0 -45 -55 -63l-248 -78q31 -41 77 -108 q50 -72 76 -107q15 -24 15 -41q0 -24 -18 -42q-17 -17 -42 -17q-16 0 -27 7q-12 8 -28 29l-154 209q-12 -16 -24.5 -33.5l-27.5 -38.5t-23 -33q-69 -96 -76 -106q-28 -34 -58 -34q-25 0 -42 17t-17 44q0 9 3 17q3 6 18 28l149 209q-54 18 -124 39t-124 39h2q-23 6 -39 19 t-16 42z" />
<glyph unicode="+" horiz-adv-x="1228" d="M129 578q0 59 74 59h350v393q0 74 61 74q60 0 60 -74v-393h350q76 0 76 -59q0 -62 -76 -62h-350v-395q0 -74 -60 -74q-61 0 -61 74v395h-350q-74 0 -74 62z" />
<glyph unicode="," horiz-adv-x="1228" d="M258 -238q0 7 1 11q3 14 5 18l-2 -2q31 115 74 263t74 263h317l-311 -569q-18 -34 -36 -48q-17 -13 -44 -13q-33 0 -55 22q-23 23 -23 55z" />
<glyph unicode="-" horiz-adv-x="1228" d="M129 571q0 60 74 60h823q74 0 74 -60q0 -61 -74 -61h-823q-74 0 -74 61z" />
<glyph unicode="." horiz-adv-x="1228" d="M444 104q0 66 46 109t114 43h21q67 0 113 -43t46 -109t-46 -109q-47 -44 -113 -44h-21q-67 0 -114 44q-46 43 -46 109z" />
<glyph unicode="/" horiz-adv-x="1228" d="M213 -127q0 17 12 41l670 1425q15 29 27 38t34 9q24 0 41 -17q19 -19 19 -40q0 -17 -12 -41l-670 -1425q-15 -29 -27 -38t-35 -9q-24 0 -41 17q-18 18 -18 40z" />
<glyph unicode="0" d="M197 631q0 157 29 277q30 125 85 211q56 88 133 134q79 47 172 47q98 0 178 -48q78 -47 133 -134q55 -86 83 -206q28 -118 28 -263q0 -159 -29 -281q-30 -125 -84 -214q-55 -90 -132 -136q-79 -47 -177 -47q-104 0 -183 49q-78 49 -131 138q-52 88 -79 209 q-26 117 -26 264zM326 639q0 -116 16 -215q16 -102 51 -180q34 -77 90 -124q55 -46 135 -46q75 0 128 43q56 45 91 119q35 73 53 178q17 96 17 221v2q0 118 -18 220q-18 101 -54 175q-35 72 -90 116q-53 42 -122 42q-41 0 -77 -22q-34 -21 -61 -58q-43 -15 -72 -60t-49 -111 q-21 -68 -29 -140q-9 -77 -9 -150v-10z" />
<glyph unicode="1" d="M248 39q0 36 25 51q24 14 79 19h219v1024q-12 -7 -35.5 -21.5t-28.5 -17.5q-29 -18 -68 -38q-37 -19 -68 -30q-35 -12 -66 -12q-43 16 -43 65q8 12 54 42q37 24 105 64q56 33 118 64q63 32 94 45q41 0 45 -20q5 -21 6 -49q5 0 6 1t6 1q2 -30 2 -46v-46v-1026h224 q33 -1 68 -11q28 -8 34 -35q0 -31 -14 -45q-13 -13 -49 -18h-627q-33 0 -59 8q-22 7 -27 31z" />
<glyph unicode="2" d="M176 102q42 80 158 193q126 121 240 226q106 98 164 160q66 70 95 126q29 55 29 123q0 60 -22 108t-60 83q-39 36 -86 53q-50 18 -102 18h-2q-37 0 -73 -10q-38 -11 -73 -29q-36 -19 -62 -45q-29 -29 -40 -61q-17 -46 -36 -74q-20 -29 -48 -29q-23 0 -35 20t-12 48 q0 60 32 113q31 52 85 92q51 38 125 61q70 22 149 22q86 0 157 -28q75 -30 126 -78q53 -50 83 -117q29 -65 29 -145v-2q-5 -62 -23 -115q-19 -56 -61 -115q-47 -63 -120 -135q-61 -60 -152 -142q-24 -21 -147 -134q-71 -65 -109 -113q-11 -15 -26 -30l-27 -27q183 0 274 -1 t275 -1q11 41 32 64q23 24 43 24q23 0 38 -18q16 -19 16 -46q0 -23 -6 -47q-5 -18 -16 -45q-9 -21 -19 -34t-19 -15h-655h-48q-16 0 -46 2q-25 41 -25 100z" />
<glyph unicode="3" d="M184 102q11 67 49 95q12 -2 28 -14q9 -7 39 -24q29 -16 57 -26q36 -13 81 -14q12 -35 52 -47q44 -13 81 -13q69 0 129 21q62 22 104 58q44 38 68 90q25 55 25 116t-21 110q-20 48 -61 87q-38 36 -91 59q-52 22 -114 27q-50 1 -95 8q-41 6 -42 49q0 18 10 32q11 16 39 17 q68 6 132 20q60 13 104 41q43 27 67 70q25 45 25 105q0 96 -70 160q-69 63 -180 63q-24 0 -39 -12q-29 1 -57 -8q-29 -10 -49 -19q-37 -17 -63 -40q-8 -7 -41 -40q-5 -5 -15 -16t-15 -15q-14 -12 -32 -12q-22 0 -34 20q-11 19 -13 44q1 35 32 73q29 36 80 67q49 30 113 48 q63 18 133 18h10q80 0 148 -24q65 -23 116 -68t77 -102q28 -62 28 -129q0 -65 -17 -109q-18 -46 -47 -83q-30 -37 -65 -60q-41 -26 -76 -41q117 -44 184 -128q70 -87 70 -208q0 -89 -33 -161q-33 -73 -93 -125q-58 -51 -142 -80t-180 -29q-63 0 -124 10q-68 11 -122 31 q-61 23 -98 47q-42 28 -52 61z" />
<glyph unicode="4" horiz-adv-x="1228" d="M197 328v121l473 806h202v-806h52q73 0 73 -62q0 -59 -73 -59h-52v-226h52q73 0 73 -59q0 -61 -73 -61h-310q-73 0 -73 61q0 59 73 59h138v226h-555zM330 449h422v686h-19q-132 -224 -201 -343q-104 -179 -202 -343z" />
<glyph unicode="5" d="M188 94q1 26 17 51q15 25 37 39q21 -4 44 -19q24 -15 54 -33q24 -15 73 -32q39 -14 99 -14q2 -5 4 -11l1 -6q2 -6 15 -6q81 0 150 26q68 26 116 72t73 107q26 63 26 135q0 68 -21 125q-21 58 -61 99q-38 40 -93 64q-54 24 -120 24q-36 0 -77 -12q-33 -11 -68 -19 q-24 0 -44 -7q-28 -10 -41 -15q-4 -2 -35 -17q-16 -8 -26 -8q-16 4 -27 20q-12 17 -12 45v64q0 98 3 193q4 126 4 194q0 19 2 55q1 24 8 49q28 9 60 12q37 3 81 3h344q31 0 47 1t47 1h6q50 -2 68 -23q19 -22 19 -51q-11 -30 -36 -37q-27 -8 -65 -8h-465q-1 -32 -2.5 -95.5 t-1.5 -94.5q-2 -126 -2 -191q66 26 111 37q51 12 116 12q95 0 170 -31q76 -31 130 -87q54 -55 84 -132q30 -76 30 -165q0 -102 -38 -186q-37 -82 -103 -142q-64 -58 -156 -92q-90 -33 -194 -33q-54 0 -109 11q-59 12 -112 30q-49 17 -89 44q-36 25 -41 54z" />
<glyph unicode="6" d="M217 569v6q0 169 48 306q48 136 134 233q87 98 206 150q121 53 267 53h13q51 -4 83 -35q31 -30 31 -70v-4q-11 -40 -61 -41q-4 1 -34 10q-14 4 -38 9h-2q-12 4 -29 7q-15 3 -34 3q-99 0 -178 -45q-83 -47 -138 -124q-58 -81 -92 -184q-36 -109 -43 -227v2q53 81 131 133 q77 52 187 52q81 0 150 -33q71 -34 120 -89q53 -59 80 -132q29 -78 29 -160q0 -88 -31 -167q-29 -75 -85 -132q-54 -56 -126 -87q-73 -32 -154 -32q-97 0 -176 40t-136 117q-55 74 -89 188q-33 111 -33 253zM367 391q0 -12 1 -17q0 -2 1 -7.5t2 -8.5q33 -128 99 -205 t179 -77v2q60 0 107 23q48 23 85 65q35 39 55 98q19 56 19 123q0 65 -19 119q-20 56 -55 96q-37 42 -83 64q-45 22 -103 22h-2q-64 0 -113 -25t-87 -68t-59 -95t-27 -109z" />
<glyph unicode="7" d="M215 1143v24q1 35 7 61q4 20 18 32q12 11 32 12q28 2 52 2h17q3 0 17 -2h588q32 0 52 -5q17 -4 24 -15q6 -9 6 -23v-33v-29q-5 -18 -17 -54q-8 -25 -26 -62q-96 -211 -181 -435q-88 -233 -151 -446q-45 -125 -56 -153q-19 -48 -52 -48q-24 0 -42 7q-20 8 -28 20 q0 18 6 48q1 4 15 58q82 279 183 528q105 259 216 517l-33 3l-33 3h-503q-5 -18 -19 -50q-11 -25 -31 -26q-12 5 -18 27q0 -21 -14 -21q-19 5 -24 20q-5 17 -5 40z" />
<glyph unicode="8" d="M197 346q0 108 65 195q65 88 182 137q-97 45 -156 121q-57 73 -57 178q0 67 28 132q27 62 79 110q52 47 123 74q75 28 157 28q85 0 160 -28q74 -28 122 -73q50 -47 77 -108q27 -62 27 -129q0 -101 -54 -175q-53 -73 -162 -126q117 -53 184 -136q66 -83 66 -198 q0 -86 -33 -152q-35 -70 -91 -120q-59 -53 -133 -79q-79 -28 -163 -28h-10q-86 5 -162 33q-75 28 -131 78q-55 49 -87 116q-31 65 -31 150zM326 346q0 -65 23 -112q25 -51 64 -86q40 -35 94 -55q53 -19 114 -19t111 20q51 20 91 56t62 82q22 47 22 102q0 57 -21 105t-59 83 q-41 37 -87 57q-50 21 -109 27q-10 4 -19 6q-8 2 -18 6q-56 -6 -104 -27q-47 -21 -85 -57q-36 -35 -58 -83q-21 -47 -21 -105zM356 979q0 -56 26 -102q27 -48 65 -76q41 -30 91 -47q51 -17 99 -17q48 1 96 24q46 21 77 54q32 34 50 75q19 44 19 89q0 53 -21 96 q-22 46 -56 74q-37 31 -83 47q-45 16 -101 16h-6q-54 0 -100 -18t-82 -49q-34 -29 -54 -73q-20 -43 -20 -93z" />
<glyph unicode="9" d="M211 875q0 88 31 169q29 75 84 135q50 54 126 89q70 32 156 32q99 0 177 -41q79 -42 136 -121q56 -78 88 -192q31 -111 31 -252v-4q0 -164 -47 -302q-46 -134 -131 -233q-86 -100 -199 -151q-117 -53 -253 -53q-16 0 -25 4q-10 4 -10 8q-65 4 -93 29q-27 24 -32 65 q1 14 14 25q11 10 31 10t38 -3q16 -3 40 -28q6 0 10 1l16 4q15 -3 23 -3q211 7 340 161q129 152 145 425q-52 -87 -136 -136q-83 -48 -183 -48q-84 0 -153 33q-71 34 -119 89q-51 58 -77 130q-28 76 -28 158zM342 879q0 -65 19 -119q19 -56 54 -96q36 -42 82 -65 q48 -24 105 -24q55 0 104 22q43 19 81 56q36 35 59 82q24 50 31 96v3q2 3 7 16t7 16q-17 147 -92 234q-76 88 -195 88v2q-55 0 -105 -25q-49 -25 -83 -67q-37 -46 -55 -100q-19 -56 -19 -119z" />
<glyph unicode=":" horiz-adv-x="1228" d="M444 104q0 66 46 109t114 43h21q67 0 113 -43t46 -109t-46 -109q-47 -44 -113 -44h-21q-67 0 -114 44q-46 43 -46 109zM444 719q0 66 46 109q47 44 114 44h21q66 0 113 -44q46 -43 46 -109q0 -67 -46 -110q-47 -44 -113 -44h-21q-67 0 -114 44q-46 43 -46 110z" />
<glyph unicode=";" horiz-adv-x="1228" d="M266 -238q0 7 1 11q3 14 5 18l-2 -2q31 115 74 263t74 263h317l-311 -569q-18 -34 -36 -48q-17 -13 -44 -13q-33 0 -55 22q-23 23 -23 55zM395 719q0 66 46 109q47 44 114 44h20q67 0 114 -44q46 -43 46 -109q0 -67 -46 -110q-47 -44 -114 -44h-20q-67 0 -114 44 q-46 43 -46 110z" />
<glyph unicode="&#x3c;" horiz-adv-x="1228" d="M111 575l884 492h-2q18 12 35 12q24 0 41 -20q18 -21 18 -43q0 -33 -36 -53l-697 -388q232 -128 348 -193q168 -94 349 -194q36 -20 36 -51q0 -18 -16 -41q-17 -24 -43 -24q-19 0 -37 12h2q-215 118 -441 246q-131 74 -441 245z" />
<glyph unicode="=" horiz-adv-x="1228" d="M86 432q0 60 74 60h909q74 0 74 -60q0 -61 -74 -61h-909q-74 0 -74 61zM86 727q0 59 74 59h909q74 0 74 -59q0 -61 -74 -61h-909q-74 0 -74 61z" />
<glyph unicode="&#x3e;" horiz-adv-x="1228" d="M141 137q0 30 37 51l696 387q-116 64 -348 194t-348 194q-37 21 -37 53q0 7 4 16q5 10 12 21q9 12 18 18q13 8 26 8q19 0 37 -12h-2q214 -119 441 -246t441 -246l-885 -491h3q-18 -12 -35 -12q-24 0 -42 21t-18 44z" />
<glyph unicode="?" horiz-adv-x="1228" d="M256 944v139l12 19q52 18 70 28q57 24 122 47q66 23 173 23q86 0 155 -24q68 -24 121 -69q52 -44 79 -106q28 -64 28 -135q0 -57 -17 -108q-17 -50 -56 -92q-41 -44 -104 -85t-161 -87v-72q0 -74 -60 -74q-61 0 -61 74v151q179 77 258 144q80 68 80 149q0 94 -76 154 q-75 59 -196 59q-68 0 -120 -13q-54 -14 -126 -48v-74q0 -74 -60 -74q-61 0 -61 74zM453 72q0 53 37 87t98 34h55q60 0 97 -34q38 -35 38 -87t-38 -87q-37 -34 -97 -34h-55q-61 0 -98 34t-37 87z" />
<glyph unicode="@" horiz-adv-x="1228" d="M197 406v333q0 124 31 224q32 103 87 176t132 115t167 42q76 0 137 -26t108 -73q46 -46 73 -111q26 -62 26 -138v-553q39 -12 39 -55q0 -61 -73 -61h-86v8q-20 -4 -36 -4h-28q-67 0 -118 20q-56 22 -94 57q-39 36 -62 87t-23 110q0 61 27 117q26 54 74 97q46 42 113 69 q62 25 147 30v78q0 100 -62 164t-160 64q-64 0 -120 -33t-96 -91q-39 -57 -61 -140q-22 -85 -22 -179v-327q0 -88 21 -166q22 -82 60 -137q41 -59 97 -93q58 -35 130 -35q41 0 81 7q34 6 58 15q28 11 40 20q4 3 9 7.5t9 7.5t7 5q9 8 23 16q10 6 27 6q25 0 42 -17t17 -40 q0 -26 -29 -53q-27 -26 -74 -47q-44 -20 -105 -34q-56 -13 -118 -13q-95 0 -171 43q-79 45 -131 117q-54 75 -84 175q-29 97 -29 216zM598 559q0 -69 50 -113q49 -43 132 -43h28q12 0 30 5v344q-103 -4 -172 -58q-68 -53 -68 -135z" />
<glyph unicode="A" d="M33 51q0 13 9 34t50 21h43q37 92 77 206q15 43 44.5 128.5t43.5 125.5q15 45 93 272q47 136 90 258l-16 28q-7 15 -18 27q-6 0 -24 2q-14 2 -26 6q-13 5 -20 15q-8 11 -8 26t13 29t48 14h39q73 0 116 -6t70 -18q26 -11 41 -33q14 -20 25 -49q84 -224 177 -493 q62 -179 190 -535q42 -6 53 -7q22 -1 38 -8q14 -6 22 -18q7 -11 7 -35q0 -32 -29 -36q-33 -5 -71 -5h-266q-44 0 -61 13t-17 46q0 25 18 34q19 10 47 11q38 2 62 2q28 0 61 7q-24 60 -49 135q-15 45 -47 137h-504q-37 -107 -46 -134l-46 -138q55 -13 89 -14q10 0 30.5 -0.5 t28.5 -1.5q22 -1 32 -11q11 -11 11 -41q0 -35 -30 -40q-33 -5 -71 -5h-248q-42 0 -56 13q-15 13 -15 38zM391 492h430q-40 118 -108 313q-4 12 -107 297h-4q-13 -24 -20 -44q-1 -4 -7.5 -20.5t-9.5 -25.5q-12 -34 -41 -122t-45 -135q-15 -42 -88 -263z" />
<glyph unicode="B" d="M86 1184q8 47 84 47q22 0 33 -1t33 -1h96q95 0 143 1t143 1q192 0 307 -78t115 -227q0 -90 -51 -161q-52 -72 -145 -110q131 -35 203 -114q71 -78 71 -201q0 -160 -100 -248q-99 -87 -281 -92h-168h-395q-34 0 -60 8q-24 7 -24 49q0 21 14 31q13 9 38 14q21 4 55 4 q9 0 19.5 0.5t24 1.5t21.5 1v1009h-65q-55 5 -78 11q-31 8 -33 55zM387 109q32 -2 50 -2h52h179q68 1 126 15q56 13 101 41q43 27 68 72q24 43 24 105q0 55 -21 100q-20 43 -72 79q-48 34 -131 52q-85 19 -198 19h-178v-481zM387 696h203q151 0 233 60t82 168q0 50 -20 86 t-56 61q-37 26 -81 37q-47 12 -101 12h-108q-51 0 -76 -1t-76 -1v-422z" />
<glyph unicode="C" d="M121 627q0 109 32 223t97 204q65 89 166 147q99 56 239 56q165 0 291 -98q8 14 29 47q18 29 53 29q49 0 55 -64q-4 -16 -4 -36v-37q0 -54 1 -80t1 -80v-6q0 -43 -12 -67q-11 -23 -51 -23q-32 0 -39 25q-16 55 -18 61q-16 91 -97 156q-80 65 -202 65q-102 0 -179 -44 q-76 -43 -126 -119q-51 -77 -74 -173q-25 -103 -25 -209q0 -109 30 -204t83 -166q53 -70 129 -111q77 -41 168 -41h2q92 0 156 38q63 38 110 95q28 24 60 60t63 44q45 -27 45 -90q-16 -49 -54 -93q-39 -44 -99 -83q-55 -35 -131 -59q-74 -23 -154 -23q-127 0 -231 52 q-101 51 -171 140q-68 87 -106 208q-37 117 -37 256z" />
<glyph unicode="D" d="M78 59q5 35 38 41q34 6 81 6h22v1014h-16q-17 0 -47 2q-16 1 -40 7q-16 4 -28 18q-10 11 -10 35q0 29 34 38t87 9h190q62 0 92 1t92 1q125 0 226 -42t171 -121q71 -80 108 -190q38 -112 38 -249v-15q0 -289 -136 -446q-136 -158 -384 -168h-422q-42 2 -69 9t-27 50z M346 106h143q118 0 211 29q94 29 156 91q63 63 96 160q33 98 33 235v18q0 229 -121 356t-377 127q-46 0 -70 -1t-71 -1v-1014z" />
<glyph unicode="E" d="M80 57q0 29 17 39t59 10h104v1014h-96q-46 0 -65 16q-17 14 -17 46q0 34 27 41q24 8 79 8h762q53 0 75 -7q25 -8 32 -22q8 -17 7 -38q-2 -24 3 -54v-104q0 -59 -13 -94t-50 -35q-29 0 -39 31q-11 33 -14 72q-3 40 -6 78q-3 37 -15 52q-42 7 -74 8q-50 2 -82 2h-387v-422 h207h61q21 2 26 18q5 17 5 32v20v16q4 28 12 46t33 18q22 0 44 -22t22 -74v-248q-6 -38 -22 -54t-46 -16q-23 5 -32 21t-9 55v25q-1 19 -3 32q-2 14 -7 19t-19 7q-8 1 -34 1h-238v-485h422q58 0 84 1q51 2 76 5q16 46 18 82v20q6 39 6 71t3 53q3 19 12 34q7 11 30 16 q31 0 44 -17q14 -19 20 -52q0 -93 -1 -133q-1 -53 -3 -115q-2 -31 -6 -46q-5 -15 -13 -22q-7 -6 -19 -6h-26h-18h-37h-821q-36 2 -57 12t-21 45z" />
<glyph unicode="F" d="M109 51q0 23 17 39t56 16h103v1014h-109q-37 0 -52 17t-15 34q0 38 20 49q19 11 55 11h826q63 0 81 -27q17 -26 17 -86v-69v-39q0 -57 -7 -103q-7 -49 -36 -57q-36 0 -52 28t-20 67q-5 41 -6 86q-1 44 -14 83q-13 0 -44 1.5t-49 2.5q-66 2 -102 2h-366v-432h221q8 0 16 2 h51q16 39 17 64q2 36 2 45q0 16 5 28q5 11 28 17q32 0 48 -16q15 -15 21 -50v-276q0 -45 -16 -62q-17 -18 -47 -18q-28 0 -36 24q-6 20 -8 54q-2 36 -4 54q-3 25 -28 30h-270v-478h192q39 0 73 -8q32 -8 40 -37q-1 -27 -19 -43q-15 -13 -45 -18h-469q-75 0 -75 51z" />
<glyph unicode="G" d="M104 616q0 140 38 260q36 115 109 203q72 88 169 133q102 48 219 48q83 0 160 -25q68 -22 133 -66q12 22 29 44t45 22q39 0 47 -35q8 -31 8 -88v-14v-158l-2 -6q-1 -47 -18 -63q-15 -15 -48 -15q-22 0 -31 15q-10 16 -14 42q-7 44 -27 88q-19 43 -57 76q-36 32 -92 53 t-131 21q-102 0 -177 -45q-74 -44 -126 -118q-52 -73 -76 -165q-24 -91 -24 -186v-47q0 -122 31 -215q32 -95 88 -160t135 -100t172 -35q73 0 134 20q62 20 126 56q8 66 12 138q4 64 4 148h-190q-36 0 -60 13q-22 12 -22 49q5 29 34 36q30 7 72 9h273q49 0 77 -7 q31 -8 31 -48q0 -30 -23 -47q-35 -26 -65 -54v-145q0 -38 1 -58t1 -53q0 -38 -36 -65q-33 -25 -87 -44q-49 -17 -107 -25q-53 -7 -96 -7h-53q-4 -12 -20 -16q-18 -5 -31 -5q-128 1 -230 51q-100 49 -167 133q-70 88 -103 201q-35 119 -35 256z" />
<glyph unicode="H" d="M82 55q0 36 19 43q23 9 53 9h75v1013h-63q-34 0 -52 9t-18 47q0 21 14 38t54 17h258q34 0 61 -14q29 -15 29 -50q0 -29 -18 -38t-50 -9h-90v-428h527v428h-90q-35 0 -55 9q-19 9 -19 42q0 35 21 46q18 9 71 14h262q6 -10 16 -13l10.5 -3.5t11.5 -3.5q11 -3 18 -10 q8 -8 8 -25q0 -36 -18 -46q-17 -10 -48 -10h-61v-1014h75q32 0 53 -8q19 -7 19 -43q0 -40 -22 -47q-24 -8 -64 -8h-262q-47 0 -67 7q-21 7 -21 48q0 31 19 41t57 10h86v478h-527v-477h90q38 0 56 -12t18 -46q0 -35 -21 -42q-20 -7 -59 -7h-2h-272q-41 0 -61 7q-21 7 -21 48z " />
<glyph unicode="I" d="M205 1169q2 19 22 38q21 20 49 24h637q42 0 71 -11q32 -12 32 -34q0 -29 -19 -37q-17 -7 -49 -12q-6 -11 -21 -14t-32 -3h-41h-176v-1011h205h40q15 0 41 -4q13 -2 33 -8q14 -4 19 -17q4 -11 4 -17q0 -12 -10 -22q0 -29 -15 -35t-39 -6h-659q-37 1 -64 9q-26 7 -26 48 q0 25 16 34q19 10 56 16h272v1013h-199h-55q-28 0 -47 4q-21 4 -33 15t-12 30z" />
<glyph unicode="J" d="M143 166q0 35 19 35q2 40 3 72q2 51 4 75q3 38 10 61q7 24 26 29q25 0 36 -14q10 -13 15 -37v-29q3 -14 5 -40q2 -28 5 -42q57 -200 269 -200q83 0 133 22q51 22 80 73q27 47 38 132q11 86 11 201v616h-260q-49 0 -72 20q-24 20 -25 44q12 47 95 47q180 0 269 -1t269 -1 q47 0 68 -11q22 -12 22 -49q0 -29 -22 -39q-21 -10 -62 -10h-157v-706q0 -105 -20 -190q-19 -82 -63 -139q-43 -56 -118 -85t-182 -29h-9q-60 0 -120 12q-67 13 -111 34q-51 24 -91 61q-42 39 -65 88z" />
<glyph unicode="K" d="M88 1178q0 37 15 43q12 5 46 10h238h56q23 0 46 -5q18 -4 32 -18q11 -11 11 -34q0 -18 -14 -35q-16 -19 -49 -19h-98q0 -167 1 -251t1 -255q111 105 222 216q102 102 222 235v2q24 25 47 53h-33q-10 0 -32 2h-4q-38 0 -54 14q-14 13 -14 35q0 37 23 49q21 11 65 11h236 q69 0 69 -51q0 -17 -12 -38q-13 -22 -49 -22h-35q-65 -54 -107 -97q-60 -61 -106 -113q-20 -22 -57 -61.5t-49 -52.5q-35 -38 -103 -106q75 -46 139 -123q66 -80 129 -176q20 -28 43 -70l45 -80q21 -37 47 -75q29 -42 46 -60h59q42 0 59 -18q18 -19 19 -37q0 -31 -20 -40 q-21 -10 -44 -11h-114q-62 0 -78 12t-21 35l9 6q-102 193 -198 332q-98 142 -216 227q-11 -10 -34 -29.5t-34 -29.5q-38 -33 -67 -61v-386q45 3 46 3h46q42 0 66 -12t24 -40q0 -34 -20 -46q-18 -11 -56 -11h-262q-53 0 -88 6t-35 45q0 21 14 38q15 18 50 18h92v1013h-96 q-33 0 -49 19q-15 18 -15 39z" />
<glyph unicode="L" d="M96 1182q0 28 31 39q29 10 84 10h381q44 0 74 -8q28 -7 28 -49q0 -30 -29 -42q-30 -12 -73 -12h-141v-1011h325q47 0 123 2q53 1 109 8q6 53 6 112t3 109q3 51 13 82q10 33 37 33q25 0 43 -15q19 -15 23 -67v-25q0 -39 -4 -141q-5 -116 -5 -133q-4 -16 -3 -31t-3 -24 q-5 -10 -15 -14q-13 -5 -36 -5h-86h-764q-54 0 -86 8q-31 8 -31 55q0 28 26 36q24 7 60 7h136v1014h-150q-39 0 -58 17q-18 17 -18 45z" />
<glyph unicode="M" d="M27 68q1 20 11 25q9 5 24 6t36 6q19 4 49 26q3 495 3 496q0 275 4 495q-37 0 -57 7q-22 8 -34 17q-13 10 -17 18q-5 10 -5 14q0 30 19 42q18 11 61 11h125q16 0 44 -2q20 -1 38 -8q4 -8 11.5 -24.5t8.5 -18.5q3 -7 6.5 -15t8 -18t6.5 -15q88 -213 127 -310 q77 -193 125 -322q48 122 124 319q46 120 127 320q11 32 25 53q13 19 29 28q18 10 36 11q26 2 46 2h122q7 -12 20 -17q8 -3 22 -9q13 -5 20 -12q8 -8 8 -24q0 -47 -65 -47h-52q2 -342 1.5 -508t2.5 -508h64q32 0 46 -10q16 -11 20 -28q0 -35 -16 -49q-14 -12 -40 -19h-276 q-49 0 -66 11q-18 12 -18 46q0 35 23 42q22 7 71 7h74q0 54 -1 152.5t-1.5 179t-0.5 151.5q-1 160 -1 482q-21 -34 -35 -67q-60 -133 -100 -241q-46 -125 -99 -255q-4 -7 -7.5 -15.5t-8 -19.5t-7.5 -17q-18 -39 -26 -53q-15 -25 -34 -39q-21 -16 -46 -16q-34 10 -48 35 q-14 24 -30 63q-67 170 -120 298q-63 152 -113 284q-8 14 -11 22q-1 2 -14 23q0 -135 -2 -399t-2 -400v-88q0 -46 4 -77h70q38 0 68 -10q28 -9 34 -31q0 -42 -20 -55t-70 -13h-233q-54 0 -71 13t-17 55z" />
<glyph unicode="N" d="M57 1174q0 31 22 44q20 11 54 13h143q32 0 54 -8q17 -6 35 -24q10 -10 25 -36q10 -18 28 -47q135 -239 249 -445q231 -418 261 -472q-2 298 -2 447v448q-31 14 -65 19q-28 4 -58 9q-21 4 -44 13q-19 8 -20 30q0 43 24 55q22 11 81 11h215q16 -3 41 -7q20 -3 36 -11 t24 -19q9 -12 9 -33q-2 -18 -11 -23q-20 -10 -23 -11q-10 -3 -30 -13q-14 -7 -30 -31h-35v-970q0 -39 -13 -75q-14 -38 -58 -42q-36 5 -58 31q-23 28 -45 73q-16 0 -24 16q-3 5 -8 14t-7 13q-28 49 -230 408q-116 206 -226 407q-7 14 -23 40t-24 40q0 -299 1 -449t1 -450 q29 -16 63 -22q10 -2 30.5 -6t30.5 -6q25 -4 45 -14q17 -9 17 -28q0 -39 -22 -52q-19 -11 -70 -11h-242q-57 0 -77 10q-21 10 -21 58q11 41 70 41h45q10 12 13 29q3 18 3 40v942q-38 0 -56 1q-30 2 -50 6q-19 4 -34 16q-14 11 -14 31z" />
<glyph unicode="O" d="M98 614v19v24q0 7 2 27v12q23 266 157 414q133 147 351 147q16 0 24 -1q14 -2 23 -5h7q117 -7 207 -61q91 -55 148 -139t88 -199q30 -112 30 -240v-6q0 -147 -38 -267q-37 -117 -107 -199q-68 -80 -165 -124q-95 -43 -211 -43q-127 0 -226 52q-98 51 -162 138t-96 204 q-32 119 -32 247zM229 602q0 -105 25 -203q24 -93 74 -166q49 -71 122 -112t166 -41q94 0 166 42t120 114q50 75 73 170q24 99 24 210v2q0 113 -23 205q-24 96 -72 168t-120 114t-168 42q-176 0 -281 -141q-106 -142 -106 -404z" />
<glyph unicode="P" d="M113 1176q0 38 18 45q19 8 47 8q52 0 77 -1t77 -1q47 0 139 2t141 2q107 0 198 -20q90 -20 152 -61q61 -41 97 -109q35 -67 35 -160q0 -96 -34 -165q-36 -73 -95 -119q-61 -48 -146 -72q-81 -23 -184 -23h-64q-27 0 -40 1t-42 1h-69v-398h162q42 0 83 -9q40 -9 40 -48 q0 -37 -26 -43q-25 -6 -61 -6h-397q-52 0 -77 11q-27 12 -27 46q0 35 21 42q20 7 57 7h98v1014q-90 0 -136 8q-44 8 -44 48zM420 612q41 -1 98 -3q34 -1 103 -1q153 0 247 69q95 69 95 193q0 69 -26 118q-25 48 -72 78q-46 30 -108 43q-61 13 -134 13h-41h-81q-27 0 -81 -2 v-508z" />
<glyph unicode="Q" horiz-adv-x="1228" d="M86 573q0 130 41 245q40 113 113 198q71 83 168 133q95 49 206 49q112 0 207 -49q97 -50 168 -133q73 -85 113 -198q41 -115 41 -245q0 -129 -39 -240t-109 -196t-162 -134q-93 -49 -202 -54q-13 -9 -15 -10t-6 -5q-1 -1 -7 -5q-9 -6 -17 -11q22 2 32 2h33q71 0 110 -11 q45 -13 73 -24q25 -11 35 -13q20 -5 42 -5q36 0 62 13q28 14 49 28q15 7 28 15q11 7 27 7q25 0 42 -17q18 -18 18 -44q0 -19 -23 -40q-25 -23 -57 -40q-38 -20 -76 -31q-41 -12 -76 -12q-34 0 -58 7q-25 7 -54 18q-18 7 -58 19q-30 9 -84 9q-77 0 -133 -12q-44 -9 -96 -23 q-6 -2 -19.5 -5.5t-20.5 -5.5q-20 -5 -38 -5q-24 0 -42 18q-17 17 -17 44t30 51l152 110q-87 28 -154 85q-69 58 -119 139q-51 83 -79 177q-29 99 -29 201zM207 573q0 -103 33 -195t88 -160q53 -66 129 -108q73 -40 157 -40q83 0 157 40q76 41 130 107t88 158q33 90 33 192 q0 106 -32 200q-32 93 -87 162q-53 66 -129 108q-73 40 -160 40q-84 0 -158 -40q-76 -41 -130 -108q-56 -69 -87 -160q-32 -93 -32 -196z" />
<glyph unicode="R" d="M92 1180q0 35 16 43q13 8 48 8t51 -1t51 -1q80 0 120 1t120 1h12h131q179 -12 285 -94t106 -238q0 -116 -73 -198q-71 -80 -201 -121q54 -41 102 -105q40 -52 80 -131v-2q25 -61 58 -121q38 -68 73 -115q20 0 31 8q10 7 33 7h18q32 -4 44 -21q11 -15 11 -45 q-4 -19 -16 -31t-32 -18q-17 -5 -42 -7q-15 -1 -45 -1q-21 0 -31 1t-28 1q-39 22 -66 57t-52 81q-18 34 -44 90q-23 51 -43 87v7q-32 55 -66 100q-35 46 -69 72q-36 28 -81 43q-41 14 -99 14h-117v-442h94q84 0 84 -58q0 -21 -18 -36t-56 -15h-313q-32 0 -52 9t-20 40 q0 11 13 35q12 22 51 22h92v1016h-62q-27 0 -50 5q-19 4 -35 18q-13 12 -13 35zM377 657h82h53q80 0 153 14q69 13 122 42q52 28 82 73t30 111q0 61 -23 101q-25 44 -66 70q-43 28 -99 41q-55 13 -125 13h-11h-198v-465z" />
<glyph unicode="S" d="M174 293q0 43 17 63q18 21 40 21q40 0 56 -43q23 -124 114 -190t228 -66q65 0 122 18q54 17 98 50q40 30 65 77q24 45 24 101q0 84 -54 131q-54 46 -138 77q-98 36 -178 56q-99 25 -178 61q-83 38 -137 99q-54 62 -54 165q0 77 30 140q29 61 86 109q56 47 131 72 q78 26 166 26q79 0 148 -24q67 -23 129 -65q5 29 12 50q8 24 37 26q35 -5 54 -19q20 -15 20 -67v-123v-45q0 -15 2 -45q0 -35 -16 -54q-14 -17 -40 -17q-16 0 -33 11q-18 12 -22 40q-21 109 -98 165t-189 56q-62 0 -113 -16q-50 -16 -90 -46t-61 -70q-22 -41 -22 -91t21 -84 q21 -35 61 -61t94 -45q60 -21 125 -38q93 -22 176 -50q81 -27 138 -67q58 -40 91 -100t33 -147v-2q0 -86 -34 -151q-36 -69 -93 -113q-64 -49 -140 -72q-84 -25 -175 -25h-6q-93 5 -172 30t-140 77q-20 -38 -35 -63q-12 -19 -45 -19q-35 0 -44 28q-9 27 -9 74v131 q0 22 -1 32t-1 32z" />
<glyph unicode="T" d="M104 909v62q0 66 1 99t1 97q7 43 28 54q19 10 67 10q142 0 214 -1t216 -1q123 0 185 1t188 1q40 0 68 -5q26 -4 38 -17q12 -12 16 -29q4 -16 4 -45v-82v-156q0 -47 -36 -53q-26 0 -27 24l-12 -4q-25 2 -34 33q-10 32 -11 70q-1 35 -1 57v20q1 30 -1 62q-27 10 -60 12 q-44 2 -80 2h-188v-1014h180q35 0 61 -8q22 -7 27 -37q-1 -34 -22 -46q-17 -10 -45 -15h-531q-29 5 -45 17q-18 14 -18 53q12 36 80 36h188v1014h-190q-43 0 -86 -5q-39 -5 -58 -36v-57q0 -78 -20 -128q-21 -52 -58 -52q-17 1 -28 21t-11 46z" />
<glyph unicode="U" d="M59 1192q7 21 29 30q21 9 62 9h292q34 -4 50 -20q14 -14 16 -42q-6 -49 -82 -49h-96v-596q0 -98 12 -180q12 -81 45 -140t89 -91q57 -33 145 -33q68 0 119 20q56 22 94 67q39 47 60 120t21 182v651h-108q-40 4 -56 17t-16 41q0 38 30 46q28 7 64 7h250q37 0 61 -12 q23 -11 23 -43q-2 -20 -16 -37q-16 -19 -47 -19h-66v-567v-86q0 -237 -101 -366q-102 -130 -314 -130q-123 0 -203 39t-128 110q-49 72 -68 172q-19 99 -19 226v602h-56q-43 0 -65 16q-21 15 -21 56z" />
<glyph unicode="V" d="M39 1169q0 22 39 40q38 17 106 22h197q45 -4 65 -16q21 -12 21 -52q-5 -31 -29 -37t-61 -6h-92q91 -262 168 -487q95 -278 168 -500h2q91 255 168 482q115 338 172 505h-115q-36 0 -52 13t-16 36q0 47 30 55q28 7 75 7h217q45 0 74 -8q26 -7 26 -56q0 -47 -61 -47h-60 q-32 -94 -91.5 -267t-85.5 -248q-21 -60 -81 -234t-92 -269l-6 -18l-7 -22q-4 -12 -7 -19q-5 -5 -18 -12q-29 -16 -33 -18q-22 -10 -39 -15q-21 -6 -37 -6q-39 4 -54 32q-12 22 -24 68q-37 102 -88 252q-60 178 -91 268q-41 120 -90 266q-22 67 -83 242q-115 0 -115 49z" />
<glyph unicode="W" d="M20 1184q4 38 33 42q32 5 64 5h178q58 0 98 -17q39 -16 39 -49q-6 -43 -78 -43h-116q11 -88 32.5 -252t29.5 -224q32 -243 60 -474q10 34 41 150q2 9 18 69.5t25 93.5q30 112 46 168q25 86 51 158q8 22 11 33q4 15 14 28q9 12 26 20q15 7 45 7q20 0 33 -8q11 -7 18 -21 q5 -10 10 -28l9 -33q7 -25 39 -137t50 -174q46 -157 87 -326h2q51 412 58 466q29 227 63 484h-119q-76 0 -76 43q0 48 32 57t85 9h209q26 -4 48 -17q21 -12 21 -47q-1 -17 -27 -31t-61 -14q-54 -400 -71 -524q-18 -127 -70 -508q-4 -34 -18 -64q-13 -29 -48 -34 q-48 0 -71 20q-24 21 -41 74q-41 125 -88 296q-15 55 -47 170t-48 175q-32 -109 -56 -197q-10 -36 -29 -104.5t-27 -99.5q-12 -42 -28 -113q-14 -62 -31 -109q-17 -48 -42 -80q-24 -32 -61 -32q-29 6 -35 8q-14 4 -25 14t-19 32q-6 17 -11 60q-6 45 -18 132.5t-16 118.5 q-6 46 -17.5 135.5t-17.5 130.5q-3 20 -15.5 115.5t-19.5 145.5q-7 48 -17 129t-14 109q-34 0 -63 16q-28 16 -34 46z" />
<glyph unicode="X" d="M74 51q0 20 8 30t22 14q18 5 35 9q19 4 45 17q51 68 78 105q56 78 92 133q17 26 50 75t46 68q45 68 91 131q-51 70 -87 125q-29 44 -87 130q-47 70 -85 124q-39 55 -85 108q-52 0 -74 20q-21 20 -21 42q0 39 20 44q22 5 52 5h248q36 0 50 -17q13 -16 13 -36 q0 -37 -18 -46q-20 -10 -43 -10h-72q90 -128 134 -191q59 -84 132 -194q73 110 132 194q26 37 73 106.5t58 84.5h-70q-35 0 -48 15q-14 15 -15 34q0 18 18 39t59 21h222q71 0 71 -51q0 -34 -14 -41q-22 -11 -36 -14q-18 -4 -45 -14q-24 -9 -42 -42q-49 -71 -147 -215 q-69 -101 -148 -211q71 -108 198 -292q83 -120 181 -242q54 0 72 -18t18 -40q0 -39 -19 -45q-20 -6 -44 -6h-263q-37 0 -57 19t-20 38q0 35 21 42q22 8 50 8h84q-27 39 -77 111t-73 104q-69 98 -147 215q-58 -82 -148 -215q-120 -177 -145 -215q23 0 35 1t35 1h31 q35 -5 51 -19q16 -15 16 -49q0 -27 -21 -34q-20 -7 -67 -7h-248q-75 0 -75 51z" />
<glyph unicode="Y" d="M74 1182q0 34 26 41q24 8 78 8h234q32 -4 49 -17q16 -12 16 -36q-2 -19 -18 -38q-17 -20 -56 -20h-67q28 -49 74 -123l77 -127q59 -95 75 -122q55 -93 65 -109q43 78 64 112q11 18 35.5 58.5t38.5 63.5q13 21 38 62.5t37 62.5q25 42 69 122h-75q-70 0 -70 64q0 32 24 39 q21 8 68 8h219q39 -5 57 -14q21 -10 27 -35q-1 -26 -14 -39q-14 -14 -29 -18q-16 -4 -38 -6q-28 -2 -42 -5q-11 -17 -41.5 -66.5t-48.5 -79.5l-99 -162q-69 -113 -94 -156q-46 -79 -71 -128v-416h184q47 -2 61 -20q13 -17 13 -47q-8 -29 -38 -34q-33 -5 -77 -5h-465 q-33 6 -45 23t-12 45q8 30 46 35q50 6 97 6h111q0 106 -1 161t-1 164v94q-14 19 -33 52q-64 101 -161 266q-78 133 -148 239q-40 28 -63 35q-8 2 -23.5 6.5t-21.5 6.5q-16 4 -24 12q-7 7 -7 37z" />
<glyph unicode="Z" d="M178 80q5 21 19 47v10q3 5 11 18.5t13 21.5q6 9 17 26.5t16 25.5q162 236 308 445q176 252 308 444l-419 2h-57q-18 0 -56 -2q-5 -31 -7 -83q-1 -48 -6 -93q-4 -40 -18 -77q-12 -32 -37 -34q-55 0 -63 64v59q0 42 3 89q2 25 2 52q0 18 -1 38v24q0 29 4 42q5 16 16 23 q10 6 36 8q16 1 63 1h581q41 0 74 -12t33 -70v-2q-13 -24 -28 -61q-12 -29 -34 -62q-152 -205 -320 -455q-111 -166 -314 -456v-4h495q37 0 55 1q36 2 52 3q8 44 9 95q2 66 5 97q5 48 16 76q12 31 43 31q34 0 45 -16t11 -46v-2q0 -40 1 -60t1 -59q0 -90 -7 -143 q-8 -57 -42 -84q-28 -2 -42 -2h-46h-273h-399q-62 12 -68 80z" />
<glyph unicode="[" horiz-adv-x="1228" d="M555 -272v1527h301q74 0 74 -59q0 -61 -74 -61h-180v-1287h180q74 0 74 -59q0 -61 -74 -61h-301z" />
<glyph unicode="\" horiz-adv-x="1228" d="M213 1329q0 22 18 40q17 17 43 17q21 0 33 -9t27 -38l670 -1425q12 -24 12 -41q0 -21 -19 -40q-17 -17 -41 -17q-22 0 -34 9t-27 38l-670 1425q-12 24 -12 41z" />
<glyph unicode="]" horiz-adv-x="1228" d="M299 -213q0 61 74 61h180v1287h-180q-74 0 -74 59q0 61 74 61h301v-1527h-301q-74 0 -74 59z" />
<glyph unicode="^" horiz-adv-x="1228" d="M213 766q0 20 23 49q34 43 101 127.5t88 110.5q99 125 189 237l379 -475q12 -13 17 -24q6 -12 6 -25q0 -24 -18 -42q-17 -17 -42 -17q-16 0 -27 7q-12 7 -28 25l-287 363q-64 -80 -143 -181q-106 -135 -143 -182v2q-13 -18 -27 -27q-11 -7 -29 -7q-25 0 -42 17t-17 42z " />
<glyph unicode="_" horiz-adv-x="1228" d="M-18 -135h1265v-139h-1265v139z" />
<glyph unicode="`" horiz-adv-x="1228" d="M299 1268q0 25 17 42t42 17q12 0 23 -6q18 -10 27 -16l235 -205q6 -6 14 -14.5t10 -10.5q7 -7 7 -28q0 -26 -18 -44t-44 -18q-21 0 -49 23l-233 204q-16 16 -24 27q-7 10 -7 29z" />
<glyph unicode="a" d="M145 238q0 140 111 219q110 79 309 94q14 2 23 2q8 0 22 2h84q30 0 72 -5q38 -4 78 -9v71q-4 98 -51 154q-46 55 -175 55h-2q-75 0 -120 -19q-47 -20 -82 -44q-49 -34 -63 -45q-27 -21 -62 -21q-17 12 -33 39q-16 26 -16 64q16 45 88 76q74 32 174 47h2q29 6 58 9 q30 3 50 3q101 0 172 -22q69 -21 109 -63t57 -104q18 -66 19 -143v-422q0 -29 3 -44q3 -16 19 -23q23 0 47 4t52 4q28 -20 39 -26q18 -9 18 -38q-6 -26 -42 -38q-30 -10 -91 -15h-97q-21 0 -35 8q-13 7 -20 24q-6 14 -9 37q-4 26 -5 46q-91 -71 -179 -104q-90 -34 -196 -34 q-68 0 -128 18q-64 19 -104 51q-46 36 -70 82q-26 49 -26 110zM274 246q0 -70 60 -115t151 -45q106 0 198 43q94 44 161 123v184q-27 4 -65 9q-46 6 -68 6h-58q-76 0 -148 -14q-69 -13 -120 -39q-52 -26 -81 -64q-30 -39 -30 -88z" />
<glyph unicode="b" d="M47 1251q1 22 23 36q20 13 53 13h27q28 0 68 8q35 7 63 7q30 0 45 -9q13 -8 18 -34v-512q62 77 142 120q82 44 190 44q98 0 176 -37q80 -38 137 -101q58 -64 89 -149q32 -87 32 -186q0 -98 -35 -185t-94 -149q-61 -64 -139 -101q-76 -36 -172 -36q-97 0 -162 33 q-69 35 -121 98q-7 -64 -10 -80q-4 -27 -25 -37q-31 0 -55 4q-26 4 -55 12q-28 -6 -54 -6q-15 0 -34 8t-21 25q1 27 23 49t59 49q1 22 3 64q1 26 1 84v89v77v745q-27 0 -40 -1t-40 -1h-16q-42 0 -56 13q-16 14 -20 46zM344 471q0 -180 75 -282q74 -101 224 -101q73 0 137 28 q61 27 105 77t67 114q25 69 25 142q0 18 -1 27q-2 18 -3 26v2q-15 137 -104 220t-216 83q-63 0 -122 -25q-55 -23 -98 -68q-40 -41 -65 -107q-24 -63 -24 -136z" />
<glyph unicode="c" d="M158 446q0 107 36 194q37 89 100 151q65 63 151 99q86 35 190 40q65 0 129 -23q59 -21 143 -37q7 8 15 15q8 6 20 6q33 0 51 -15q19 -16 28 -41q10 -27 11 -59q2 -44 2 -69q0 -60 -9 -96t-50 -42q-28 0 -51 17t-27 49v14q-10 72 -79 118q-67 45 -171 50h-4 q-78 0 -144 -29q-68 -30 -112 -77q-48 -51 -73 -116t-25 -144q0 -81 27 -148q27 -68 77 -115q49 -46 117 -73t147 -27q105 0 195 41q21 11 45 27q5 3 22.5 14.5t26.5 18.5q19 14 47 31q23 14 39 18q20 -11 32 -28q14 -18 15 -42q-12 -35 -55 -69t-103 -61q-58 -26 -134 -45 q-72 -18 -148 -18q-111 0 -198 37q-89 38 -152 101t-98 149q-33 82 -33 184z" />
<glyph unicode="d" d="M121 438q0 104 35 194q34 88 95 152q62 65 142 100q83 36 174 36q191 0 316 -146q0 141 1 210t1 210q-35 -2 -72 -3q-25 -1 -72 -1q-33 0 -46 18q-12 16 -17 43q7 20 36 33q31 14 64 19q42 7 79 8q56 2 79 2h31q35 -6 39 -36q4 -27 4 -67v-1099q30 0 45 1t45 1h4 q32 -1 48 -14q15 -12 19 -31q0 -25 -15 -37q-17 -13 -38 -19q-20 -5 -50 -7q-18 -1 -52 -1q-37 1 -63 8q-23 6 -38 21q-13 13 -21 40q-6 20 -11 66q-61 -78 -143 -120q-81 -42 -185 -42q-95 0 -174 36q-80 36 -137 99q-58 64 -90 146q-33 84 -33 180zM252 438q0 -78 24 -142 t68 -111q43 -46 101 -71q60 -26 126 -26q67 0 116 27q53 29 85 65q68 44 89 125q22 86 22 178q0 79 -24 139q-25 62 -64 101t-97 61q-56 21 -118 21q-77 0 -139 -31q-58 -29 -102 -81q-43 -50 -65 -116q-22 -65 -22 -139z" />
<glyph unicode="e" d="M135 453q0 105 37 191q39 91 102 151q66 63 155 99q88 36 194 36q173 0 291 -91t151 -243v-2q12 -53 12 -113q-8 -47 -58 -53t-124 -6h-627q6 -80 38 -144q31 -61 83 -106q49 -42 118 -64t144 -22q40 0 78 7q48 9 82 19q54 16 80 27q40 17 70 35q28 17 43 24q13 6 32 11 q40 -18 45 -68q-12 -37 -61 -67q-54 -32 -115 -52q-66 -21 -138 -33t-132 -12q-116 0 -208 37q-94 38 -158 102q-65 65 -99 151q-35 88 -35 186zM270 528q193 0 289 1t289 1h18h23q14 0 27 5q12 4 16 22q-2 57 -29 106q-28 49 -69 82q-45 36 -98 55t-113 19h-7 q-68 0 -126 -21q-54 -20 -103 -60q-44 -37 -75 -92q-30 -53 -42 -118z" />
<glyph unicode="f" d="M213 53q0 32 14 43q16 13 49 13h144q29 0 35 10q6 11 6 33v24v608h-176q-38 0 -53 17t-15 37q0 26 19 43q17 16 59 16h166v102q0 169 97 239q98 71 284 71h18q118 -4 184 -33q66 -28 78 -96q-5 -17 -23 -31t-36 -19q-16 0 -20 9q-5 13 -7 16q-13 5 -46 13q-38 9 -64 14 q-46 8 -69 11q-38 5 -58 5q-117 0 -165 -50t-48 -157q0 -31 1 -47t1 -47h248h54q30 0 51 -4q25 -5 40 -13t20 -28q0 -32 -18 -47t-53 -21h-342v-608q0 -42 4 -55q4 -15 45 -15q10 0 34 2q12 1 36 1h167q45 -11 72 -21q27 -11 27 -49q-6 -23 -34 -31q-29 -8 -65 -8h-587 q-74 0 -74 53z" />
<glyph unicode="g" horiz-adv-x="1228" d="M111 453q0 93 34 174q33 80 95 143q61 62 140 96q82 35 171 35q103 0 184 -38q80 -38 148 -124v133h213q73 0 73 -59q0 -61 -73 -61h-92v-809q0 -65 -28 -130q-27 -62 -76 -110q-50 -49 -113 -75q-65 -27 -140 -27h-233q-74 0 -74 61q0 59 74 59h237q47 0 91 19 q43 18 73 50q31 33 49 74q19 44 19 91v209q-68 -86 -148 -124q-81 -38 -184 -38q-90 0 -171 36q-80 36 -140 97q-61 62 -95 144q-34 81 -34 174zM231 453q0 -69 26 -130t70 -105q46 -46 103 -70q59 -25 127 -25t127 25q57 24 103 70q45 45 70 104q26 61 26 127q0 67 -25 131 q-23 59 -69 105t-103 70q-59 25 -129 25q-68 0 -127 -25q-57 -24 -103 -70q-45 -45 -70 -104q-26 -61 -26 -128z" />
<glyph unicode="h" d="M82 1247q0 41 69 53q75 13 173 13q27 0 35 -17q8 -18 8 -45v-477q75 71 148 112q77 44 179 44q86 0 147 -26q59 -25 97 -74q36 -47 53 -116q17 -71 17 -155v-453h84q35 0 49 -17t14 -34q0 -41 -20 -48t-52 -7h-278q-33 0 -51 9q-19 9 -23 36q0 34 19 48q17 13 59 13h72 v478q0 104 -48 167q-47 62 -155 62q-97 0 -174 -50q-74 -48 -135 -149v-505h102q55 -18 55 -70q-8 -39 -67 -39h-289q-35 0 -56 8q-19 7 -24 37q2 31 20 46t60 15h72v1088q-27 0 -40 -1t-40 -1h-10q-30 0 -50 13t-20 42z" />
<glyph unicode="i" d="M201 49q0 57 90 57h207h38q14 0 23 7q8 7 11 19q3 14 3 40v16v607q-30 0 -90 -2t-92 -2h-67q-84 0 -84 65q11 30 39 34q42 7 79 11h84q54 0 107 6q52 6 98 6q37 -4 44 -28q7 -22 7 -72v-631v-40q0 -13 7 -22q6 -7 20 -10q20 -4 43 -4h242q28 -1 49 -10q18 -8 24 -30 q0 -48 -26 -57q-27 -9 -84 -9h-692q-37 0 -58 10q-22 10 -22 39zM520 1208q0 61 28 92t114 31q28 -21 41 -57q14 -39 14 -88q0 -52 -27 -74q-26 -22 -74 -22q-45 0 -70 32q-26 34 -26 86z" />
<glyph unicode="j" d="M184 -287q4 55 24 76q20 22 60 23q11 0 19 -5q39 -17 66 -32q8 -4 27 -14.5t28 -15.5q25 -14 49 -23t53 -9q123 0 176 70q52 67 57 205v807q-32 0 -98 -2t-100 -2h-103q-70 0 -123 8q-49 7 -51 57q11 31 48 38q35 7 85 7q34 0 51 -1t50 -1h65q48 0 96 3q61 4 93 7h12 q7 1 23 3q8 1 24 1q31 0 43 -18t12 -53v-754q0 -134 -19 -223q-20 -93 -66 -151t-122 -85q-74 -26 -190 -26q-39 0 -92 8q-50 8 -92 22q-45 16 -73 35q-31 21 -32 45zM647 1202v27q0 56 34 78t87 22h18q21 -15 40 -47q18 -30 18 -72v-39q-10 -46 -35 -63q-23 -16 -66 -16 q-45 0 -70 29q-26 31 -26 81z" />
<glyph unicode="k" d="M98 1253q1 17 30 30q24 11 67 19q39 8 80 9q56 2 77 2q35 0 40 -16q5 -17 5 -48v-772q112 93 181 158q86 80 182 164q-54 5 -75 11q-28 8 -28 30q0 29 24 47t81 18h231q47 0 64 -16q18 -17 18 -45q-11 -36 -51 -40q-53 -6 -90 -7q-64 -44 -153 -119q-101 -85 -165 -143 q111 -131 197 -225q113 -123 184 -203q57 0 98 -12q40 -12 40 -38q0 -42 -31 -50q-28 -7 -76 -7h-211q-30 0 -50 10q-22 11 -22 39q0 22 23 39q22 16 70 18q-30 33 -86 97l-70 80q-25 28 -78 87.5t-80 90.5q-8 -7 -18 -15.5t-23 -20t-21 -18.5q-6 -5 -29 -25.5t-34 -29.5 q0 -63 -1 -94t-1 -94q0 -27 8 -45h46q14 -20 19 -43q5 -25 5 -51q-30 -25 -88 -25h-194q-43 0 -62 11q-20 11 -20 44t23 42q27 10 67 10h73v1087q-14 0 -46 -2t-46 -2q-48 0 -66 15t-18 48z" />
<glyph unicode="l" d="M182 57q0 28 32 39q33 11 79 11h186q8 0 20 -2q6 -1 17 -1q22 0 33 11q10 10 10 45v1034q-17 -1 -51 -2.5t-50 -1.5q-66 -2 -104 -2h-45q-47 0 -66 16q-20 17 -20 51q4 21 32 30q25 8 71 13h10q75 6 122 7q64 1 120 6h59q28 -4 39 -20q10 -14 10 -54v-1077q0 -38 10 -45 q11 -8 35 -8h29h215q84 0 84 -52q0 -41 -33 -48q-31 -7 -72 -7h-673q-42 0 -71 8q-28 8 -28 49z" />
<glyph unicode="m" d="M27 834q0 12 13 24q15 13 37 23q20 9 53 17q28 7 60 7h19q6 0 16 -2q25 -15 29 -39t6 -59q44 61 95 90q54 31 124 31q61 0 105 -32q42 -31 73 -106q108 140 244 140q59 0 99 -24q42 -25 65 -65q24 -43 35 -100q10 -54 10 -125v-508q54 0 83 -7q32 -8 32 -42 q0 -41 -30 -49q-32 -8 -62 -8h-107q-34 0 -52 6t-18 41q0 21 12 29q10 7 23 30v527q-1 83 -24 129q-23 47 -82 47q-38 0 -75 -20q-39 -21 -64 -53q-28 -36 -44 -81t-16 -104v-445h55q54 0 60 -36q0 -70 -78 -70h-117q-41 0 -53 16q-11 15 -16 41q1 17 9 30q8 14 23 24v497 q0 88 -22 144q-22 57 -92 57q-49 0 -95 -33q-48 -34 -88 -102q-3 -32 -7 -95q-3 -49 -3 -104q0 -19 1 -28t1 -29v-312h53q38 -5 51 -17q15 -13 15 -44q-5 -30 -24 -37q-21 -8 -58 -8h-233q0 19 -17 31q-16 12 -16 35q0 10 14 24t68 16q12 15 13 16q5 5 13 15v658 q-22 -2 -32 -2h-33q-17 2 -34 13t-17 28z" />
<glyph unicode="n" d="M92 45q1 61 78 61h74v687h-72q-47 0 -62 15q-16 16 -16 44q0 30 63 45q59 14 152 14q27 0 43 -11q15 -12 15 -44v-84q79 79 156 117q81 40 175 41h4q153 0 230 -89q76 -88 76 -237v-495h69q42 0 61 -17q17 -16 17 -43q0 -29 -18 -38q-19 -10 -47 -11h-277q-31 1 -52 11 q-20 9 -20 34q0 28 17 45q16 16 59 16h66v482q0 98 -45 161q-44 62 -154 62q-54 0 -97 -15q-42 -15 -82 -40q-34 -22 -70 -56q-30 -29 -56 -61q-5 -23 -6 -45q-2 -30 -2 -45v-440h90q34 0 45 -20q10 -19 10 -34q0 -17 -11 -33q-12 -18 -40 -22h-303q-39 12 -48 16 q-16 6 -22 29z" />
<glyph unicode="o" d="M133 449q0 111 40 198q41 90 109 149q70 61 161 93q93 33 198 33q13 0 23 -2q6 2 12 2h4q28 0 57 -9q81 -18 147 -59q64 -39 115 -101q48 -58 76 -138q27 -77 27 -162q0 -106 -37 -193q-37 -88 -102 -150q-67 -64 -154 -98q-90 -35 -188 -35h-7q-102 0 -192 35 q-88 34 -153 98q-64 63 -100 148q-36 86 -36 191zM264 453q0 -81 27 -148t74 -117q46 -49 111 -76q67 -28 140 -28q74 0 141 28q65 27 111 75q47 48 74 115q27 66 27 144q0 82 -27 151q-28 71 -73 119q-49 53 -110 78q-65 27 -141 27h-4q-81 -2 -144 -31q-65 -30 -111 -79 q-45 -48 -70 -116q-25 -69 -25 -142z" />
<glyph unicode="p" d="M61 852q1 19 24 32q18 10 53 17t68 8q48 2 68 2q44 0 57 -9t21 -32q2 -32 2 -51v-53q60 73 144 119q79 43 188 43q94 0 173 -36t136 -97q57 -62 89 -145q32 -84 32 -177v-12q0 -105 -38 -192q-37 -85 -100 -145q-65 -62 -143 -92q-82 -32 -169 -32q-97 0 -172 34 q-76 34 -142 103q0 -139 1 -209t1 -211h146q47 0 71 -12q25 -13 25 -45q0 -39 -22 -45q-21 -6 -56 -6h-352q-40 0 -66 8q-23 7 -28 39q1 32 18 47q15 14 64 14h75v1078q-30 0 -44 -1t-44 -1q-41 0 -59 12q-20 13 -21 47zM350 489q0 -175 72 -277q71 -101 229 -101 q76 0 134 26q63 28 105 75q43 47 69 112q26 64 26 137q0 18 -1 27q-2 14 -3 24v4q-6 62 -33 116q-27 55 -67 93q-38 37 -96 61q-55 23 -115 23q-142 0 -226 -89q-83 -88 -94 -231z" />
<glyph unicode="q" d="M129 455q0 109 37 195q39 90 98 149q60 60 143 94q81 33 171 33q85 0 152 -32q68 -32 120 -95q6 54 16 79q10 27 41 27q41 0 84 -12q13 4 27 4h26q23 0 37 -13q16 -14 17 -30q0 -23 -20 -28q-20 -4 -48 -9q-5 -77 -6 -153q-2 -104 -2 -158v-789h86q78 0 78 -61 q0 -32 -25 -40q-22 -7 -61 -7h-348q-56 0 -78 11q-25 12 -25 42q0 37 22 46q21 9 60 9h164v430q-61 -70 -141 -108q-82 -39 -185 -39q-97 0 -179 35q-80 34 -139 96q-59 61 -90 144q-32 84 -32 180zM262 444q0 -74 26 -137q25 -60 69 -104q42 -42 103 -67q56 -23 126 -23 q90 0 149 34q56 32 95 89q38 55 52 115q15 63 15 116q0 171 -82 256q-83 86 -225 86q-73 0 -134 -29t-104 -75q-41 -44 -65 -111q-23 -64 -23 -133v-4q0 -5 -1 -6t-1 -7z" />
<glyph unicode="r" d="M162 57q0 35 21 42q20 7 57 7h157v689h-73q-24 0 -74 -2h-4q-36 0 -56 19t-20 40t29 33t68 18q45 7 85 8q60 2 80 2q45 0 62 -17t25 -45q6 -22 6 -50v-14v-14q0 -29 3 -60q106 109 198 161q93 54 194 54q86 0 141 -45t55 -113q0 -61 -51 -61q-22 0 -44 8q-20 7 -44 12 q-10 33 -28 49q-18 17 -68 21h-14q-5 0 -13 -2h-2q-78 -12 -159 -75q-82 -64 -169 -161v-55q0 -23 -2 -65q-1 -16 -1 -32.5t1 -33.5v-17v-252h307q38 -5 55 -18q20 -15 21 -43q-6 -29 -32 -37q-27 -8 -66 -8h-571q-40 0 -57 17t-17 40z" />
<glyph unicode="s" d="M205 70v4v176q0 30 9 50q9 19 32 19q31 0 48 -17q18 -18 28 -52q6 -42 32 -70q28 -31 70 -53q45 -23 96 -35q52 -12 113 -12q60 0 105 11q51 12 88 33q38 21 61 52q22 29 22 72q0 65 -54 98q-53 32 -148 49q-29 5 -93.5 17t-96.5 17q-84 14 -151 41q-64 26 -102 72 q-37 46 -37 126q0 57 28 107q26 47 78 83q50 35 119 53q73 19 150 19q33 0 88 -13q58 -14 101 -28q53 -18 89 -31q28 -10 56 -18l27 8q8 2 14 -7q6 -10 8 -25q1 -10 3 -32q1 -11 1 -26q0 -71 -13 -103t-48 -32h-13q-29 5 -36 24q-1 3 -7 18t-8 23q-12 33 -30 57 q-16 22 -50 42q-30 18 -74 27t-108 9q-51 0 -94 -10q-42 -10 -79 -29q-31 -16 -54 -47q-21 -29 -21 -65q0 -53 52 -82q50 -28 157 -49q32 -6 189 -35q85 -16 152 -44q63 -26 102 -75q36 -45 36 -131q0 -68 -30 -120q-29 -51 -86 -88q-56 -36 -129 -54q-78 -19 -160 -19 q-90 0 -168 21q-79 21 -135 61q-32 -5 -50 -11q-22 -7 -41 -10q-18 -3 -28 3t-10 31z" />
<glyph unicode="t" d="M115 842q6 20 26 30q22 11 52 14q22 2 69 4q54 2 82 5v102q0 40 1 60q2 31 6 56q4 24 17 43q12 19 31 20q55 0 66 -32q10 -30 10 -95q0 -28 -2 -80q0 -13 -1.5 -39.5t-2.5 -40.5q134 0 200 1t199 1q44 0 66 -13t22 -49q0 -28 -29 -37q-33 -10 -71 -10q-128 0 -191 -1 q-28 0 -60 -0.5t-71.5 -1.5t-60.5 -1v-444q0 -60 8 -110q7 -44 31 -76q22 -29 61 -44q36 -14 99 -14t117 18q64 21 98 39q39 20 76 42q36 21 53 26q16 -6 29 -30q13 -22 14 -42q-15 -39 -58 -69q-48 -33 -99 -52q-57 -21 -120 -33t-118 -12q-82 0 -144 17q-60 16 -97 55 q-38 40 -56 104q-19 68 -19 158v469h-147q-47 0 -67 12q-19 12 -19 50z" />
<glyph unicode="u" d="M66 850q0 17 20 28q17 10 53 18q30 7 73 10q40 3 79 3t52 -13t13 -54v-178q0 -104 -1 -161t-1 -167v-12q0 -111 43 -173q43 -63 144 -63q111 0 195 56q85 57 136 151v496q-8 0 -18 -0.5t-22 -1.5t-19 -1q-40 -2 -59 -2q-24 0 -44 10q-18 9 -18 31q0 40 66 61t182 21 q37 0 47 -17t10 -65v-718h78q39 0 55 -22q15 -21 15 -42q0 -29 -33 -37q-35 -8 -76 -8h-110q-31 2 -41 19q-11 19 -11 47v63q-81 -77 -162 -112q-84 -37 -182 -37h-6q-162 0 -228 88q-67 90 -67 262v51q0 138 1 206t1 206q-16 0 -48 -2l-24 -3t-24 -2h-2q-34 0 -51 20 q-16 19 -16 44z" />
<glyph unicode="v" d="M55 842q0 32 19 48q18 15 69 15h267q45 0 59 -17t16 -34q0 -59 -65 -59h-88q72 -178 135 -326q90 -212 135 -317q1 -1 5.5 -7.5t7.5 -9.5q9 -9 14 -18q126 301 142 340q80 192 140 338h-96q-38 0 -59 10q-23 11 -23 39q0 53 64 61h268q45 0 72 -9q26 -9 26 -44 q0 -34 -19 -46q-18 -11 -50 -11h-17q-27 0 -42 -12q-17 -13 -24 -28q-12 -24 -16 -38q-3 -9 -14 -41q-66 -156 -120 -291q-54 -134 -107 -250q-11 -23 -29 -59q-12 -23 -25 -40q-14 -17 -27 -25t-38 -13q-5 -2 -19 -5q-5 -1 -20 -1q-39 0 -51 16q-14 20 -29 49 q-33 60 -72 146q-1 3 -76 180q-16 37 -45.5 109t-37.5 92q-39 95 -90 211q-59 0 -96 6q-38 6 -44 41z" />
<glyph unicode="w" d="M33 846q0 37 20 48q19 11 60 11h198q50 0 75 -7q28 -8 28 -36q0 -21 -19 -45q-18 -22 -65 -22h-90q29 -119 76 -325q31 -138 79 -325q28 94 43 153q19 72 52 175q23 71 57 143q29 60 55 60q15 0 42 -6q28 -6 46 -29q24 -72 76 -241q4 -13 80 -255q26 108 76 324 q7 29 33.5 146t41.5 180h-96q-34 0 -52 11q-20 12 -20 34q0 28 33 45q30 15 86 20h158q41 0 68 -12q26 -12 26 -49t-26 -43q-27 -6 -60 -6q-27 -92 -44 -161q-5 -19 -20 -79t-23 -94q-14 -59 -42 -175q-19 -79 -39 -167q-11 -46 -13 -54q-4 -22 -14 -40t-27 -25 q-21 -9 -48 -10q-16 0 -28 3q-11 3 -21 7q-24 29 -47 92q-37 102 -50 144q-37 119 -47 155q-29 102 -37 127q-8 -25 -17 -54t-19.5 -64t-16.5 -56q-51 -167 -55 -180q-17 -80 -40 -122q-24 -44 -73 -44q-31 0 -56 16q-26 17 -38 60q-23 82 -45 174q-15 61 -45 187 q-37 158 -45 188q-33 133 -43 172q-47 0 -67 17q-21 18 -21 34z" />
<glyph unicode="x" d="M80 66q0 16 18 25q25 12 45 18q32 9 56 19q30 13 51 32q77 75 145 152q69 77 146 153q-72 84 -151 169t-167 161h-49q-63 7 -63 69q6 29 37 35q32 6 81 6h220q38 -6 56 -18q17 -11 17 -41q0 -42 -40 -46q-45 -5 -93 -5q69 -70 117 -122q51 -56 117 -124q39 40 115 124 q57 63 116 122q-56 0 -98 8q-39 7 -39 55q0 29 21 38t65 9h229q36 -6 55 -11q27 -8 27 -36q0 -22 -12 -40q-11 -17 -45 -23h-41q-40 -28 -85 -71q-46 -45 -82 -83l-80 -86q-56 -61 -77 -82q38 -38 88 -93q30 -33 92 -99q42 -44 94 -95q45 -44 89 -77h35q16 0 28 -7 q11 -6 17 -14q0 -6 -5 -14q10 -1 15 -17q0 -20 -15 -38t-51 -19h-280q-54 1 -70 33q0 36 31 56t121 20q-41 44 -136 143l-131 139q-77 -84 -134 -141t-134 -141h66q94 0 94 -70q0 -24 -25 -32q-22 -7 -67 -7h-283q-13 13 -21 17q-4 2 -16 11q-4 3 -10 13q-4 7 -4 25z" />
<glyph unicode="y" d="M80 850q0 35 23 45t63 10h254q36 -1 52 -17t20 -32q0 -37 -23 -49t-55 -12h-78q23 -47 74 -156t78 -165q100 -208 149 -310q138 306 142 315q63 142 145 316h-86q-72 0 -80 45q0 30 16 45q15 14 57 20h244q70 -5 70 -45q0 -36 -23 -51q-21 -14 -73 -14q-28 -44 -53 -99 q-9 -20 -29 -65t-29 -64q-75 -163 -168 -361q-50 -106 -164 -345q-1 0 -24 -38q-21 -35 -61 -83q-39 -46 -87 -83q-50 -38 -106 -38q-38 0 -71 4q-39 5 -71 12q-27 6 -55 21q-22 12 -22 27q0 28 23 52q24 25 44 25q46 0 89 -15q40 -14 73 -19v-2q50 16 83 50q35 35 59 76 q23 40 46 90q21 46 43 89q-120 248 -180 373q-80 166 -182 374q-23 0 -37 2h-12q-18 18 -31 22q-6 2 -25 10q-10 4 -16 12t-6 28z" />
<glyph unicode="z" d="M199 84q17 40 48 74q32 35 85 88q132 136 257 269q53 56 263 280h-406q-39 0 -56 -1q-26 -2 -50 -6q-5 -38 -7 -74l-3 -54q-1 -15 -11 -35q-8 -15 -28 -21q-39 0 -54 21q-16 22 -16 73v4v104q0 40 12 62q13 24 41 31q30 8 88 8q30 0 44 -1t43 -1h522q49 -24 49 -84 q-7 -24 -39 -61q-146 -165 -300 -323q-210 -216 -316 -328h387h83q47 0 83 4q7 50 8 80q1 28 5 58q3 23 12 37q8 12 28 17q40 0 54 -20q15 -21 15 -72v-16q-4 -60 -6 -111q-2 -52 -12 -80q-15 -3 -47 -5q-16 -1 -55 -1h-646q-33 4 -54 29q-21 24 -21 55z" />
<glyph unicode="{" horiz-adv-x="1228" d="M303 492q0 28 18 45q17 16 44 16q23 0 60 8q29 6 62 27q29 19 50 48q20 29 20 73v301q0 114 60 180q59 65 180 65q26 0 43 -16q18 -17 18 -43q0 -25 -17 -42t-46 -17q-13 0 -37 -7q-21 -6 -38 -20q-18 -15 -30 -39t-12 -61v-301q0 -91 -42 -141t-89 -74q21 -11 46 -30 t42 -44q20 -30 31 -63q12 -36 12 -83v-303q0 -37 12 -61q12 -25 30 -38t38 -19q24 -7 39 -7q27 0 44 -17t17 -42q0 -27 -17 -43t-44 -16q-120 0 -180 66t-60 177v303q0 45 -20 74q-21 30 -50 50q-31 21 -62 28q-37 8 -60 8q-62 0 -62 58z" />
<glyph unicode="|" horiz-adv-x="1228" d="M555 -199v1381q0 73 59 73q60 0 60 -73v-1381q0 -73 -60 -73q-59 0 -59 73z" />
<glyph unicode="}" horiz-adv-x="1228" d="M371 -213q0 25 17 42t44 17q14 0 39 7q20 6 38 19t30 38q12 24 12 61v303q0 97 41 147q42 51 90 73q-47 24 -89 74t-42 141v301q0 37 -12 61t-30 39q-17 14 -38 20q-25 7 -37 7q-29 0 -46 17t-17 42q0 26 18 43q17 16 43 16q120 0 179 -65q61 -67 61 -180v-301 q0 -44 20 -73q21 -31 49 -48q32 -20 63 -27q37 -8 60 -8q27 0 44 -16q18 -17 18 -45q0 -58 -62 -58q-23 0 -60 -8q-32 -7 -63 -28q-27 -18 -49 -50q-20 -29 -20 -74v-303q0 -110 -61 -177q-60 -66 -179 -66q-27 0 -44 16t-17 43z" />
<glyph unicode="~" horiz-adv-x="1228" d="M170 510q0 12 20 46t56 75q34 39 84 69q51 31 104 31q66 0 125 -40q60 -41 111 -81q7 -5 31 -23.5t36 -27.5q29 -22 54 -22q43 0 74 32q35 37 59 66q27 29 38 42q14 17 37 17q25 0 42 -17q18 -18 18 -40q0 -15 -24 -53q-23 -36 -61 -74q-36 -36 -85 -66q-46 -28 -92 -28 q-63 0 -118 35q-56 36 -101 75q-40 34 -74 59t-70 25q-45 0 -72 -28q-19 -20 -49 -60q-16 -25 -38 -49q-19 -20 -48 -20q-23 0 -40 17t-17 40z" />
<glyph unicode="&#xa1;" horiz-adv-x="1228" d="M473 856q0 51 38 86t91 35h27q52 0 90 -35q37 -34 37 -86t-37 -86q-38 -35 -90 -35h-27q-53 0 -91 35t-38 86zM516 -252q0 6 1 11t1 16l37 667q6 76 61 76q54 0 60 -76q11 -165 18 -333q5 -124 19 -334v2q2 -14 2 -20v-15q0 -41 -29 -70q-28 -28 -72 -28q-41 0 -69 28 q-29 29 -29 76z" />
<glyph unicode="&#xa2;" horiz-adv-x="1228" d="M213 637q0 33 11 83q13 57 47 114t104 113q68 55 180 83v205q0 74 61 74q60 0 60 -74v-199q56 -5 101 -20q48 -16 87 -41q16 22 47 22q62 0 62 -69v-125q0 -76 -60 -76q-51 0 -59 64q-7 59 -67 94q-59 35 -150 35q-65 0 -122 -21q-55 -20 -96 -58q-41 -37 -63 -90 q-22 -51 -22 -114t22 -113q22 -49 62 -88q38 -37 93 -58q57 -22 118 -22q97 0 147 24q51 25 78 46h-2q18 15 36 24t34 9q24 0 41 -17q16 -16 16 -43q0 -22 -28 -48q-26 -25 -70 -49q-41 -23 -98 -40q-49 -15 -107 -20v-213q0 -74 -60 -74q-61 0 -61 74v215q-71 12 -136 47 q-62 34 -109 87q-44 50 -71 119q-26 67 -26 140z" />
<glyph unicode="&#xa3;" horiz-adv-x="1228" d="M111 602q0 59 73 59h166q-29 93 -38 141t-9 89q0 62 25 121q24 56 65 99q42 44 97 67q57 24 120 24q66 0 116 -23q49 -22 89 -56q34 -29 57 -63q21 -32 21 -46q0 -21 -20 -39q-21 -19 -39 -19q-16 0 -32 13q-17 13 -30 28q-26 30 -61 56q-37 28 -99 28q-36 0 -71 -15 q-36 -16 -61 -42q-28 -29 -41 -60q-15 -34 -15 -73q0 -11 2 -31q0 -1 7 -38q2 -12 16 -61q4 -13 12.5 -46.5t13.5 -53.5h189q73 0 73 -61q0 -59 -73 -59h-162q6 -53 6 -99q0 -96 -27 -183q-29 -92 -71 -157h479q34 0 49 26q16 28 23 52q7 28 21 51t42 23q27 0 43 -17t16 -47 q0 -42 -15 -80t-41 -67q-25 -29 -60 -45q-33 -16 -74 -16h-662q-73 0 -73 61q0 25 16 41t47 16q32 1 63 32q29 29 52 78q21 46 37 111q14 59 14 130q0 30 -1 46q-2 29 -5 44h-197q-73 0 -73 61z" />
<glyph unicode="&#xa4;" horiz-adv-x="1228" d="M193 236q0 25 28 53l105 104q-68 95 -68 205q0 58 16 110q15 50 48 99q-8 9 -51 52l-50 50v-2q-15 15 -22 27q-6 10 -6 27q0 24 17 41q18 18 42 18q16 0 25 -6t26 -23l102 -100q93 65 209 65q61 0 112 -17q53 -18 97 -48l101 100q19 19 27 23q12 6 26 6q24 0 42 -18 q17 -17 17 -44q0 -16 -4 -23q-6 -10 -22 -26l-103 -104q66 -100 66 -205q0 -114 -66 -209q16 -18 50 -52l51 -50q26 -26 26 -53q0 -25 -17 -42q-18 -18 -42 -18q-26 0 -53 29h2l-105 104q-46 -34 -97 -51q-48 -16 -108 -16q-58 0 -108 17q-56 19 -98 50l-105 -106 q-14 -14 -23 -19q-14 -8 -26 -8q-26 0 -44 18q-17 17 -17 42zM379 600q0 -48 18 -92q17 -41 52 -76q34 -34 74 -51q44 -19 91 -19q45 0 91 19q41 17 74 50q31 31 51 75q20 45 20 90q0 47 -19 93q-18 43 -50 77t-74 51q-46 19 -93 19t-91 -19q-40 -17 -74 -51 q-35 -35 -52 -75q-18 -42 -18 -91z" />
<glyph unicode="&#xa5;" horiz-adv-x="1228" d="M86 1112q0 59 74 59h225q74 0 74 -59q0 -61 -74 -61h-45q37 -55 137 -207q8 -12 58.5 -89.5t78.5 -119.5q12 19 35.5 54t35.5 52q13 19 35.5 53.5t31.5 48.5q10 15 32 49t34 52q11 17 34.5 52.5t36.5 54.5h-45q-74 0 -74 61q0 59 74 59h225q74 0 74 -59q0 -61 -74 -61 h-39q-105 -163 -154 -235q-7 -10 -157 -234h207q34 0 48 -14q13 -13 13 -42q0 -33 -13 -45q-14 -12 -48 -12h-250v-86h250q61 0 61 -55q0 -34 -14 -45q-16 -13 -47 -13h-250v-168h158q73 0 73 -59q0 -61 -73 -61h-437q-73 0 -73 61q0 59 73 59h158v168h-248q-33 0 -49 13 q-14 11 -14 45q0 29 14 42t49 13h248v86h-248q-34 0 -49 12q-14 11 -14 45q0 29 13 42q14 14 50 14h203q-78 118 -156 234q-12 19 -155 235h-39q-74 0 -74 61z" />
<glyph unicode="&#xa6;" horiz-adv-x="1228" d="M555 -199v547q0 74 59 74q60 0 60 -74v-547q0 -73 -60 -73q-59 0 -59 73zM555 635v547q0 73 59 73q60 0 60 -73v-547q0 -74 -60 -74q-59 0 -59 74z" />
<glyph unicode="&#xa7;" horiz-adv-x="1228" d="M117 733q0 72 53 122t145 65q-11 18 -12 35q-2 24 -2 42q0 51 23 99t60 82q36 33 89 55q49 20 109 20h452v-241q0 -68 -59 -68q-62 0 -62 68v123h-325q-68 0 -118 -41t-50 -97q0 -25 13 -48q14 -25 46 -51q33 -27 90 -63q46 -29 146 -85l114 -64q135 -78 209 -155 t74 -152q0 -74 -51 -122q-50 -47 -148 -64q17 -36 17 -87t-23 -99q-22 -46 -61 -80q-37 -32 -92 -53q-51 -19 -115 -19h-442v245q0 68 61 68q59 0 59 -68v-127h320q73 0 123 39q49 39 49 97q0 48 -58 100q-61 54 -200 133l-133 74q-147 86 -224 164q-77 79 -77 153zM242 731 q0 -81 245 -217q44 -24 64 -36q33 -20 63 -36q81 -47 127 -76q48 -30 80 -61q9 4 21 4q11 0 24 4q20 2 40 6q23 5 40 12q21 9 30 18q11 11 11 28q0 42 -56 95q-59 56 -153 106l-131 73q-96 52 -148 85q-54 34 -93 69h-31q-57 0 -95 -21t-38 -53zM809 301l22 -4q-2 1 -5 4 q-4 3 -5 4q-5 0 -12 -4z" />
<glyph unicode="&#xa8;" horiz-adv-x="1228" d="M268 1149q0 49 36 85t85 36q51 0 86 -36q35 -37 35 -87q0 -47 -36 -83t-85 -36t-85 36t-36 85zM721 1149q0 49 36 85t85 36q52 0 86 -36q35 -37 35 -87q0 -47 -36 -83t-85 -36t-85 36t-36 85z" />
<glyph unicode="&#xa9;" horiz-adv-x="1228" d="M-12 578q0 129 49 242q50 115 134 199q83 83 200 134q113 49 243 49t243 -49q115 -50 199 -134t134 -199q49 -113 49 -242q0 -133 -49 -246q-51 -117 -134 -199q-85 -83 -201 -133q-114 -49 -249 -49q-125 0 -239 50q-113 50 -197 135q-83 85 -133 199q-49 113 -49 243z M109 578q0 -108 39 -196q41 -92 108 -161q66 -68 158 -109q89 -40 192 -40q106 0 201 39t163 107q66 66 108 161q40 90 40 199q0 105 -40 195q-41 93 -108 160t-160 108q-90 40 -196 40t-196 -40q-94 -42 -161 -107q-67 -66 -109 -160q-39 -88 -39 -196zM295 532v93 q0 68 23 123q24 56 66 100q42 43 97 67q58 25 117 25q46 0 84 -9q36 -9 84 -38q12 33 51 33q25 0 40 -17q15 -16 15 -43v-133q0 -27 -15 -43t-40 -16q-45 0 -55 55q-5 41 -51 71q-45 29 -111 29q-81 0 -138 -61q-56 -60 -56 -150v-79q0 -46 16 -85q16 -40 46 -70 q28 -28 69 -47q39 -18 81 -18q65 0 99 26q31 24 55 48q16 16 31 28q14 11 33 11q22 0 37 -15q16 -16 16 -38q0 -12 -20 -41t-55 -57q-41 -32 -85 -51q-49 -21 -111 -21q-64 0 -123 27q-61 28 -103 70t-70 103q-27 59 -27 123z" />
<glyph unicode="&#xaa;" horiz-adv-x="1228" d="M297 428q0 59 74 59h489q74 0 74 -59q0 -61 -74 -61h-489q-74 0 -74 61zM299 733q0 97 82 157q83 60 209 60q34 0 64 -3q29 -3 67 -9v66q0 34 -31 56q-30 21 -84 21q-39 0 -71 -11q-11 -4 -32.5 -10.5t-31.5 -10.5q-27 -10 -31 -11q-13 -4 -18 -4q-23 0 -38 18t-15 40 q0 27 32 46q31 18 74 31q47 14 81 19q41 6 54 6q97 0 161 -53q63 -54 63 -137v-332h34q66 0 66 -58q0 -25 -19 -41q-17 -14 -47 -14h-147v41q-50 -26 -100 -37q-44 -10 -101 -10q-98 0 -160 50q-61 49 -61 130zM412 729q0 -29 29 -46q28 -17 79 -17q103 0 201 61v98 q-29 9 -62 13t-65 4q-79 0 -131 -32q-51 -32 -51 -81z" />
<glyph unicode="&#xab;" horiz-adv-x="1228" d="M102 428l441 418v-2q28 28 55 28q25 0 42 -17t17 -42q0 -17 -6 -27q-6 -11 -20 -26q-19 -23 -68 -79t-74 -86q-32 -38 -141 -167q55 -64 141 -167q46 -55 142 -167q17 -18 21 -27q5 -10 5 -26q0 -25 -17 -42t-42 -17q-26 0 -55 26zM571 428l441 418v-2q28 28 55 28 q25 0 42 -17t17 -42q0 -17 -6 -27q-6 -11 -20 -26q-19 -23 -68 -79t-74 -86q-32 -38 -141 -167q55 -64 141 -167q46 -55 142 -167q16 -18 21 -27q5 -10 5 -26q0 -25 -17 -42t-42 -17q-26 0 -55 26z" />
<glyph unicode="&#xac;" horiz-adv-x="1228" d="M129 856q0 59 74 59h897v-516q0 -73 -62 -73q-59 0 -59 73v396h-776q-74 0 -74 61z" />
<glyph unicode="&#xad;" horiz-adv-x="1228" d="M129 571q0 60 74 60h823q74 0 74 -60q0 -61 -74 -61h-823q-74 0 -74 61z" />
<glyph unicode="&#xae;" horiz-adv-x="1228" d="M-12 578q0 129 49 242q50 115 134 199q83 83 200 134q113 49 243 49t243 -49q115 -50 199 -134t134 -199q49 -113 49 -242q0 -133 -49 -246q-51 -117 -134 -199q-85 -83 -201 -133q-114 -49 -249 -49q-125 0 -239 50q-113 50 -197 135q-83 85 -133 199q-49 113 -49 243z M109 578q0 -108 39 -196q41 -92 108 -161q66 -68 158 -109q89 -40 192 -40q106 0 201 39t163 107q66 66 108 161q40 90 40 199q0 105 -40 195q-41 93 -108 160t-160 108q-90 40 -196 40t-196 -40q-94 -42 -161 -107q-67 -66 -109 -160q-39 -88 -39 -196zM293 283q0 25 16 40 q17 15 45 15h31v477h-31q-61 0 -61 55q0 25 16 40q18 16 45 16h283q101 0 168 -59q65 -58 65 -150q0 -62 -32 -104q-34 -44 -90 -68q18 -17 33 -33q19 -21 31 -39q22 -33 35 -55q7 -12 22.5 -39t23.5 -41h20q26 0 43 -15t17 -40q0 -26 -17 -41t-43 -15h-92q-58 122 -113 190 q-58 72 -108 93h-104v-172h55q27 0 43 -15t16 -40q0 -26 -16 -41t-43 -15h-197q-61 0 -61 56zM496 621h96q80 0 123 26q45 27 45 74q0 40 -35 67t-90 27h-139v-194z" />
<glyph unicode="&#xaf;" horiz-adv-x="1228" d="M299 1139q0 59 74 59h483q74 0 74 -59q0 -60 -74 -60h-483q-74 0 -74 60z" />
<glyph unicode="&#xb0;" horiz-adv-x="1228" d="M299 1010q0 60 25 119q24 57 67 100q42 42 101 67t122 25q64 0 123 -25t101 -67t67 -101t25 -122q0 -64 -25 -123t-67 -101t-101 -67t-123 -25q-63 0 -122 25t-101 67q-43 43 -67 102q-25 61 -25 126zM420 1008q0 -84 56 -140q57 -57 138 -57q39 0 75 15t63 42t42 62 q15 34 15 76q0 38 -15 74t-42 63t-63 42t-75 15q-40 0 -75 -15t-62 -42t-42 -62t-15 -73z" />
<glyph unicode="&#xb1;" horiz-adv-x="1228" d="M129 41q0 59 74 59h823q74 0 74 -59t-74 -59h-823q-74 0 -74 59zM129 657q0 60 74 60h350v311q0 74 61 74q60 0 60 -74v-311h350q76 0 76 -60q0 -59 -76 -59h-350v-313q0 -74 -60 -74q-61 0 -61 74v313h-350q-74 0 -74 59z" />
<glyph unicode="&#xb2;" horiz-adv-x="1228" d="M340 758v114l276 259v-3q73 72 95 104q22 31 22 60q0 46 -39 81q-38 34 -90 34q-46 0 -84 -27q-37 -27 -49 -67v2q-12 -47 -55 -47q-23 0 -38 15q-16 16 -16 38q0 23 18 58q19 36 49 65q33 32 77 52q47 22 98 22q46 0 92 -19q41 -17 76 -49q31 -28 52 -72q20 -42 20 -86 q0 -35 -8 -64q-8 -28 -42 -71q-31 -39 -104 -109q-105 -100 -192 -180q55 1 118 3q16 0 57.5 1.5t65.5 2.5q4 16 19 28t35 12q25 0 40 -16q15 -17 15 -43v-98h-508z" />
<glyph unicode="&#xb3;" horiz-adv-x="1228" d="M352 868q0 22 16 38t38 16q8 0 22 -7q18 -9 29 -16q21 -14 55 -31q32 -16 92 -16q63 0 110 38q46 37 46 89q0 54 -49 91q-51 39 -123 40q-60 4 -60 55q0 35 21 45q22 11 74 11q49 0 80 25q32 26 32 65q0 41 -34 68q-36 28 -87 28q-60 0 -85 -16q-25 -17 -42 -33 q-15 -15 -22 -20q-10 -7 -25 -7q-21 0 -39 16q-16 15 -16 37t22 47q21 24 55 43t74 31q44 13 78 13q49 0 92 -17q40 -16 73 -44q30 -26 49 -65q18 -38 18 -81q0 -47 -18 -81q-19 -36 -62 -69q56 -38 80 -81q24 -44 24 -101q0 -48 -21 -92q-21 -43 -57 -76t-84 -51 q-51 -19 -104 -19q-37 0 -86 13q-44 12 -82 30q-33 16 -60 41q-24 23 -24 43z" />
<glyph unicode="&#xb4;" horiz-adv-x="1228" d="M555 1047q0 16 6 25t25 28l233 205q18 13 27 17q12 5 24 5q25 0 42 -17q18 -18 18 -44q0 -17 -7 -27q-7 -11 -24 -27l-233 -204q-22 -16 -27 -18q-12 -5 -25 -5q-25 0 -42 17t-17 45z" />
<glyph unicode="&#xb5;" horiz-adv-x="1228" d="M70 813q0 59 73 59h213v-636q0 -76 46 -122t122 -46q198 0 357 176v510h-133q-76 0 -76 59t76 59h253v-772h52q73 0 73 -59t-73 -59h-172v96q-77 -65 -167 -97t-186 -32q-57 0 -96 9q-38 9 -76 36v-348q0 -74 -61 -74q-59 0 -59 74v1108h-93q-73 0 -73 59z" />
<glyph unicode="&#xb6;" horiz-adv-x="1228" d="M143 831v97q0 75 34 134q35 60 95 103q60 42 148 67q82 23 190 23h410q35 0 52 -16q18 -17 18 -43q0 -61 -70 -61h-107v-1160h109q72 0 72 -59q0 -61 -72 -61h-201q-31 0 -50 16t-19 45q0 45 43 57v1162h-111v-1162q43 -12 43 -57q0 -61 -70 -61h-274q-72 0 -72 61 q0 59 72 59h180v539q-90 7 -172 34q-78 26 -133 67q-54 41 -85 97q-30 54 -30 119zM324 848q0 -71 66 -128q65 -56 173 -71v473q-110 -15 -173 -70q-66 -57 -66 -128v-76z" />
<glyph unicode="&#xb7;" horiz-adv-x="1228" d="M494 471q0 50 35 85q36 36 85 36q52 0 86 -36q35 -37 35 -87q0 -47 -36 -83t-85 -36t-85 36q-35 35 -35 85z" />
<glyph unicode="&#xb8;" horiz-adv-x="1228" d="M412 -272q0 25 17 41t42 16q17 0 45 -16q20 -13 40 -19q26 -8 50 -8q34 0 52 11q20 12 20 30q0 33 -76 33h-59v202h114v-96q134 -12 134 -143q0 -67 -51 -110q-50 -42 -130 -42q-26 0 -58 7q-33 7 -65 20q-28 11 -53 31q-22 18 -22 43z" />
<glyph unicode="&#xb9;" horiz-adv-x="1228" d="M373 805q0 57 82 57q22 0 42 1q19 1 64 -1v502q-19 -7 -55 -17q-24 -7 -53 -18q-3 0 -4 -1t-7 -1h4q-6 -2 -9 -2h-9q-19 0 -36 16t-17 39q0 15 5 28q4 11 33 24q20 9 88 31q130 42 171 55v-658h127q27 0 43 -15t16 -40q0 -26 -16 -41q-15 -14 -43 -14h-365q-61 0 -61 55z " />
<glyph unicode="&#xba;" horiz-adv-x="1228" d="M297 428q0 59 74 59h489q74 0 74 -59q0 -61 -74 -61h-489q-74 0 -74 61zM297 883q0 65 26 123t68 100q43 44 102 69q57 25 123 25q68 0 126 -24q56 -23 102 -69q43 -43 67 -102q25 -61 25 -126t-26 -123q-27 -60 -68 -101q-43 -43 -102 -67q-61 -25 -124 -25t-123 26 t-102 68t-68 102t-26 124zM410 883q0 -45 16 -81q18 -40 45 -66q29 -28 66 -44q36 -16 79 -16q44 0 80 16q37 16 66 44q28 27 45 65q16 36 16 78q0 89 -59 148q-60 60 -148 60q-44 0 -80 -16q-39 -17 -66 -44q-28 -28 -44 -64t-16 -80z" />
<glyph unicode="&#xbb;" horiz-adv-x="1228" d="M111 41q0 16 5 26q4 9 21 27q72 84 141 165q26 31 74.5 88.5t65.5 78.5q-14 16 -140 167q-86 103 -141 167q-14 15 -20 26q-6 10 -6 27q0 25 17 42t42 17q26 0 55 -26l439 -420l-439 -418v2q-28 -28 -55 -28q-25 0 -42 17t-17 42zM582 41q0 16 5 26q5 9 21 27 q72 84 141 165q26 31 74.5 88.5t65.5 78.5q-14 16 -140 167q-86 103 -141 167q-14 15 -20 26q-6 10 -6 27q0 25 17 42t42 17q26 0 55 -26l439 -420l-439 -418v2q-28 -28 -55 -28q-25 0 -42 17t-17 42z" />
<glyph unicode="&#xbc;" horiz-adv-x="1228" d="M14 567q0 58 82 58q22 0 42 1t65 -1v501q-16 -6 -56 -17q-32 -9 -53 -17q-3 0 -4 -1t-6 -1h4q-1 0 -3 -1q-4 -2 -6 -2h-9q-17 0 -36 17q-18 16 -18 39q0 11 6 27q4 12 32 24q28 13 88 32q60 20 171 54v-657h127q27 0 45 -16q17 -15 17 -40q0 -26 -18 -41q-17 -14 -44 -14 h-364q-62 0 -62 55zM193 145q0 11 6 23q8 16 16 25q190 228 358 423q173 201 359 424q20 21 25 25q9 6 26 6q25 0 42 -17t17 -42q0 -24 -20 -47l-719 -848q-28 -31 -51 -31q-25 0 -42 17t-17 42zM721 172v94l268 459h148v-442h8q27 0 45 -16q16 -15 16 -40q0 -55 -69 -55 v-80h8q29 0 45 -15t16 -40q0 -55 -61 -55h-174q-62 0 -62 55q0 39 25 47q26 8 88 8h4v80h-305zM854 283h172l-4 278q-61 -101 -83 -136q-38 -60 -85 -142z" />
<glyph unicode="&#xbd;" horiz-adv-x="1228" d="M29 567q0 58 82 58q22 0 42 1q19 1 64 -1v501q-19 -7 -55 -17q-32 -9 -53 -17q-4 0 -5 -1t-6 -1h4l-9 -3h-9q-17 0 -36 17q-17 16 -17 39q0 14 5 27q4 11 33 24q28 13 88 32q60 20 171 54v-657h127q25 0 43 -16q16 -15 16 -40q0 -26 -16 -41q-15 -14 -43 -14h-365 q-61 0 -61 55zM178 145q0 11 6 23q6 13 17 25q190 228 358 423q173 201 359 424q20 21 25 25q9 6 26 6q25 0 42 -17t17 -42q0 -24 -20 -47l-719 -848q-28 -31 -51 -31q-25 0 -42 17q-18 18 -18 42zM684 -18v114l277 258v-2q69 69 94 104q22 31 22 60q0 46 -39 81 q-38 34 -90 34q-46 0 -84 -27q-37 -27 -49 -67v2q-12 -47 -55 -47q-23 0 -38 15t-15 38q0 25 17 58q19 36 49 65q33 32 77 52q45 21 98 21q49 0 92 -18q41 -17 76 -49q31 -28 52 -72q20 -42 20 -86q0 -35 -8 -64q-8 -28 -42 -71q-35 -44 -104 -110q-81 -77 -192 -179 q68 2 119 3q63 2 122 3q5 18 19 29q15 12 35 12q25 0 40 -16q15 -17 15 -43v-98h-508z" />
<glyph unicode="&#xbe;" horiz-adv-x="1228" d="M-6 623q0 22 15 37q16 16 38 16q11 0 23 -6q6 -3 28 -17q12 -8 56 -30q34 -17 92 -17q62 0 109 38q46 37 46 89q0 54 -49 91q-51 39 -123 40q-59 4 -59 56q0 35 20 45t74 10q50 0 81 25q32 26 32 65q0 42 -34 69q-35 27 -87 27q-60 0 -85 -16q-25 -17 -42 -33 q-9 -9 -23 -19q-11 -8 -24 -8q-21 0 -39 16q-16 15 -16 38q0 22 21 46t55 43q37 21 74 32q40 12 79 12q48 0 91 -17q42 -16 74 -44q30 -26 49 -65q17 -35 17 -81q0 -48 -17 -81q-19 -36 -62 -69q56 -38 79 -80q25 -45 25 -102q0 -46 -22 -92q-21 -43 -57 -76t-84 -51 t-103 -18q-41 0 -86 12q-39 10 -82 31q-35 17 -61 41q-23 22 -23 43zM190 145q0 23 23 48q190 228 358 423q173 201 359 424q20 21 25 25q9 6 26 6q25 0 42 -17t17 -42q0 -24 -20 -47l-719 -848q-28 -31 -51 -31q-25 0 -42 17q-18 18 -18 42zM721 172v94l268 459h148v-442h8 q27 0 45 -16q16 -15 16 -40q0 -55 -69 -55v-80h8q29 0 45 -15t16 -40q0 -55 -61 -55h-174q-62 0 -62 55q0 39 25 47q26 8 88 8h4v80h-305zM854 283h172l-4 278q-61 -101 -83 -136q-38 -60 -85 -142z" />
<glyph unicode="&#xbf;" horiz-adv-x="1228" d="M213 -43q0 61 16 109t57 92q42 45 104 84q70 44 161 88v71q0 74 59 74q62 0 62 -74v-151q-180 -74 -259 -142q-79 -69 -79 -151q0 -94 76 -154q75 -59 196 -59q66 0 119 13q54 13 127 48v74q0 74 59 74q62 0 62 -74v-137l-10 -16q-80 -39 -135 -59q-66 -24 -101 -31 q-47 -10 -75 -11q-42 -2 -56 -2q-84 0 -156 25q-70 24 -121 68q-50 43 -78 106q-28 64 -28 135zM451 752q0 53 37 87q36 33 98 33h55q61 0 97 -33q38 -35 38 -87t-38 -87q-37 -34 -97 -34h-55q-61 0 -98 34t-37 87z" />
<glyph unicode="&#xc0;" horiz-adv-x="1228" d="M0 43q0 59 74 59h51q137 369 177 475q86 228 177 474h-221q-74 0 -74 61q0 59 74 59h430l404 -1069h63q74 0 74 -59q0 -61 -74 -61h-319q-74 0 -74 61q0 59 74 59h131q-50 129 -52 133q-24 63 -51 132h-520q-9 -25 -25.5 -69t-23.5 -63t-23.5 -63.5t-25.5 -69.5h137 q74 0 74 -59q0 -61 -74 -61h-309q-74 0 -74 61zM326 1546q0 25 17 42q18 18 42 18q11 0 23 -7q8 -5 26 -16l236 -205q6 -6 13.5 -14t9.5 -10q7 -7 7 -29q0 -27 -17 -44t-44 -17q-23 0 -49 22l-234 205q-13 13 -23 27q-7 10 -7 28zM391 487h430l-217 564h-8 q-58 -163 -101 -282q-49 -137 -104 -282z" />
<glyph unicode="&#xc1;" d="M35 59q0 47 53 47h47l24 51q10 21 23 62q45 126 78 225q13 39 83 244q15 43 42.5 124t40.5 118q43 126 78 221h-74q-53 0 -65 41q0 28 19 40q18 11 60 11h136q45 0 67 -7q25 -8 38 -22q15 -17 20 -33q8 -25 16 -44q24 -68 164 -455q106 -295 178 -498l12 -49 q4 -16 33 -22q41 -11 69 -23q27 -12 27 -41q0 -31 -22 -40t-60 -9h-272q-40 0 -58 12t-18 43q0 29 17 38q16 8 43 10q18 1 58 1q31 0 62 11q-27 59 -49 130q-25 80 -47 138h-504q-9 -26 -27 -77.5t-20 -57.5q-16 -46 -45 -133q28 -11 60 -11q23 0 59 -2q27 -2 45 -12t18 -39 q-2 -16 -19 -34q-17 -17 -62 -17h-228q-49 0 -75 18q-25 18 -25 41zM391 492h430q-40 118 -108 313q-4 12 -107 297h-4q-13 -24 -20 -44q-1 -4 -7.5 -20.5t-9.5 -25.5q-12 -34 -41 -122t-45 -135q-15 -42 -88 -263zM459 1415q34 34 72 66q50 42 101 83q47 37 100 74 q44 30 73 43q13 0 24 -11q16 -16 24 -26q11 -13 19 -30q5 -11 13 -21q-3 -5 -13 -15q-1 -1 -16 -13q-11 -7 -37 -24.5t-41 -27.5q-58 -38 -89 -57q-47 -28 -90 -54q-40 -23 -83 -40q-55 0 -57 53z" />
<glyph unicode="&#xc2;" d="M35 63q0 27 15 36q17 10 40 10h45q14 21 22 47q12 39 21 61q38 107 79 225q56 162 84 244q10 28 26.5 77.5t30.5 90t26 75.5q40 120 78 222h-92q-22 6 -34 11q-18 8 -18 28q0 31 23 43t65 12h39q22 0 32 -1t30 -1h71q31 -5 47 -13q15 -8 29 -28q13 -20 22 -46l21 -64 q77 -207 158 -435q117 -330 166 -473q4 -12 10 -32q6 -21 8 -25q29 -22 56 -27q7 -1 14.5 -2.5t15.5 -2.5t12 -2q17 -3 26 -12t9 -42q-6 -27 -30 -33t-72 -6h-262q-76 0 -76 57q0 27 17 36q17 8 45 10q18 1 58 1q30 0 60 11l-48 135q-16 45 -46 135h-506l-14 -42t-17 -50 t-15 -43q-12 -35 -44 -135q26 -8 64 -8h24q43 -1 71 -12q23 -9 23 -44q0 -36 -40 -43q-43 -8 -93 -8h-184q-27 0 -36 1q-12 1 -23 9q0 13 2 19q-35 6 -35 34zM281 1389q11 23 50 66q37 42 84 84t93 78q40 31 78 50q7 -4 16 -6q8 -2 14 -6q8 2 13 2q4 0 10 2q26 -18 66 -49 q30 -24 88 -76q45 -40 84 -81q40 -41 51 -64q-6 -15 -18 -27q-13 -13 -27 -14q-9 2 -17 8q-4 0 -4 -1t-2 -1h-6q-30 17 -58 38q-8 6 -30.5 23t-34.5 26l-65 51q-38 29 -60 44q-52 -35 -83 -59q-14 -11 -79 -63q-41 -33 -66 -49q-29 -19 -44 -19q-41 12 -53 43zM391 492h430 q-63 185 -109 313q-19 52 -55 152t-53 147h-4q-61 -139 -108 -298q-31 -104 -101 -314z" />
<glyph unicode="&#xc3;" d="M35 64q0 43 55 43h45q34 83 82 219q34 98 94 272q16 48 50 144t50 144q45 131 93 265h-92q-24 6 -36 11q-18 8 -18 28q0 29 22 42q19 11 66 11h39h97q42 0 63 -6t33 -18q11 -11 19 -32q9 -23 22 -48q68 -181 166 -457q127 -359 178 -500l6 -16q10 -40 33 -52 q22 -12 45 -15q24 -3 40 -10q17 -7 17 -40q0 -35 -25 -42q-24 -7 -67 -7h-262q-78 0 -78 55q0 26 18 37q16 9 44 11q18 1 58 1q31 0 62 11q-3 9 -21.5 58t-27.5 76q-6 17 -22.5 63t-24.5 71h-504q-8 -25 -24.5 -71t-22.5 -63q-28 -80 -45 -134q13 -5 30 -7q10 -1 34 -1h24 q48 -4 72 -14q22 -9 22 -42q0 -27 -30 -39t-103 -12h-186q-27 0 -36 1q-12 1 -23 9q0 15 4 19q-35 6 -35 35zM270 1417q0 33 20 64q21 32 48 55q31 26 65 41q36 16 72 16h2q35 -7 50 -11q7 -2 27.5 -7.5t33.5 -9.5q46 -18 84 -38q45 -24 80 -24q8 0 10 8q19 0 40 13 q18 11 37 27q6 5 30 29q12 12 26 17q15 0 33 -8q15 -7 20 -24q0 -32 -19 -63q-20 -32 -50 -56q-32 -26 -68 -40q-37 -15 -74 -15q-31 0 -63 14q-57 25 -70 31l-70 30q-36 15 -69 15q-23 0 -44 -13q-22 -13 -36 -29q-17 -18 -30 -33q-16 -17 -25 -22q-19 0 -36 10 q-18 11 -24 23zM391 492h430q-40 118 -108 313q-4 12 -107 297h-4q-13 -24 -20 -44q-1 -4 -7.5 -20.5t-9.5 -25.5q-12 -34 -41 -122t-45 -135q-15 -42 -88 -263z" />
<glyph unicode="&#xc4;" d="M35 61q0 28 14 36q17 10 39 10h47q39 93 87 227q41 116 94 274q1 3 97 285q53 157 91 258h-74q-27 0 -40 10t-25 31q0 31 19 41t60 10h60q67 0 110 -5q39 -4 59 -17q19 -12 27 -33l21 -51q12 -33 71 -197.5t92 -257.5q62 -172 177 -498l6 -18q9 -27 11 -35q3 -12 30 -18 q44 -12 67 -22q27 -12 27 -40q0 -23 -20 -37t-66 -14h-266q-78 0 -78 55q0 26 18 37q16 9 44 11q18 1 58 1q31 0 62 11q-23 55 -50 134q-16 46 -46 136h-504q-9 -26 -27 -77.5t-20 -57.5q-24 -69 -45 -135q41 -11 74 -11q37 0 61 -4q28 -5 42 -16q16 -13 16 -45 q-6 -27 -27 -33t-65 -6h-236q-27 0 -37 1q-13 1 -24 9q0 12 4 19q-19 5 -26 10q-9 6 -9 22zM281 1495q11 45 37 74q27 30 69 30q42 -5 70 -31q29 -27 35 -67v-6q0 -47 -29 -79t-76 -34h-4q-42 5 -72 35t-30 78zM391 492h430q-40 118 -108 313q-4 12 -107 297h-4 q-13 -24 -20 -44q-1 -4 -7.5 -20.5t-9.5 -25.5q-12 -34 -41 -122t-45 -135q-15 -42 -88 -263zM723 1481q0 48 32 83q30 33 76 33q43 -5 70 -33q29 -30 33 -69q0 -51 -31 -82t-76 -31q-39 4 -70 32q-29 26 -34 67z" />
<glyph unicode="&#xc5;" horiz-adv-x="1228" d="M0 43q0 59 74 59h51q137 369 177 475q86 228 177 474h-221q-74 0 -74 61q0 59 74 59h430l404 -1069h63q74 0 74 -59q0 -61 -74 -61h-319q-74 0 -74 61q0 59 74 59h131q-6 15 -24.5 61.5t-27.5 70.5q-38 101 -51 133h-520q-9 -25 -25.5 -69.5t-23.5 -63.5t-23.5 -63 t-25.5 -69h137q74 0 74 -59q0 -61 -74 -61h-309q-74 0 -74 61zM391 487h430l-217 564h-8q-58 -163 -101 -282q-49 -137 -104 -282zM397 1442q0 39 17 78q16 37 45 64q29 28 66 44q39 17 81 17q89 0 149 -60t60 -147q0 -42 -16 -77q-17 -38 -45 -64q-29 -27 -67 -44 q-36 -16 -81 -16t-81 16q-37 16 -66 44q-28 27 -45 65q-17 39 -17 80zM502 1442q0 -41 30 -71t74 -30q43 0 74 29t31 70q0 39 -31 70q-30 30 -74 30q-43 0 -74 -29q-30 -29 -30 -69z" />
<glyph unicode="&#xc6;" d="M2 47q0 39 15 46q14 7 36 10q18 3 42 13q21 9 36 50q13 40 72 221t89 273q73 226 150 454h-61q-22 6 -33 11q-14 7 -14 24t9 25q10 9 34 10v10q2 15 20 23q20 8 42 11q24 3 50 3h46h499q37 0 73 -2q25 -1 42 -15q6 -12 9 -33q4 -27 5 -48q2 -36 2 -57v-54q-4 -18 -6 -44 t-9 -50t-20 -41q-12 -17 -34 -17q-23 2 -32 34q-10 34 -14 74q-1 8 -4.5 37t-4.5 43q-3 36 -11 52q-37 7 -68 8q-48 2 -77 2h-172v-426h135q14 20 22 40q3 7 8 19t7 16q7 17 13 27t24 15q53 0 59 -76v-205q-7 -27 -25 -45q-16 -16 -41 -16q-18 2 -27 19q-9 18 -9 44v52 q-15 5 -35 7q-12 1 -41 1h-90v-486h241q24 0 62 4q28 3 51 15q4 16 6 32q0 4 1.5 15t2.5 18v17q0 36 1 54q2 28 6 50q3 17 14 38q8 16 24 16q56 0 68 -54v-121v-53q0 -65 -11 -99q-12 -38 -55 -38h-149h-438q-30 5 -44 17q-16 14 -16 46q0 27 36 30q30 3 81 11v285h-277 q-27 -76 -47 -138q-33 -102 -43 -140q25 -5 44 -5q23 0 39 -4q19 -5 28 -14q10 -10 10 -33q0 -55 -74 -55h-188q-44 0 -64 9t-20 38zM348 494h244v616q-5 -2 -29 -14q-4 -2 -14.5 -8t-16.5 -9q-62 -196 -92 -293q-16 -52 -92 -292z" />
<glyph unicode="&#xc7;" horiz-adv-x="1228" d="M111 496v170q0 25 8 78q8 50 30 110q22 59 60 121q37 60 94 110t136 81q81 32 186 32q93 0 180 -31q82 -29 156 -88v19q0 73 61 73q59 0 59 -73v-230q0 -73 -61 -73q-55 0 -59 65q-4 42 -33 83q-28 40 -75 70q-45 29 -105 47q-57 17 -123 17q-83 0 -154 -34 q-74 -35 -125 -91q-55 -59 -84 -134q-31 -79 -31 -165v-145q0 -87 35 -168q34 -79 93 -139q58 -60 137 -96q76 -35 163 -35q103 0 183 41q79 40 159 137q15 17 25 21q12 5 27 5q27 0 43 -16t16 -41q0 -39 -84 -119q-47 -37 -80 -58q-44 -27 -90 -48q-41 -19 -93 -32 q-43 -11 -89 -11h-8v-27q133 -12 133 -143q0 -68 -50 -110q-49 -42 -130 -42q-27 0 -59 7q-31 7 -64 20q-30 12 -54 31q-22 18 -22 43t17 41t42 16q17 0 45 -16q20 -13 40 -19q26 -8 50 -8q35 0 53 11q19 12 19 30q0 33 -76 33h-59v145q-123 33 -205 95q-83 62 -136 138 q-54 77 -77 154q-24 80 -24 148z" />
<glyph unicode="&#xc8;" d="M80 1182q0 34 28 42q25 7 78 7h783q26 0 50 -3q26 -3 36 -7q4 -10 7 -35q2 -16 4 -51q1 -19 1 -60v-57q-1 -13 -5 -48q-3 -26 -9 -47q-6 -20 -20 -36q-13 -15 -34 -15q-23 1 -34 36q-11 34 -15 75q-1 12 -3.5 39t-4.5 40q-4 38 -12 48q-34 6 -72 9q-37 3 -82 3h-389v-424 h268q27 4 28 25t3 39v4q1 34 8 59q6 23 33 23q4 0 15 -4q12 -4 24 -15t21 -28q10 -20 10 -49v-238q-6 -40 -21 -60t-47 -20q-23 5 -32 20t-9 56v25q-1 19 -3 32t-6 19q-5 6 -17 8q-16 2 -37 2h-238v-487h424q29 0 83 2q40 1 75 6q18 60 21 107q2 24 4 84q2 40 8 58 q8 21 36 27q30 0 44 -18q14 -19 20 -49q0 -9 -1 -12t-1 -11v-2q2 -63 0 -120q-2 -76 -2 -109q0 -28 -5 -45q-4 -13 -14 -21q-7 -6 -19 -6h-26h-53h-823q-31 2 -50 15q-20 14 -20 42q2 17 16 34q15 18 52 18h104v1013h-96q-47 0 -66 16q-18 15 -18 44zM332 1628q0 24 32 36 q29 11 54 11q25 -6 74 -39q47 -31 101 -73q49 -38 100 -84q50 -45 73 -74q-7 -15 -20 -28q-12 -12 -33 -13q-23 5 -70 31q-8 4 -45 24t-58 32q-58 32 -101 60q-42 27 -77 62q-30 30 -30 55z" />
<glyph unicode="&#xc9;" d="M84 1180q0 34 27 42q25 7 77 7h543q76 0 118 1t120 1q26 0 50 -3q26 -3 36 -7q4 -9 7 -37q2 -17 4 -53q1 -19 1 -59v-56q-1 -18 -5 -49q-3 -28 -10 -46q-7 -21 -20 -35q-12 -14 -31 -14q-23 0 -35 34q-13 37 -17 76q-6 59 -8 80q-3 37 -11 48q-38 7 -72 8q-50 2 -82 2 h-389v-422h268q21 2 26 17q5 17 5 30v21v4q2 31 9 53q7 23 36 27q34 -1 47 -21t19 -55v-262q-6 -40 -20 -59t-48 -19q-23 5 -32 20t-9 54v24q-2 21 -3 33q-2 14 -7 19q-6 6 -19 8q-16 2 -34 2h-238v-485h424q56 0 83 1q51 2 75 5q6 18 9 61q3 36 11 89q7 43 25 81 q17 35 45 35q29 0 35 -23q6 -22 6 -57v-2v-120q0 -39 -2 -109q-2 -48 -17 -60t-45 -12q-16 0 -25 1t-30 1h-70h-753q-70 5 -70 55q2 17 16 34q15 18 52 18h104v1013h-96q-80 0 -80 60zM438 1401q14 25 65 70q63 56 107 89q41 31 108 78q50 35 68 41q7 -3 25 -12 q13 -6 18 -25q12 -7 17 -12q7 -7 11 -15q5 -10 5 -22q-10 -16 -52 -46q-27 -19 -95 -62q-47 -29 -110 -66q-46 -26 -95 -53q-6 2 -10 2q-5 0 -11 2h-10q-13 0 -26 8q-14 8 -15 23z" />
<glyph unicode="&#xca;" d="M78 70q6 18 23 28q19 11 55 11h104v1011h-98q-43 0 -61 15q-17 14 -17 45q0 36 29 44q27 7 73 7h764q35 0 54 -1q33 -2 45 -5q14 -23 16 -78q2 -72 2 -115v-60q0 -30 -6 -51q-6 -22 -21 -35q-16 -14 -41 -14q-23 1 -35 37q-11 32 -16 76q-3 24 -7 78q-3 36 -11 47 q-42 7 -77 8q-54 2 -87 2h-379v-422h268q29 5 29 26q0 14 2 42v2q1 32 9 56q7 23 36 28q29 -2 44 -15q15 -14 20 -49v-284q-4 -37 -20 -53q-15 -15 -42 -15t-33 13q-5 10 -10 43t-7 60q-2 24 -5 31q-4 9 -15 10q-8 1 -38 1h-238v-485h420q31 0 85 2q39 1 77 6q6 24 9 69 q2 33 8 89q5 46 16 78q12 33 36 38q35 0 48 -17q14 -19 14 -63v-45v-119q0 -52 -1 -71q-2 -30 -7 -46q-6 -18 -21 -24t-39 -6h-61h-811q-48 0 -65 17t-17 53zM293 1384q2 9 12 25q-2 0 -2 2q24 34 58 71q33 36 81 77q39 33 86 66q42 29 74 40q3 0 9 -2q1 0 3.5 -1t4.5 -2 t4 -1q6 0 9 1t9 1q26 -18 74 -56q41 -33 93 -80q43 -39 83 -82q37 -40 43 -61q-6 -15 -20 -25q-14 -9 -29 -9q-18 5 -25 12q-6 -2 -14 -2q-56 39 -120 90q-66 52 -116 86q-69 -44 -129 -92q-18 -14 -53.5 -42.5t-52.5 -41.5q-8 2 -13 2l-7 -3.5t-7 -4.5q-5 -4 -16 -4 q-16 0 -27 11q-11 12 -12 25z" />
<glyph unicode="&#xcb;" d="M84 1182q0 33 28 41q24 8 76 8h781q23 0 47 -3q28 -3 37 -7q7 -12 8 -34q0 -7 1.5 -24.5t2.5 -27.5q2 -38 2 -61v-58q-1 -18 -5 -49q-3 -28 -10 -46q-7 -21 -20 -35q-12 -14 -31 -14q-23 0 -35 33q-11 31 -16 74q-3 25 -7 80q-3 40 -13 51q-38 7 -72 8q-50 2 -82 2h-389 v-422h207h61q21 2 26 18q5 17 5 32v20v4q1 20 7 52q5 24 32 24q1 0 3 -1t6 -2.5t7 -2.5q14 -5 25 -15q12 -11 21 -28q10 -20 10 -47v-201q0 -55 -20 -86t-44 -31q-27 0 -33 15q-5 13 -10 43q-5 33 -7 60q-2 24 -5 31q-4 9 -15 10q-8 1 -38 1h-238v-485h424q56 0 83 1 q51 2 75 5q16 46 18 82v20q6 39 6 71q0 25 2 53q1 20 12 34q9 12 31 16q31 0 44 -17q14 -19 20 -50q0 -9 -1 -12t-1 -11v-147q0 -48 -3 -89q-3 -39 -14 -61q-15 -4 -46 -4h-58h-70h-753q-28 1 -50 14q-20 11 -20 41q1 16 15 34q13 17 55 17h104v1014h-98q-78 0 -78 62z M281 1483q0 46 31 80t75 34q49 -5 76 -37q29 -35 29 -77q0 -43 -34 -73t-75 -30q-42 0 -69 30q-26 29 -31 65v4q-2 2 -2 4zM723 1487q0 45 33 77q32 31 78 31q42 -5 68 -32q27 -29 32 -70q0 -52 -30 -82q-31 -31 -77 -31q-40 4 -72 35q-32 30 -32 72z" />
<glyph unicode="&#xcc;" d="M207 1171q0 23 12 39t51 21h652q80 0 98 -41q0 -44 -30 -56t-70 -12h-242v-1013h217q32 0 48 -1q24 -2 42 -6q21 -5 31 -14q12 -10 12 -29q0 -23 -14 -40q-15 -18 -51 -19h-619q-49 0 -87 8q-36 7 -36 43q0 33 25 46q24 12 69 12h236v1013h-211q-48 0 -93 5q-40 4 -40 44 zM346 1628q8 25 34 37q24 11 58 16q18 -11 72 -47q35 -24 94 -68q46 -35 96 -80q51 -46 82 -81q-12 -19 -21 -28q-12 -12 -32 -13q-14 7 -55 27t-65 33q-75 39 -125 70q-53 32 -98 71q-40 34 -40 63z" />
<glyph unicode="&#xcd;" d="M207 1169q0 22 12 40q12 17 51 22h652q80 0 98 -43q0 -44 -30 -56t-70 -12h-242v-1013h217q46 0 93 -7q40 -6 40 -43q0 -24 -14 -39q-15 -17 -51 -18h-654q-39 0 -64 9t-36 32q0 39 27 52q28 14 79 14h236v1013h-211h-49q-23 0 -43 5q-16 4 -30 16q-11 10 -11 28z M489 1395q1 1 3.5 4.5t5.5 7.5l6 8q-3 1 -12 10q35 35 77 70q30 25 94 73q37 28 91 65q12 8 35.5 24.5t33.5 23.5q9 0 23 -11q16 -13 27 -25q16 -18 24 -28q4 -5 8.5 -12t5.5 -8q-9 -11 -16 -16q-26 -21 -78 -56q-61 -41 -99 -63q-70 -40 -103 -58q-50 -27 -85 -44 q-8 3 -24 13q-15 9 -17 22z" />
<glyph unicode="&#xce;" d="M207 1169q0 22 12 40t49 22h621q42 0 87 -5q40 -4 40 -44q0 -41 -30 -50q-33 -10 -66 -10h-242v-1013h215q32 0 48 -1q24 -2 42 -6q21 -5 31 -15q12 -12 12 -30q0 -23 -13 -39q-14 -17 -52 -18h-617q-50 0 -88 9q-37 9 -37 42q0 34 28 46q27 12 87 12h217v1011h-213 q-56 0 -92 7q-39 7 -39 42zM297 1397q0 5 3 9q4 6 7 9q32 37 66 71q50 50 77 74q38 34 77 65q36 29 67 42q6 -3 31 -8h32q12 -10 70 -58q44 -36 85 -76q55 -53 77 -77q37 -40 47 -59q-6 -15 -17 -26t-28 -11h-6q-12 0 -14 1q-1 0 -3 1t-6 2l-8 2q-24 15 -57 39 q-26 19 -67 51q-11 9 -64 51q-22 17 -52 39q-51 -36 -82 -60q-10 -8 -36.5 -29t-39.5 -31q-28 -21 -64 -47q-27 -19 -42 -21q-17 0 -34 17t-19 30z" />
<glyph unicode="&#xcf;" d="M207 1163q0 21 17 34q19 14 63 20q0 12 4 12l14 2h617q35 0 64 -10q30 -11 30 -31q0 -16 -17 -33q-15 -15 -51 -20q-5 -11 -15 -14q-12 -3 -28 -3h-35h-192v-1014l278 1q30 -2 49 -14q17 -11 17 -27q0 -15 -14 -21q0 -26 -13 -36q-12 -9 -39 -9h-647q-37 0 -57 16 q-21 17 -21 31q0 31 13 44q11 11 41 16h266v1013h-211q-32 0 -48 1q-29 2 -42 5q-17 4 -31 13q-12 7 -12 24zM287 1491q0 40 32 73t76 33q49 -5 76 -36q29 -34 29 -76q0 -48 -33 -75q-34 -28 -76 -28q-40 0 -73 31q-31 30 -31 78zM731 1485q0 53 33 82q32 28 84 28 q36 -5 63 -32q29 -29 29 -70q0 -50 -30 -80q-31 -31 -76 -31q-44 4 -71 32t-32 71z" />
<glyph unicode="&#xd0;" d="M37 639q2 18 13 35q12 18 46 18h127v428h-65q-33 0 -56 17q-22 16 -22 49q0 22 28 33q26 10 68 10h377q273 0 420 -158t147 -457q0 -154 -39 -266t-109 -188q-69 -75 -169 -116q-96 -39 -219 -44h-414q-40 1 -60 17q-20 15 -20 40q0 31 23 40t61 9h51v476h-106 q-82 0 -82 57zM350 106h170q230 0 348 126q119 127 119 382q0 120 -26 210q-27 95 -84 160q-57 66 -147 101t-214 35h-166v-428h232q40 0 64 -9t24 -46q0 -23 -15 -39t-47 -16h-258v-476z" />
<glyph unicode="&#xd1;" d="M55 1176q0 25 20 40q19 15 58 15h143q32 0 53 -8q16 -6 33 -23q14 -14 26 -35q23 -40 26 -45q126 -223 250 -446q27 -49 119.5 -215t144.5 -260v374q0 92 -2 276q-1 137 -6 271h-27h-39q-50 0 -79 7q-31 7 -36 38q0 42 24 54t81 12h215q18 -4 38 -6q17 -1 36 -10 q16 -7 26 -19q10 -11 10 -35q-5 -23 -18 -28q-19 -8 -33 -10q-18 -3 -39 -9q-20 -6 -39 -31v-976v-35q0 -34 -11 -53q-12 -22 -60 -23q-24 5 -36 14q-13 10 -28 31q-25 7 -38 29q-3 6 -12 22.5t-15 26.5q-135 244 -235 420q-83 146 -234 419q-2 4 -10 17.5t-13 21.5l-24 41 q0 -250 1 -375t1 -376q0 -95 6 -178h57q45 0 83 -8q36 -8 42 -37q0 -41 -20 -52q-21 -12 -74 -12h-242q-58 0 -79 12t-21 56q5 17 21 28q19 13 51 13h34q19 0 23 19q4 17 4 40v952h-25q-32 0 -48 1q-24 1 -42 6q-13 3 -29 17q-12 12 -12 32zM268 1419q0 31 20 62t48 56 q30 27 65 41q37 15 72 15q21 0 40 -6q28 -9 48 -16v2q20 -6 46 -18q8 -4 24.5 -11t25.5 -11q21 -10 49 -21q24 -9 42 -9q23 0 45 14q20 13 36 29l32 32q14 14 28 21q42 0 57 -30q0 -31 -18 -63q-17 -30 -49 -57q-31 -26 -68 -41t-74 -15q-32 0 -64 14q-46 20 -70 31 q-11 5 -23 10t-26.5 11t-22.5 9q-36 15 -66 15q-26 0 -46 -14q-23 -16 -36 -30q-17 -18 -30 -33q-14 -16 -25 -20q-44 0 -60 33z" />
<glyph unicode="&#xd2;" d="M98 612q0 128 30 247q31 121 92 207q63 88 159 141q97 53 227 53q9 0 23 -7q125 -5 218 -49q95 -45 160 -128q64 -82 97 -200t33 -266v2q0 -156 -38 -276q-37 -118 -107 -200q-69 -81 -164 -122q-96 -41 -210 -41q-117 0 -212 40q-97 41 -164 120q-69 81 -106 200 q-38 122 -38 279zM231 602q0 -106 25 -204q24 -94 73 -166q48 -70 120 -111q73 -41 167 -41q110 0 183 51q75 52 119 130q45 79 64 173q19 92 19 180q0 117 -23 210q-24 97 -71 170q-48 74 -119 114q-73 41 -170 41q-185 0 -286 -144q-101 -145 -101 -403zM326 1626 q10 16 31 34q19 16 49 21q5 -5 10 -6t16 -6h2q12 -9 75 -52q47 -32 105 -77q2 -2 15 -12.5t21 -16.5q40 -31 43 -34q21 -18 41 -38q21 -21 32 -36q-15 -35 -53 -41q-72 33 -105 49q-56 28 -110 62q-66 42 -97 65q-41 31 -63 61v3q-10 12 -12 24z" />
<glyph unicode="&#xd3;" d="M98 610q0 150 36 270q36 118 102 203q67 85 159 129q95 45 211 45q129 0 228 -45q97 -44 165 -129q70 -86 103 -203q35 -122 35 -270v-8q0 -139 -35 -258q-34 -117 -101 -200q-67 -84 -161 -128q-96 -45 -222 -45q-115 0 -210 40q-96 41 -165 120q-70 80 -107 200 q-38 122 -38 279zM231 602q1 -108 26 -204q24 -96 72 -166q48 -71 118 -111q71 -41 169 -41q113 0 188 54t119 134q43 78 61 173q17 88 17 171q0 112 -22 209q-22 95 -70 170q-47 72 -118 114q-72 42 -173 42q-184 0 -285 -143q-102 -144 -102 -402zM455 1401q17 28 62 70 q41 38 96 79q48 36 103 74q12 8 29.5 20t29.5 20.5t20 14.5h10q6 0 19 -6q14 -6 28 -16q13 -9 27 -23q13 -13 18 -22q-6 -15 -15 -23q-10 -9 -26 -20q-29 -23 -76 -53q-79 -50 -92 -58q-46 -28 -94 -53q-62 -32 -80 -41q-6 1 -18 10q-4 -4 -9 -4q-21 6 -32 31z" />
<glyph unicode="&#xd4;" d="M98 614v19v27q0 10 2 26v10q7 83 39 189q30 98 90 181q61 83 153 137q93 54 226 54q13 0 17 -1q10 -2 14 -5q39 0 74 -12q103 -16 185 -70q78 -53 131 -136q52 -82 79 -190t27 -231v-6q0 -145 -38 -265q-36 -114 -108 -200q-68 -81 -165 -126q-96 -44 -210 -44 q-127 0 -225 52q-97 52 -161 139q-64 88 -97 205t-33 247zM229 602q0 -108 26 -204t75 -166q50 -71 121 -111q73 -41 163 -41h2q93 0 166 41t120 112q50 75 73 170q24 99 24 213q0 106 -24 204q-23 94 -73 169q-47 71 -120 115q-71 43 -168 43q-82 0 -151 -33 q-70 -34 -122 -100q-51 -66 -82 -170q-30 -102 -30 -242zM295 1395v2q6 14 37 48q28 31 68 68q38 35 83 74q51 44 80 66q8 3 32 5q28 2 42 5q28 -17 73 -52q40 -31 92 -78q49 -45 84 -82q40 -43 50 -62q-5 -17 -18 -28q-14 -11 -27 -11h-6q-2 0 -3 -1t-3 -1q-6 0 -9 1t-6 1 q-32 17 -61 38q-44 32 -67 50q-36 29 -65 53q-30 26 -59 45q-32 -20 -77 -56q-7 -5 -34 -27.5t-40 -32.5q-18 -14 -64 -48q-25 -19 -47 -24q-9 0 -31 16q-23 17 -24 31z" />
<glyph unicode="&#xd5;" d="M98 614v9q0 139 36 256q35 115 102 200t160 131q96 47 212 47q25 0 49 -6q32 0 62 -12q103 -16 182 -71q77 -53 130 -138q53 -84 78 -190q26 -109 26 -228q0 -148 -37 -265q-37 -118 -105 -202q-67 -84 -164 -129q-96 -45 -215 -45q-124 0 -224 51q-97 49 -162 137 q-64 87 -97 203q-33 117 -33 252zM229 602q0 -104 25 -202q24 -94 74 -167q49 -71 121 -113t167 -42q91 0 164 41q72 40 121 112q50 73 74 171q24 99 24 214v2q0 109 -24 205q-23 94 -73 168q-48 72 -120 114t-166 42q-82 0 -154 -35q-70 -34 -123 -102t-81 -166 q-29 -101 -29 -225v-17zM274 1423q0 26 20 57t49 54q31 25 66 41t70 16q45 0 84 -13q46 -15 76 -31q13 -7 34.5 -17t29.5 -14q30 -15 49 -15q27 0 47 13t37 30q6 6 15.5 16.5t14.5 15.5q15 15 27 21q40 0 61 -30q0 -34 -19 -65t-50 -57t-68 -41t-72 -15q-36 0 -71 14 q-46 18 -72 32q-17 9 -68 31q-34 15 -65 15q-24 0 -44 -14q-23 -16 -35 -29q-20 -22 -29 -32q-16 -18 -27 -22q-20 0 -39 7q-17 6 -21 32z" />
<glyph unicode="&#xd6;" d="M98 614v19v27q0 10 2 26v10q7 83 39 189q30 98 90 181q61 83 153 137q93 54 226 54q13 0 17 -1q10 -2 14 -5q39 0 74 -12q105 -16 186 -70q80 -54 132 -136q53 -83 78 -190q26 -110 26 -231v-6q0 -145 -38 -265q-36 -114 -108 -200q-68 -81 -165 -126q-96 -44 -210 -44 q-127 0 -226 52q-98 51 -162 139q-65 89 -96 205q-32 119 -32 247zM229 602q0 -105 25 -203q24 -93 74 -166q49 -72 121 -112q73 -41 165 -41h2q93 0 166 41t120 112q50 75 73 170q24 99 24 213q0 111 -23 204q-24 97 -72 169q-47 70 -121 115q-71 43 -169 43 q-82 0 -152 -33q-72 -34 -122 -100q-51 -67 -81 -170q-30 -102 -30 -242zM289 1481v14q0 41 32 71q30 29 74 29q46 -5 74 -34q29 -31 29 -74q0 -46 -31 -77q-30 -30 -76 -30q-45 0 -73 31q-27 31 -29 70zM729 1493q0 49 36 75q35 25 79 25q41 -5 66 -32q25 -28 30 -70 q0 -50 -30 -80q-31 -31 -76 -31t-75 33t-30 80z" />
<glyph unicode="&#xd7;" d="M203 266q5 19 17 35q15 20 30 35q90 92 139 140q48 47 143 142q-8 8 -25 24t-25 24q-29 27 -50 51q-32 34 -66 65q-33 31 -72 71q-30 32 -57 70q-24 35 -24 58q10 38 49 53q17 -6 31 -20h4q6 0 15 -9q8 -8 18 -16q72 -67 142 -142q67 -71 144 -142q18 18 34 35 q4 5 24 26.5t33 34.5q66 69 69 72q49 49 73 71q43 39 65 57q32 26 51 31q23 -5 42 -22q19 -18 27 -41q-7 -20 -33 -51q-83 -88 -154 -156q-76 -73 -147 -144q17 -17 51 -49q17 -16 50 -49q16 -16 64 -62t70 -68q37 -37 61 -65q28 -32 40 -57q-6 -22 -24 -42q-17 -19 -45 -25 q-31 12 -54 37l-43 43q-21 21 -63.5 63t-63.5 63q-106 106 -127 128q-34 -34 -87 -92q-32 -35 -96 -101q-48 -49 -91 -88t-74 -51q-25 5 -42 22q-16 16 -23 41z" />
<glyph unicode="&#xd8;" d="M98 614q0 150 38 272q37 118 108 203q67 80 165 125q93 43 209 43q153 0 277 -92q17 25 47 77q21 36 51 63q10 0 16 -1q8 -1 13 -6q7 12 16 17q18 -2 29 -13q12 -12 16 -26q-22 -46 -52 -90q-34 -50 -56 -86q79 -78 119 -203q41 -126 41 -281q0 -151 -38 -273 q-37 -120 -107 -203q-69 -82 -165 -126q-95 -43 -211 -43h-2q-155 0 -276 88q-11 -13 -24 -34q-3 -6 -12.5 -22.5t-15.5 -25.5q-15 -24 -33 -45q-16 -19 -38 -30q-27 5 -44 17q-19 14 -26 30q7 20 21 43q27 43 31 49q3 4 14.5 21t17.5 26q24 33 27 37q-72 90 -114 207 t-42 282zM229 606q0 -108 22 -204q20 -87 71 -166v2q86 138 256 412q24 38 115 185.5t141 227.5q-49 39 -103 61q-51 21 -119 21q-87 0 -158 -38q-70 -37 -121 -108q-50 -70 -77 -169t-27 -224zM395 162q48 -42 99 -63t122 -21q86 0 158 36q73 36 122 105q51 71 79 169 q29 101 29 228q0 224 -97 371q-50 -80 -141 -227.5t-115 -185.5q-170 -274 -256 -412z" />
<glyph unicode="&#xd9;" d="M68 1180q0 36 32 43q29 8 76 8h266q34 -4 50 -20q14 -14 16 -42q-6 -47 -82 -47h-96v-596q0 -110 13 -189q14 -84 47 -139q34 -57 90 -86q57 -30 141 -30q135 0 215 86q79 85 79 268v686h-108q-40 0 -52 23t-12 33q0 35 23 44q22 9 63 9h285q24 -20 39 -28q18 -9 18 -42 q-7 -39 -71 -39h-66v-567v-86q0 -236 -100 -366t-315 -130q-123 0 -201 37q-80 38 -128 108q-48 71 -69 172q-20 97 -20 230v602h-64q-69 0 -69 58zM342 1630q10 21 32 33q21 12 50 12q5 -1 17 -3q14 -2 20 -5q75 -52 77 -54q37 -27 94 -72q45 -35 88 -75q39 -36 56 -61 q-6 -17 -17 -28q-10 -10 -34 -15q-21 6 -37 15q-28 16 -43 24q-57 29 -100 54q-52 30 -99 61q-42 28 -74 60q-30 30 -30 54z" />
<glyph unicode="&#xda;" d="M68 1180q0 36 32 43q29 8 76 8h266q64 -12 66 -64q-6 -47 -82 -47h-96v-602q0 -105 13 -184q14 -83 47 -138q34 -57 90 -86q57 -30 141 -30q139 0 217 90q77 89 77 297v653h-108q-72 0 -72 54q0 42 30 50q28 7 64 7h285q23 -25 37 -37q20 -17 20 -35q-7 -39 -71 -39h-66 v-567v-86q0 -236 -100 -366t-316 -130q-120 0 -198 37q-80 38 -129 108q-49 69 -70 170q-20 94 -20 226v608h-15q-53 0 -86 9q-32 9 -32 51zM469 1401q18 24 68 68q47 41 99 81q66 51 102 76q12 8 29.5 20t29.5 20.5t20 14.5q45 -25 54 -31q28 -19 38 -40q-6 -14 -15 -24 q-12 -13 -22 -19q-9 -5 -81 -51q-68 -43 -92 -57q-81 -47 -90 -52q-44 -24 -79 -41q-16 0 -26 18q-6 -2 -12 -2q-10 1 -23 19z" />
<glyph unicode="&#xdb;" horiz-adv-x="1228" d="M63 1112q0 59 74 59h305q74 0 74 -59q0 -61 -74 -61h-133v-672q0 -65 24 -122q24 -56 64 -98q40 -41 97 -66q53 -23 120 -23q66 0 119 23q55 24 97 66q43 43 66 98q24 57 24 122v672h-134q-73 0 -73 61q0 59 73 59h306q73 0 73 -59q0 -61 -73 -61h-52v-672 q0 -94 -32 -170q-33 -77 -90 -136q-55 -57 -136 -91q-78 -33 -168 -33t-168 33q-79 33 -135 91q-57 59 -90 136q-33 78 -33 170v672h-51q-74 0 -74 61zM299 1290q0 20 8 30q5 6 25 26l282 233l283 -231q21 -17 27 -28q6 -12 6 -30q0 -24 -18 -42q-17 -17 -42 -17 q-20 0 -49 20l-207 170q-35 -29 -105 -85q-54 -43 -103 -85q-29 -20 -48 -20q-25 0 -42 17t-17 42z" />
<glyph unicode="&#xdc;" d="M76 1180q0 28 28 40q26 11 72 11h264q36 -4 52 -20q14 -14 16 -44q-8 -47 -82 -47h-96v-596q0 -98 11 -174q12 -82 43 -141t89 -94t148 -35q136 0 215 88t79 268v684h-88q-56 4 -74 15q-18 10 -18 43q0 38 29 46q27 7 65 7h250q39 0 61 -11q23 -12 23 -44q-2 -20 -16 -37 q-16 -19 -47 -19h-66v-553v-82q0 -250 -99 -382t-317 -132q-120 0 -198 37q-79 37 -129 107q-49 68 -70 171q-20 97 -20 232v602q-47 0 -87 8q-38 8 -38 52zM297 1479q0 47 33 83q32 35 73 35q42 -5 70 -31q28 -27 33 -67v-12q0 -47 -32 -76t-75 -29q-41 0 -69 30 q-29 30 -33 67zM737 1487q1 42 34 76q31 32 75 32q49 -5 75 -36q27 -33 27 -70q0 -45 -30 -77t-72 -32q-46 11 -75 37q-30 27 -34 70z" />
<glyph unicode="&#xdd;" d="M76 1182q0 35 33 41t86 6h163q63 0 95 -7q34 -7 34 -63q-7 -39 -73 -39h-78q72 -125 150 -253q25 -40 72 -116t69 -112q63 112 137 234q46 75 145 247h-71q-34 0 -55 13q-19 12 -19 49q0 32 22 39q24 8 70 8h172q121 0 121 -60q0 -49 -66 -49h-10q-32 0 -50 -28l-36 -60 q-50 -87 -110 -185q-83 -136 -109 -179q-21 -35 -47 -77q-22 -35 -39 -83v-401h174q43 -4 63 -17q19 -12 19 -45q0 -35 -28 -40q-30 -5 -68 -5h-482q-55 6 -55 55q0 18 20 35t58 17h174q0 115 -1 174t-1 174v73q-109 164 -198 320q-86 152 -173 272h-45q-38 0 -51 22 q-12 21 -12 40zM467 1403q14 25 58 66q32 30 97 80q55 42 104 76q52 36 81 54q2 2 8 2q13 0 27 -10q15 -10 26 -23q16 -18 22 -27q11 -16 11 -17q-17 -22 -58 -51q-26 -19 -97 -62q-72 -44 -110 -66q-69 -40 -101 -57q-1 0 -3 2q-2 0 -2 1l-2 1l-4 4q-13 -8 -18 -8 q-28 6 -39 35z" />
<glyph unicode="&#xde;" d="M115 1182q0 32 21 39q24 9 57 10h391q38 0 58 -13q22 -14 22 -42q0 -24 -25 -37q-28 -14 -61 -18q-50 -6 -78 -7q-41 -2 -74 -6l8 -66l8 -65h189q226 0 340 -84t114 -246q0 -87 -35 -151q-36 -67 -99 -110q-66 -46 -146 -67q-82 -22 -178 -22h-21q-61 0 -90 1 q-44 2 -90 3v-192h33h96q52 0 98 -11q43 -10 43 -49q0 -35 -23 -42q-22 -7 -52 -7h-398q-54 0 -77 11q-25 12 -25 46t19 41q21 8 59 8h100v1014h-84q-45 0 -74 19q-26 17 -26 43zM426 408q10 -1 28 -2.5t26 -1.5q17 -1 55 -1h8q88 0 163 12t129 39q56 28 85 73q30 47 30 116 q0 113 -81 170t-207 57h-236v-462z" />
<glyph unicode="&#xdf;" horiz-adv-x="1228" d="M29 43q0 59 73 59h93v861q0 59 25 110q26 53 70 94t102 65q56 23 122 23q71 0 129 -23q60 -24 103 -67q46 -46 70 -101q26 -60 26 -126q0 -115 -97 -195q129 -47 210 -147q81 -101 81 -266q0 -180 -78 -281q-78 -100 -221 -100q-56 0 -104 19q-47 18 -85 55 q-34 33 -56 81q-21 47 -21 103q0 30 16 47q17 18 43 18q30 0 45 -25q14 -23 25 -54q6 -21 15 -42t25 -40q15 -18 39 -30q22 -11 58 -11q85 0 132 66q46 65 46 196q0 100 -44 165t-103 102t-121 52q-61 15 -96 15h-10q-74 0 -74 61q0 27 18 43q17 16 47 16h11q31 0 67 13 q33 12 58 34q23 20 39 49q14 25 14 58q0 39 -18 75q-18 35 -46 62q-29 28 -65 42q-40 16 -78 16q-39 0 -75 -15q-38 -16 -63 -38q-28 -25 -44 -55q-17 -32 -17 -64v-861h13q73 0 73 -59q0 -61 -73 -61h-226q-73 0 -73 61z" />
<glyph unicode="&#xe0;" d="M145 238q0 163 147 241t398 78q33 0 75 -5q25 -3 79 -11v67q0 101 -49 157t-179 56h-2q-48 0 -87 -10q-38 -10 -74 -27q-24 -7 -44 -23q-6 -4 -12 -9.5t-13.5 -12t-11.5 -9.5q-18 -15 -36 -27q-16 -11 -45 -11q-15 11 -34 38q-17 24 -17 65q16 43 90 78q75 35 178 47h2 q32 7 55 8q36 2 47 2h13q99 0 165 -24q67 -24 106 -66t56 -105t17 -139v-418q0 -52 14 -59q16 -8 45 -8q22 2 34 3t36 1q12 -5 30 -21q19 -17 19 -39q-7 -32 -61 -44q-48 -11 -121 -11h-36q-12 0 -36 2q-37 33 -45 113q-174 -138 -373 -138q-68 0 -128 18q-62 19 -105 50 q-46 34 -71 82q-26 50 -26 111zM274 248q0 -74 61 -118t152 -44q104 0 198 44q92 43 159 122v186q-23 1 -73 7t-77 6q-83 0 -163 -11q-74 -10 -133 -35q-55 -23 -90 -63q-34 -38 -34 -94zM336 1309q4 24 35 39q26 13 67 18q62 -37 97 -63q60 -44 98 -76q56 -47 85 -76 q37 -37 58 -64q-15 -34 -51 -40q-25 8 -86 39q-53 27 -126 73q-62 39 -117 83q-52 42 -60 67z" />
<glyph unicode="&#xe1;" d="M145 236v6q1 143 122 223q120 79 335 90h4q28 2 41 2h43q12 -2 37 -4.5t36 -3.5q14 -2 42.5 -4.5t38.5 -3.5v71q-5 100 -50 154q-46 55 -176 55h-2q-49 0 -88 -10q-40 -11 -75 -27q-33 -12 -47 -24l-36 -30q-18 -15 -36 -27q-17 -11 -45 -11q-16 12 -33 38q-16 25 -16 65 q16 46 92 79q77 33 176 48h2q28 4 56 6q36 2 46 2q191 0 274 -80t83 -254v-420q0 -29 3 -44q3 -16 19 -23q23 0 47 4t52 4q28 -20 39 -25q18 -8 18 -39q-7 -32 -63 -43q-51 -10 -123 -10h-68q-21 16 -31 46q-9 26 -14 69q-91 -71 -179 -104q-90 -34 -196 -34q-140 0 -232 68 q-91 67 -96 191zM274 246q0 -72 60 -116q61 -44 151 -44q106 0 198 43q94 44 161 123v184q-25 3 -73 9t-75 6q-83 0 -163 -11q-75 -10 -134 -35q-56 -24 -91 -63q-34 -38 -34 -96zM449 1092q11 17 51 52q30 27 88 74q19 16 55 44l45 35q44 35 92 67q6 2 13 2q10 0 24 -7 q15 -8 28 -19q14 -12 23 -24q10 -14 15 -24q-14 -18 -62 -53q-52 -38 -100 -68q-51 -31 -112 -67q-54 -31 -99 -53q-7 2 -14 6q-6 -2 -9 -2q-12 1 -20 13q-7 12 -18 24z" />
<glyph unicode="&#xe2;" d="M143 236v6q4 143 124 222q118 78 331 89h4q22 2 32 2h32h26q31 0 73 -5q25 -3 79 -9q0 63 -6 115q-6 51 -30 89q-24 37 -69 57q-44 19 -123 19h-2q-59 0 -101 -13q-47 -15 -79 -34q-28 -12 -41 -24t-32 -27q-20 -16 -31 -22q-16 -9 -39 -9q-19 11 -35 37t-16 66 q8 24 32 44q21 17 62 35q35 16 82 28q45 12 94 18h2q37 7 58 8q34 2 48 2q100 0 169 -22q67 -21 106 -63q38 -41 55 -103q16 -60 21 -138v-72v-376q0 -21 5 -33q4 -9 23 -14q16 0 26 1l30 3q43 0 70 -10q24 -9 24 -50q-6 -29 -45 -39q-34 -9 -94 -14h-76q-30 0 -46 8t-24 24 q-9 17 -10 36q0 5 -1.5 21t-2.5 26q-171 -138 -373 -138q-71 0 -131 18q-61 18 -103 50q-45 34 -70 81q-27 50 -28 110zM274 246q0 -73 61 -117q59 -43 152 -43q104 0 197 44q92 44 160 122v184q-26 3 -76 9t-74 6q-86 0 -163 -12t-134 -36t-90 -63t-33 -94zM281 1077 q7 20 30 46q29 33 58 59q57 52 68 61q18 15 63 55q29 24 55 36q30 14 55 20q37 -19 76 -47q45 -33 91 -73q47 -41 86 -80q42 -42 59 -69v-2q-4 -13 -16 -28t-27 -15l-9 3q-1 1 -3.5 2t-4.5 2q-2 0 -3 -1q-2 -2 -3 -2q-2 0 -10 5q-50 33 -118 85q-72 55 -124 89 q-24 -14 -69 -49l-78 -62q-46 -35 -73 -53q-35 -23 -52 -23q-17 5 -33 15q-12 7 -18 26z" />
<glyph unicode="&#xe3;" d="M145 233v9q1 146 136 229q133 82 362 82q47 0 96 -3q43 -3 105 -11v67q0 101 -48 158t-178 57h-2q-49 0 -91 -11q-38 -11 -74 -30q-29 -11 -47 -25q-6 -5 -18 -14.5t-18 -14.5q-12 -9 -36 -25q-16 -11 -41 -11q-16 11 -34 39q-17 25 -17 64q11 31 48 55q40 25 91 43 q57 20 116 28q63 9 123 9q99 0 170 -22q68 -21 108 -63q39 -41 56 -105q17 -65 17 -144v-436q0 -27 6 -36t22 -13q8 0 40 2t46 2q27 0 46 -14q18 -13 18 -46q-6 -26 -45 -40q-38 -13 -94 -13h-76q-30 0 -46 8q-15 8 -23 23q-7 14 -10 36q-4 26 -5 46q-88 -69 -177 -103 q-93 -35 -196 -35q-141 0 -233 68q-93 68 -97 190zM274 246q0 -74 62 -118t151 -44q104 0 198 44q92 43 159 122v186q-10 2 -30 4.5t-29 3.5q-33 5 -60 5h-98q-75 -5 -139 -18q-63 -13 -111 -38q-49 -26 -75 -61q-28 -39 -28 -86zM281 1106q0 33 19 64q22 35 49 57 q30 24 66 39q34 14 70 14h2q29 -2 66 -15q32 -12 74 -30q54 -24 70 -30q33 -13 57 -13q22 0 42 12q16 10 37 29q7 6 17.5 17.5t13.5 14.5q15 15 27 21q18 0 33 -9q10 -6 24 -20q0 -13 -6 -28v-2q-7 -30 -30 -60q-19 -25 -52 -46q-27 -17 -65 -29q-36 -11 -68 -11 q-28 0 -64 14q-42 16 -68 30q-24 13 -65 31q-29 13 -55 13q-24 0 -45 -12q-19 -11 -36 -28q-14 -14 -28 -31t-26 -23q-22 0 -37 9q-13 8 -22 22z" />
<glyph unicode="&#xe4;" d="M143 238q0 143 120 224q119 80 331 91h4q24 2 36 2h36q46 0 83 -4q40 -4 91 -12q0 65 -6 117q-6 51 -30 89q-24 37 -69 57q-44 19 -123 19h-2q-58 0 -99 -14q-50 -17 -79 -35q-25 -12 -40 -23q-5 -4 -16.5 -13t-17.5 -13q-29 -21 -32 -23q-16 -10 -39 -10q-19 13 -35 39 t-16 66q16 44 89 77q72 33 177 48h4q29 5 55 6q36 2 47 2q101 0 172 -22q68 -21 108 -63q39 -40 56 -104q16 -61 21 -141v-422q0 -28 3 -45q3 -16 19 -22q18 0 29 1l33 3q35 0 65 -8q29 -8 29 -52q-7 -30 -60 -42q-47 -11 -112 -11h-82q-37 33 -45 113q-88 -69 -177 -103 q-93 -35 -196 -35q-70 0 -130 18q-63 19 -105 51q-46 35 -71 82q-26 49 -26 112zM274 246q0 -74 61 -118t152 -44q104 0 197 44q92 44 160 122v186q-10 2 -30 4.5t-29 3.5q-33 5 -60 5h-98q-75 -5 -139 -18q-63 -13 -111 -38q-49 -26 -75 -61q-28 -39 -28 -86zM281 1182 q4 43 35 75q32 33 73 33q43 -4 73 -37t30 -73q0 -47 -31 -76t-72 -31h-2q-43 11 -72 36t-34 73zM725 1192q6 46 39 71q32 25 72 25q42 -4 70 -35t28 -69q0 -47 -30 -80t-77 -33q-53 5 -77 40q-25 37 -25 81z" />
<glyph unicode="&#xe5;" d="M143 233v9q4 149 138 230q133 81 366 81q56 0 97 -4q82 -8 100 -10q0 65 -6 117q-6 51 -30 89q-24 37 -69 57q-44 19 -123 19h-2q-73 0 -119 -20q-52 -23 -84 -44q-52 -35 -64 -44q-27 -21 -56 -21q-19 11 -35 37t-16 66q11 29 48 53q36 23 91 42q49 17 115 28 q59 10 118 10h17q96 0 162 -22q62 -21 102 -62q38 -39 55 -100q17 -59 21 -134v-84v-370q0 -21 5 -33q4 -9 23 -14q16 0 26 1l30 3q43 0 70 -10q24 -9 24 -50q-8 -35 -69 -44q-60 -9 -146 -9q-59 0 -71 33q-11 31 -13 80q-88 -69 -177 -103q-93 -35 -196 -35q-71 0 -131 18 q-62 19 -103 51q-45 36 -70 81q-27 48 -28 108zM274 246q0 -73 61 -117q59 -43 152 -43q107 0 197 43q93 44 160 123v184q-26 3 -76 9t-74 6q-86 0 -163 -12t-134 -36t-90 -63t-33 -94zM393 1239q0 43 19 83q17 35 49 64q28 25 71 41q40 15 84 15q42 0 81 -17q37 -16 68 -44 q30 -27 46 -64q16 -36 16 -80q0 -45 -17 -82q-18 -39 -48 -66q-32 -29 -70 -45t-82 -16q-48 0 -87 16q-38 16 -68 47q-29 30 -45 67q-17 39 -17 81zM487 1239q0 -28 16 -47q15 -18 38 -23q4 -22 24 -36q21 -15 45 -15q52 0 87 36q34 35 34 83t-35 85q-34 36 -86 36 q-51 0 -87 -36t-36 -83z" />
<glyph unicode="&#xe6;" d="M51 252q0 140 111 213t303 78v4q46 0 92 -6v49q0 51 -7 92q-8 45 -25 75q-18 31 -48 49q-28 17 -78 17q-24 0 -52 -14q-29 -15 -40 -33v-14q-24 -7 -44 -20q-12 -8 -32 -20q-22 -14 -27 -16q-14 -8 -32 -8q-19 13 -31 40t-12 63q10 27 41 52q26 21 73 41q39 17 87 28 q43 10 84 10q82 0 138 -40q57 -41 87 -106q39 65 99 106q59 40 137 40q71 0 129 -32q56 -31 96 -89q37 -54 59 -137q21 -80 21 -176v-4q0 -47 -23 -59q-21 -11 -57 -11q-19 0 -29 1t-29 1h-368q10 -158 63 -249q54 -91 164 -91q37 0 76 18q36 16 71 40q31 21 56 41 q25 21 35 22q14 -7 29 -26q15 -20 16 -40q-11 -25 -36 -50q-22 -22 -61 -49q-33 -23 -76 -40q-40 -16 -83 -22q-77 0 -121 43q-15 -29 -29 -29q-64 0 -108 35q-45 35 -68 94q-64 -79 -129 -113q-67 -35 -143 -35q-122 0 -201 77q-78 76 -78 200zM174 248q0 -72 48 -118 q47 -46 118 -46q78 0 140 55q63 55 75 152v41q0 14 -2 46q-1 18 -10 50q-16 4 -37 4q-13 0 -35 2h-8q-125 0 -207 -46t-82 -140zM674 532h381q-1 47 -16 104q-14 55 -36 92q-24 40 -59 66q-34 25 -78 25q-86 0 -131 -78q-44 -77 -61 -209z" />
<glyph unicode="&#xe7;" horiz-adv-x="1228" d="M154 418q0 108 36 193q38 90 102 154t154 100t197 36q173 0 301 -92q2 63 62 63q59 0 59 -75v-187q0 -73 -59 -73q-61 0 -62 65q-4 36 -29 70q-24 33 -66 57q-44 25 -96 38t-116 13q-82 0 -148 -25q-67 -25 -114 -74q-47 -48 -74 -115q-27 -66 -27 -146q0 -78 27 -141 q28 -66 75 -111q50 -48 114 -73q65 -25 147 -25q216 0 371 143v-2q16 17 24 21q10 6 25 6q22 0 40 -18q17 -17 17 -40q0 -15 -28 -51q-28 -35 -82 -72q-54 -36 -141 -67q-91 -32 -199 -39v-29q133 -12 133 -143q0 -67 -51 -110q-50 -42 -130 -42q-27 0 -59 7q-35 8 -65 21 q-33 15 -53 32q-21 18 -21 39q0 25 17 42t42 17q21 0 49 -16q19 -12 38 -19q22 -8 48 -8q35 0 53 11q19 12 19 30q0 33 -74 33h-61v139q-132 22 -212 84q-79 61 -120 134q-40 70 -52 140q-11 62 -11 105z" />
<glyph unicode="&#xe8;" d="M135 453q0 105 37 191q39 90 102 152q65 63 155 100q88 36 194 36q101 0 183 -33q84 -34 143 -91q60 -59 93 -139q33 -81 33 -177v-11q0 -25 -10 -34q-9 -8 -33 -19q-21 -4 -51 -4h-57h-656q6 -75 37 -139q29 -60 81 -107q47 -43 118 -68q68 -24 147 -24q73 0 160 26 q92 27 150 62q28 17 43 24q13 6 32 11q40 -18 45 -68q-11 -35 -59 -66q-45 -29 -112 -51q-71 -23 -136 -34q-78 -13 -133 -13q-118 0 -210 37q-95 38 -160 102q-67 65 -101 150q-35 87 -35 187zM270 528q169 0 253 1t255 1h68q33 0 51 1q28 2 35 22q-1 59 -29 109 q-28 51 -69 85q-42 35 -99 55q-54 19 -117 19q-136 0 -231 -80q-95 -79 -117 -213zM346 1307q6 23 39 42q32 19 59 19q7 -5 39 -27.5t51 -37.5l99 -75q46 -35 91 -75t64 -63q-6 -16 -21 -28q-12 -10 -32 -15q-5 2 -12 5.5l-18 9t-20 9.5q-39 19 -75 40q-12 7 -41 23.5 t-45 26.5q-50 30 -82 53q-30 21 -63 51q-27 24 -33 42z" />
<glyph unicode="&#xe9;" d="M135 453q0 103 37 190q39 91 101 152q64 63 155 99q90 36 195 36q171 0 289 -91t151 -243v-2q9 -33 10 -57q2 -38 2 -58q-6 -39 -41 -47q-37 -8 -82 -8h-61h-623q6 -81 38 -145q32 -63 83 -107q49 -42 118 -64t144 -22q60 0 115 16q53 15 108 38q54 22 95 42q45 22 69 27 q16 -6 29 -25t14 -41q-12 -37 -60 -67q-51 -32 -113 -52q-71 -23 -138 -34q-80 -13 -135 -13q-116 0 -208 37q-94 38 -158 102q-65 65 -99 151q-35 88 -35 186zM270 528q193 0 289 1t289 1q33 0 51 1q28 2 35 30q-1 56 -30 105q-26 45 -70 80q-44 34 -99 54q-54 19 -112 19 h-7q-140 0 -232 -81t-114 -210zM455 1090q6 12 44 47q19 17 88 76q54 46 105 83q78 57 94 68q6 0 7 1t6 1q8 0 24 -8q13 -6 28 -20q13 -12 23 -23q10 -12 15 -23q-18 -23 -62 -53q-28 -19 -96 -64q-55 -36 -109 -66q-20 -11 -53 -29.5t-47 -26.5q-6 2 -8 2q-4 0 -8 4l-6 -3 q-1 -1 -6 -1q-10 1 -23 13q-11 12 -16 22z" />
<glyph unicode="&#xea;" d="M135 451q0 105 37 191q39 90 101 152q63 63 154 100q88 36 194 36q105 0 188 -34q85 -35 144 -94q61 -60 92 -146q32 -87 32 -187q-7 -38 -49 -43q-36 -4 -94 -4h-666q1 -72 33 -138q30 -63 83 -107q52 -43 121 -67t144 -24q70 0 161 25q89 24 151 63q28 17 43 24 q13 6 30 11q40 -16 45 -68q-11 -35 -59 -66q-44 -28 -112 -52t-136 -35q-78 -13 -133 -13q-118 0 -210 37q-93 38 -159 102t-100 151q-35 88 -35 186zM268 528h563h19q13 0 49 2q26 1 31 21q-1 56 -28 108q-26 50 -68 85q-45 37 -100 56q-56 19 -118 19q-136 0 -230 -80 t-118 -211zM299 1075q5 18 38 54q42 46 80 80q47 42 96 81q52 41 87 62q22 -8 35 -9q18 -1 33 -6q7 -4 51 -40q50 -40 84 -71q50 -45 86 -81q40 -40 57 -68q-7 -19 -23 -30t-26 -11q-3 0 -6 1q-5 1 -10 7q0 -2 -7 -2t-12 5q-60 41 -123 90q-44 35 -116 86q-16 -11 -49 -37 q-70 -55 -73 -57q-27 -20 -79 -56q-35 -24 -64 -37q-48 6 -59 39z" />
<glyph unicode="&#xeb;" d="M135 453q0 103 37 190q39 91 101 152q64 62 154 99q88 36 194 36q97 0 181 -32t143 -88q60 -57 94 -136q34 -78 34 -176q0 -33 -13 -46q-14 -14 -46 -24q-25 -4 -57 -4h-60h-629q6 -74 37 -140q29 -62 81 -107q48 -42 118 -67q68 -24 145 -24q73 0 155 24q87 25 144 60 q33 19 49 26q19 8 37 13q42 -16 47 -68q-11 -36 -60 -66q-47 -30 -113 -51q-71 -23 -136 -34q-78 -13 -131 -13q-118 0 -210 37q-95 38 -160 102q-67 65 -101 150q-35 87 -35 187zM270 528q188 0 281 1t280 1h23h29q15 0 30 3q14 3 19 20q-1 57 -29 108q-28 52 -69 84 q-46 36 -99 55q-54 19 -117 19q-140 0 -232 -79q-94 -80 -116 -212zM295 1180q0 52 33 76q34 25 71 32q47 -4 77 -35q30 -30 30 -77q0 -38 -31 -71q-30 -32 -72 -32q-43 0 -73 35q-31 35 -35 72zM737 1186q0 41 34 72q35 32 75 32q45 -4 72 -35q25 -28 30 -69q0 -52 -32 -82 q-33 -31 -74 -31q-42 0 -73 36q-32 37 -32 77z" />
<glyph unicode="&#xec;" d="M203 47q0 18 13 38q14 21 54 21h228q9 0 51 3q19 1 24 30v656q-27 -1 -79 -3q-26 -1 -78 -1h-78q-44 0 -66 14q-24 15 -24 43q0 44 46 48q52 5 134 5q66 0 124 6q59 6 95 6q37 -4 44 -28q7 -22 7 -72v-649q0 -32 10 -45t62 -13h238q33 0 50 -16t17 -37q0 -41 -25 -47 q-26 -6 -61 -6h-704q-36 0 -59 10t-23 37zM324 1313q7 22 31 37q23 14 53 16q11 0 18 -4q44 -33 93 -69q79 -57 97 -72q63 -51 85 -71q41 -38 57 -63q-15 -29 -56 -40q-18 6 -50 24q-16 9 -62 36q-13 8 -37 22.5t-30 18.5q-11 7 -32.5 20.5t-31.5 19.5q-28 16 -44 25t-44 29 q-20 14 -34 33q-13 17 -13 38z" />
<glyph unicode="&#xed;" d="M203 49q0 57 88 57h207q9 0 51 3q19 1 24 30v656q-30 0 -90 -2t-90 -2h-59q-46 0 -69 13q-24 13 -25 52q11 27 40 36q30 9 78 9q72 0 146 6q73 6 143 6q42 -5 46 -29q5 -28 5 -71v-629v-34q0 -29 12 -35t60 -6h215q40 0 69 -9q23 -7 29 -34q0 -51 -28 -58q-30 -8 -84 -8 h-686q-39 0 -60 10q-22 10 -22 39zM451 1090q5 8 42 44q26 25 86 74q56 46 106 84q66 50 99 72q8 2 17 2q25 0 53 -14q32 -16 39 -45q-12 -14 -19 -29q-8 -18 -24 -25q-10 -6 -37.5 -24t-44.5 -29q-60 -38 -91 -56q-7 -4 -39.5 -23.5t-49.5 -28.5q-14 -8 -39 -22t-35 -19 q-23 6 -27 22l-6 -3q-1 -1 -6 -1q-12 6 -24 21z" />
<glyph unicode="&#xee;" d="M201 49q0 22 19 40q18 17 71 17h207h36l33 3q3 14 5 43q1 15 1 49v594q-142 -7 -235 -7h-6q-44 0 -68 15t-24 53q11 24 41 35q29 10 77 10h82q58 0 111 6t96 6q39 -5 45 -29q6 -26 6 -71v-651q0 -16 2 -32q1 -10 9 -16q6 -5 20 -6q10 -1 39 -1h244q57 -1 69 -41 q0 -43 -21 -55q-19 -11 -69 -11h-708q-39 0 -60 10q-22 10 -22 39zM281 1077q8 22 45 62q44 47 83 84q43 40 94 80q41 32 79 53q12 -6 23 -6q16 0 24 -1q9 -1 27 -10q17 -9 34 -28q6 -5 18 -16t23.5 -21.5t22.5 -19.5q26 -22 72 -64q42 -38 64 -63q28 -32 38 -48 q-21 -39 -49 -39q-1 0 -25 6q-19 5 -31 17q-57 35 -114 81q-42 34 -105 81q-25 -15 -70 -50q-11 -9 -38 -30t-41 -32q-33 -26 -72 -52q-34 -23 -51 -23q-44 10 -51 39z" />
<glyph unicode="&#xef;" d="M199 63q10 43 90 43h219q42 0 55 9q10 7 10 30v35v615q-13 -1 -39.5 -2t-40.5 -1q-27 -1 -81 -1h-84q-42 0 -59 16t-17 37t20 38t68 17h6q81 0 157 7t142 7q36 -5 44 -21q9 -18 9 -56v-17v-700q12 -9 27 -10q33 -3 39 -3h240q63 -4 73 -38q0 -42 -19 -55t-69 -13h-706 q-44 0 -63 11q-21 12 -21 52zM281 1171q0 55 30 81q29 25 72 36q48 -4 79 -35q30 -30 30 -77q0 -42 -33 -72q-34 -31 -74 -31q-38 0 -72 31q-32 29 -32 67zM721 1180l2 4q0 40 34 73q35 33 70 33q45 -5 74 -34q31 -31 31 -70q0 -47 -29 -79q-29 -33 -74 -34h-4q-39 4 -70 35 q-29 29 -34 72z" />
<glyph unicode="&#xf0;" d="M133 444q0 100 38 188q37 87 102 150q66 65 153 100q88 36 186 36q58 0 111 -15q54 -15 108 -47q-45 77 -97 136q-60 68 -111 108q-39 -19 -81 -43q-46 -27 -83 -43h-2q-20 -10 -26 -12q-9 -3 -23 -9q-15 6 -30 22q-13 15 -18 38q7 17 26 33q22 18 41 29q21 12 49 25 q6 3 23.5 10.5t26.5 12.5q-45 25 -86 41q-12 5 -33 13.5t-30 12.5q-24 11 -44 19q-17 7 -28 23q1 25 19 41q15 14 41 14q47 0 119 -27q79 -30 163 -73q51 23 109 54q54 29 100 40q17 -5 29 -21t16 -32q-5 -17 -21 -31q-18 -15 -41 -28q-20 -11 -51 -25q-9 -4 -51 -25 q167 -144 262 -314q98 -174 99 -372v-10q0 -114 -37 -204q-38 -93 -103 -155q-66 -63 -153 -97t-189 -34q-106 0 -194 36q-87 35 -153 100q-63 62 -100 149q-36 86 -36 186zM266 446q0 -80 27 -146q27 -67 74 -115t111 -75q67 -28 138 -28q73 0 136 27q65 28 110 73 q48 48 75 114q28 68 28 146t-26 145q-25 64 -71 115t-109 77q-67 28 -141 28q-77 0 -144 -28q-62 -26 -110 -77q-47 -50 -72 -113q-26 -66 -26 -138v-5z" />
<glyph unicode="&#xf1;" d="M94 45q0 61 76 61h76v687q-25 0 -37 -1t-35 -1h-2q-41 0 -57 20q-17 22 -17 41q0 33 62 45t151 12q29 0 43 -11q15 -12 15 -44v-84q79 79 156 117q81 40 173 41h4q161 0 233 -91q73 -93 73 -245v-486h69q37 0 55 -15q17 -14 17 -38q0 -38 -32 -46q-29 -7 -83 -7h-221 q-31 1 -52 11q-20 9 -20 34q0 61 76 61h66v480q-1 104 -47 165q-45 60 -150 60q-53 0 -98 -15q-43 -14 -83 -40q-36 -23 -69 -56q-34 -34 -55 -63q-10 -47 -10 -100v-105v-326h90q35 0 44 -18t9 -33q0 -40 -31 -48q-28 -7 -80 -7h-241q-39 12 -48 16q-15 6 -20 29zM281 1106 q1 32 20 64q19 34 47 57q28 24 65 39q34 14 72 14q16 0 37 -6q12 -4 47 -17q2 0 2 1q0 2 2 2q21 -6 48 -19q16 -8 48 -22q41 -18 44 -19q22 -8 37 -8q24 0 45 12q17 10 38 29l32 32q14 14 30 19q38 0 49 -29q0 -17 -4 -24v-4q-5 -27 -25 -52q-23 -28 -49 -47 q-25 -18 -61 -33q-34 -14 -64 -14h-22q-25 0 -61 14q-38 15 -67 30q-24 13 -65 31q-29 13 -53 13q-25 0 -44 -12q-18 -11 -36 -29q-11 -11 -29 -31q-15 -16 -26 -22q-22 0 -36 9q-12 8 -21 22z" />
<glyph unicode="&#xf2;" d="M133 449q0 109 40 195q41 88 108 149q66 60 157 95q89 34 193 34q17 0 31 -2q32 0 61 -9q5 0 7 1t7 1q81 -18 148 -60q67 -41 115 -102q48 -60 75 -137q27 -76 27 -161q0 -106 -37 -192q-39 -89 -102 -150q-68 -65 -155 -99q-90 -35 -192 -35q-101 0 -191 35 q-89 35 -154 98q-64 62 -101 149q-37 86 -37 190zM264 453q0 -81 27 -148t74 -117q46 -49 111 -76q67 -28 140 -28q74 0 142 28q64 26 111 76q45 48 73 116q27 66 27 145q0 81 -27 150t-73 118q-48 51 -110 77q-65 27 -141 27q-80 0 -145 -28q-64 -27 -112 -79 q-44 -47 -71 -118q-26 -69 -26 -143zM338 1309q6 28 39 40q27 10 63 17q62 -39 96 -64q43 -31 96 -74q43 -35 85 -75q43 -41 61 -63q-6 -16 -21 -28q-12 -10 -32 -15q-34 11 -94 43q-73 39 -124 72q-61 39 -112 81q-49 40 -57 66z" />
<glyph unicode="&#xf3;" d="M133 451q0 109 40 195q41 87 110 149q68 60 161 94q92 33 197 33q15 0 23 -2h14q5 0 8 1t8 1q22 0 44 -8q14 -5 44 -13q146 -47 233 -168t87 -284q0 -104 -38 -191q-37 -85 -102 -148q-65 -64 -153 -98q-90 -35 -188 -35h-7q-104 0 -192 36t-153 99q-64 63 -100 148 q-36 86 -36 191zM264 455q0 -81 27 -148t74 -117q46 -49 111 -76q67 -28 140 -28v-2q74 0 142 28q64 26 111 76q46 49 73 117q27 67 27 146q0 81 -27 149q-27 67 -74 117t-110 77t-140 27h-4q-74 -1 -140 -29q-61 -26 -110 -76q-45 -46 -73 -115q-27 -66 -27 -144v-2z M453 1092q5 9 39 41q37 35 83 73q49 40 105 84q62 48 104 74q11 4 17 4q7 0 21 -6q12 -5 28 -15q10 -6 26 -22q10 -10 15 -22q-5 -11 -13 -22q-6 -9 -26 -21q-51 -38 -84 -60q-15 -10 -47 -30t-47 -30q-53 -34 -92 -55q-45 -24 -78 -36q-19 5 -32 17q-14 13 -19 26z" />
<glyph unicode="&#xf4;" d="M133 449q0 109 40 196q41 89 109 150q69 62 159 94q91 33 194 33q13 0 19 -1t20 -1q6 2 14 2q12 0 27 -4q83 -12 156 -55q72 -43 122 -103q53 -63 80 -140q29 -81 29 -167q0 -103 -38 -193q-37 -88 -103 -151q-69 -66 -154 -99q-90 -35 -191 -35q-102 0 -192 35 q-86 34 -153 99q-62 61 -101 149q-37 84 -37 191zM264 453q0 -83 27 -149t74 -116q44 -47 111 -75q66 -28 140 -29v-2q74 0 142 28q64 26 111 76q45 48 73 116q27 66 27 144q0 82 -27 151t-74 119q-49 52 -111 78q-65 27 -141 27q-81 0 -145 -29t-112 -80q-45 -48 -70 -117 t-25 -142zM295 1081q7 20 42 57q40 42 82 81t95 81q55 43 82 58q6 -2 13.5 -5t9.5 -4q7 -3 24 -3q5 0 6 1t6 1q62 -51 70 -58q43 -34 87 -72t81 -75q36 -36 49 -62q-7 -16 -19 -26q-13 -11 -28 -11q-3 0 -12 3q-3 -3 -6 -3h-5q-5 0 -10 5q-39 20 -62 37q-38 29 -64 50 q-9 8 -29.5 24.5t-31.5 25.5q-33 26 -57 41q-36 -25 -56 -40q-42 -32 -65 -49q-13 -10 -36 -27.5t-30 -23.5q-22 -17 -56 -38h-2q-5 -5 -7 -6t-8 -3l-6 -2l-4 -2q-22 6 -35 19t-18 26z" />
<glyph unicode="&#xf5;" d="M133 449q0 107 40 194q41 89 109 150q67 60 160 95q90 34 195 34q8 0 12 -1t13 -1q30 0 59 -9h14q83 -17 151 -58q69 -42 115 -103q47 -62 74 -139t27 -162q0 -104 -38 -192q-37 -86 -103 -149q-67 -64 -155 -98q-90 -35 -190 -35q-102 0 -192 35q-86 34 -153 99 q-62 61 -101 149q-37 84 -37 191zM266 453q0 -83 27 -150t74 -116q47 -48 111 -75q67 -28 140 -28v-2q75 0 141 29t111 77q48 51 73 116q26 67 26 145q0 79 -27 148q-26 67 -74 118q-47 50 -110 77t-140 27t-143 -27q-63 -26 -111 -77q-46 -49 -72 -116t-26 -142v-4z M287 1116q0 32 19 60t49 52t66 39t68 15h3q30 -2 63 -16q65 -28 71 -31q45 -21 69 -30q33 -13 63 -13q22 0 43 12q19 11 37 29q6 6 15.5 16.5t14.5 15.5q16 16 25 21q19 0 37 -9q17 -9 22 -30q-1 -3 -3 -7t-3 -7q0 -27 -19 -53q-20 -28 -49 -48q-31 -22 -64 -36 q-34 -15 -62 -15h-2q-30 0 -66 14q-50 20 -70 30q-34 18 -68 31q-33 13 -65 13q-25 0 -42 -10q-19 -11 -32 -24l-9 -9l-11 -11l-9 -9q-14 -15 -26 -23q-11 0 -20 7q-9 -3 -10 -3q-14 1 -26 11q-9 8 -9 18z" />
<glyph unicode="&#xf6;" d="M133 449q0 109 40 195q41 88 108 149q66 60 157 95q89 34 193 34q17 0 31 -2q30 0 59 -9q5 0 7 1t7 1q84 -17 150 -58q67 -42 115 -103t75 -140q27 -78 27 -163q0 -104 -38 -191q-37 -85 -102 -148q-65 -64 -153 -98q-90 -35 -188 -35h-7q-102 0 -192 35q-88 34 -153 98 q-64 63 -100 148q-36 86 -36 191zM264 453q0 -81 27 -148t74 -117q46 -49 111 -76q67 -28 140 -28q74 0 142 28q64 26 111 76q45 48 73 116q27 66 27 145q0 81 -27 150q-26 67 -74 118q-47 50 -111 77q-65 27 -141 27h-2q-78 -1 -141 -30q-65 -29 -111 -77q-46 -47 -72 -115 q-26 -67 -26 -142v-4zM293 1182q0 42 33 75t73 33q43 -4 72 -33t33 -69q0 -51 -31 -82t-78 -31q-41 0 -71 32q-31 33 -31 75zM735 1178q0 46 30 78t79 32q41 -5 71 -36q31 -33 31 -76t-35 -73t-73 -30q-44 0 -71 32t-32 73z" />
<glyph unicode="&#xf7;" horiz-adv-x="1228" d="M129 578q0 59 74 59h823q74 0 74 -59q0 -60 -74 -60h-823q-74 0 -74 60zM496 154q0 48 34 83t84 35q52 0 86 -34q35 -35 35 -86q0 -50 -36 -84q-37 -35 -85 -35q-49 0 -84 35q-34 34 -34 86zM496 1006q0 48 34 83t84 35q52 0 86 -34q35 -35 35 -86q0 -50 -36 -84 q-37 -35 -85 -35q-49 0 -84 35q-34 34 -34 86z" />
<glyph unicode="&#xf8;" d="M131 453q0 105 39 194t104 151q64 61 154 96q87 34 186 34h13q143 0 258 -74q11 13 32 40q7 9 21 26.5t16 19.5q11 14 35 40q16 18 29 24q18 -4 38 -14q16 -8 29 -32q-4 -11 -16 -29q-5 -7 -31 -40q-12 -15 -38 -47q-9 -10 -35 -49q63 -63 102 -152q37 -84 37 -190 q0 -105 -38 -195q-37 -87 -104 -151q-62 -59 -156 -96q-87 -34 -190 -34q-143 0 -270 76q-2 -2 -16 -19.5t-21 -26.5q-12 -16 -36 -44t-32 -36q-14 -14 -28 -21q-50 5 -68 45q6 17 43 58q30 34 80 106q-137 137 -137 340zM258 455q0 -145 90 -246q30 36 109.5 130.5 t122.5 145.5q43 52 123.5 149.5t107.5 129.5q-90 57 -193 57q-77 0 -143 -27q-65 -27 -114 -77q-48 -49 -75 -116q-28 -68 -28 -146zM422 143q87 -59 194 -59q77 0 145 28t115 76q48 49 75 116q28 68 28 147q0 74 -26 138q-25 62 -66 109q-101 -130 -235 -286 q-40 -47 -116.5 -137t-113.5 -132z" />
<glyph unicode="&#xf9;" d="M66 846q0 33 43 43q37 9 92 14h14q8 1 21 2.5t18 1.5q24 2 39 2q40 0 52 -16q11 -15 11 -62v-159q0 -102 -1 -157t-1 -161v-30q0 -108 41 -170q41 -63 137 -64h11q111 0 195 56t134 149v498q-32 -5 -54 -5q-16 0 -54 -2h-10q-24 0 -43 11t-19 34q0 49 64 64q59 14 184 14 h2q2 0 4 -2h4q35 0 41 -17q6 -18 6 -48v-733h78q43 0 58 -18q14 -17 14 -46q-5 -17 -21 -26q-15 -8 -42 -13q-18 -3 -55 -5q-20 -1 -60 -1h-34q-17 0 -28 4q-26 16 -29 49q-4 44 -4 76q-155 -149 -346 -149q-166 0 -232 90q-67 91 -67 260v47q0 139 1 208t1 208 q-16 0 -48 -2l-24 -3t-24 -2h-2q-34 0 -51 20q-16 19 -16 40zM305 1307q5 14 32 36q25 20 54 25q11 0 23 -6q49 -31 97 -68q81 -62 95 -73q40 -33 82 -72q35 -32 55 -64q-15 -32 -53 -38q-12 0 -45 15q-35 16 -74 39q-45 27 -86 54q-37 25 -84 59q-24 17 -65 54 q-26 23 -31 39z" />
<glyph unicode="&#xfa;" d="M74 836q0 23 18 38t49 23q34 9 72 10q54 2 84 2q36 0 48 -15q11 -14 11 -52v-174q0 -94 -1 -147t-1 -154q0 -69 7 -117q7 -50 29 -87q21 -35 57 -55q37 -20 96 -20q103 0 189 52q87 53 140 155v498q-70 -7 -118 -7q-24 0 -44 10q-18 9 -18 31q0 42 45 54q40 11 144 28h49 q53 0 60 -19q7 -18 7 -61v-720h35q13 0 37 2q42 0 60 -18t18 -48q-2 -19 -20 -28q-17 -8 -43 -13q-23 -4 -56 -4h-61h-41q-33 1 -42 23q-11 25 -12 53q0 16 1 25t1 28q-81 -77 -162 -112q-84 -37 -182 -37h-6q-159 0 -227 86t-68 256v6v57v205q0 67 2 203q-30 -2 -44 -3 q-7 0 -21.5 -1.5t-22.5 -2.5h-2q-36 0 -52 16q-15 15 -15 34zM424 1090q0 1 25 27q27 29 56 54q8 7 34 30t41 36q44 37 79 63q46 34 72 49q32 19 51 19q28 0 43 -21q17 -23 39 -40q-10 -15 -18 -30t-27 -28q-12 -7 -40 -25t-45 -28q-62 -38 -93 -56q-10 -6 -41.5 -25 t-48.5 -28q-39 -21 -76 -40l-8 4q-1 1 -7 4.5t-10 5.5q-15 10 -18 13q-8 8 -8 16z" />
<glyph unicode="&#xfb;" d="M63 842q0 17 14 29q13 12 35 18q23 7 46 8q26 2 49 6h12q7 1 20.5 2.5t19.5 1.5q26 2 36 2q37 0 48 -14t11 -53v-506q1 -120 43 -185q41 -63 152 -63q109 0 192 57q82 56 129 148v498q-8 0 -17 -0.5t-19.5 -1.5t-16.5 -1q-36 -2 -55 -2q-24 0 -49 7q-21 6 -21 34 q0 27 42 54q40 26 124 26h43q2 0 2 2h37q27 -5 34 -8q12 -4 16 -13q5 -10 5 -24v-37v-718h74q45 0 61 -18q17 -19 17 -46q-7 -33 -58 -39q-49 -6 -106 -6h-39q-20 0 -35 4q-28 16 -31 50q-4 46 -4 75q-156 -149 -346 -149q-167 0 -233 90t-66 260v463q-54 -7 -98 -7 q-36 0 -52 16t-16 40zM268 1077q6 18 46 64q32 37 88 88q45 41 105 81q55 37 95 44q25 -12 73 -47t99 -78q57 -48 92 -85q41 -43 47 -69q-16 -31 -43 -37q-22 0 -60 22q-27 16 -76 52q-7 5 -78 62q-43 35 -66 49q-66 -43 -121 -88t-121 -88q-4 0 -5 -1q-2 -2 -5 -2 q-2 0 -2 2q0 1 -2 1q-13 -9 -25 -9q-35 5 -41 39z" />
<glyph unicode="&#xfc;" d="M68 846q0 19 22 31t56 19q31 7 73 10q39 3 72 3q47 0 55 -18q8 -19 8 -62v-493q2 -118 42 -183q41 -65 145 -65q110 0 195 55q84 55 134 150v498q-1 0 -52 -3q-34 -2 -54 -2h-10q-23 0 -43 10q-19 10 -19 31t19 37t47 23t66 12q13 2 40 4.5t39 3.5h2q3 0 4 1t4 1h2l5 -4 q14 2 30 2q38 0 42 -21q5 -23 5 -59v-718h72q44 0 61 -17t17 -47q-7 -33 -57 -39t-101 -6h-43q-23 0 -39 4q-29 17 -30 50q-3 69 -3 75q-156 -149 -346 -149q-167 0 -233 90t-66 260v463q-54 -7 -94 -7q-34 0 -51 19q-16 17 -16 41zM262 1180q10 38 36 73t73 35 q41 -5 69 -31q29 -28 35 -65v-6q0 -47 -29 -79q-29 -33 -75 -34h-4q-42 5 -71 34q-30 29 -34 73zM707 1169q0 48 28 82q29 35 80 35q42 -4 73 -35q30 -30 30 -75q0 -46 -33 -74q-34 -29 -74 -29q-38 0 -72 31q-32 29 -32 65z" />
<glyph unicode="&#xfd;" d="M80 850q0 32 19 44q18 11 61 11h264q70 -2 70 -49q0 -35 -21 -47t-59 -12h-78q131 -284 301 -633q121 268 142 316q61 138 145 317h-86q-41 0 -59 9q-16 8 -21 32q0 33 16 48q16 14 57 19h244q47 0 64 -15q16 -15 16 -44q0 -18 -31 -34q-30 -15 -71 -15q-31 -41 -58 -103 q-26 -60 -63 -139q-108 -238 -181 -392q-34 -71 -171 -364q21 -10 47 -18q24 -7 30 -25q0 -24 -22 -47q-24 -25 -39 -35v-4q0 -18 -37 -30q-47 -15 -86 -21q-51 -8 -98 -12q-44 -4 -74 -4q-29 0 -60 3q-30 3 -59 11q-23 6 -44 24q-17 14 -17 40q0 29 18 54t45 25 q41 0 83 -15q39 -14 73 -19q31 7 62 35q28 26 59 69q25 36 55 92q12 22 53 107q-13 25 -24 49q-5 11 -13.5 29t-9.5 20q-71 148 -162 334q-22 45 -77.5 158.5t-85.5 175.5q-55 0 -85 10q-32 11 -32 45zM489 1090q5 12 45 49q34 32 89 75q74 59 105 82q63 47 93 68q8 2 17 2 q29 0 57 -16q30 -17 37 -45q-7 -19 -33 -39v-2q-2 -5 -8 -10q-8 -6 -12 -7q-12 -8 -38.5 -24.5t-38.5 -24.5q-38 -25 -85 -52q-7 -4 -38 -22.5t-47 -27.5q-6 -4 -34 -20t-41 -23q-6 2 -8 2q-4 0 -8 4l-6 -3q-1 -1 -7 -1q-11 1 -21 13q-3 4 -9 11t-9 11z" />
<glyph unicode="&#xfe;" d="M55 1221q0 45 30 53q32 8 77 8h2q35 0 65 3t56 3q35 0 43 -6q7 -6 12 -31q10 -35 12 -93q2 -78 2 -124q0 -82 -1 -122t-1 -113q56 59 130 85q71 25 151 25q2 1 9 5.5t11 6.5q12 5 27 5q98 0 179 -36q83 -37 138 -98q59 -65 88 -147q31 -87 31 -178q0 -107 -37 -191 q-38 -87 -98 -147t-142 -95q-80 -34 -171 -34q-99 0 -174 34q-77 35 -144 103q0 -139 1 -209t1 -211h135q45 0 76 -10q33 -11 33 -45q0 -44 -26 -49q-23 -4 -64 -4h-193q-46 0 -71 -1t-72 -1q-42 0 -70 7q-30 8 -30 38q0 65 82 65h75v1461q-31 0 -47 -1t-47 -1h-6 q-32 1 -50 15q-17 13 -22 30zM350 463q0 -170 79 -261t226 -91q72 0 132 27q58 26 104 75q42 45 67 112t25 136v18q-2 22 -3 32q-2 20 -5 30v4q-22 111 -105 188q-82 76 -202 76q-68 0 -125 -23q-58 -24 -97 -61q-41 -40 -65 -90q-25 -53 -31 -109q0 -2 1 -2t1 -4 q-2 -16 -2 -26v-31z" />
<glyph unicode="&#xff;" d="M80 846q0 35 21 47t59 12h264q66 -6 74 -47q-1 -39 -27 -52q-22 -11 -57 -11h-78q23 -47 74 -156t78 -165q100 -208 149 -310q138 306 142 315q63 142 145 316h-86q-80 0 -80 45q0 36 19 51q18 14 79 14h217q37 -1 59 -11q21 -9 21 -40q0 -13 -9 -25q-7 -10 -23 -22 q-9 -7 -25 -17q-13 -8 -19 -8q-19 -25 -31 -39q-21 -24 -32 -38q-16 -23 -36 -57q-23 -42 -44 -89q-77 -172 -182 -394q-131 -277 -172 -366q21 -10 47 -18q24 -7 30 -25q0 -23 -22 -49q-23 -27 -41 -35v-4q-7 -14 -41 -27q-33 -12 -75 -21q-37 -8 -86 -13q-39 -4 -75 -4 q-35 0 -66 4q-39 5 -63 14q-28 11 -48 27q-19 16 -21 41q0 4 5 17q3 9 14 23q4 5 22 21q12 11 28 12q43 -2 82 -16q33 -12 68 -20v-2q71 29 121 109q49 77 108 196q-27 57 -58 121t-68 141.5t-58 120.5q-101 211 -186 383q-62 0 -89 9q-28 9 -28 42zM297 1167q0 5 2 7v10 q0 44 32 74q31 30 72 30q42 -5 70 -31q29 -28 35 -65v-10q0 -42 -27 -72q-28 -31 -65 -37h-17q-38 4 -68 30q-30 25 -34 64zM737 1180q0 40 33 74t78 34q52 -5 74 -37t28 -73q-5 -48 -36 -76q-32 -29 -74 -29t-72 33q-31 34 -31 74z" />
<glyph unicode="&#x152;" d="M41 610v56q10 278 127 417q117 140 313 152h41q19 -3 60 -5t61 -5v6h43h410h25q8 0 22 -2q16 -20 19 -71q3 -50 3 -111q0 -38 1 -58q2 -30 -3 -57t-17 -44q-14 -18 -42 -18q-27 0 -36 18q-10 19 -11 50v14q-6 60 -6 96q0 34 -17 68q-40 5 -95 7q-33 1 -103 1h-117v-430 h108q33 0 39 18q8 23 10 39q3 23 14 39q11 17 54 17q22 0 34 -21q11 -19 11 -49v-184q0 -57 -35 -68q-18 0 -20 19q-8 -8 -19 -8q-22 1 -24 17q-1 8 -5 33q-3 16 -17 32q-13 14 -58 14h-92v-488h172q81 0 174 7q11 38 12 80q1 16 2.5 43t1.5 38q1 33 10 64q7 27 31 31 q39 0 54 -18q14 -17 14 -60q0 -86 -1 -124q-2 -72 -5 -106q-5 -41 -16 -50q-12 -9 -48 -9h-41h-239h-197v6q-16 -3 -50 -7q-25 -3 -52 -3q-116 0 -210 35t-158 108q-63 72 -98 191q-34 115 -34 280zM168 604q0 -97 17 -183q18 -94 58 -164q42 -75 103 -117q64 -44 158 -44 q47 0 86 17q4 40 6 94q2 70 2 106v465q0 73 -2 185q-1 74 -8 159q-23 6 -47 6h-11q-10 2 -22 2q-93 0 -158 -37q-63 -36 -105 -107q-41 -70 -59 -166q-18 -98 -18 -216z" />
<glyph unicode="&#x153;" horiz-adv-x="1228" d="M6 434q0 94 27 179q28 89 71 149q45 63 106 101t128 38q84 0 155 -55q73 -56 119 -154q55 117 121 162q68 47 150 47q48 0 102 -22q56 -23 104 -80q47 -55 79 -157q32 -101 32 -253h-526q6 -71 28 -128q21 -53 55 -101q31 -43 72 -67q39 -23 84 -23q49 0 87 27 q37 27 67 55q16 14 39 31q19 14 37 14q22 0 41 -19q18 -18 18 -41q0 -17 -27 -48t-70 -62q-47 -33 -94 -55q-50 -23 -102 -23q-90 0 -169 58q-78 57 -128 159q-46 -103 -117 -161q-69 -56 -155 -56q-68 0 -128 39q-61 40 -107 105q-44 62 -72 155q-27 88 -27 186zM127 426 q0 -75 17 -136q19 -68 47 -114q30 -50 69 -78q38 -28 82 -28q42 0 80 28q37 27 68 78q30 49 48 113q17 59 17 133q0 75 -17 137q-18 67 -46 115q-28 50 -69 78q-40 28 -83 28q-44 0 -81 -28q-38 -29 -68 -78q-28 -46 -47 -114q-17 -61 -17 -134zM676 510h401q-8 49 -17 87 q-12 47 -33 88t-57 68t-91 27q-84 0 -133 -64t-70 -206zM1077 510q0 -13 2 -21l19 21h-21z" />
<glyph unicode="&#x178;" horiz-adv-x="1228" d="M86 1112q0 59 74 59h227q74 0 74 -59q0 -61 -74 -61h-45q72 -107 138 -204q74 -109 138 -208q11 17 136 206l137 206h-47q-76 0 -76 61q0 59 76 59h225q35 0 54 -16q20 -17 20 -43q0 -28 -21 -45q-20 -16 -53 -16h-37q-118 -180 -177 -269q-118 -178 -177 -268v-412h196 q74 0 74 -59q0 -61 -74 -61h-514q-73 0 -73 61q0 59 73 59h197v412q-107 157 -180 268q-104 156 -180 269h-37q-74 0 -74 61zM268 1376q0 49 36 85t85 36q51 0 86 -36q35 -37 35 -87q0 -47 -36 -83t-85 -36t-85 36t-36 85zM721 1376q0 49 36 85t85 36q52 0 86 -36 q35 -37 35 -87q0 -47 -36 -83t-85 -36t-85 36t-36 85z" />
<glyph unicode="&#x2c6;" horiz-adv-x="1228" d="M299 1044q0 20 8 30q5 6 25 26l282 233l283 -231q21 -17 27 -28q6 -12 6 -30q0 -24 -18 -42q-17 -17 -42 -17q-19 0 -49 21l-207 170q-35 -29 -105 -85q-54 -43 -103 -85q-30 -21 -48 -21q-25 0 -42 17t-17 42z" />
<glyph unicode="&#x2dc;" horiz-adv-x="1228" d="M279 1102q0 21 20 47q21 27 51 51q31 25 68 41q36 16 71 16q42 0 81 -19q40 -19 77 -40q19 -11 53 -28q22 -11 41 -11q25 0 46 18q35 30 40 35q17 17 32 29t32 12q24 0 41 -17q18 -18 18 -42q0 -17 -19 -42q-20 -27 -49 -51q-32 -27 -67 -44q-40 -19 -70 -19 q-38 0 -83 21q-50 23 -80 39q-8 5 -50 26q-26 13 -40 13q-32 0 -51 -16q-12 -10 -31 -31q-17 -18 -32 -32q-16 -14 -40 -14q-23 0 -42 17q-17 16 -17 41z" />
<glyph unicode="&#x2000;" horiz-adv-x="840" />
<glyph unicode="&#x2001;" horiz-adv-x="1681" />
<glyph unicode="&#x2002;" horiz-adv-x="840" />
<glyph unicode="&#x2003;" horiz-adv-x="1681" />
<glyph unicode="&#x2004;" horiz-adv-x="560" />
<glyph unicode="&#x2005;" horiz-adv-x="420" />
<glyph unicode="&#x2006;" horiz-adv-x="280" />
<glyph unicode="&#x2007;" horiz-adv-x="280" />
<glyph unicode="&#x2008;" horiz-adv-x="210" />
<glyph unicode="&#x2009;" horiz-adv-x="336" />
<glyph unicode="&#x200a;" horiz-adv-x="93" />
<glyph unicode="&#x2010;" horiz-adv-x="1228" d="M129 571q0 60 74 60h823q74 0 74 -60q0 -61 -74 -61h-823q-74 0 -74 61z" />
<glyph unicode="&#x2011;" horiz-adv-x="1228" d="M129 571q0 60 74 60h823q74 0 74 -60q0 -61 -74 -61h-823q-74 0 -74 61z" />
<glyph unicode="&#x2012;" horiz-adv-x="1228" d="M129 571q0 60 74 60h823q74 0 74 -60q0 -61 -74 -61h-823q-74 0 -74 61z" />
<glyph unicode="&#x2013;" horiz-adv-x="1228" d="M129 578q0 59 74 59h823q74 0 74 -59q0 -62 -74 -62h-823q-74 0 -74 62z" />
<glyph unicode="&#x2014;" horiz-adv-x="1228" d="M-16 578q0 59 73 59h1114q74 0 74 -59q0 -62 -74 -62h-1114q-73 0 -73 62z" />
<glyph unicode="&#x2018;" horiz-adv-x="1228" d="M473 737v187l201 331q34 54 80 54h13q5 0 11 -2h-2q55 -12 55 -70q0 -12 -4 -27l-92 -299q4 -37 9 -89q2 -28 10 -85h-281z" />
<glyph unicode="&#x2019;" horiz-adv-x="1228" d="M395 756q0 9 4 24l93 301q-9 78 -10 89q-5 53 -9 85h281v-186l-201 -332q-33 -53 -80 -53q-16 0 -24 2h2q-56 12 -56 70z" />
<glyph unicode="&#x201a;" horiz-adv-x="1228" d="M260 -254q0 10 4 25l92 301q-4 37 -9 89q-5 53 -9 85h280v-187l-200 -331q-34 -54 -80 -54q-17 0 -25 2h2q-55 12 -55 70z" />
<glyph unicode="&#x201c;" horiz-adv-x="1228" d="M117 737v187l200 331q34 54 80 54h14q5 0 11 -2h-2q55 -12 55 -70q0 -12 -4 -27l-92 -299q4 -37 9 -89q5 -53 9 -85h-280zM567 737v187l201 331q34 54 80 54h13q5 0 11 -2h-2q56 -12 56 -70q0 -12 -4 -27l-93 -299q9 -78 10 -89q5 -53 9 -85h-281z" />
<glyph unicode="&#x201d;" horiz-adv-x="1228" d="M174 756q0 9 4 24l92 301q-4 37 -9 89q-5 53 -9 85h280v-186l-200 -332q-33 -53 -80 -53q-17 0 -25 2h2q-55 12 -55 70zM610 756q0 9 4 24l93 301q-9 78 -10 89q-5 53 -9 85h281v-186l-201 -332q-33 -53 -80 -53q-16 0 -24 2h2q-56 12 -56 70z" />
<glyph unicode="&#x201e;" horiz-adv-x="1228" d="M160 -219q0 9 4 24l92 301q-4 33 -9 90q-5 53 -9 85h280v-187l-201 -332q-33 -53 -79 -53q-17 0 -25 2h2q-55 12 -55 70zM616 -219q0 6 5 24l92 301q-9 74 -10 90q-5 53 -9 85h281v-187l-201 -332q-33 -53 -80 -53q-16 0 -24 2h2q-56 12 -56 70z" />
<glyph unicode="&#x2022;" horiz-adv-x="1228" d="M395 492q0 45 18 85t47 68t70 46q40 18 88 18q42 0 83 -18q42 -19 69 -47q28 -29 46 -70q18 -40 18 -85t-18 -85t-47 -69t-70 -47t-85 -18t-85 18q-40 18 -69 47t-47 69t-18 88z" />
<glyph unicode="&#x2026;" horiz-adv-x="1228" d="M86 70q0 51 35 86q34 34 84 34q52 0 86 -34q35 -35 35 -86q0 -50 -36 -84q-37 -35 -83 -35q-51 0 -86 35t-35 84zM494 70q0 50 34 85t84 35q52 0 86 -34q35 -35 35 -86q0 -50 -36 -84q-37 -35 -85 -35q-49 0 -84 35q-34 34 -34 84zM903 72q0 50 36 84q35 34 85 34t84 -34 q35 -35 35 -86q0 -50 -36 -84q-37 -35 -83 -35q-51 0 -86 35t-35 86z" />
<glyph unicode="&#x202f;" horiz-adv-x="336" />
<glyph unicode="&#x2039;" horiz-adv-x="1228" d="M102 428l441 418v-2q28 28 55 28q25 0 42 -17t17 -42q0 -17 -6 -27q-6 -11 -20 -26q-19 -23 -68 -79t-74 -86q-32 -38 -141 -167q55 -64 141 -167q46 -55 142 -167q17 -18 21 -27q5 -10 5 -26q0 -25 -17 -42t-42 -17q-26 0 -55 26z" />
<glyph unicode="&#x203a;" horiz-adv-x="1228" d="M582 41q0 16 5 26q5 9 21 27q72 84 141 165q26 31 74.5 88.5t65.5 78.5q-14 16 -140 167q-86 103 -141 167q-14 15 -20 26q-6 10 -6 27q0 25 17 42t42 17q26 0 55 -26l439 -420l-439 -418v2q-28 -28 -55 -28q-25 0 -42 17t-17 42z" />
<glyph unicode="&#x205f;" horiz-adv-x="420" />
<glyph unicode="&#x20ac;" horiz-adv-x="1228" d="M47 483q0 29 14 42q16 14 50 14h43v86h-43q-35 0 -50 12q-14 11 -14 45q0 29 13 42t51 13h49q15 104 59 185q44 82 113 145q68 61 153 96q87 35 183 35q92 0 183 -27q93 -28 144 -71v6q12 61 60 61q20 0 41 -12q20 -11 20 -49v-12q0 -7 -2 -15q-15 -68 -23 -96 q-13 -49 -24 -96q-15 -60 -61 -60q-15 0 -39 13q-23 12 -23 49q0 6 1 10t1 10q2 10 2 23q0 32 -21 59q-19 25 -60 46q-37 19 -89 30q-49 10 -110 10q-71 0 -134 -24q-61 -23 -114 -70q-52 -46 -87 -107t-50 -139h591q36 0 49 -13t13 -42q0 -33 -13 -45q-14 -12 -49 -12h-600 v-86h541q34 0 48 -14t14 -42q0 -33 -15 -45t-47 -12h-530q18 -75 57 -140q40 -66 94 -113q58 -50 123 -76q67 -27 143 -27q64 0 111 12t81 30q37 19 56 37q22 21 39 39q16 16 36 34q16 14 34 14q26 0 43 -17q16 -16 16 -41q0 -18 -26 -54q-28 -39 -79 -77q-53 -39 -130 -69 q-75 -29 -181 -29q-96 0 -189 38q-91 37 -165 102q-75 66 -124 152t-64 185h-49q-35 0 -50 12q-14 11 -14 45z" />
<glyph unicode="&#x2122;" d="M51 1079v19v65q0 23 2 47q1 18 9 30q6 10 24 15t47 5h356q14 -1 28 -8q9 -4 12 -12t3 -16q0 -3 0.5 -6t1.5 -7.5t1 -6.5v-135q0 -9 -20 -20t-34 -11q-22 6 -24 28q-1 21 -3 45q-1 21 -10 42q-8 18 -43 18h-61v-399v-43q44 -10 67 -14q33 -6 33 -33t-14 -37 q-13 -9 -35 -14h-160q-10 0 -25 3t-30 9q-14 6 -24 17q-11 13 -11 28q6 23 37 25q32 2 64 6v450h-47h-24q-7 0 -21 -2q-7 -20 -11 -40q-6 -28 -9 -40q-4 -16 -12 -32t-22 -17q-20 0 -34 9q-11 7 -11 32zM584 680q4 15 19 25q13 9 32 16v47q0 136 1 203t3 203q-16 6 -25 9 q-10 3 -14 13q0 8 1 12t1 11v6q0 18 16 27q18 10 41 10q47 0 67 -11q6 -3 42 -20q29 -57 62 -149q30 -82 57 -156q24 69 51 138q12 31 53 140q15 39 37 48q25 10 74 10q24 0 51 -9q23 -8 23 -43q-4 -28 -43 -32v-50q0 -68 2 -202t2 -205q24 -14 32 -18q15 -7 19 -23 q0 -28 -12 -39q-11 -10 -41 -10h-78q-33 0 -59 8q-23 7 -23 41q0 29 19 29q21 0 48 10v387q-11 -30 -34 -99q-19 -56 -39 -101q-22 -48 -42 -77q-21 -30 -46 -30q-22 0 -45 35q-22 34 -42 84q-20 52 -36 100q-12 39 -29 84h-2q0 -128 -1 -191t-1 -192q26 -7 49 -20 q21 -12 21 -35q-11 -33 -62 -33h-57q-4 0 -5 -1t-3 -1h-29q-26 0 -40 11q-15 12 -15 40z" />
<glyph unicode="&#x25fc;" horiz-adv-x="901" d="M0 0v901h901v-901h-901z" />
<glyph unicode="&#xfb01;" horiz-adv-x="1228" d="M139 43q0 59 74 59h152v650h-140q-73 0 -73 61q0 59 73 59h140v103q0 57 18 108q19 53 51 91q33 39 76 60q44 21 92 21q15 0 46 -4q40 -5 69 -14q37 -11 62 -28q28 -19 28 -44t-16 -42t-41 -17q-13 0 -21 2l-18 6q-6 2 -23.5 6t-27.5 7q-29 8 -56 8q-51 0 -85 -46 t-34 -114v-103h355v-770h135q74 0 74 -59q0 -61 -74 -61h-762q-74 0 -74 61zM485 102h234v650h-234v-650z" />
<glyph unicode="&#xfb02;" horiz-adv-x="1228" d="M127 43q0 59 74 59h151v650h-139q-74 0 -74 61q0 59 74 59h139v103q0 54 19 108q19 53 51 91q33 39 76 60t92 21h282v-1153h140q73 0 73 -59q0 -61 -73 -61h-811q-74 0 -74 61zM473 102h279v1033h-162q-49 0 -83 -46t-34 -114v-103h129q74 0 74 -59q0 -61 -74 -61h-129 v-650z" />
<glyph unicode="&#xfb03;" horiz-adv-x="1228" d="M20 43q0 59 74 59h117v650h-105q-73 0 -73 61q0 59 73 59h105v103q0 57 18 108t52 91t75 60q44 21 93 21q75 0 106 -10q33 -11 33 -53q0 -23 -17 -42q-16 -17 -41 -17h-16q-12 0 -20 1t-43 1q-51 0 -85 -46t-34 -114v-103h262v103q0 57 18 108t52 91t75 60q43 21 92 21 q16 0 47 -4q39 -5 68 -14q39 -12 63 -28q27 -18 27 -44q0 -25 -16 -42t-41 -17q-13 0 -21 2l-18 6q-5 1 -22.5 5.5t-27.5 7.5q-29 8 -56 8q-51 0 -85 -46t-34 -114v-103h354v-770h70q73 0 73 -59q0 -61 -73 -61h-1045q-74 0 -74 61zM332 102h262v650h-262v-650zM715 102h233 v650h-233v-650z" />
<glyph unicode="&#xfb04;" horiz-adv-x="1228" d="M2 43q0 59 74 59h94v650h-82q-74 0 -74 61q0 59 74 59h82v103q0 57 18 108t52 91t75 60q43 21 93 21q75 0 106 -10q33 -11 33 -53q0 -23 -17 -42q-16 -17 -41 -17h-16q-12 0 -20 1t-43 1q-51 0 -85 -46t-34 -114v-103h262v103q0 57 18 108t52 91t75 60q44 21 93 21h282 v-1153h80q74 0 74 -59q0 -61 -74 -61h-1077q-74 0 -74 61zM291 102h262v650h-262v-650zM674 102h278v1033h-159q-51 0 -85 -46t-34 -114v-103h129q74 0 74 -59q0 -61 -74 -61h-129v-650z" />
</font>
</defs>
</svg>
