<?xml version="1.0" encoding="UTF-8"?>
<svg id="Layer_1" xmlns="http://www.w3.org/2000/svg" viewBox="0 0 758.57 431.96"><defs><style>.cls-1{fill:#282f64;}</style></defs><path class="cls-1" d="M179.64,337.62v94.34h-37.95c-.04-.4-.12-.76-.12-1.13,0-84.06,0-168.11,0-252.17,0-5.25,1.3-10.02,4.79-14.09,4.64-5.42,12.65-8.57,20.28-5.79,7.84,2.86,12.36,8.46,13.22,16.87,.04,.41,.17,.82,.34,1.56,1.78-1.63,3.36-3.05,4.91-4.5,5.51-5.17,11.45-9.77,18.09-13.37,4.3-2.34,8.63-4.75,13.2-6.45,5.23-1.94,10.69-3.35,16.15-4.57,4.18-.94,8.5-1.41,12.78-1.77,7.33-.62,14.69-.29,21.93,.9,6.54,1.08,13.03,2.54,19.44,4.24,6.85,1.82,13.29,4.77,19.53,8.11,6.65,3.56,12.83,7.85,18.56,12.76,9.4,8.06,17.07,17.52,23.25,28.25,4.6,7.98,7.97,16.43,10.47,25.24,2.26,7.96,3.47,16.12,4.05,24.39,.59,8.53,.36,17.03-1.22,25.4-1.23,6.57-2.72,13.14-4.8,19.48-3.8,11.6-9.62,22.19-17.17,31.84-6.15,7.86-13.14,14.88-21.03,20.97-9.81,7.56-20.67,13.07-32.64,16.4-7.92,2.2-15.96,3.6-24.15,3.87-6.15,.21-12.34,.24-18.46-.25-9.73-.79-19.14-3.16-28.23-6.85-10.49-4.26-19.79-10.36-28.33-17.69-1.83-1.58-3.43-3.42-5.18-5.09-.36-.35-.92-.49-1.72-.9Zm143.77-79.26c-.21-2.81-.31-5.64-.66-8.43-.45-3.6-1.02-7.19-1.71-10.76-1.15-5.99-3.25-11.72-6.1-17.04-2.46-4.6-5.45-9-8.7-13.09-2.93-3.69-6.32-7.09-9.89-10.17-4.46-3.85-9.4-7.14-14.9-9.41-4.35-1.79-8.71-3.66-13.23-4.89-5.03-1.37-10.22-2.14-15.49-2.16-5.69-.02-11.33,.15-16.93,1.45-7.65,1.77-14.79,4.76-21.45,8.81-7.02,4.28-13.05,9.78-18.4,16.06-5.22,6.13-9.26,12.94-12.32,20.33-2.38,5.74-4.12,11.74-4.69,17.9-.51,5.51-.29,11.11-.05,16.66,.26,6.11,1.74,12.03,3.68,17.81,2.62,7.81,6.5,14.97,11.43,21.6,4.75,6.38,10.37,11.87,16.86,16.36,3.72,2.58,7.83,4.64,11.91,6.65,6.08,2.99,12.61,4.75,19.3,5.38,7.56,.71,15.14,.61,22.68-.92,8.39-1.7,16.24-4.8,23.53-9.14,6.85-4.08,12.75-9.4,17.91-15.53,4.27-5.06,7.8-10.56,10.53-16.59,4.46-9.82,6.61-20.11,6.67-30.9Z"/><path class="cls-1" d="M416.57,177.29c1.47-1.29,2.69-2.25,3.78-3.34,5.41-5.41,11.49-9.95,18.03-13.89,6.2-3.73,12.73-6.7,19.65-8.91,7.12-2.27,14.35-3.69,21.8-4.33,9.41-.81,18.69-.14,27.99,1.36,7.83,1.26,15.42,3.29,22.77,6.14,10.77,4.18,20.62,9.99,29.53,17.36,8.82,7.3,16.2,15.88,22.23,25.6,4.59,7.4,8.22,15.26,10.94,23.54,2.44,7.44,4.32,15,4.92,22.81,.44,5.7,.9,11.41,.92,17.11,.03,7.73-1.08,15.36-2.8,22.91-1.5,6.6-3.57,12.99-6.18,19.22-2.73,6.51-6.2,12.62-10.08,18.51-4.32,6.54-9.43,12.43-15.01,17.87-5.95,5.8-12.41,10.99-19.62,15.27-5.93,3.52-12.08,6.45-18.59,8.64-6.95,2.33-14.06,4.1-21.41,4.6-6.41,.44-12.85,1.07-19.26,.88-5.86-.18-11.71-1.26-17.54-2.11-6.65-.97-13-3.15-19.08-5.87-5.14-2.3-10.09-5.13-14.89-8.11-6.4-3.97-12.1-8.87-17.38-14.25-.28-.28-.65-.47-1.33-.95v94.54h-37.96c0-.7,0-1.34,0-1.99,0-84.38-.02-168.76,.04-253.14,0-7.82,5.57-15.31,13.19-17.84,7.46-2.47,13.78-.53,19.28,4.45,3.36,3.04,5.24,7.1,5.72,11.7,.06,.58,.18,1.16,.35,2.21Zm-1.69,81.73c.21,2.52,.28,5.88,.82,9.16,1.19,7.22,3.25,14.18,6.28,20.88,3.73,8.24,8.84,15.53,15.15,21.89,5.08,5.13,10.84,9.49,17.3,12.91,7.38,3.91,15.16,6.58,23.39,7.6,6.49,.8,13.05,.67,19.59-.28,7.49-1.08,14.63-3.25,21.39-6.58,9.18-4.53,17.09-10.69,23.71-18.56,4.6-5.47,8.38-11.41,11.2-17.93,3.29-7.6,5.4-15.59,5.77-23.86,.25-5.55-.13-11.15-.66-16.69-.38-4.02-1.27-8.03-2.3-11.95-2.54-9.72-7.2-18.47-13.44-26.26-3.14-3.92-6.91-7.41-10.73-10.69-5.44-4.67-11.57-8.39-18.33-10.86-4.12-1.51-8.34-2.8-12.6-3.85-3.18-.78-6.49-1.31-9.76-1.43-4.2-.14-8.45-.03-12.62,.48-4.19,.51-8.38,1.35-12.43,2.54-7.75,2.26-14.77,6.11-21.25,10.92-5.91,4.39-11.1,9.55-15.51,15.43-5.8,7.73-10.05,16.23-12.55,25.63-1.81,6.81-2.53,13.68-2.41,21.5Z"/><path class="cls-1" d="M123.15,329.81v38.6c-2.33,0-4.61,.15-6.85-.03-5.12-.42-10.25-.82-15.32-1.57-9.29-1.37-18.25-3.85-26.89-7.67-6.79-3-12.99-6.86-18.5-11.71-8.71-7.65-14.65-17.21-18.05-28.3-2.11-6.88-3.28-13.96-3.29-21.15-.06-33.67-.04-67.33-.04-101,0-2.4,0-2.41-2.34-2.41-4.68,.01-9.38,.28-14.04,0-6.46-.41-11.57-3.47-15.03-9.01-4.55-7.27-3.47-17.13,2.63-23.02,3.9-3.77,8.57-5.8,14.15-5.61,4.45,.15,8.92,.04,13.38,.03,.38,0,.75-.1,1.24-.17,0-.56,0-1.04,0-1.53,0-11.43-.04-22.85,.03-34.28,.03-5.42,1.82-10.28,5.41-14.38,5.33-6.09,14.15-8.48,21.77-5.79,7.83,2.77,13.57,9.64,13.95,18.07,.35,7.79,.23,15.59,.26,23.39,.02,4.23-.04,8.47-.12,12.7-.03,1.45,.42,2.03,2,2.02,9.42-.08,18.84-.02,28.26-.05,6.92-.02,14.46,5.31,16.86,11.82,2.88,7.8,1.23,14.64-4.45,20.45-3.29,3.36-7.49,5.28-12.28,5.32-9.31,.08-18.62,.03-27.92,.03-2.34,0-2.34,0-2.34,2.4,0,32.22-.01,64.43-.04,96.65,0,6.32,1.17,12.37,4.12,17.99,3.44,6.55,8.91,10.92,15.52,13.93,5.75,2.62,11.91,3.63,18.13,4.2,3.19,.3,6.43,.05,9.79,.05Z"/><path class="cls-1" d="M544.68,17.28c2.48-1.18,4.88-2.39,7.33-3.49,8.57-3.85,17.39-7.07,26.53-9.17,6.96-1.6,14.09-2.57,21.18-3.47,9.56-1.22,19.06-.33,28.54,1.22,7.21,1.18,14.2,3.12,20.98,5.73,7.04,2.71,13.75,6.13,20.13,10.2,7.33,4.68,14.05,10.07,20.16,16.25,1.5,1.52,2.89,3.14,4.39,4.78-13.64,11.75-24.75,25.28-34.4,40.06-9.64,14.76-17.64,30.36-24.13,47.1-7.02-55.91-37.24-92.08-90.72-109.2Z"/><path class="cls-1" d="M621.97,107.77c.93,4.33,2.08,8.62,2.75,12.98,1.33,8.68,2.52,17.39,3.46,26.12,.24,2.21-.61,4.57-1.16,6.81-2,8.03-4.27,16-6.1,24.08-2.59,11.43-4.98,22.91-7.25,34.41-1.18,5.99-1.93,12.07-2.87,18.11-.09,.59-.21,1.17-.35,1.94-3.77-25.65-14.6-47.58-32.6-66.16l44.14-58.29Z"/><path class="cls-1" d="M758.15,17.37c-1.98,0-3.97-.02-5.95,0-11.06,.1-21.79,2.08-32.08,6.11-5.82,2.28-11.47,4.98-17.16,7.58-1.23,.56-1.62-.35-2.18-.9-1.65-1.62-3.11-3.46-4.87-4.94-3.21-2.71-6.51-5.32-9.92-7.78-2.59-1.87-5.41-3.43-8.33-5.25,9.71-6.89,20.31-11.3,32.26-12.06,18.44-1.18,34.12,5.64,48.36,16.59,.21,.23,.58,.6-.13,.65Z"/></svg>